<?xml version="1.0" encoding="UTF-8"?>
<svg xmlns="http://www.w3.org/2000/svg" id="Layer_2" data-name="Layer 2" viewBox="0 0 122.92 11.7">
  <defs>
    <style>
      .cls-1 {
        fill: #fff;
      }
    </style>
  </defs>
  <g id="Layer_1-2" data-name="Layer 1">
    <g>
      <path class="cls-1" d="m31.43,6.65c-.01.11.05.18.08.26.61,1.38,1.22,2.75,1.82,4.13.06.13.13.26.17.42-.36.03-.7,0-1.04.01-.34,0-.69,0-1.02,0-.08-.07-.1-.16-.14-.24-.57-1.31-1.15-2.62-1.72-3.93-.04-.09-.08-.18-.12-.26-.21-.04-.4-.02-.6-.02-.2,0-.41,0-.61,0h-.59c-.2,0-.41,0-.61,0-.19,0-.39-.01-.6.01-.01.05-.03.1-.03.15,0,.21,0,.43,0,.64,0,1.12,0,2.24,0,3.36,0,.09,0,.18,0,.25-.02.02-.02.03-.03.03,0,0-.01,0-.02,0-.05,0-.1,0-.15,0-.54,0-1.08,0-1.62,0-.01,0-.03-.01-.04-.02,0,0-.01-.01-.02-.02,0,0,0-.02,0-.02,0-3.68,0-7.36,0-11.04,0-.03,0-.06.01-.1,0,0,0-.01.02-.02.07-.05.15-.03.23-.03.38,0,.77,0,1.15,0,1.2,0,2.4,0,3.61.01.36,0,.72,0,1.08.06.14.03.29.05.43.11,1.16.47,1.95,1.28,2.22,2.52.25,1.18-.04,2.22-.9,3.08-.23.23-.49.4-.78.55-.06.03-.11.06-.16.09Zm-5.01-1.54c.11,0,.19.01.27.01.48,0,.96,0,1.45,0,.54,0,1.08,0,1.62,0,.38,0,.73-.09,1.04-.31.81-.58.84-1.71.07-2.34-.3-.25-.66-.36-1.04-.37-1.08,0-2.16,0-3.24,0-.05,0-.09.01-.16.03,0,.99,0,1.96,0,2.97Z"></path>
      <path class="cls-1" d="m45.31,5.78c-.01.89-.09,1.71-.33,2.52-.1.33-.22.65-.38.96-.7,1.32-1.79,2.11-3.26,2.38-1.81.32-4.03-.66-4.84-2.74-.22-.57-.37-1.15-.45-1.75-.13-.97-.1-1.94.06-2.91.1-.6.27-1.18.54-1.72.66-1.31,1.72-2.11,3.15-2.41,2.16-.45,4.09.86,4.83,2.42.26.54.43,1.11.54,1.7.1.53.13,1.07.13,1.56Zm-7.37.1c.01.5.04,1.04.17,1.57.13.53.34,1.03.7,1.44.63.74,1.44.98,2.38.8.6-.12,1.06-.46,1.41-.95.25-.35.43-.74.53-1.15.29-1.16.29-2.33,0-3.49-.12-.46-.32-.88-.62-1.24-.34-.41-.75-.7-1.28-.82-.3-.07-.6-.08-.9-.04-.69.09-1.23.41-1.64.97-.21.29-.36.62-.48.96-.2.62-.27,1.26-.28,1.95Z"></path>
      <path class="cls-1" d="m59.68,5.93c.02-.9.1-1.72.33-2.52.15-.5.35-.97.63-1.4.68-1.03,1.63-1.66,2.83-1.91,2.28-.49,4.32.94,5.02,2.73.22.57.37,1.15.45,1.75.09.71.1,1.42.04,2.13-.07.76-.21,1.51-.51,2.21-.62,1.44-1.7,2.34-3.22,2.67-1.15.25-2.24.02-3.25-.59-.91-.55-1.52-1.35-1.87-2.35-.23-.64-.35-1.29-.4-1.96-.02-.28-.03-.55-.04-.76Zm1.97-.07c.01.5.04,1.04.17,1.57.13.54.34,1.04.71,1.46.63.73,1.44.96,2.37.78.56-.11,1.01-.42,1.35-.87.24-.31.42-.66.54-1.04.13-.4.2-.81.24-1.23.07-.68.04-1.36-.09-2.03-.07-.37-.17-.73-.34-1.07-.11-.23-.24-.45-.41-.64-.55-.65-1.25-.92-2.1-.82-.85.09-1.46.53-1.88,1.26-.13.22-.22.45-.3.7-.2.61-.26,1.25-.27,1.92Z"></path>
      <path class="cls-1" d="m95.17.24c.26-.03,1.86-.03,2.08,0,.06.07.09.16.12.25.77,1.89,1.54,3.78,2.32,5.67.68,1.67,1.37,3.34,2.05,5.02.03.08.06.17.1.26-.03.01-.05.03-.07.03-.64,0-1.28,0-1.91,0-.08-.06-.09-.14-.12-.22-.29-.72-.59-1.44-.88-2.16-.04-.1-.08-.19-.12-.29-.1-.05-.2-.03-.3-.03-1.47,0-2.94,0-4.42,0-.09,0-.18,0-.28,0-.04.08-.07.15-.1.22-.3.74-.61,1.48-.91,2.22-.03.07-.06.15-.09.22-.2.03-1.71.04-2,.01-.02-.09.03-.16.06-.23.44-1.08.87-2.15,1.31-3.22,1.01-2.48,2.02-4.97,3.03-7.45.04-.11.09-.21.14-.32Zm1.05,2.57s-.03.01-.04.03c-.53,1.31-1.06,2.62-1.59,3.93-.01.03,0,.06-.01.1.05,0,.09.02.13.02.1,0,.2,0,.29,0,.87,0,1.73,0,2.6,0,.09,0,.18.02.27-.03-.02-.07-.04-.13-.06-.19-.66-1.68-1.49-3.68-1.59-3.85Z"></path>
      <path class="cls-1" d="m11.19,11.47h-1.97c-.07-.05-.09-.13-.12-.21-.3-.72-.59-1.44-.88-2.15-.04-.1-.08-.19-.12-.28-.09-.06-.19-.04-.27-.04-1.22,0-2.44,0-3.66,0-.28,0-.56,0-.83,0-.07,0-.15,0-.2,0-.09.07-.1.15-.14.23-.3.74-.61,1.48-.91,2.22-.03.07-.06.15-.09.22-.19.03-1.66.04-2,.01-.02-.09.03-.16.06-.23.43-1.06.86-2.12,1.29-3.18C2.38,5.53,3.41,3.01,4.43.49c.03-.08.07-.16.11-.26.23-.03.46-.01.69-.01.23,0,.46,0,.69,0,.23,0,.46,0,.68,0,.08.08.11.18.14.27.54,1.32,1.08,2.65,1.62,3.97.91,2.23,1.82,4.46,2.73,6.7.04.1.09.19.1.31ZM5.59,2.81s-.04.03-.05.05c-.53,1.31-1.05,2.62-1.58,3.93,0,.02,0,.05,0,.08.05,0,.1.02.15.02.14,0,.28,0,.42,0,.82,0,1.64,0,2.45,0,.09,0,.18.02.26-.03-.06-.24-1.54-3.88-1.64-4.05Z"></path>
      <path class="cls-1" d="m122.72,2.09c-.09.05-.18.03-.27.03-.87,0-1.73,0-2.6,0-.97,0-1.95,0-2.92,0-.1,0-.19,0-.3,0-.01.05-.03.09-.03.13,0,.69,0,1.37,0,2.06,0,.03.01.06.02.1.09.04.18.02.27.02.91,0,1.82,0,2.72,0,.09,0,.18-.02.26.03.03.21.03,1.62,0,1.84-.08.03-.17.02-.26.02-.9,0-1.8,0-2.7,0h-.28c-.01.06-.03.1-.03.15,0,.11,0,.21,0,.32,0,.83,0,1.65,0,2.48v.28c.06.01.1.03.15.03.08,0,.16,0,.25,0,1.87,0,3.73,0,5.6,0,.1,0,.19,0,.3,0,.01.06.03.1.03.15,0,.52,0,1.05,0,1.57,0,.05-.01.09-.02.14-.04,0-.06.02-.08.02-2.67,0-5.35,0-8.02,0-.02,0-.05-.01-.07-.02,0-.02-.02-.05-.02-.07,0-3.69,0-7.37,0-11.06,0-.02.01-.05.02-.08.04,0,.09-.02.14-.02.05,0,.1,0,.15,0,2.47,0,4.94,0,7.41,0,.1,0,.2-.02.29.03,0,.02.02.04.02.07,0,.56,0,1.11,0,1.67,0,.03-.01.06-.02.09Z"></path>
      <path class="cls-1" d="m13.68.24s.07-.02.1-.02c2.59,0,5.19,0,7.78,0,.03,0,.06.01.11.02.04.2.02.41.02.61,0,.2,0,.41,0,.61,0,.2.02.41-.02.62-.05,0-.1.02-.14.02-.08,0-.16,0-.25,0-1.8,0-3.6,0-5.4,0-.1,0-.19,0-.3,0-.01.06-.03.11-.03.15,0,.67,0,1.34,0,2.01,0,.04.01.08.02.11.09.05.19.03.27.03.9,0,1.8,0,2.7,0,.09,0,.18,0,.27,0,.01.05.03.09.03.13,0,.55,0,1.1,0,1.64,0,.03-.01.06-.02.1-.09.04-.18.02-.27.03-.9,0-1.8,0-2.7,0-.09,0-.18,0-.25,0-.09.07-.07.15-.07.22,0,.44,0,.88,0,1.32,0,.48,0,.97,0,1.45,0,.08-.01.16.03.24.1.05.2.03.3.03,1.89,0,3.78,0,5.67,0,.1,0,.21-.02.31.03.03.19.03,1.54,0,1.83-.04,0-.09.02-.13.03-.06,0-.11,0-.17,0-2.53,0-5.06,0-7.58,0-.1,0-.19.01-.3-.02,0-.05-.02-.1-.02-.15-.03-.8-.01-10.82.02-11.06Z"></path>
      <path class="cls-1" d="m71.24,9.52c.51-.4.99-.79,1.49-1.18.05.05.1.08.14.12.16.14.31.29.47.43.43.38.93.63,1.49.75.7.15,1.4.13,2.09-.07.32-.09.61-.24.86-.45.27-.23.45-.52.49-.88.04-.32-.06-.58-.31-.78-.18-.14-.39-.23-.61-.3-.37-.12-.73-.23-1.1-.34-.69-.21-1.38-.42-2.06-.64-.23-.07-.45-.16-.66-.25-.31-.13-.6-.3-.86-.51-.53-.44-.82-1-.91-1.68-.06-.44-.04-.88.08-1.31.21-.74.65-1.31,1.29-1.73.44-.29.92-.47,1.43-.57,1.22-.24,2.39-.1,3.52.43.53.25,1,.59,1.41,1,.04.04.08.08.12.13-.09.13-.22.23-.32.34-.11.12-.23.23-.35.35-.11.11-.22.22-.33.33-.11.11-.22.22-.34.33-.09-.07-.16-.13-.24-.19-.49-.39-1.04-.67-1.66-.8-.55-.12-1.11-.1-1.65.03-.21.05-.4.14-.57.27-.38.29-.52.68-.46,1.14.03.2.13.37.29.49.1.08.22.15.33.2.22.09.44.18.67.24.73.22,1.46.42,2.19.64.48.14.95.31,1.39.54.19.09.38.2.55.31.6.39.95.96,1.09,1.65.21,1.07-.08,1.99-.83,2.77-.5.51-1.1.85-1.77,1.07-1.58.5-3.11.4-4.59-.36-.62-.32-1.15-.75-1.59-1.29-.05-.06-.1-.13-.17-.22Z"></path>
      <path class="cls-1" d="m48.39.24c.12,0,.2-.01.29-.01,1.79,0,3.58,0,5.38.01.35,0,.68.07,1,.2.52.21,1,.49,1.39.89.56.58.86,1.29.91,2.09.03.44-.01.88-.15,1.31-.2.64-.56,1.16-1.09,1.57-.45.34-.95.58-1.5.68-.21.04-.42.05-.63.05-1.14,0-2.27.01-3.41.02-.09,0-.18,0-.28,0,0,.09-.02.16-.02.23,0,.5,0,1,0,1.5,0,.8,0,1.6,0,2.4,0,.09,0,.18,0,.28-.32.03-.63.01-.94.02-.3,0-.6,0-.92,0-.01-.05-.03-.1-.03-.14,0-.06,0-.11,0-.17,0-3.53,0-7.07,0-10.6,0-.1,0-.19,0-.32Zm1.92,4.9c.05,0,.09.01.13.01,1.15,0,2.29,0,3.44,0,.18,0,.36-.04.53-.1.6-.22.99-.77,1.01-1.38.02-.62-.38-1.2-.96-1.43-.2-.08-.41-.12-.62-.13-.11,0-.21,0-.32,0-.98,0-1.96,0-2.95,0-.09,0-.18-.02-.26.04-.03.2-.04,2.75,0,2.99Z"></path>
      <path class="cls-1" d="m85.25,11.46c-.05-.11-.03-.22-.03-.32,0-2.02,0-4.04,0-6.06,0-.89,0-1.78,0-2.67,0-.09.02-.18-.03-.26-.09-.05-.18-.03-.27-.03-.85,0-1.7,0-2.55,0-.09,0-.18,0-.27,0-.01-.04-.03-.07-.03-.1,0-.56,0-1.13,0-1.69,0-.02,0-.03.02-.06.04,0,.08-.03.13-.03.05,0,.1,0,.15,0,2.54,0,5.09,0,7.63,0,.09,0,.18,0,.27,0,.01.04.03.07.03.1,0,.56,0,1.11,0,1.67,0,.02,0,.05-.02.07-.07.06-.16.04-.23.04-.52,0-1.05,0-1.57,0-.36,0-.72,0-1.08,0-.08,0-.16-.02-.25.04,0,.03-.01.07-.02.11,0,.08,0,.16,0,.25,0,2.87,0,5.74,0,8.61v.33c-.06.01-.11.02-.15.02-.53,0-1.06,0-1.6,0-.04,0-.08,0-.12-.01Z"></path>
      <path class="cls-1" d="m106.2,9.56c.1.05.2.03.29.03,1.06,0,2.13,0,3.19,0,.84,0,1.69,0,2.53,0,.09,0,.18-.02.26.03.04.21.03,1.64,0,1.84-.02,0-.04.02-.07.02-2.68,0-5.35,0-8.03,0-.02,0-.05-.01-.07-.02,0-.02-.02-.05-.02-.07,0-3.68,0-7.36,0-11.04,0-.03.01-.06.02-.09.03-.01.05-.03.07-.03.55,0,1.1,0,1.64,0,.04,0,.08.01.13.02,0,.05.02.1.02.15,0,.08,0,.16,0,.25,0,2.87,0,5.74,0,8.61,0,.1-.02.21.03.31Z"></path>
    </g>
  </g>
</svg>
