<?xml version="1.0" encoding="UTF-8"?>
<svg xmlns="http://www.w3.org/2000/svg" id="Layer_2" data-name="Layer 2" viewBox="0 0 71.8 68.52">
  <defs>
    <style>
      .cls-1 {
        fill: #fff;
      }
    </style>
  </defs>
  <g id="Layer_1-2" data-name="Layer 1">
    <g>
      <path class="cls-1" d="m70.12,50.55c-.06-.02-.11-.05-.17-.07-.02,0-.02-.02,0-.03.07-.07.15-.12.23-.16.02,0,.03-.02.05-.04,0-.01.02-.03.03-.03.56-.36.9-.82,1.03-1.4.1-.45.11-.9.04-1.35-.05-.34-.17-.66-.34-.97-.24-.42-.58-.73-1.02-.95-.19-.1-.45-.17-.78-.23-.24-.04-.51-.02-.76-.02-.2,0-.39,0-.58,0-1.11.07-2.24.11-3.39.14-.02,0-.03,0-.03.03v.58s.03.04.05.04c.24.05.48.09.72.11.18.02.28.13.29.32.02.25.03.48.04.71.03,2.29.05,4.68.05,7.15,0,.38-.01.76-.04,1.14-.01.14-.05.27-.1.4,0,.02-.02.03-.04.04-.29.15-.61.22-.94.3-.02,0-.03.02-.03.03v.68s-.01,0-.01,0c0,0,0,.02.02.02.6-.03,1.21-.06,1.81-.11.81-.07,1.56-.04,2.34-.02.52.01,1.02-.08,1.49-.29.55-.23.92-.62,1.23-1.12.34-.56.46-1.28.48-1.95.04-1.19-.5-2.5-1.67-2.94Zm-2.91-4.33s.02-.05.04-.05c.3-.08.63-.1.99-.07.1,0,.19.03.28.06.16.06.34.12.46.24.07.07.18.15.23.22.15.2.26.4.34.6.03.07.05.18.08.33.08.39.06.81,0,1.21-.04.32-.13.59-.26.8-.43.71-1.34.81-2.1.68-.02,0-.03-.01-.03-.03.01-1.41,0-2.68-.04-3.98Zm2.8,7.92c-.1,1.14-.65,2.01-1.93,2.01-.22,0-.46-.07-.72-.22-.02-.01-.03-.03-.04-.05-.03-.09-.04-.18-.05-.27-.02-1.49-.03-2.99-.02-4.48,0-.03.02-.05.05-.06.43-.08.81-.03,1.24,0,.14.01.29.07.42.13.19.08.35.2.47.37.11.15.21.31.31.5.1.2.17.39.2.56.09.45.11.95.06,1.51Z"></path>
      <path class="cls-1" d="m54.76,46.13c.3,0,.63.03.89.15.19.08.21.31.23.52.02.3.04.55.04.75,0,1.75,0,3.43,0,5.02,0,.48.02.97.07,1.47.06.64.21,1.4.57,1.94.71,1.05,1.97,1.37,3.2,1.19,1.37-.2,2.42-1.19,2.67-2.56.13-.74.13-1.51.14-2.27,0-.3,0-.66-.02-1.08-.05-1.25-.07-2.5-.09-3.74,0-.3-.03-.58-.03-.88,0-.15.02-.34.18-.38.18-.05.38-.09.58-.12.08,0,.16-.04.24-.08.02-.01.03-.03.03-.05.02-.2.01-.39-.03-.58,0-.03-.03-.04-.06-.04-.26.03-.52.06-.77.07-.65.04-1.33-.11-2.01-.07-.02,0-.02,0-.03.03v.62s0,.05.04.05c.19,0,.37,0,.56,0,.28,0,.5.22.56.48.02.09.03.19.04.28.12,1.86.19,3.73.2,5.61,0,.44-.01.87-.05,1.31-.03.37-.12.76-.28,1.17-.17.44-.49.85-.88,1.06-.32.17-.69.27-1.09.29-.71.04-1.4-.41-1.67-1.08-.22-.53-.3-1.11-.31-1.7-.02-.93-.08-1.84-.06-2.78.01-.48,0-.92,0-1.33-.01-.32-.02-.68-.01-1.08,0-.6-.04-1.22.04-1.81.03-.25.23-.32.46-.33.25,0,.48-.02.7-.07.02,0,.03-.02.03-.04v-.63s-.02-.04-.05-.04c-.53.01-1.04.03-1.55.06-.33.02-.67.02-.99,0-.49-.04-.99-.09-1.47-.07-.02,0-.03.01-.03.03l.02.66s.01.03.03.03Z"></path>
      <g>
        <path class="cls-1" d="m28.73,40.14c.91-.02,1.63-.76,1.61-1.66-.02-.9-.77-1.61-1.69-1.59-.91.02-1.63.76-1.61,1.66s.78,1.61,1.69,1.59Zm-.08-2.97c.71-.02,1.31.56,1.34,1.3.02.74-.53,1.36-1.25,1.38-.71.02-1.31-.56-1.34-1.3s.53-1.36,1.25-1.38Z"></path>
        <path class="cls-1" d="m28.39,39.4s.02,0,.02-.02v-.66s0-.03.03-.03c.19-.01.49-.03.54.22.04.16.08.32.14.48,0,0,0,.01.01.01.1,0,.21,0,.31,0,0,0,.01,0,0-.01-.06-.18-.1-.35-.14-.52-.02-.09-.1-.22-.2-.28-.01,0-.02-.01-.03-.02-.02-.02-.02-.03,0-.04.23-.09.33-.24.3-.46-.08-.53-.9-.43-1.25-.36-.02,0-.03.02-.03.04v1.64s0,.02.02.02h.27Zm.05-1.5h.28s0,0,0,0c.19,0,.34.11.34.26v.02c0,.14-.15.26-.34.26h-.28s-.03-.01-.03-.03v-.47s0-.03.03-.03Z"></path>
        <path class="cls-1" d="m19.13,3.38l.06.07s.07.05.11.06c.1.04.24-.03.33-.07l.91-.92s0,0,.01,0c.02,0,.05,0,.06.02l.3.7c.06.06.08.13.08.2l.25.58c.08.1.12.19.12.29l.26.59c.07.09.12.19.13.31l.06.14c.08.1.12.2.13.31l.23.54c.08.1.12.21.14.32l.23.54c.08.09.12.18.12.28l.26.59c.06.08.1.17.11.26l.09.2c.06.07.1.15.1.25l.27.63c.06.05.09.12.09.21l.26.6c.07.08.11.17.11.27l.11.23s.06.06.06.1c0,.01,0,.02,0,.03l.04.12.03.07c.07.1.12.21.14.31l.07.16c.07.08.1.17.11.27.07.14.14.29.2.44.06.15.02.28.08.42.02.06.04.11.06.17.05.19.11.37.16.56.02.08,0,.17.07.23.02.01.03.02.05.02.03,0,.06,0,.09.01.01,0,.02.02.03.03l.17.43s.02.03.05.02l.49-.13s.04-.03.03-.05l-.14-.35s0-.04.02-.03c.11,0,.17-.04.19-.14.13-.06.26-.08.41-.04.53-.03,1.05-.04,1.58-.04.39,0,.69-.01.92-.03.3-.03.61-.06.91-.1.12-.01.21-.04.28-.08.21-.12.44-.31.71-.56.04-.06.1-.1.16-.13.36-.32.71-.66,1.04-1.01.17-.18.34-.32.53-.42.2-.11.37-.1.52.03.06.05.11.11.15.18.04.06.07.13.12.19.09.13.2.25.28.39.05.05.07.1.06.16l.11.33c.05.09.07.17.06.25.06.17.12.43.19.79.12.56.19.98.23,1.26.05.36.03.68-.04.95.01.07,0,.15-.05.22l-.11.34c0,.12-.04.23-.11.33l-.06.17c0,.1-.04.2-.1.3l-.11.3c0,.07-.02.14-.08.21l-.3.76s-.02.03-.04.02c-.94-.07-1.92-.09-2.94-.07-.48.01-.84.05-1.1.1-.53.11-1.09.46-1.48.89-.05.05-.1.1-.17.14-.13.08-.22.22-.37.26-.08.02-.2.04-.36.05-.3.02-.63,0-.91.07-.18.05-.32.1-.41.16-.21.13-.33.23-.38.28-.2.22-.36.46-.49.72,0,.09-.05.17-.11.25l-.07.17c0,.09-.03.17-.09.25-.16.57-.26,1.08-.31,1.53-.07.66-.18,1.25-.34,1.76,0,.12-.04.23-.11.33l-.24.61c-.02.13-.07.25-.17.37v.03c-.02.1-.07.18-.15.25-.02.05-.06.1-.1.15-.01.01-.02.03-.02.05,0,.01,0,.02-.01.04-.19.3-.41.57-.67.82-.03.03-.07.06-.12.1-.04.03-.08.06-.12.09-.05.06-.12.1-.2.11l-.11.07c-.08.07-.17.1-.27.11-.34.1-.68.12-1.02.04-.07-.02-.08,0-.03.05.11.1.24.21.38.32.27.21.58.33.91.36.34.03.72,0,1.12-.09.03-.03.08-.04.15-.03.43-.13.81-.33,1.15-.62.23-.19.42-.42.58-.69.1-.17.17-.3.22-.38.01-.1.05-.19.12-.28l.08-.23c0-.1.03-.2.08-.3.07-.26.11-.45.12-.56.14-1.09.14-2.18.23-3.26.02-.23.07-.53.16-.72.15-.33.4-.48.77-.45.03,0,.05.02.06.05.07.18.07.33.02.54-.15.59-.24.98-.27,1.15-.04.24-.08.49-.11.73-.05.4-.07.84.07,1.24.05.08.07.16.05.24l.1.3c.05.05.07.12.06.21l.09.22c.07.08.11.17.11.27.07.13.14.26.2.4.07.16.14.29.2.4.08.14.17.28.25.42.05.03.08.08.09.16.25.38.44.67.57.87.08.12.19.27.33.45.11.14.27.39.47.76.06.04.09.1.1.18l.12.22s.07.11.08.17l.08.18c.06.07.1.15.11.24l.1.23s.07.11.08.2l.08.2c.06.06.09.15.09.26l.08.21c.07.11.11.22.12.35l.1.29c.05.08.07.17.07.27l.15.49c.03.09.04.17.04.24l.1.38c.05.11.08.23.08.35l.09.44.08.35s.01.03.02.04c.02.01.02.04.02.09.09.11.16.22.19.34l.57,1.01s.08.08.1.13c.01.02.02.05.04.08.02.03.03.05.04.09l.74,1.29c.09.09.15.2.18.31l.04.05c.07.08.11.16.14.26l.18.33c.07.07.13.17.16.29l.11.2c.05.03.07.08.07.17l.02.02-.1.38c-.02.16-.03.31,0,.47.01.1.07.16.18.18.45.08.99.12,1.62.12.19,0,.36-.02.5-.05.14-.04.49-.17.51-.33,0-.02,0-.05-.03-.06-.46-.35-.92-.67-1.39-.96-.07-.04-.13-.1-.17-.17-.64-1.03-1.29-2.11-1.94-3.23-.26-.44-.5-.89-.74-1.35-.06-.12-.08-.25-.07-.39.03-.25.06-.5.09-.75-.02-.09,0-.19.03-.28.16-1.05.31-2.1.45-3.15.09-.64.1-1.26.06-1.87-.02-.19-.05-.4-.12-.6-.04-.04-.06-.09-.05-.13l-.04-.09s0-.04.03-.03l1.54.51s.03.02.03.03l.1.27c.05.06.07.12.05.18l.1.31c.07.13.11.26.1.39l.1.46c.07.18.06.34-.03.5l-.06.11c0,.07-.04.14-.11.19l-.11.18c0,.06-.03.11-.08.14-.12.21-.26.42-.41.62-.04.05-.05.09-.09.14-.15.2-.3.4-.44.61-.09.13-.09.28-.02.43.06.05.1.1.12.16.66.6,1.32,1.2,1.98,1.8.06.06.16.14.28.26.45.42,1.1,1.01,1.96,1.78.11.1.1.15.12.29.02.24,0,.44-.07.61,0,.09-.05.17-.13.23l-.07.09c0,.06-.04.1-.09.11l-.14.22c-.03.16-.02.32.03.47.17.3.37.53.61.7.18.13.42.23.73.3.15.03.4.01.37-.21-.05-.44-.14-.82-.26-1.15-.03-.09-.05-.19-.05-.3,0-.63,0-1.27,0-1.92,0-.02-.01-.05-.03-.07l-3.43-3.43c-.12-.12-.11-.24.03-.34.2-.14.4-.29.61-.45.36-.28.7-.56,1.02-.82.16-.13.3-.26.43-.38.15-.15.25-.28.3-.38.08-.2.13-.43.14-.68.01-.21.01-.46,0-.74,0-.02,0-.03.03-.03l3.41.03s.04,0,.06.02c.16.13.33.12.52-.01,0,0,.02-.01.03-.01.54-.05,1.08-.08,1.61-.1.16,0,.33.01.48.06.44.12.87.28,1.28.5.53.29,1.07.61,1.6.97.29.2.52.46.58.79.06.36.02.73-.12,1.11.02.06,0,.11-.05.17l-.09.22c0,.08-.05.15-.12.21-.25.34-.51.66-.78.98-.2.23-.41.46-.62.69-.07.07-.14.12-.22.16-.16.06-.33.12-.53.16-.08.05-.17.07-.25.06-.02,0-.03,0-.05.01-.01,0-.03.02-.05.02-.08,0-.23.01-.46.03-.13-.02-.29-.12-.47-.29-.07-.07-.16-.09-.26-.05-.02,0-.03.01-.04.03-.15.2-.29.41-.42.61,0,0,0,.02,0,.02,0,.01,0,.02-.01.03-.15.23-.28.48-.39.75-.03.06,0,.1.06.1.35,0,.74,0,1.16,0,.21,0,.2-.19.37-.2.36-.01.71-.04,1.05-.1.26-.04.62-.12.8-.29.36-.35.77-.71,1.21-1.09.04-.03.07-.06.1-.09.01-.05.06-.09.13-.11l.07-.06c.03-.07.08-.12.14-.13.17-.17.36-.31.56-.42,0,0,0,0,0,0,.02,0,.04,0,.05.03.13.49.24.99.32,1.5,0,.02,0,.04,0,.06-.05.11-.09.23-.13.35-.03.09-.03.19.03.26.07.09.17.17.29.22.41.19.8.19,1.24.15.07,0,.13-.02.18-.05.01,0,.02-.02.02-.04,0-.05-.01-.11-.03-.17-.13-.38-.31-.7-.52-.96-.04-.05-.07-.11-.08-.18-.05-.23-.09-.47-.13-.72-.18-1.14-.33-2.22-.46-3.25-.04-.34-.1-.61-.17-.82-.11-.3-.26-.6-.46-.9-.5-.75-1.12-1.46-1.85-2.12-.01,0-.02-.02-.02-.04.02-.6.13-1.15.33-1.64.08-.21.14-.42.16-.64.07-.72.13-1.46.18-2.22,0-.06.05-.1.11-.1.11,0,.21-.02.32-.04.09-.02.15-.08.17-.17,0-.01,0-.02,0-.03.01-.08-.02-.11-.1-.11-.16.01-.33-.05-.5-.18,0,0-.01-.02-.01-.03l.03-7.09s0,0,0,0c0,0,.01-.01.02-.01.23.06.47.04.69-.05.22-.09.39-.19.49-.31.07-.08.16-.11.26-.09.14.03.27.06.4.11.08,0,.15.02.22.07l.92.3c.08,0,.17.02.25.08l.33.11c.08,0,.15.01.21.06.28.09.56.18.84.25.14.04.24.02.36-.05.26-.15.51-.35.74-.58.14-.14.07-.65.05-.84-.04-.27-.17-1.14-.36-1.27-.42-.27-.91-.57-1.47-.9-.76-.45-1.49-.88-2.2-1.29-.02-.01-.03-.03-.04-.05-.03-.08-.04-.17-.04-.27,0-.02,0-.04-.02-.05-.08-.09-.17-.16-.27-.23-.45-.31-.92-.58-1.42-.81-.13-.06-.27-.09-.41-.13-.04,0-.07-.04-.07-.08,0-.49.06-1.03-.09-1.5-.02-.06-.08-.14-.15-.15-.1-.01-.18.03-.24.12-.1.15-.19.31-.26.48,0,.08-.03.14-.08.18l-.27.54c-.12-.03-.22,0-.31.09-.03,0-.05.02-.06.05,0,.02-.02.03-.03.04-.05.05-.1.1-.15.15-.06.06-.13.08-.2.1-.09.08-.17.14-.27.17-.1.04-.17.03-.22-.04-.06-.08-.09-.12-.09-.13-.14-.13-.27-.22-.41-.28-.23-.09-.46-.16-.7-.2,0,0-.01,0-.02,0-.02,0-.02.03-.01.04l.32.64c.08.09.12.2.12.31.05.11.14.19.27.26.08.04.12.1.16.17,0,.02,0,.03,0,.05l-.08.37c0,.13-.03.26-.1.4l-.09.33c0,.13-.04.26-.1.39l-.26,1.02c0,.13-.04.25-.09.38l-.09.3s-.02.03-.04.02c-.35-.15-.72-.23-1.09-.23h0s-.04-.02-.04-.04c.01-.2.03-.42-.04-.61-.05-.13-.09-.23-.1-.37-.1-1.38-.25-2.75-.46-4.12-.04-.25-.09-.51-.15-.76-.03-.1-.1-.17-.21-.19-.89-.16-1.84-.16-2.74-.08-.41.03-.79.07-1.03.45,0,0,0,.01-.01.03-.01.03-.05.05-.1.04-.13,0-.23-.03-.29-.06-.08,0-.14-.02-.2-.08-.1-.11-.09-.22.04-.33l.47-.22s.03-.02,0-.03l-.43-.06s-.03-.01-.04-.04c-.01-.1-.02-.2-.02-.29-.03-.78-.75-1.22-1.45-1.22-.46,0-.89.12-1.27.37,0,0-.01.01-.02.02,0,0,0,.02-.02.02-.26.23-.42.53-.47.88-.04.29-.03.56.04.83.02.08.04.15.05.22,0,.02,0,.04,0,.06l-.16.36c-.03.06-.01.08.05.05l.29-.12s.04,0,.06,0l.15.08s.03.03.03.05l.03.35s0,0,0,.01c0,.02.03.02.04.01l.14-.07s.04,0,.05,0l.15.15s.02.03.02.05l-.02.24s-.01.04-.03.05c-.13.1-.26.22-.41.27-.14.05-.28.11-.42.17-.23.11-.47.24-.71.4-.03.02-.06.05-.09.09-.03.08-.08.13-.15.15-.11.12-.21.25-.3.39-.05.09-.14.19-.21.27-.19.21-.38.42-.57.63-.08.13-.17.25-.27.33-.06.09-.12.17-.2.24,0,0-.01.02-.02.03,0,.01,0,.02-.01.03-.12.15-.23.3-.34.45-.21.28-.42.55-.65.83-.09.11-.19.19-.29.22-.24.07-.51.12-.81.16-.75.09-1.47.14-2.16.14-.07,0-.12-.02-.17-.07-.06-.07-.13-.13-.19-.19-.09-.06-.19-.09-.28-.07l-.45-1.01c-.06-.07-.1-.17-.12-.3l-.06-.11-.12-.29-.06-.14c-.08-.1-.13-.22-.15-.33l-.04-.1c-.07-.09-.12-.2-.14-.32l-.23-.53c-.08-.1-.13-.2-.13-.31l-.06-.12c-.06-.08-.1-.16-.11-.27l-.08-.18c-.07-.08-.11-.18-.12-.29l-.04-.08c-.08-.1-.12-.21-.13-.31l-.06-.14c-.07-.1-.12-.21-.14-.34l-.04-.1c-.07-.09-.11-.19-.12-.29l-.08-.18c-.05-.09-.09-.17-.11-.26l-.06-.14c-.06-.09-.1-.19-.13-.31l-.07-.15c-.06-.08-.1-.16-.11-.27l-.24-.56s-.07-.08-.08-.15c0-.04-.02-.09-.04-.13l-.07-.15c-.07-.09-.11-.2-.13-.32l-.27-.61c-.05-.06-.09-.13-.1-.23l-.25-.57c-.07-.09-.11-.19-.12-.3-.07-.09-.07-.19,0-.28.48-.57.79-.95.94-1.14,0,0,.01-.02.02-.05l.02-.41c-.06-.18-.17-.31-.32-.37-.12-.05-.22-.05-.3,0-.11.06-.29.23-.53.49-.33.36-.66.71-.99,1.06-.02.07-.07.12-.14.16l-.61.7c-.03.07-.07.13-.13.16-.02.03-.04.05-.06.07v.34l.08.21c.05.04.08.09.09.16Zm21.41,9.08l.62-.05s.05-.02.04-.05v-.09s-.01,0-.01,0c0-.01.01-.02.03-.02.37.01.72.08,1.06.21,0,0,.01,0,0,.02l-.57,2.22s0,0,0,0c0,0-.02,0-.02,0-.13-.11-.24-.24-.34-.39-.32-.51-.67-1.06-.82-1.63-.02-.07-.02-.13-.02-.2,0-.02.01-.03.03-.03Zm-2.29-4.17c.08-.26.16-.53.24-.8,0-.01.02-.03.03-.03.22,0,.44,0,.66-.03.22-.04.44-.08.66-.12.02,0,.03,0,.04.03l.54,3.63c.04.09.04.16,0,.22-.07.08-.14.16-.22.24-.07.06-.08.12-.08.21,0,.24,0,.48,0,.72,0,.03.02.06.05.06l.14.03s.03.02.02.04c-.05.16-.05.31,0,.45.21.54.47,1.03.78,1.48.13.18.3.36.51.54.01.01.02.03.02.04,0,.16-.1.25-.24.26-.33.02-.6-.06-.8-.23-.23-.2-.5-.47-.78-.83-.41-.5-.86-1.08-1.35-1.73-.05-.06-.08-.13-.09-.2-.05-.32-.08-.62-.1-.91-.07-1.04-.11-1.88-.13-2.51,0-.14.03-.33.1-.56Z"></path>
        <path class="cls-1" d="m41.56,46.82c.21-.33.49-.57.83-.72.05-.02.08,0,.13-.02.27-.08.53-.06.81-.01.14.02.28.07.42.14.23.11.43.25.59.39.48.44.87,1.08,1.14,1.67,0,.02.03.03.05.03h.49s.03,0,.03-.03c0-.38-.03-.76-.11-1.14-.09-.51-.2-1.01-.31-1.53,0-.02-.01-.03-.03-.04-.1-.04-.19-.08-.29-.11-.78-.24-1.58-.35-2.39-.32-.38.01-.7.06-.97.14-.32.1-.62.24-.9.43,0,0,0,0,0,.01,0,0,0,0,0,0,0,0,0,0,0,0,0,0-.01,0-.02,0-.32.23-.6.49-.84.78-1.35,1.64-1.64,3.96-1.39,6.05.09.73.28,1.42.58,2.07.28.6.68,1.14,1.21,1.62.26.23.55.42.87.55.44.18.9.28,1.39.3.72.03,1.48-.02,2.15-.28.32-.12.58-.3.81-.52.01-.01.02-.03.03-.05.03-.14.06-.27.09-.41.03-.14.05-.29.07-.44.06-.49.13-1.02.2-1.58,0-.05-.01-.07-.06-.06l-.49.05s-.05.02-.06.04c-.39.85-1.11,2.09-2.09,2.35-.38.1-.76.06-1.14-.11-.41-.19-.74-.48-.97-.87-.13-.21-.24-.46-.34-.74-.21-.6-.34-1.17-.38-1.72-.03-.34-.04-.7-.05-1.08-.02-1.27.04-2.45.39-3.62.13-.44.32-.84.56-1.22Z"></path>
        <path class="cls-1" d="m8.23,53.48c.27,1.16.86,2.13,1.77,2.93.12.1.24.18.36.23.14.06.28.13.4.19,0,0,.02,0,.02,0,0,0,.01,0,.02,0,0,0,.01,0,.02.01.02.02.04.03.06.04.73.26,1.64.26,2.36.08,1.15-.29,1.97-1.11,2.53-2.17.31-.59.54-1.22.68-1.88.16-.77.23-1.56.18-2.36-.03-.65-.15-1.28-.34-1.91,0,0,0-.02,0-.03,0,0,0-.02,0-.03-.1-.29-.22-.58-.34-.85-.17-.4-.4-.77-.67-1.11-.55-.69-1.31-1.23-2.18-1.39-.68-.13-1.33-.1-1.94.08-.16.05-.33.11-.5.2-.17.08-.32.17-.46.27-.78.56-1.36,1.31-1.73,2.23-.54,1.37-.68,2.9-.46,4.37.05.36.12.73.21,1.1Zm1.71-3.94c.05-.69.2-1.37.44-2.02.16-.43.4-.79.71-1.09.27-.25.55-.38.86-.4.69-.03,1.25.2,1.68.71.19.23.35.48.47.75.17.38.29.75.36,1.13.09.46.17.91.19,1.38.01.37.03.73.04,1.1.03.9-.03,1.75-.18,2.54-.15.83-.49,1.79-1.2,2.28-.4.28-.82.39-1.25.34-.22-.03-.44-.12-.68-.27-.4-.27-.69-.74-.9-1.18-.05-.11-.09-.23-.12-.36-.03-.17-.1-.33-.13-.5-.03-.16-.06-.31-.11-.46-.04-.14-.07-.3-.09-.47-.07-.54-.11-.98-.13-1.33-.04-.62-.02-1.34.04-2.17Z"></path>
        <path class="cls-1" d="m25.84,52.63c.06.34.14.71.23,1.09.05.2.11.37.19.53.04.08.06.17.1.25.14.29.29.56.45.81.08.12.18.26.3.39.1.12.21.24.31.36.02.03.06.06.11.09.04.03.08.06.11.09.08.08.17.16.26.23.06.05.13.09.19.12.07.03.14.06.21.1.1.06.2.11.31.15.47.18,1.02.25,1.65.22.9-.05,1.67-.36,2.29-.94.79-.73,1.33-1.81,1.6-2.84.27-1.04.35-2.1.25-3.19-.04-.37-.1-.72-.19-1.06-.15-.57-.35-1.12-.62-1.64-.41-.81-1.07-1.52-1.89-1.92-.75-.36-1.63-.42-2.43-.27-.38.07-.75.22-1.12.45,0,0-.02.01-.02.02-.01.01-.02.02-.04.03-.13.08-.25.15-.33.23-.11.09-.22.19-.33.3-.13.12-.23.23-.32.34-.54.67-.92,1.44-1.13,2.31-.3,1.26-.35,2.5-.13,3.74Zm1.89-3.29c.04-.38.1-.74.18-1.08.09-.36.22-.71.37-1.05.17-.36.42-.67.75-.93.14-.11.29-.18.45-.21.34-.07.67-.05.99.05.24.07.47.2.68.38.13.11.24.23.34.35.19.25.35.54.48.86.06.15.11.3.16.45.02.07.04.15.06.23.02.08.03.16.05.24.07.34.13.67.16.99.03.27.05.88.06,1.85.02,1.53-.19,4.3-2.02,4.75-.39.1-.75.06-1.08-.1-.31-.15-.57-.4-.79-.73-.23-.35-.39-.7-.46-1.03-.05-.22-.1-.43-.16-.63-.05-.18-.09-.36-.11-.51-.06-.35-.08-.71-.12-1.06-.02-.18-.03-.36-.04-.53-.03-.78,0-1.55.06-2.29Z"></path>
        <path class="cls-1" d="m17.49,56.85s.03.06.07.06c.75-.06,1.48-.11,2.18-.14,1.14-.05,2.28,0,3.44.08.24.01.47.03.7.06.3.03.61.04.93.02.09,0,.15-.05.15-.14.07-.86.13-1.73.16-2.64,0-.15,0-.31,0-.5,0-.02-.01-.03-.03-.04-.16-.02-.31-.03-.46-.03-.02,0-.04.01-.04.03-.05.21-.11.45-.19.7-.07.25-.2.51-.37.78-.13.2-.27.35-.41.46-.5.36-1.13.47-1.75.46-.44,0-.86.01-1.3-.04-.02,0-.03-.01-.03-.03-.02-.09-.03-.17-.03-.25,0-1.91.01-3.78.03-5.62,0-.33,0-.69,0-1.09-.01-.66,0-1.42.02-2.28,0-.17,0-.28.17-.34.25-.09.49-.17.72-.25.09-.03.18-.03.27-.1.02-.01.03-.03.03-.05.04-.12.13-.74-.15-.7-.28.04-.56.06-.83.08-.52.04-1.07-.01-1.61,0-.48.02-.96-.06-1.45-.07h0s-.08.04-.08.08v.47c0,.06.03.1.08.13.16.1.34.15.5.24.15.08.3.16.45.24.1.05.16.14.17.27.04.36.05.67.05.94,0,1.12-.03,2.24-.02,3.35,0,.96,0,1.91-.02,2.87-.01.57-.01,1.11,0,1.68,0,.08-.02.17-.03.25,0,.02-.01.04-.03.05-.05.04-.1.06-.16.07-.36.04-.71.12-1.04.23-.02,0-.04.03-.04.05-.03.22-.04.43-.03.64,0,0,0,0,0,0Z"></path>
        <path class="cls-1" d="m49.9,55.98s-.02-.01-.02-.02c-.03-.12-.04-.26-.04-.4.01-1.7.03-3.51.04-5.41,0-.37,0-.73,0-1.09-.02-.84,0-1.68.03-2.49,0-.09.05-.16.14-.19.3-.11.6-.21.91-.3.07-.02.13-.05.15-.12.03-.11.11-.71-.16-.68-.51.06-1.03.12-1.55.1-.31-.01-.62-.01-.94,0-.47.01-.93-.06-1.4-.07h0s-.09.04-.09.09v.49s0,.03.02.04c.07.08.15.13.25.16.23.07.42.2.62.31.17.09.28.12.3.35.04.38.05.73.05,1.06-.02,1.77-.02,3.39-.02,4.87,0,.27,0,.63-.02,1.08-.02.58-.02,1.16,0,1.73,0,.05,0,.14-.03.28-.01.09-.05.15-.14.16-.33.04-.64.11-.94.19-.07.02-.13.04-.18.07-.02,0-.03.02-.03.04l-.03.61c0,.06.02.08.08.08,1.02-.09,2.01-.14,2.96-.15.84-.01,1.74.05,2.6.09.26.01.53.04.82.07.26.03.55.03.88.01.08,0,.13-.04.13-.12.1-1.08.16-2.13.18-3.15,0-.02-.01-.04-.03-.04-.14-.03-.3-.03-.46-.03-.02,0-.04.01-.04.03-.13.61-.29,1.15-.67,1.65-.45.59-1.27.76-1.99.75-.59,0-.9.01-1.37-.04Z"></path>
        <path class="cls-1" d="m4.18,56.16l-1.15-.21s-.03-.02-.03-.04c-.02-.23-.03-.38-.03-.45,0-2.79-.02-5.7-.06-8.72,0-.12,0-.23.03-.32.06-.23.45-.3.65-.31.13,0,.26,0,.38.04.15.04.28.08.39.14.16.08.28.19.37.33.1.16.19.33.26.52.07.19.12.38.14.59.09.65.08,1.24-.03,1.78-.12.58-.47,1.15-1.08,1.24-.18.02-.38.02-.59-.02,0,0,0,0,0,0-.02,0-.04.02-.04.04,0,.18,0,.36.01.55,0,.1.05.16.13.22.16.12.33.21.5.28.17.07.35.11.55.12,1.11.07,1.88-.81,2.21-1.8.17-.52.26-1.06.25-1.62,0-.34-.04-.67-.12-.99-.08-.33-.2-.66-.36-.97-.15-.3-.32-.54-.52-.71-.24-.21-.52-.36-.83-.44-.43-.11-.88-.14-1.36-.1-.68.06-1.34.09-1.98.1-.3,0-.6-.01-.88-.04-.31-.03-.63-.06-.94-.09-.03,0-.04,0-.04.04v.6s.03.06.06.07c.21.07.42.13.64.18.51.12.49.7.5,1.1.03,1.33.07,2.67.1,4.02.03,1.32.03,2.64.04,3.96,0,.16-.02.31-.05.47,0,.02-.01.03-.03.04-.3.24-.63.39-.98.55-.02,0-.03.02-.03.04-.02.18-.01.37,0,.57,0,.02.01.03.03.03.08,0,.16,0,.24-.02.78-.16,1.58-.2,2.39-.12.3.03.6.06.89.09.11.01.22,0,.35-.02.02,0,.03-.02.03-.04.03-.22.04-.44,0-.67,0-.02-.01-.02-.03-.03Z"></path>
        <path class="cls-1" d="m39.64,62.8h-.13s-.05.02-.06.04l-.06.21s-.01.03-.03.04c-.05.04-.11.06-.18.06-.87,0-1.75,0-2.64.01-.04,0-.07-.02-.08-.05l-.11-.25s-.03-.04-.05-.04c-.05-.02-.09-.01-.13,0-.02,0-.03.02-.03.04-.08.44-.17.88-.28,1.32,0,.02,0,.04.01.06.03.04.06.08.11.11.04.03.07.02.09-.02.1-.18.2-.35.31-.53.08-.12.19-.19.32-.19.23-.01.47,0,.71,0,.04,0,.07.04.07.08.03,1.35.04,2.69.01,4.03,0,.09-.04.15-.11.19-.12.06-.25.12-.4.17-.09.03-.15.1-.16.19,0,.01,0,.04-.01.07-.01.09.02.13.12.12.37-.07.74-.08,1.09-.05.25.02.53.04.82.06.04,0,.05-.02.05-.05v-.21s-.03-.07-.07-.08l-.41-.13c-.06-.02-.1-.07-.1-.13v-4.18s0-.07.05-.07c.22-.02.45-.02.69,0,.09,0,.14.05.17.14.06.23.14.46.21.69,0,.03.04.05.07.05.12,0,.19-.06.19-.18,0-.5,0-.99,0-1.47,0-.03-.01-.04-.04-.04Z"></path>
        <path class="cls-1" d="m25.8,63.36v-.25s0-.04-.03-.03c-.18.03-.33.05-.45.04-.2-.01-.41-.03-.63-.05-.03,0-.04,0-.04.04v.24s.02.04.04.04l.31.07s.03.01.04.03c.03.05.03.1,0,.15-.02.05-.04.09-.05.13-.11.28-.22.55-.32.79-.02.06-.05.12-.08.18-.03.06-.06.12-.09.18-.04.09-.08.18-.13.27-.07.13-.11.27-.19.4-.04.06-.07.12-.1.19,0,0,0,0,0,0,0,0-.02,0-.02,0-.04-.09-.08-.19-.13-.28-.04-.09-.08-.18-.12-.28-.15-.37-.32-.76-.51-1.17-.07-.15-.13-.3-.18-.46-.02-.06,0-.09.06-.1.12-.02.25-.06.38-.1.03,0,.05-.04.05-.07v-.21s0,0,0,0c0-.03-.03-.04-.06-.04-.51.11-1.02,0-1.53-.04-.05,0-.12,0-.21.02-.02,0-.03.02-.03.04v.18s0,.04.03.05c.12.03.29.07.35.19.11.2.2.41.29.63.08.2.17.39.25.57.08.18.16.37.25.57.12.27.24.53.38.79.06.12.09.25.1.39.02.47.02.95.02,1.46,0,.04-.03.07-.06.08l-.49.15s-.04.03-.04.05v.2s.02.05.05.04c.28-.03.57-.06.88-.07.31-.01.62.06.94.06.04,0,.06-.02.07-.06v-.17c.01-.06-.01-.09-.07-.1l-.39-.07s-.07-.03-.07-.08c-.02-.62-.02-1.26,0-1.9,0-.11.06-.18.1-.28.02-.07.05-.14.09-.21.04-.08.08-.16.11-.23.04-.11.1-.22.17-.32.01-.02.02-.03.02-.05,0-.04.02-.08.04-.11.06-.09.1-.18.13-.27.03-.1.08-.19.13-.28.06-.09.06-.2.12-.3.06-.11.12-.22.17-.33.03-.06.09-.12.14-.17.07-.08.2-.09.29-.12.02,0,.03-.02.03-.04Z"></path>
        <path class="cls-1" d="m26.82,63.93c-.07.01-.14.04-.21.08-.07.04-.13.07-.2.1-.04.02-.08.05-.11.09-.01.01-.02.03-.04.04-.04.02-.08.05-.11.08-.78.77-.8,2.11-.47,3.09.07.21.21.43.41.66.26.3.58.43.97.45.54.02.96-.18,1.26-.58.56-.75.67-1.83.4-2.7-.28-.89-.92-1.5-1.9-1.3Zm1.21,3.23c-.06.37-.22.8-.58.98-.57.28-.94-.28-1.06-.75-.19-.77-.21-1.54-.05-2.3.04-.22.15-.48.31-.65.24-.26.54-.29.89-.07.05.03.09.07.13.11.04.05.08.1.11.15.14.23.23.52.27.85.07.61.07,1.16-.02,1.67Z"></path>
        <path class="cls-1" d="m50.72,68.23c-.1-.04-.21-.09-.32-.14-.06-.03-.1-.08-.1-.15-.03-1.02-.07-2.14-.1-3.36,0-.19.27-.28.42-.32.02,0,.04-.02.04-.04v-.2s0-.03-.03-.03l-1,.06s-.05.02-.06.05c-.13.4-.24.8-.35,1.19-.17.61-.35,1.16-.53,1.73-.01.04-.03.04-.04,0l-.89-2.87c-.02-.06-.06-.1-.13-.11-.31-.03-.63-.04-.95-.04-.03,0-.04.01-.04.04v.18s.01.04.04.05c.08.03.16.05.24.08.07.02.12.07.14.14.02.08.03.24.03.46-.02.87-.04,1.75-.07,2.65,0,.1-.02.22-.04.34-.03.19-.22.25-.38.28,0,0-.02,0-.02,0l-.31-.11s-.07-.04-.08-.08c-.06-.16-.11-.32-.16-.48-.1-.39-.21-.77-.31-1.16-.06-.22-.12-.45-.19-.69-.18-.61-.35-1.19-.5-1.74,0-.02-.03-.04-.05-.04h-.17s-.05.02-.06.04c-.34,1.31-.68,2.6-1.01,3.87-.03.12-.07.26-.2.31-.09.03-.17.06-.26.08-.02,0-.03.02-.03.04v.18s.01.04.04.04c.19-.01.38-.08.56-.06.18.02.35.04.52.04.03,0,.05-.02.05-.05v-.16s-.02-.05-.04-.05c-.19-.05-.43-.05-.36-.33.08-.33.15-.64.23-.95,0-.02.02-.03.04-.03h.84s.04.01.04.03c.09.32.18.65.27.97.03.11.04.19-.08.23-.11.04-.2.07-.29.09-.02,0-.03.02-.03.04v.18s0,.03.02.03c.35-.03.7-.07,1.05-.03.21.03.51.03.91,0,.17-.01.4,0,.68.06.03,0,.05,0,.05-.04v-.19s-.01-.04-.03-.04c-.26-.1-.43-.15-.43-.48,0-.91.02-1.82.03-2.72,0-.06,0-.06.03,0,.27.84.54,1.7.82,2.59.09.27.15.55.22.84,0,.02.02.03.04.04.04,0,.08,0,.13,0,.02,0,.03-.02.04-.04.1-.46.2-.83.28-1.11.24-.78.47-1.56.71-2.36.02-.06.03-.06.03,0,.04.91.06,1.86.07,2.84,0,.12-.02.21-.06.26,0,.01-.02.02-.04.03l-.29.09s-.04.03-.04.05v.18s0,0,0,0c0,.02.02.03.04.03.49-.07.98-.06,1.46.03.03,0,.04,0,.04-.03v-.15s0-.05-.03-.06Zm-5.7-1.7h-.67s0-.01,0-.01c0,0-.02-.01-.01-.02l.32-1.26s0-.01.01-.01c0,0,.02,0,.02.01l.35,1.28s0,0,0,0c0,.01,0,.02-.02.02Z"></path>
        <path class="cls-1" d="m31.9,67.98c-.04-.09-.07-.17-.11-.25-.19-.47-.41-.98-.65-1.51,0-.01,0-.02.01-.03.11-.06.22-.13.31-.23.06-.06.11-.14.16-.25.21-.42.17-.9-.08-1.3-.34-.54-.86-.49-1.43-.42-.21.02-.43.03-.67.02-.1,0-.21,0-.32.01-.03,0-.05.02-.05.05v.17s.02.05.05.05l.29.04s.07.04.07.09l-.02,3.6c0,.06-.03.11-.09.12-.07.02-.14.04-.21.05-.09.02-.13.08-.12.2,0,.05.03.07.08.08.05,0,.1,0,.14,0,.38-.06.78-.06,1.21.02.08.01.11-.02.12-.09v-.13s-.01-.06-.04-.07l-.38-.14s-.06-.04-.06-.09v-1.58s0-.03.03-.03c.12-.02.23,0,.33.03.02,0,.03.02.04.04.06.1.1.19.13.27.19.59.39,1.18.6,1.77,0,.01.02.02.03.02.3-.05.61-.04.94.02,0,0,0,0,0,0,.03,0,.05-.02.05-.05.02-.3-.28-.23-.38-.45Zm-.89-2.66c0,.38-.28.69-.62.69h-.23s-.04-.02-.04-.04v-1.64s.03-.04.05-.04h.23s0,0,0,0c.34,0,.61.31.61.7v.33Z"></path>
        <path class="cls-1" d="m35.28,67.96c-.39-.75-.81-1.48-1.27-2.19,0-.01,0-.03,0-.04.15-.21.3-.42.46-.65.15-.21.28-.36.38-.48.16-.17.39-.29.64-.37.02,0,.04-.02.04-.05v-.19s0,0,0,0c0-.02-.02-.03-.04-.03-.42.06-.84.06-1.27.01-.04,0-.05.01-.05.05v.17s.02.05.05.05l.33.07s0,0,0,0c.02,0,.02.02.02.04-.02.07-.06.13-.1.2-.3.48-.62.95-.96,1.43-.03.04-.04.04-.04-.01v-1.51c0-.06.04-.11.09-.12.1-.03.2-.06.3-.09.07-.02.1-.09.1-.19,0-.07-.03-.09-.1-.08-.42.05-.84.05-1.25,0-.07,0-.14-.01-.22,0-.03,0-.04.02-.03.05,0,.03,0,.06,0,.09-.01.06,0,.1.06.12l.33.16s.05.04.06.08c.02.14.03.28.03.42,0,.94,0,1.91,0,2.89,0,.08-.02.18-.09.22-.14.07-.26.14-.37.22-.02.02-.03.04-.02.07,0,.03,0,.06,0,.09,0,.03,0,.04.04.05l1.49.02s.04-.01.04-.04v-.13s-.02-.05-.05-.06l-.29-.14c-.06-.03-.1-.09-.1-.16l-.02-1.6c0-.06.02-.07.05-.01.26.41.52.84.78,1.29.07.13.15.24.19.38.02.07-.02.14-.08.16l-.23.09s-.03.02-.03.05v.14s.01.05.04.04c.48-.04.94-.04,1.4.01.02,0,.04,0,.04-.03.01-.06.01-.12,0-.18,0-.02-.01-.04-.03-.05-.11-.07-.27-.11-.33-.24Z"></path>
        <path class="cls-1" d="m43.05,67.17h-.12s-.04.02-.05.04c-.04.18-.11.36-.21.54-.15.29-.38.35-.69.37-.23.02-.46,0-.67-.03-.12-.02-.17-.09-.17-.21,0-.51,0-1.02,0-1.53,0-.02.01-.04.03-.04.24-.02.49-.03.77-.01.09,0,.17.05.19.14.04.17.07.36.1.56,0,.02.02.03.04.03h.11s.03,0,.03-.03v-1.68s-.03-.07-.08-.07h-.03s-.07.02-.08.07c-.02.14-.04.29-.07.44-.02.13-.1.2-.23.21-.25.03-.5.04-.74.03-.02,0-.03-.01-.03-.04v-1.63s.02-.04.04-.04c.42-.03.82-.01,1.2.05.04,0,.07.03.08.06.1.23.19.45.26.67,0,.02.02.04.05.05.03.01.07.01.1,0,.03,0,.04-.03.04-.05v-.97s-.04-.08-.08-.09c-.1-.02-.21-.04-.32-.04-.61-.02-1.32.04-1.93.05-.19,0-.38-.03-.58-.06-.02,0-.04,0-.04.03v.2s0,.04.02.04l.39.08c.05.01.09.05.09.11.02,1.22.03,2.39.03,3.51,0,.11-.06.18-.17.2s-.22.04-.34.07c-.02,0-.04.02-.04.05v.16s.02.04.05.04c.87-.07,1.65-.05,2.63,0,.07,0,.17,0,.3,0,.02,0,.03-.01.03-.03l.15-1.23s0,0,0,0c0-.02-.02-.04-.04-.04Z"></path>
        <path class="cls-1" d="m50.53,60.03l-15.35-.05-15.35.05c-5.12.03-10.24.07-15.35.16,5.12.09,10.24.13,15.35.16l15.35.05,15.35-.05,7.68-.06,7.68-.1-7.68-.1-7.68-.06Z"></path>
      </g>
    </g>
  </g>
</svg>
