<?xml version="1.0" encoding="UTF-8"?>
<svg xmlns="http://www.w3.org/2000/svg" id="Layer_2" data-name="Layer 2" viewBox="0 0 128.72 19.81">
  <defs>
    <style>
      .cls-1 {
        fill: #fff;
      }
    </style>
  </defs>
  <g id="Layer_1-2" data-name="Layer 1">
    <g>
      <path class="cls-1" d="m63.1,18.65c.41-.18.82-.37,1.33-.59-1.15-1.6-2.33-3.25-3.57-4.99v5.15c.41,0,.82-.05,1.22.02.18.03.37.3.42.5.02.1-.27.39-.42.4-1.91.04-3.82.03-5.73.04-.42,0-.83,0-1.3,0-.18-1.34.84-.82,1.43-1.04V1.61c-.46-.03-.92-.06-1.67-.11.28-.39.44-.83.65-.86,1.67-.21,3.34-.34,5.22-.52v11.95c1.5-1.4,3-2.8,4.59-4.28h-2.25c-.2-.76.04-1.01.68-1,1.55.02,3.1.02,4.64,0,.66,0,.86.27.67.97-2.28-.38-3.14,1.6-4.49,2.76-.1.09-.13.43-.05.55,1.72,2.37,3.47,4.73,5.21,7.1.12-.02.23-.03.35-.05.02-.83,0-1.65.06-2.48.03-.37.22-.72.35-1.09.28.29.66.53.82.87.83,1.8,2.47,3.42,4.51,3.2,1.03-.11,1.74-.57,2.24-1.39.49-.79-.08-1.75-1.11-1.94-1.39-.26-2.8-.48-4.18-.82-2.88-.71-3.29-3.8-2.45-5.71.98-2.23,2.66-2.99,5.37-2.56.97.16,1.97.17,3.12.27.26.82.37,1.89.05,3-.23.81-.6.75-1.05.22-.32-.38-.57-.83-.85-1.25-1-1.49-3.62-1.74-4.85-.46-.5.52-.36,1.24.42,1.5,1.04.35,2.14.48,3.2.8.98.29,2.05.52,2.88,1.08,1.56,1.05,1.54,2.77,1.31,4.41-.11.78-.42,1.61-.87,2.26-.71,1.03-1.7,1.67-3.1,1.54-1.29-.12-2.63.18-3.81-.64-.12-.08-.36-.08-.5-.02-2.31.87-4.67.4-7.01.29-.49-.02-.98-.14-1.47-.21,0-.12-.01-.23-.02-.35Z"></path>
      <path class="cls-1" d="m81.1,8.04c-.46-.1-.87-.15-1.25-.29-.18-.07-.3-.29-.45-.45.19-.17.36-.45.57-.49,1.34-.24,1.36-.24,1.36-1.63,0-.71,0-1.41,0-2.18,1.46-.09,2.88-.17,4.41-.26v4.05c.7,0,1.31-.05,1.9.03.22.03.41.36.61.55-.19.12-.38.34-.59.35-.6.05-1.21.02-1.89.02-.07,3.47.2,6.82.3,10.17.17.06.33.12.5.18.67-.73,1.33-1.45,1.99-2.17-.77-2.43-.83-4.86.73-7.05,1.2-1.69,2.92-2.55,5.03-2.68,2.21-.13,4.22.35,5.72,2.02,2.96,3.31,2.52,9.6-2.61,11.15-2.83.85-5.62.59-7.78-1.84-.17-.19-.37-.34-.6-.55-.66,1.05-1.14,2.3-2.5,2.45-1.34.15-2.7.14-4.05.1-.65-.02-.97-.49-.98-1.18-.05-2.86-.11-5.71-.2-8.57-.02-.59-.15-1.18-.22-1.74Zm16,5.02c-.09-1.5-.21-3-.27-4.49-.04-.88-.43-1.37-1.33-1.4-1.66-.06-2.29.23-2.47,1.16-.1.49-.28.99-.27,1.48.03,2.47.1,4.94.19,7.4.03.88.91,1.53,1.97,1.57.91.03,1.8-.51,1.89-1.32.16-1.46.2-2.93.3-4.4Z"></path>
      <path class="cls-1" d="m11.94,9.13c1.08.53,2.14.94,3.09,1.53,2.21,1.37,2.47,5.21.2,7.03-1.39,1.11-2.83,1.55-4.57,1.51-2.02-.06-4.04.14-6.06.15-1.31,0-2.62-.1-3.93-.2-.22-.02-.42-.28-.62-.43.22-.17.42-.43.67-.48.36-.08.76-.02,1.2-.02V1.31c-.66-.16-1.28-.31-1.91-.45,0-.16,0-.31.01-.47C.75.27,1.49.06,2.23.04c2.19-.05,4.39-.06,6.58,0,1.2.03,2.42.11,3.59.38,3.14.72,4.15,3.37,3.17,5.88-.39.99-1.68,1.64-2.6,2.4-.28.23-.68.29-1.04.44Zm-5.1,9.08c.3,0,.49,0,.68,0,.67,0,1.35.03,2.02,0,1.5-.09,2.08-.69,2.11-2.2.02-1.12.02-2.25,0-3.37-.03-1.32-.65-2.23-1.93-2.54-.93-.22-1.91-.22-2.88-.32v8.44Zm0-9.48c.61,0,1.12.01,1.63,0,1.32-.04,2.36-.64,2.43-1.99.07-1.4.17-2.8.14-4.2-.01-.64-.41-1.27-1.14-1.33-1.01-.08-2.03-.02-3.06-.02v7.55Z"></path>
      <path class="cls-1" d="m110.75,18.17c0-3.23.03-6.37-.02-9.51-.01-.82-.89-1.16-1.62-.72-1.44.87-1.97,2.25-2.04,3.84-.04.96,0,1.93,0,2.9,0,1.14,0,2.28,0,3.5.3.02.75.04,1.28.07.03.25.06.52.11.96h-7.14c-.1-.08-.14-.1-.14-.12-.04-.24-.08-.49-.13-.84h1.85V7.63c-.62-.13-1.14-.24-1.75-.37-.02-.19-.05-.46-.08-.8h5.98v2.09c.52-.54.86-1.04,1.32-1.37,1.37-.97,2.94-1.25,4.53-.82,1.94.52,1.98,1.37,2.08,3.36.12,2.6.03,5.22.03,7.83,0,.19.02.37.03.55.63.11,1.22.18,1.79.33.1.03.1.4.18.78h-7.5q-.04-.93,1.26-1.03Z"></path>
      <path class="cls-1" d="m48.98,6.21c4.05-.34,7.11,3.34,6.95,6.82-.14,3.07-1.41,5.91-5.68,6.57-2.37.36-4.44-.03-6.24-1.5-1.3-1.07-2.11-2.49-2.18-4.27-.09-2.21.24-4.25,1.99-5.82,1.47-1.32,3.2-1.88,5.16-1.79Zm1.96,6.6c0-1.29-.06-2.58.02-3.86.06-1.05-.53-1.51-1.37-1.77-.9-.27-2.27.16-2.61.75-.05.08-.09.17-.1.26-.07.66-.2,1.32-.19,1.98.03,2.3.11,4.6.19,6.91.04,1.06.85,1.73,1.98,1.69,1.04-.04,2.09-.94,2.09-1.82.01-1.38,0-2.76,0-4.15Z"></path>
      <path class="cls-1" d="m34.33,6.21c4.16-.25,6.88,2.97,6.91,6.88.03,4.31-3.24,6.61-6.76,6.66-4.47.05-7.11-3.04-7.13-6.64-.02-3.82,2.99-7.25,6.98-6.9Zm-1.99,6.66c0,1.42,0,2.83,0,4.25,0,1.09.96,1.58,2.07,1.65.9.06,1.99-.9,2-1.68.02-2.54.05-5.09,0-7.63-.04-1.99-.52-2.37-2.49-2.29-1,.04-1.56.61-1.57,1.64-.01,1.35,0,2.7,0,4.06Z"></path>
      <path class="cls-1" d="m120.72,12.59c.1,1.66.15,3.18.3,4.7.1.99,1.48,1.66,2.61,1.47,2.09-.35,3.5-1.46,4.17-3.48.03-.09.1-.16.16-.23.87.26.88.36.62,1.13-.96,2.85-4.1,3.87-6.73,3.48-2.13-.32-3.71-1.17-4.87-2.89-.98-1.46-1.11-3.09-.89-4.82.4-3.11,2.35-4.74,5.13-5.54,3.16-.91,6.5.83,7.32,4.16.41,1.7.15,2.02-1.62,2.02-1.99,0-3.99,0-6.2,0Zm3.78-.92c0-1.15.01-2.11,0-3.07-.02-1.06-.88-1.26-1.63-1.39-.76-.13-1.58.15-1.8.92-.24.84-.22,1.76-.22,2.65,0,.22.31.61.52.64,1,.14,2.01.18,3.13.26Z"></path>
      <path class="cls-1" d="m17.58,7.36h-1.57l-.2-.21c.21-.25.4-.69.63-.71,1.78-.15,3.56-.21,5.44-.31v2.37c.51-.6.88-1.11,1.32-1.54.9-.89,2.91-1.05,3.89-.36.79.56,1.09,2.17.69,3.31-.4,1.15-1.44,1.44-2.46,1.32-.94-.11-1.64-1.33-1.43-2.43.06-.3.11-.61.08-.95-1.01.98-1.91,2.13-2.04,3.5-.19,2.04-.05,4.12-.05,6.18,0,.19.02.38.02.51.59.6,1.99-.51,2.14,1.19h-7.83q-.09-.97,1.36-1.05V7.36Z"></path>
    </g>
  </g>
</svg>
