<?xml version="1.0" encoding="UTF-8"?>
<svg xmlns="http://www.w3.org/2000/svg" id="Layer_2" data-name="Layer 2" viewBox="0 0 92.94 79.02">
  <defs>
    <style>
      .cls-1 {
        fill: #fff;
      }
    </style>
  </defs>
  <g id="Layer_1-2" data-name="Layer 1">
    <g>
      <path class="cls-1" d="m67.8,0c-.09.33-.17.66-.26.99-.83,2.88-1.81,5.71-2.85,8.52-2.19,5.93-4.7,11.73-7.44,17.44-1.94,4.05-3.99,8.03-6.24,11.91-1.33,2.29-2.72,4.54-4.28,6.68-.6.83-1.24,1.62-1.92,2.39-.16.19-.35.27-.58.3-.74.1-1.48.21-2.22.32-.86.12-1.73.24-2.59.37-.71.1-1.41.21-2.12.31-.71.1-1.42.2-2.12.3-.71.1-1.41.21-2.12.31-.24.03-.47.07-.71.1-.06,0-.13,0-.24,0,.07-.08.1-.12.14-.16,3.13-2.81,5.98-5.9,8.74-9.07,3.78-4.34,7.34-8.87,10.75-13.51,2.65-3.62,5.2-7.31,7.61-11.09,2.29-3.61,4.43-7.3,6.31-11.14.72-1.48,1.39-2.99,1.97-4.53.05-.14.07-.31.2-.42h0Z"></path>
      <path class="cls-1" d="m42.68,49.97s0-.08.02-.09c.07-.06.15-.11.22-.16,4.42-2.88,8.12-6.51,11.17-10.81,2.44-3.45,4.37-7.16,5.87-11.11,1.14-3,2.03-6.07,2.64-9.22.16-.85.3-1.7.46-2.61,0,.1.01.15.01.19,0,.06,0,.11,0,.17-.04.92-.07,1.84-.11,2.76-.02.44-.05.88-.08,1.33-.08.93-.16,1.86-.26,2.78-.1.88-.22,1.76-.35,2.63-.42,2.79-1.05,5.53-1.92,8.21-.81,2.52-1.83,4.96-3.14,7.27-.87,1.55-1.86,3.02-3.01,4.37-.52.62-1.08,1.19-1.68,1.74-.17.16-.37.26-.59.31-2.21.53-4.41,1.06-6.62,1.59-.88.21-1.76.43-2.64.65h0Z"></path>
      <path class="cls-1" d="m12.85,67.09c-.12,0-.2.02-.28.02-.23,0-.45,0-.68,0-.61-.01-.43.09-.86-.39-2.15-2.4-4.31-4.8-6.46-7.21-.95-1.06-1.89-2.11-2.84-3.17-.08-.09-.14-.2-.26-.24-.07.03-.07.08-.07.12,0,.11,0,.23,0,.34,0,3.36,0,6.72,0,10.08,0,.13,0,.27,0,.42-.24.08-.47.04-.69.04-.22,0-.45.02-.69-.02,0-.09-.02-.16-.02-.24,0-.31,0-.61,0-.92,0-3.59,0-7.18,0-10.77,0-.13,0-.27,0-.42.11-.01.2-.03.28-.03.51,0,1.02,0,1.53,0,.21,0,.36.07.5.22.92,1.02,1.84,2.04,2.76,3.06,1.98,2.19,3.96,4.38,5.94,6.57.09.1.17.21.31.29.02-.05.04-.09.04-.13,0-.11,0-.23,0-.34,0-3.08,0-6.16,0-9.23,0-.13-.02-.27.03-.4.26-.05,1.07-.06,1.41,0,0,.06.02.12.03.19,0,.09,0,.18,0,.27,0,3.8,0,7.61,0,11.41,0,.15,0,.29,0,.47Z"></path>
      <path class="cls-1" d="m21.27,54.74c.27-.04,1.42-.05,1.81-.01.01,0,.02,0,.03.01,0,0,.02.02.02.03,2.06,4.01,4.12,8.02,6.18,12.02.03.06.06.12.09.18,0,.01,0,.02,0,.03,0,.01,0,.02,0,.03,0,.01,0,.02,0,.03-.25.05-1.26.05-1.6,0-.54-1.05-1.05-2.13-1.59-3.18h-8.05c-.29.53-.54,1.07-.82,1.61-.27.52-.53,1.05-.8,1.59-.53.03-1.05,0-1.57.01-.04-.14.05-.23.09-.33.6-1.17,1.2-2.34,1.81-3.51,1.39-2.71,2.78-5.41,4.17-8.12.07-.14.15-.28.22-.41Zm-2.37,7.79c.13.07.26.05.38.05,1.95,0,3.91,0,5.86,0,.07,0,.14,0,.2,0,.05,0,.1-.02.18-.04-.06-.13-.1-.23-.14-.33-.71-1.43-1.42-2.87-2.14-4.3-.29-.59-.59-1.18-.89-1.76-.04-.08-.06-.17-.17-.21-.03.04-.06.07-.08.11-.37.66-3.11,6.21-3.2,6.49Z"></path>
      <path class="cls-1" d="m81.68,63.91c-.53,1.06-1.06,2.11-1.59,3.16-.28.05-1.32.06-1.6,0,0-.03,0-.07.01-.1,2.09-4.08,4.19-8.16,6.28-12.22.26-.05,1.49-.06,1.87-.01,2.08,4.06,4.17,8.13,6.25,12.2.02.04.03.08.04.11-.01.02-.02.03-.03.04,0,0-.02.01-.03.01-.47,0-.93,0-1.4,0-.04,0-.09-.01-.15-.02-.55-1.06-1.05-2.13-1.59-3.17-.29-.04-7.67-.05-8.07,0Zm7.35-1.37c-.01-.06-.01-.09-.03-.12-1.04-2.1-2.09-4.2-3.13-6.31-.03-.05-.06-.1-.09-.15-.01-.02-.04-.02-.07-.04-.11.07-.14.19-.2.3-.58,1.17-1.16,2.33-1.75,3.5-.42.84-.84,1.68-1.26,2.53-.04.09-.12.17-.08.28.28.05,6.25.05,6.59,0Z"></path>
      <path class="cls-1" d="m76.85,63.24c.25.06.97.4,1.29.61-.02.06-.05.12-.08.17-.33.59-.72,1.13-1.22,1.59-.85.8-1.86,1.29-2.98,1.55-.79.18-1.59.27-2.4.26-1.05-.01-2.08-.15-3.07-.52-.7-.26-1.34-.62-1.91-1.1-.83-.7-1.38-1.59-1.7-2.62-.46-1.48-.47-2.98-.03-4.46.52-1.8,1.7-3.02,3.42-3.72.79-.32,1.62-.49,2.48-.56.61-.05,1.23-.05,1.84.01,1.25.12,2.43.46,3.49,1.15.79.51,1.41,1.18,1.85,2.01.04.08.08.16.11.25,0,.02,0,.04,0,.09-.38.19-.78.37-1.2.55-.04-.06-.07-.1-.1-.15-.63-1.32-1.7-2.11-3.08-2.47-1.3-.34-2.63-.35-3.94-.02-.24.06-.48.14-.71.23-1.23.49-2.08,1.36-2.54,2.6-.47,1.27-.55,2.57-.21,3.88.4,1.53,1.39,2.54,2.85,3.11.49.19,1,.29,1.52.36.52.07,1.04.08,1.56.06.66-.02,1.31-.14,1.93-.37,1.14-.42,2.01-1.16,2.65-2.19.06-.1.13-.21.19-.3Z"></path>
      <path class="cls-1" d="m30.33,54.72h1.42c.01.07.03.14.04.2,0,.1,0,.2,0,.31,0,2.26,0,4.52,0,6.78,0,.5.06,1,.21,1.48.31,1.03.97,1.76,1.94,2.2.45.2.92.33,1.4.4,1,.14,1.99.13,2.98-.05.38-.07.75-.18,1.1-.34,1.15-.51,1.82-1.39,2.07-2.61.09-.46.11-.92.11-1.39,0-2.17,0-4.34,0-6.51,0-.14-.02-.29.03-.43.29-.06,1.11-.06,1.41,0,0,.09.02.19.02.29,0,2.41,0,4.81,0,7.22,0,.59-.1,1.17-.28,1.74-.34,1.06-.99,1.88-1.94,2.45-.65.39-1.36.63-2.1.77-1.25.23-2.51.25-3.76.06-.84-.13-1.64-.36-2.37-.79-.77-.45-1.36-1.06-1.75-1.85-.25-.5-.38-1.04-.47-1.59-.06-.36-.07-.72-.07-1.09,0-2.28,0-4.56,0-6.85,0-.12,0-.24.01-.4Z"></path>
      <path class="cls-1" d="m50.92,56.04c-.13-.06-.25-.04-.37-.04-1.02,0-2.04,0-3.07,0-.62,0-1.25,0-1.87,0-.12,0-.25,0-.39,0-.02-.08-.04-.14-.04-.21,0-.34,0-.68,0-1.03.08-.02.14-.04.2-.05.09,0,.18,0,.27,0,4.02,0,8.04,0,12.06,0,.15,0,.29-.01.45.02.05.41.02.82.02,1.22-.16.07-.29.04-.43.04-1.62,0-3.25,0-4.87,0-.13,0-.27,0-.42.01-.02.08-.03.15-.04.21,0,.11,0,.23,0,.34,0,3.36,0,6.72,0,10.08,0,.14.04.3-.05.44h-1.37c-.01-.07-.04-.13-.04-.19,0-.11,0-.23,0-.34,0-3.36,0-6.72,0-10.08,0-.14.02-.29-.04-.44Z"></path>
      <path class="cls-1" d="m61.92,67.1c-.47,0-.92,0-1.39,0-.01-.09-.03-.15-.03-.22,0-.09,0-.18,0-.27,0-3.8,0-7.61,0-11.41,0-.15,0-.29,0-.45.25-.09.49-.04.72-.05.23,0,.45,0,.69,0,.02.08.04.14.05.2,0,.08,0,.16,0,.24,0,3.84,0,7.67,0,11.51,0,.13.02.27-.04.44Z"></path>
      <path class="cls-1" d="m35.4,75.68c0-.38.06-.84.24-1.27.39-.98,1.09-1.59,2.14-1.78.51-.09,1.02-.06,1.51.08.73.22,1.28.67,1.64,1.34.19.35.31.73.36,1.13.11.73.05,1.45-.25,2.13-.42.95-1.16,1.48-2.17,1.65-.42.07-.84.06-1.25-.04-.98-.24-1.63-.85-2-1.78-.17-.44-.23-.9-.23-1.46Zm5.13.14c0-.53-.09-1.01-.27-1.39-.38-.81-1.17-1.26-2.08-1.18-.86.07-1.6.65-1.82,1.5-.16.63-.2,1.26-.05,1.89.28,1.22,1.32,1.94,2.67,1.62.76-.18,1.2-.75,1.43-1.47.1-.31.14-.64.13-.97Z"></path>
      <path class="cls-1" d="m17.98,76.94c.26-.03.48-.09.72-.06.03.08.06.15.07.22.14.65.58.98,1.18,1.13.3.07.61.09.91.07.33-.02.62-.13.89-.31.19-.14.32-.32.37-.55.09-.38-.03-.7-.36-.92-.13-.09-.28-.16-.43-.21-.4-.12-.81-.22-1.21-.34-.28-.08-.56-.17-.84-.26-.1-.03-.19-.08-.28-.13-1.14-.62-.94-2.08-.07-2.61.16-.1.34-.18.52-.24.66-.21,1.32-.2,1.98.01.7.22,1.13.7,1.27,1.42,0,.04.01.09.01.14,0,.02,0,.04-.01.08-.22.09-.45.08-.7.08-.02-.07-.05-.13-.06-.19-.11-.49-.4-.8-.89-.92-.47-.12-.95-.11-1.41.04-.32.11-.54.33-.63.66-.08.32.01.58.27.78.18.13.38.21.59.26.36.1.73.18,1.09.27.24.06.48.13.72.21.11.03.21.08.31.13,1.25.63,1.16,2.12.24,2.82-.2.15-.43.26-.66.34-.76.24-1.53.21-2.27-.06-.83-.31-1.25-.94-1.33-1.85Z"></path>
      <path class="cls-1" d="m53.27,76.94c.26-.03.47-.09.7-.06.04.13.07.25.1.37.11.34.32.6.63.77.2.11.41.19.64.23.4.07.79.07,1.18-.03.22-.06.42-.16.59-.32.45-.43.38-1.09-.11-1.4-.19-.12-.4-.21-.62-.26-.52-.13-1.03-.27-1.54-.41-.2-.06-.41-.14-.59-.25-.95-.56-1.04-1.83-.18-2.52.18-.14.38-.25.6-.32.72-.22,1.43-.21,2.14.05.58.21.96.63,1.12,1.23.03.12.06.24.02.38-.22.06-.45.07-.67.07-.09-.07-.08-.17-.1-.25-.12-.46-.42-.75-.88-.86-.46-.11-.92-.11-1.38.03-.2.06-.36.18-.5.34-.26.32-.28.9.21,1.17.17.09.35.16.54.21.44.12.88.22,1.32.33.31.08.61.18.88.34.42.25.71.61.78,1.1.1.7-.15,1.27-.72,1.69-.26.19-.56.31-.87.38-.62.14-1.25.1-1.85-.09-.71-.22-1.19-.68-1.4-1.41-.02-.09-.04-.18-.05-.27,0-.07,0-.13,0-.23Z"></path>
      <path class="cls-1" d="m45.1,78.88v-6.13c.11-.1.25-.07.37-.07.83,0,1.66,0,2.49,0,.41,0,.82,0,1.23,0,.11,0,.23,0,.35,0,.08.22.05.43.04.65-.13.06-.26.04-.38.04-.95,0-1.91,0-2.86,0-.12,0-.25,0-.39.01-.02.08-.05.14-.05.2,0,.52,0,1.04,0,1.57,0,.04.02.09.02.12.12.08.25.05.37.06.87,0,1.75,0,2.62,0,.12,0,.25,0,.36.01.09.26.09.35.02.65-.11.05-.24.03-.36.03-.87,0-1.75,0-2.62,0-.12,0-.25,0-.38.01-.02.07-.03.12-.04.18-.03.68-.01,1.7.04,1.94.11.07.24.05.36.05,1,0,2,0,3,0,.12,0,.25,0,.38,0,.08.22.05.43.03.66-.09,0-.17.02-.24.02-1.36,0-2.73,0-4.09,0-.08,0-.15-.01-.27-.02Z"></path>
      <path class="cls-1" d="m30.8,75.22c0-.16,0-.28.01-.4,0-.59,0-1.18,0-1.77,0-.11-.02-.23.05-.34.23-.04.46-.03.7,0,.05.15.04.29.04.42,0,1.66,0,3.32,0,4.97,0,.17,0,.34,0,.51,0,.08-.01.16-.02.25-.25.07-.49.05-.73.02-.08-.13-.05-.26-.05-.38,0-.7,0-1.41,0-2.11,0-.12,0-.25,0-.38-.07-.02-.12-.04-.17-.04-.98,0-1.95,0-2.93,0-.03,0-.07.01-.11.02-.08.11-.05.24-.05.36,0,.72,0,1.43,0,2.15,0,.12,0,.25-.02.38-.25.06-.49.04-.74.02-.01-.08-.03-.14-.04-.2,0-.19,0-.39,0-.58,0-1.66,0-3.32,0-4.97,0-.13-.02-.27.04-.42.24-.03.47-.03.7,0,.07.14.05.26.05.39,0,.58,0,1.16,0,1.74,0,.12,0,.25.02.38.09.01.15.04.22.04.93,0,1.86,0,2.79,0,.07,0,.13-.01.24-.02Z"></path>
      <path class="cls-1" d="m42.68,49.97s-.04,0-.06,0c.02,0,.04,0,.06,0,0,0,0,0,0,0Z"></path>
    </g>
  </g>
</svg>
