<?xml version="1.0" encoding="UTF-8"?>
<svg xmlns="http://www.w3.org/2000/svg" id="Layer_2" data-name="Layer 2" viewBox="0 0 339.4 103.06">
  <defs>
    <style>
      .cls-1 {
        fill: #fff;
      }
    </style>
  </defs>
  <g id="Layer_1-2" data-name="Layer 1">
    <g>
      <g>
        <g>
          <polygon class="cls-1" points="339.4 70.12 305.21 38.37 305.21 68.08 296.43 68.08 296.43 18.25 330.62 50 330.62 19.77 339.4 19.77 339.4 70.12"></polygon>
          <polygon class="cls-1" points="203.02 70.12 168.83 38.37 168.83 68.08 160.05 68.08 160.05 18.25 194.24 50 194.24 19.77 203.02 19.77 203.02 70.12"></polygon>
          <rect class="cls-1" x="216.21" y="19.88" width="8.77" height="48.2"></rect>
          <path class="cls-1" d="m260.83,69.46c-14.06,0-25.5-11.44-25.5-25.49s11.44-25.49,25.5-25.49,25.49,11.44,25.49,25.49-11.44,25.49-25.49,25.49m0-42.24c-9.23,0-16.75,7.51-16.75,16.75s7.51,16.75,16.75,16.75,16.75-7.51,16.75-16.75-7.51-16.75-16.75-16.75"></path>
          <path class="cls-1" d="m138.67,19.88v28.7c0,6.68-5.43,12.12-12.11,12.12s-12.11-5.43-12.11-12.12v-28.7h-8.77v28.71h0c0,11.51,9.36,20.87,20.88,20.87s20.87-9.36,20.87-20.87h0v-28.71h-8.77Z"></path>
        </g>
        <g>
          <path class="cls-1" d="m106.68,93.47c0-6.24,3.19-10,8.43-10,4.43,0,7.24,2.68,7.38,7h-4.08c-.11-2.13-1.46-3.46-3.49-3.46-2.62,0-4.08,2.27-4.08,6.35s1.51,6.65,4.22,6.65c2.11,0,3.43-1.38,3.73-3.86h-4.27v-3.13h8.13v9.78h-3.7v-2.11c-1.13,1.54-2.84,2.38-5.05,2.38-4.4,0-7.22-3.73-7.22-9.59Z"></path>
          <path class="cls-1" d="m127.68,83.74h8.03c4.13,0,6.67,2.11,6.67,5.54,0,2.35-1.19,4.08-3.3,4.86,1.78.35,2.78,1.43,2.89,3.19l.14,2.35c.11,1.65.24,2.59.49,3.11h-4.05c-.16-.57-.24-1.41-.32-2.73l-.11-2.16c-.08-1.68-.76-2.27-2.7-2.27h-3.67v7.16h-4.05v-19.05Zm4.05,3.7v5h4.16c1.59,0,2.46-.89,2.46-2.49s-.92-2.51-2.51-2.51h-4.11Z"></path>
          <path class="cls-1" d="m146.52,93.26c0-6.22,3.05-9.78,8.43-9.78s8.43,3.57,8.43,9.78-3.05,9.81-8.43,9.81-8.43-3.57-8.43-9.81Zm12.7,0c0-4.03-1.51-6.24-4.27-6.24s-4.27,2.22-4.27,6.24,1.51,6.27,4.27,6.27,4.27-2.24,4.27-6.27Z"></path>
          <path class="cls-1" d="m167.81,95.93v-12.19h4.05v12.08c0,2.41,1.16,3.7,3.27,3.7s3.27-1.3,3.27-3.7v-12.08h4.05v12.19c0,4.54-2.68,7.13-7.32,7.13s-7.32-2.62-7.32-7.13Z"></path>
          <path class="cls-1" d="m187.54,83.74h7.89c4.24,0,6.67,2.78,6.67,6.24s-2.19,6.3-6.67,6.3h-3.84v6.51h-4.05v-19.05Zm4.05,3.7v5.3h3.81c1.62,0,2.54-.97,2.54-2.62s-1-2.68-2.54-2.68h-3.81Z"></path>
        </g>
      </g>
      <g>
        <path class="cls-1" d="m41,72.69c-.96,0-1.92-.37-2.65-1.1l-18.92-18.92c-1.46-1.46-1.46-3.84,0-5.3,1.47-1.46,3.84-1.46,5.3,0l18.92,18.92c1.46,1.46,1.46,3.84,0,5.3-.73.73-1.69,1.1-2.65,1.1"></path>
        <path class="cls-1" d="m50.02,63.67c-.96,0-1.92-.37-2.65-1.1-1.46-1.46-1.46-3.84,0-5.3l18.92-18.92c1.46-1.46,3.84-1.46,5.3,0,1.46,1.46,1.46,3.84,0,5.3l-18.92,18.92c-.73.73-1.69,1.1-2.65,1.1"></path>
        <path class="cls-1" d="m59.92,35.74c-.96,0-1.92-.37-2.65-1.1l-18.92-18.92c-1.46-1.46-1.46-3.84,0-5.3,1.46-1.46,3.84-1.46,5.3,0l18.92,18.92c1.46,1.46,1.46,3.84,0,5.3-.73.73-1.69,1.1-2.65,1.1"></path>
        <path class="cls-1" d="m40.77,50.67l-5.14,5.14,5.3,5.3,13.5-13.5c-4.61-1.65-9.97-.63-13.66,3.06"></path>
        <path class="cls-1" d="m62.32,55.51l-17.38,17.37c-2.17,2.17-5.71,2.18-7.89,0l-8.36-8.36c-1.65,4.61-.63,9.97,3.06,13.66,2.55,2.55,5.9,3.82,9.25,3.82s6.7-1.27,9.25-3.82l9.02-9.02c3.69-3.69,4.7-9.05,3.06-13.66"></path>
        <path class="cls-1" d="m31.34,40.77l-5.14-5.14-5.3,5.3,13.5,13.5c1.65-4.61.63-9.97-3.06-13.66"></path>
        <path class="cls-1" d="m9.13,44.95c-2.17-2.18-2.18-5.71,0-7.89.24-.24.51-.46.78-.65l7.68-7.68c-4.64-1.7-10.05-.69-13.76,3.02-2.55,2.55-3.82,5.9-3.82,9.25s1.27,6.7,3.82,9.25l9.01,9.02c3.69,3.69,9.05,4.7,13.66,3.06l-17.38-17.37Z"></path>
        <path class="cls-1" d="m78.18,31.76l-9.02-9.02c-3.69-3.69-9.05-4.7-13.66-3.06l17.38,17.37c1.05,1.05,1.63,2.46,1.63,3.95s-.58,2.89-1.64,3.94l-8.36,8.36c1.42.51,2.92.77,4.41.77,3.35,0,6.7-1.27,9.25-3.82,2.47-2.47,3.83-5.76,3.83-9.25s-1.36-6.78-3.83-9.25"></path>
        <path class="cls-1" d="m47.62,27.57c-1.65,4.61-.63,9.97,3.06,13.66l5.14,5.14,5.3-5.3-13.5-13.5Z"></path>
        <path class="cls-1" d="m41.07,20.89l-13.5,13.5c1.42.51,2.92.77,4.41.77,3.35,0,6.7-1.28,9.25-3.82l5.14-5.14-5.3-5.3Z"></path>
        <path class="cls-1" d="m50.25,3.82c-5.1-5.1-13.4-5.1-18.5,0l-9.01,9.02c-3.69,3.69-4.7,9.05-3.06,13.66l17.37-17.38c1.09-1.09,2.52-1.63,3.94-1.63s2.86.54,3.94,1.63l8.36,8.36c.5-1.4.77-2.89.77-4.42,0-3.49-1.36-6.78-3.83-9.25"></path>
        <path class="cls-1" d="m13.07,44.75c-.96,0-1.92-.37-2.65-1.1-1.46-1.46-1.46-3.84,0-5.3l18.92-18.92c1.47-1.46,3.84-1.46,5.3,0,1.47,1.46,1.47,3.84,0,5.3l-18.91,18.92c-.73.73-1.69,1.1-2.65,1.1"></path>
      </g>
    </g>
  </g>
</svg>
