<svg xmlns="http://www.w3.org/2000/svg" id="Capa_1" data-name="Capa 1" viewBox="0 0 982 294">
  <defs fill="#ffffff">
    <style>.cls-1{fill:#ffffff;}</style>
  </defs>
  <path class="cls-1" d="M252.63,164.14c-.08,66.37-54.45,120.51-120.88,120.37S10.81,229.84,11.1,163.77c.3-66.53,54.56-120.47,121-120.28,66.67.19,120.61,54.19,120.52,120.65M204.24,92.91l-1.2-.79a25.9,25.9,0,0,0-4.23,1c-12.46,5.41-25.4,10-37.23,16.51-38.47,21.25-66.76,53.21-91.33,88.78a61.19,61.19,0,0,0-10,23.76c-1.36,7.34,5.35,14.35,12.81,13.27,8.67-1.26,16.29-5.1,23.63-9.55,15.41-9.32,28.74-21.26,42.1-33.2,26.3-23.5,47-50.92,60.08-83.79,2.08-5.24,3.63-10.69,5.42-16M136.55,203c11.32,9.71,22.75,19.2,36.07,25.92,5.54,2.79,11.67,4.44,17.58,6.46,4.07,1.39,7.16-.57,10.11-3.2,4.46-4,4-8.89,2.53-13.68-6-19.76-19.28-34.95-31-48.93L136.55,203M60.18,92.47c6.34,24.76,18.25,46.41,32.93,66.09l32.81-33.82C106.85,110.82,85.19,98.6,60.18,92.47m71.75,29.7c5.69-3.9,11.35-7.67,16.86-11.64a5.44,5.44,0,0,0,2-3.45c.6-6.36.92-12.74,1.36-19.11a11.65,11.65,0,0,0-4.59-10.53c-7.3-5.7-15.44-7-24.14-3.9-9.22,3.26-12,7.49-11.43,17.07.3,5.45.55,10.9,1.11,16.33a6,6,0,0,0,2.19,3.75c5.39,3.91,11,7.59,16.66,11.48m-.11,84.25c-2.47,2.07-4.57,4.5-7.21,5.93-10.26,5.56-13.27,14.13-12.93,25.36.23,7.57,2.82,12.58,9.35,15.67,9.16,4.33,17.93,3.42,26-2.73a12,12,0,0,0,5-10.4c-.21-5.46-.64-10.91-1.16-16.35a5.47,5.47,0,0,0-1.63-3.36c-5.64-4.7-11.41-9.24-17.49-14.12m42.36-42.93L187.53,180c.17.21.3.53.51.6,1.4.51,2.87,1.48,4.22,1.34a18.19,18.19,0,0,0,16.28-20.83c-1.24-9.38-10.9-16.53-20.73-15.24a4,4,0,0,0-2.53,1.48c-3.77,5.32-7.41,10.73-11.1,16.11m-84.52,0c-3.66-5.36-7.2-10.67-10.91-15.88a4.58,4.58,0,0,0-2.84-1.72c-10.13-1.28-19.5,6-20.57,15.77A18,18,0,0,0,71.73,182a5.07,5.07,0,0,0,3.81-1.21c4.83-5.66,9.44-11.52,14.12-17.29" fill="#ffffff"/>
  <path class="cls-1" d="M730.4,158.45v-68c13.45.79,26.86-1.9,39.84,2.89,9.43,3.47,15.84,10,18.48,19.61,5.9,21.52-2.92,44.3-31.66,45.43-8.79.35-17.61.06-26.66.06m12.51-57.11v45.85c5.09,0,9.89.26,14.66-.05,11.94-.77,18.56-6.44,20.3-18.15,1.84-12.45-2.8-25-18.25-26.73-5.4-.6-10.86-.62-16.71-.92" fill="#ffffff"/>
  <path class="cls-1" d="M287.58,91c9.54,0,18.94-.77,28.14.21,10.75,1.14,17.25,10.31,14.94,20.1-.88,3.74-3.65,7-5.57,10.52l-1-.52c.12.23.18.58.36.66,9,4,12.94,10.45,11.59,19-1.5,9.6-8.23,16.68-17.76,17.24-10.1.58-20.26.13-30.68.13Zm12,56.23c5.56,0,10.63.31,15.63-.09a9.31,9.31,0,0,0,.06-18.57,94.88,94.88,0,0,0-13.17-.2,3.55,3.55,0,0,0-2.41,2.5c-.23,5.29-.11,10.58-.11,16.36m.24-45.46v15.69a9.08,9.08,0,0,0,1.74.39c3.19,0,6.39.13,9.58,0,4.73-.27,7.81-3.38,8-7.78a7.86,7.86,0,0,0-7.2-8.16c-3.9-.43-7.89-.09-12.08-.09" fill="#ffffff"/>
  <path class="cls-1" d="M560.64,90.44c13.83.82,27.6-2,40.74,3.34a28.61,28.61,0,0,1,17.11,18.46,38.5,38.5,0,0,1-.75,27c-5,12.2-15,17.89-27.56,18.85-9.69.74-19.48.14-29.54.14Zm12.18,56.49c6.07,0,11.71.46,17.24-.11,8-.82,14.2-4.95,16.66-12.92,2.15-7,2.34-14.32-1.11-21a19.69,19.69,0,0,0-6.82-7.52c-8-4.9-17-3.88-26-3.55Z" fill="#ffffff"/>
  <path class="cls-1" d="M414.65,124.79c0,19-15.26,33.76-34.84,33.74s-34.65-14.86-34.59-34,15.37-33.87,34.85-33.78,34.62,15,34.58,34m-34.74-22c-12.69,0-22.71,9.79-22.56,22.07s10.08,21.67,22.59,21.64c12.71,0,22.3-9.33,22.38-21.68.08-12.54-9.57-22-22.41-22" fill="#ffffff"/>
  <path class="cls-1" d="M495.19,90.54c9.47,0,18.17-.22,26.86.06,9.93.32,18.33,6.91,20.59,15.62,2.67,10.33-.74,18.63-10.11,24.57a10.7,10.7,0,0,0-1.14,1c5.23,8.6,10.47,17.23,16.17,26.59-4.75,0-8.92.14-13.07-.12-.83-.05-1.73-1.47-2.33-2.43-3.71-6-7.51-12-10.93-18.17-1.44-2.58-3.05-3.69-6-3.41-2.49.25-5,.05-8,.05v23.95h-12Zm12.23,32.65c5,0,9.54.2,14.05,0,5.63-.31,9.52-4.5,9.84-10.16.32-5.49-3.28-10.56-8.73-11.14-5-.52-10-.11-15.16-.11Z" fill="#ffffff"/>
  <path class="cls-1" d="M670.55,131.7,678.62,145l8.22,13.49c-4.69,0-8.66.16-12.6-.12-1-.07-2.13-1.39-2.76-2.41-3.74-6-7.53-12-10.94-18.17-1.52-2.75-3.3-3.8-6.36-3.48-2.36.24-4.78,0-7.63,0v23.87H634.43V90.52c4.94,0,9.84-.15,14.73,0,6,.22,12.14,0,17.9,1.27,8.94,2,14.22,8.43,15.41,17.43s-2.11,16.48-10.3,21.29c-.45.27-.86.61-1.62,1.15m-23.93-8.5c4.82,0,9.21.11,13.6,0a10.26,10.26,0,0,0,10.29-10.11c.32-5.8-3.34-10.77-9-11.29-4.85-.46-9.78-.1-14.87-.1Z" fill="#ffffff"/>
  <path class="cls-1" d="M899.4,131.67l16.32,26.84c-4.68,0-8.64.16-12.58-.11-1-.07-2.12-1.39-2.76-2.41-3.73-6-7.49-12-10.93-18.15-1.49-2.69-3.2-3.9-6.31-3.53a70.71,70.71,0,0,1-7.62.05v23.88H863.39V90.93a30.33,30.33,0,0,1,3.09-.33c7.49,0,15-.19,22.47.05,14,.44,23.45,10.1,22.66,23.08-.49,8.07-4.68,14-12.21,17.94m-23.79-29.89v21.37a24.52,24.52,0,0,0,2.52.27c3.87,0,7.76.1,11.61-.2a10.21,10.21,0,0,0,9.7-10.26c.21-5.88-3.37-10.53-9.24-11.09-4.73-.45-9.54-.09-14.59-.09" fill="#ffffff"/>
  <path class="cls-1" d="M815.35,101.54v15.95H844v11.13H815.5v18.8h13.11c5.22,0,10.44.06,15.65,0,2,0,2.94.65,2.85,2.76-.11,2.63,0,5.26,0,8.1H803.23V90.84h42.93v10.7Z" fill="#ffffff"/>
  <path class="cls-1" d="M484.08,158.46c-3.82,0-7.29.12-10.74-.08a5,5,0,0,1-2.71-1.69,6.78,6.78,0,0,1-1-2.18c-4-9.63-4-9.63-14.72-9.63-5.49,0-11,.09-16.47,0-2.22-.06-3.59.59-4.07,2.81a6.61,6.61,0,0,1-.4,1.13c-4.41,10.51-4.41,10.51-16.85,9.39,2.31-5.62,4.5-11.1,6.79-16.54,6.59-15.73,13.26-31.43,19.8-47.18,1.06-2.55,2.09-4.41,5.39-4s6.52-.89,8.4,3.78c8.17,20.28,16.79,40.38,25.24,60.55.45,1.08.78,2.2,1.3,3.67m-22.24-23.71c-3.76-9.13-7.29-17.69-11.21-27.23l-11.17,27.23Z" fill="#ffffff"/>
  <path class="cls-1" d="M968.75,102l-7.69,5.32c-4.55-1.81-8.23-3.94-12.18-4.67-4.56-.85-7.78,1.46-8.59,4.77s.86,5.78,5.35,7.77,9.45,3.74,14,5.94c9.67,4.65,13.39,11.36,12.07,21.16-1.08,8-6.82,13.44-16.57,15.62C941.6,161,928.53,155,923,143l9.57-6.13c3.22,5.69,7.62,9.48,14.22,9.83a27.32,27.32,0,0,0,5.57-.28,7.33,7.33,0,0,0,6.4-5.83c.83-3.45-.84-6.19-3.78-7.67-4.76-2.38-9.77-4.26-14.65-6.43-9.91-4.41-14.27-11.26-12.91-20.15,1.42-9.25,9-15.42,19.9-15.58,8.95-.12,16.38,3.11,21.39,11.31" fill="#ffffff"/>
  <rect class="cls-1" x="700.27" y="90.85" width="11.66" height="67.43" fill="#ffffff"/>
  <path class="cls-1" d="M297.83,212.64l-3.09-4.44,1.63-1.12,3.15,4.54c2-1.63,3-4.54,3-8.61,0-6.54-2.65-10.07-7.56-10.07s-7.6,3.53-7.6,10.07,2.65,10.1,7.6,10.1a8.7,8.7,0,0,0,2.88-.47m-13-9.63c0-7.8,3.67-12.27,10.11-12.27S305,195.21,305,203c0,5-1.46,8.54-4.14,10.54l2.37,3.36L301.63,218l-2.48-3.49a11.07,11.07,0,0,1-4.2.78c-6.44,0-10.11-4.48-10.11-12.31" fill="#ffffff"/>
  <path class="cls-1" d="M310.61,206.77V191.08h2.44V206.7c0,4.11,2.27,6.41,6.24,6.41s6.2-2.3,6.2-6.41V191.08h2.44v15.69c0,5.36-3.22,8.55-8.64,8.55s-8.68-3.19-8.68-8.55" fill="#ffffff"/>
  <rect class="cls-1" x="334.68" y="191.08" width="2.44" height="23.9" fill="#ffffff"/>
  <polygon class="cls-1" points="343.87 214.98 343.87 191.08 346.31 191.08 346.31 202.5 356.88 191.08 359.9 191.08 350.07 201.86 361.02 214.98 358.07 214.98 348.41 203.62 346.31 206.03 346.31 214.98 343.87 214.98" fill="#ffffff"/>
  <path class="cls-1" d="M363.63,207.08h2.2c0,4,2.65,6.1,7.09,6.1,4.07,0,5.63-1.9,5.63-4.31,0-7.12-14.38-2.74-14.38-11.83,0-3.76,2.75-6.3,7.6-6.3,5.66,0,8.64,3.15,8.64,7.63h-2.24c0-3.56-2.34-5.5-6.2-5.5-3.46,0-5.32,1.56-5.32,4.14,0,7.08,14.4,2.74,14.4,11.7,0,4.16-3.05,6.61-8.2,6.61-5.53,0-9.22-2.85-9.22-8.24" fill="#ffffff"/>
  <rect class="cls-1" x="386.68" y="191.08" width="2.44" height="23.9" fill="#ffffff"/>
  <polygon class="cls-1" points="398.31 191.08 398.31 212.77 409.5 212.77 409.5 214.98 395.87 214.98 395.87 191.08 398.31 191.08" fill="#ffffff"/>
  <polygon class="cls-1" points="419.36 214.98 416.31 214.98 408.07 191.08 410.55 191.08 417.84 212.6 425.13 191.08 427.6 191.08 419.36 214.98" fill="#ffffff"/>
  <polygon class="cls-1" points="446.18 214.98 431.91 214.98 431.91 191.08 446.18 191.08 446.18 193.35 434.35 193.35 434.35 201.93 443.7 201.93 443.7 204.09 434.35 204.09 434.35 212.71 446.18 212.71 446.18 214.98" fill="#ffffff"/>
  <path class="cls-1" d="M453.7,193.35V203h6.85c3.09,0,4.82-1.73,4.82-4.81s-1.83-4.85-5-4.85Zm-2.44-2.27h9.12c4.51,0,7.43,2.67,7.43,6.74a6.27,6.27,0,0,1-3.87,6.14,3.67,3.67,0,0,1,3.39,3.76l.14,3.22a12.34,12.34,0,0,0,.61,4h-2.51a19.25,19.25,0,0,1-.44-3.66l-.14-3.06c-.1-2.33-1.08-3.15-3.79-3.15h-7.5V215h-2.44Z" fill="#ffffff"/>
  <path class="cls-1" d="M480.55,205.69a3.07,3.07,0,0,1,6.14,0,3.07,3.07,0,1,1-6.14,0" fill="#ffffff"/>
  <path class="cls-1" d="M508.89,212.77c3.46,0,5.4-1.73,5.4-4.91s-1.8-4.44-6-4.44h-5.87v9.35Zm-6.44-19.49v8.17h5.73c3.7,0,5.22-1.22,5.22-4.24,0-2.68-1.45-3.93-4.64-3.93Zm6.58-2.2c4.44,0,6.88,2,6.88,5.86,0,2.88-1.46,4.78-4.07,5.36,3.12.47,4.95,2.64,4.95,6,0,4.2-2.84,6.68-7.69,6.68H500v-23.9Z" fill="#ffffff"/>
  <rect class="cls-1" x="522.52" y="191.08" width="2.44" height="23.9" fill="#ffffff"/>
  <polygon class="cls-1" points="534.15 191.08 534.15 212.77 545.34 212.77 545.34 214.98 531.71 214.98 531.71 191.08 534.15 191.08" fill="#ffffff"/>
  <polygon class="cls-1" points="551.41 191.08 551.41 212.77 562.59 212.77 562.59 214.98 548.97 214.98 548.97 191.08 551.41 191.08" fill="#ffffff"/>
  <path class="cls-1" d="M577.78,205.89l-4.3-12.47-4.24,12.47Zm.75,2.17h-10L566.15,215h-2.47l8.27-23.9h3l8.34,23.9H580.9Z" fill="#ffffff"/>
  <path class="cls-1" d="M596.43,212.77c3.45,0,5.39-1.73,5.39-4.91s-1.8-4.44-6-4.44H590v9.35ZM590,193.28v8.17h5.73c3.69,0,5.22-1.22,5.22-4.24,0-2.68-1.46-3.93-4.65-3.93Zm6.57-2.2c4.44,0,6.88,2,6.88,5.86,0,2.88-1.45,4.78-4.06,5.36,3.12.47,5,2.64,5,6,0,4.2-2.85,6.68-7.7,6.68h-9.09v-23.9Z" fill="#ffffff"/>
  <path class="cls-1" d="M626.6,203c0-6.54-2.64-10.07-7.56-10.07s-7.59,3.53-7.59,10.07,2.64,10.1,7.59,10.1,7.56-3.56,7.56-10.1m-17.66,0c0-7.8,3.66-12.27,10.1-12.27s10.07,4.47,10.07,12.27-3.66,12.31-10.07,12.31-10.1-4.48-10.1-12.31" fill="#ffffff"/>
  <polygon class="cls-1" points="637.11 191.08 649.35 210.43 649.35 191.08 651.79 191.08 651.79 214.98 649.48 214.98 637.18 195.45 637.18 214.98 634.74 214.98 634.74 191.08 637.11 191.08" fill="#ffffff"/>
  <path class="cls-1" d="M657.41,203.11c0-7.69,3.67-12.37,9.67-12.37,5.12,0,8.37,3.18,8.74,8.41h-2.51c-.3-3.94-2.61-6.21-6.3-6.21-4.54,0-7.09,3.66-7.09,10.1s2.58,10.24,7.12,10.24c4,0,6.41-2.61,6.65-7h0v-.61h-7v-2H676V215h-2.27v-3.7a7.7,7.7,0,0,1-7.15,4c-5.66,0-9.16-4.65-9.16-12.21" fill="#ffffff"/>
  <path class="cls-1" d="M688.77,205.69a3.07,3.07,0,0,1,6.14,0,3.07,3.07,0,1,1-6.14,0" fill="#ffffff"/>
  <path class="cls-1" d="M710.67,193.35V203h6.85c3.09,0,4.81-1.73,4.81-4.81s-1.83-4.85-5-4.85Zm-2.44-2.27h9.12c4.51,0,7.43,2.67,7.43,6.74a6.28,6.28,0,0,1-3.87,6.14,3.67,3.67,0,0,1,3.39,3.76l.14,3.22a12.34,12.34,0,0,0,.61,4h-2.51a18.46,18.46,0,0,1-.44-3.66l-.14-3.06c-.1-2.33-1.08-3.15-3.79-3.15h-7.5V215h-2.44Z" fill="#ffffff"/>
  <path class="cls-1" d="M747.46,203c0-6.54-2.65-10.07-7.56-10.07s-7.6,3.53-7.6,10.07,2.65,10.1,7.6,10.1,7.56-3.56,7.56-10.1m-17.67,0c0-7.8,3.67-12.27,10.11-12.27S750,195.21,750,203s-3.67,12.31-10.07,12.31-10.11-4.48-10.11-12.31" fill="#ffffff"/>
  <polygon class="cls-1" points="760.34 202.81 752.71 191.08 755.49 191.08 761.73 200.71 768.03 191.08 770.71 191.08 763.12 202.81 771.02 214.98 768.27 214.98 761.73 204.91 755.12 214.98 752.44 214.98 760.34 202.81" fill="#ffffff"/>
  <polygon class="cls-1" points="782.88 205.72 782.88 214.98 780.44 214.98 780.44 205.69 772.88 191.08 775.53 191.08 781.66 203.18 787.8 191.08 790.44 191.08 782.88 205.72" fill="#ffffff"/>
  <path class="cls-1" d="M800.58,205.69a2.91,2.91,0,0,1,3-3,2.94,2.94,0,0,1,3.09,3,3,3,0,0,1-3.09,3.08,2.94,2.94,0,0,1-3-3.08" fill="#ffffff"/>
  <path class="cls-1" d="M835.4,203c0-6.41-2.68-9.73-7.84-9.73h-5.08v19.49h5.15c5,0,7.77-3.49,7.77-9.76m-8-11.93c6.71,0,10.54,4.23,10.54,11.79S834.17,215,827.67,215H820v-23.9Z" fill="#ffffff"/>
  <path class="cls-1" d="M843.13,203c0-7.62,3.76-12.3,9.93-12.3,5,0,8.13,3.22,8.51,8.51h-2.51c-.31-4-2.48-6.31-6-6.31-4.71,0-7.39,3.66-7.39,10.07s2.65,10.1,7.36,10.1c3.76,0,6.07-2.54,6.31-6.85h2.47c-.3,5.63-3.69,9.06-8.92,9.06-6,0-9.72-4.65-9.72-12.28" fill="#ffffff"/>
  <path class="cls-1" d="M866.31,207.08h2.21c0,4,2.64,6.1,7.08,6.1,4.07,0,5.63-1.9,5.63-4.31,0-7.12-14.37-2.74-14.37-11.83,0-3.76,2.74-6.3,7.59-6.3,5.66,0,8.64,3.15,8.64,7.63h-2.23c0-3.56-2.34-5.5-6.21-5.5-3.46,0-5.32,1.56-5.32,4.14,0,7.08,14.41,2.74,14.41,11.7,0,4.16-3,6.61-8.21,6.61-5.52,0-9.22-2.85-9.22-8.24" fill="#ffffff"/>
  <polygon class="cls-1" points="889.37 191.08 891.81 191.08 891.81 201.96 903.77 201.96 903.77 191.08 906.21 191.08 906.21 214.98 903.77 214.98 903.77 204.23 891.81 204.23 891.81 214.98 889.37 214.98 889.37 191.08" fill="#ffffff"/>
  <path class="cls-1" d="M929.5,203c0-6.54-2.64-10.07-7.56-10.07s-7.59,3.53-7.59,10.07,2.64,10.1,7.59,10.1,7.56-3.56,7.56-10.1m-17.66,0c0-7.8,3.66-12.27,10.1-12.27S932,195.21,932,203s-3.66,12.31-10.07,12.31-10.1-4.48-10.1-12.31" fill="#ffffff"/>
  <polygon class="cls-1" points="951.91 214.98 937.64 214.98 937.64 191.08 951.91 191.08 951.91 193.35 940.08 193.35 940.08 201.93 949.44 201.93 949.44 204.09 940.08 204.09 940.08 212.71 951.91 212.71 951.91 214.98" fill="#ffffff"/>
  <path class="cls-1" d="M955.47,207.08h2.21c0,4,2.64,6.1,7.08,6.1,4.07,0,5.63-1.9,5.63-4.31,0-7.12-14.38-2.74-14.38-11.83,0-3.76,2.75-6.3,7.6-6.3,5.66,0,8.64,3.15,8.64,7.63H970c0-3.56-2.34-5.5-6.21-5.5-3.46,0-5.32,1.56-5.32,4.14,0,7.08,14.41,2.74,14.41,11.7,0,4.16-3,6.61-8.21,6.61-5.52,0-9.22-2.85-9.22-8.24" fill="#ffffff"/>
  <path class="cls-1" d="M288.44,234v9.66h6.85c3.08,0,4.81-1.73,4.81-4.81s-1.83-4.85-5-4.85ZM286,231.76h9.12c4.5,0,7.42,2.68,7.42,6.74a6.27,6.27,0,0,1-3.86,6.14,3.67,3.67,0,0,1,3.39,3.76l.13,3.22a12.57,12.57,0,0,0,.61,4H300.3a19.25,19.25,0,0,1-.44-3.66l-.13-3.05c-.11-2.34-1.09-3.16-3.8-3.16h-7.49v9.87H286Z" fill="#ffffff"/>
  <polygon class="cls-1" points="317.42 255.66 314.37 255.66 306.13 231.76 308.61 231.76 315.9 253.29 323.19 231.76 325.66 231.76 317.42 255.66" fill="#ffffff"/>
  <path class="cls-1" d="M328.65,243.73c0-7.63,3.76-12.31,9.93-12.31,5,0,8.13,3.22,8.51,8.51h-2.51c-.31-4-2.48-6.31-6-6.31-4.71,0-7.39,3.67-7.39,10.07s2.65,10.1,7.36,10.1c3.76,0,6.07-2.54,6.31-6.84h2.47c-.3,5.62-3.69,9.05-8.92,9.05-6,0-9.72-4.65-9.72-12.27" fill="#ffffff"/>
  <path class="cls-1" d="M364.27,246.57,360,234.1l-4.24,12.47Zm.75,2.17H355l-2.34,6.92h-2.48l8.27-23.9h3.05l8.34,23.9h-2.44Z" fill="#ffffff"/>
  <path class="cls-1" d="M380.58,246.37a3.07,3.07,0,0,1,6.14,0,3.07,3.07,0,1,1-6.14,0" fill="#ffffff"/>
  <polygon class="cls-1" points="414.31 255.66 400.04 255.66 400.04 231.76 414.31 231.76 414.31 234.03 402.48 234.03 402.48 242.61 411.84 242.61 411.84 244.78 402.48 244.78 402.48 253.39 414.31 253.39 414.31 255.66" fill="#ffffff"/>
  <polygon class="cls-1" points="421.84 231.76 421.84 253.46 433.02 253.46 433.02 255.66 419.4 255.66 419.4 231.76 421.84 231.76" fill="#ffffff"/>
  <polygon class="cls-1" points="450.93 255.66 436.65 255.66 436.65 231.76 450.93 231.76 450.93 234.03 439.09 234.03 439.09 242.61 448.45 242.61 448.45 244.78 439.09 244.78 439.09 253.39 450.93 253.39 450.93 255.66" fill="#ffffff"/>
  <polygon class="cls-1" points="456.01 231.76 459.37 231.76 467.77 252.78 476.21 231.76 479.57 231.76 479.57 255.66 477.13 255.66 477.13 235.12 468.89 255.66 466.69 255.66 458.45 235.08 458.45 255.66 456.01 255.66 456.01 231.76" fill="#ffffff"/>
  <polygon class="cls-1" points="500.59 255.66 486.32 255.66 486.32 231.76 500.59 231.76 500.59 234.03 488.76 234.03 488.76 242.61 498.12 242.61 498.12 244.78 488.76 244.78 488.76 253.39 500.59 253.39 500.59 255.66" fill="#ffffff"/>
  <polygon class="cls-1" points="508.05 231.76 520.29 251.12 520.29 231.76 522.73 231.76 522.73 255.66 520.42 255.66 508.12 236.13 508.12 255.66 505.68 255.66 505.68 231.76 508.05 231.76" fill="#ffffff"/>
  <polygon class="cls-1" points="535.54 234.03 535.54 255.66 533.1 255.66 533.1 234.03 526.49 234.03 526.49 231.76 542.56 231.76 542.56 234.03 535.54 234.03" fill="#ffffff"/>
</svg>