<?xml version="1.0" encoding="UTF-8"?>
<svg xmlns="http://www.w3.org/2000/svg" id="Layer_2" data-name="Layer 2" viewBox="0 0 90.02 50.97">
  <defs>
    <style>
      .cls-1 {
        fill: #fff;
      }
    </style>
  </defs>
  <g id="Layer_1-2" data-name="Layer 1">
    <g>
      <path class="cls-1" d="m85.57,17.67c-.03,6.67-3.54,12.39-8.9,15.5-1.67.97-3.45,1.64-5.34,2.03-.67.14-1.35.22-2.03.28-.91.08-1.83.09-2.74.03-1.27-.08-2.51-.31-3.73-.66-2.97-.88-5.56-2.41-7.73-4.62-2.34-2.39-3.9-5.21-4.65-8.48-.39-1.68-.53-3.38-.41-5.1.15-2.21.68-4.33,1.62-6.35.19-.4.41-.79.61-1.18.22-.44.51-.85.77-1.27.11-.18.25-.35.37-.52.47-.66.99-1.27,1.54-1.85,1.85-1.92,4.02-3.36,6.5-4.32.39-.15.78-.3,1.19-.41.91-.25,1.82-.48,2.75-.6,1.16-.15,2.32-.19,3.48-.13,1.74.1,3.44.45,5.07,1.07,4.14,1.58,7.3,4.3,9.45,8.18.94,1.69,1.56,3.49,1.9,5.39.18,1.03.27,2.07.28,3.01Zm-6.62.14c0-1.93,0-3.87,0-5.8,0-.82-.08-1.64-.27-2.44-.6-2.59-1.93-4.73-4.02-6.38-1.74-1.37-3.72-2.15-5.92-2.35-1.18-.11-2.36-.02-3.52.25-1.17.27-2.28.73-3.3,1.35-.56.34-1.09.73-1.57,1.18-.36.34-.71.69-1.04,1.06-1.18,1.38-1.99,2.96-2.41,4.73-.22.9-.3,1.82-.3,2.75,0,3.51,0,7.03,0,10.54,0,.46.02.92.02,1.39,0,.53.08,1.06.18,1.58.28,1.46.84,2.81,1.66,4.05,2.09,3.17,6.03,5.48,10.71,4.91.93-.11,1.83-.33,2.7-.69,2.84-1.17,4.91-3.15,6.16-5.96.38-.86.64-1.77.78-2.7.1-.63.14-1.26.14-1.89,0-1.86,0-3.73,0-5.59Z"></path>
      <path class="cls-1" d="m37.8,34.71c.06.02.09.03.12.03.09,0,.17,0,.26,0,4.52,0,9.05,0,13.57,0,.1,0,.21,0,.31,0,.23.02.37.17.37.38,0,.23-.13.38-.37.41-.08,0-.15,0-.23,0-4.95,0-9.9,0-14.86,0-.71,0-1.42,0-2.13,0-.09,0-.17,0-.26-.01-.18-.03-.31-.16-.33-.34,0-.08,0-.17,0-.26,0-2.4,0-4.81,0-7.21,0-6.94,0-13.87,0-20.81,0-.32,0-.65,0-.97.03-.93.26-1.81.7-2.63.22-.42.48-.81.79-1.17.6-.7,1.32-1.23,2.16-1.61C38.67.19,39.48.01,40.32,0c.05,0,.1,0,.15,0,.2.02.32.12.35.31.02.13.03.26.03.38,0,1.4,0,2.81,0,4.21,0,7.9,0,15.81,0,23.71,0,.34,0,.68-.02,1.03-.08,1.71-.77,3.13-2.02,4.29-.26.24-.54.45-.83.64-.05.03-.11.08-.18.13Z"></path>
      <path class="cls-1" d="m21.85,33.36c0-.14,0-.26,0-.37,0-8.75,0-17.5,0-26.25,0-.32,0-.63.03-.95.05-.87.28-1.68.68-2.45.79-1.48,1.98-2.48,3.56-3.03C26.71.1,27.31.01,27.93,0c.06,0,.12,0,.18,0,.19.02.31.13.34.33.02.12.01.24.01.36,0,3.04,0,6.07,0,9.11,0,4.49,0,8.98,0,13.47,0,.54,0,1.08-.07,1.61-.15,1.31-.5,2.56-1.06,3.76-1.73,3.67-4.9,5.7-7.58,6.45-.69.19-1.4.32-2.11.39-.69.07-1.38.08-2.08.03-1.42-.11-2.78-.45-4.07-1.06-2.63-1.24-4.6-3.14-5.86-5.77-.56-1.16-.9-2.38-1.06-3.65-.05-.44-.09-.88-.09-1.33,0-.06,0-.12,0-.18.03-.21.18-.35.37-.37.19-.01.35.09.41.28.03.1.04.2.04.3,0,.43.04.85.1,1.28.16,1.27.54,2.47,1.12,3.61,1.53,2.99,4.32,5.15,7.61,5.86.95.2,1.91.28,2.88.24,1.57-.08,3.05-.47,4.45-1.17.12-.06.24-.12.39-.2Z"></path>
      <path class="cls-1" d="m27.24,48.53c0-.09,0-.19,0-.28,0-1.62,0-3.23,0-4.85,0-.1-.02-.2.02-.3.2-.04.52-.04.74,0,.04.08.02.18.02.27,0,1.09,0,2.17,0,3.26,0,1.19,0,2.38,0,3.57,0,.09,0,.18,0,.27-.08.03-.11-.02-.14-.05-.31-.32-.62-.64-.92-.96-1.43-1.5-2.86-2.99-4.29-4.49-.06-.06-.12-.12-.18-.17-.07.02-.06.07-.06.11,0,.08,0,.15,0,.23,0,1.6,0,3.2,0,4.8,0,.09,0,.19,0,.27-.19.05-.47.06-.76.02,0-.04-.03-.09-.03-.14,0-.06,0-.12,0-.18,0-2.26,0-4.52,0-6.77,0-.09,0-.18,0-.27.09-.02.12.05.16.09.48.5.96,1,1.44,1.5,1.25,1.31,2.51,2.62,3.76,3.93.06.06.12.12.18.17.02,0,.03-.01.05-.02Z"></path>
      <path class="cls-1" d="m17.87,48.59c.02-.21.01-.36.02-.51,0-.15,0-.29,0-.44v-4.54c.14-.06.27-.03.39-.04.13,0,.25,0,.39,0,.01.04.03.08.03.11,0,2.43,0,4.85,0,7.27-.07.04-.09,0-.12-.03-.26-.27-.52-.54-.78-.81-1.47-1.53-2.93-3.06-4.4-4.6-.08-.08-.15-.16-.22-.24-.08.02-.07.06-.07.1,0,.08,0,.15,0,.23,0,1.59,0,3.18,0,4.77,0,.1,0,.2,0,.3-.19.06-.55.06-.78.01,0-.05-.01-.1-.01-.14-.03-1.35-.01-6.94.02-7.2.06-.02.09.03.12.06.32.33.64.67.96,1,1.42,1.48,2.84,2.97,4.25,4.45.06.06.12.12.22.22Z"></path>
      <path class="cls-1" d="m62.73,46.66c-.02-1.93,1.54-3.71,3.72-3.71,2.12,0,3.73,1.71,3.73,3.71,0,2.04-1.67,3.69-3.71,3.7-2.08,0-3.75-1.69-3.73-3.7Zm6.67.02c-.03-.24-.04-.48-.1-.71-.39-1.69-2.14-2.71-3.84-2.11-1.48.52-2.28,2.15-1.82,3.66.45,1.48,2.01,2.46,3.65,1.97,1.21-.36,2.08-1.49,2.1-2.81Z"></path>
      <path class="cls-1" d="m47.16,43.07c.22,0,.42-.01.63-.01.4,0,.8,0,1.2.06.23.04.45.09.67.17.61.23.99.66,1.09,1.31.05.32.06.65-.02.97-.18.77-.68,1.22-1.44,1.4-.07.02-.13.03-.2.04-.02,0-.03.02-.05.04.12.22.28.42.43.63.15.21.3.42.44.63.15.21.3.42.45.63.15.21.3.42.45.63.15.21.3.41.45.64-.06.02-.1.03-.14.03-.22,0-.44,0-.67,0-.11,0-.17-.04-.23-.13-.29-.43-.59-.86-.89-1.29-.35-.51-.7-1.01-1.05-1.52-.04-.06-.08-.11-.12-.17-.05-.06-.11-.07-.2-.04-.04.2-.02.4-.02.6,0,.21,0,.41,0,.62,0,.21,0,.43,0,.64,0,.21,0,.41,0,.62,0,.2,0,.41,0,.61-.14.08-.28.05-.41.05-.13,0-.26.02-.37-.02-.03-.22-.03-6.88,0-7.14Zm.78.74c0,.31,0,.59,0,.87,0,.27,0,.55,0,.82,0,.28-.02.56.02.83.22.03.83.04.98,0,.23-.05.44-.13.63-.28.21-.17.36-.39.41-.66.04-.21.04-.43,0-.64-.11-.52-.47-.8-.96-.92-.34-.08-.69-.04-1.08-.03Z"></path>
      <path class="cls-1" d="m6.57,45.93c.29.03.6,0,.91.01.31,0,.62,0,.92,0,.31,0,.61,0,.93,0,.05.24.03.47.02.7-.09.06-.19.04-.28.04-.74,0-1.49,0-2.23,0-.09,0-.18,0-.26,0-.03.02-.03.03-.04.04,0,0,0,.02,0,.02,0,.06,0,.12,0,.18,0,.83,0,1.66,0,2.49,0,.02.01.03.02.06.07.04.16.02.24.02.78,0,1.56,0,2.33,0h.29c.05.24.02.47.02.69-.08.08-.17.05-.25.05-.59,0-1.18,0-1.77,0-.47,0-.94,0-1.41,0-.08,0-.17,0-.26-.01,0-.06-.02-.11-.02-.16,0-.05,0-.1,0-.15,0-2.17,0-4.34,0-6.52,0-.1-.02-.2.02-.3.03,0,.06-.02.08-.02,1.17,0,2.34,0,3.51,0,.02,0,.05.01.09.02.03.22.02.45,0,.68-.1.04-.2.03-.29.03-.77,0-1.54,0-2.31,0-.09,0-.18,0-.26,0-.03.02-.04.03-.04.03,0,0,0,.02,0,.02,0,.62,0,1.25-.01,1.87,0,.04,0,.09,0,.13,0,.02.01.03.03.06Z"></path>
      <path class="cls-1" d="m41.43,45.93c.34.03.65.01.95.01.31,0,.62,0,.92,0,.31,0,.61-.02.91.01.05.21.05.46,0,.7-.3.03-.61,0-.91.01-.31,0-.62,0-.92,0-.31,0-.61-.01-.93.01-.01.04-.03.08-.03.12,0,.86,0,1.71,0,2.57,0,.02,0,.05.01.08.07.06.16.04.25.04.78,0,1.56,0,2.34,0h.28c.08.12.04.24.04.36,0,.12,0,.24-.01.36-.06.01-.11.02-.16.03-.86.03-3.3.01-3.53-.03,0-.04-.02-.09-.02-.14,0-.07,0-.14,0-.21,0-2.16,0-4.31,0-6.47,0-.1-.02-.2.03-.3.2-.03,1.85-.05,3.47-.03.07,0,.13,0,.21.02.03.23.02.45.01.66-.07.08-.15.06-.22.06-.59,0-1.18,0-1.77,0-.23,0-.46,0-.69,0-.07,0-.13.01-.2.02,0,.04-.02.08-.02.11,0,.66,0,1.32,0,2Z"></path>
      <path class="cls-1" d="m82.52,46.66c-.24.04-.47.01-.7.02-.23,0-.46,0-.69,0s-.46,0-.69,0c-.23,0-.46,0-.7,0,0,.05-.02.09-.02.13,0,.84,0,1.68,0,2.51,0,.04,0,.08.01.12.09.06.17.04.26.04.78,0,1.56,0,2.33,0,.09,0,.19,0,.27,0,.05.19.05.43.02.7-.05.06-.13.04-.19.04-.45,0-.91,0-1.36,0-.62,0-1.23,0-1.85,0-.09,0-.19.02-.29-.04,0-.04-.01-.09-.01-.14-.03-1.31-.01-6.69.02-6.96.03,0,.07-.02.11-.02,1.15,0,2.31,0,3.46,0,.03,0,.05,0,.08.01.07.11.03.23.04.34,0,.12.03.24-.04.37-.31,0-.63,0-.94,0-.32,0-.63,0-.95,0-.32,0-.63,0-.96,0-.01.05-.03.09-.03.13,0,.62,0,1.25,0,1.87,0,.03.01.07.02.1.09.05.19.03.28.03.74,0,1.47,0,2.21,0,.09,0,.19,0,.27,0,.06.16.07.35.03.72Z"></path>
      <path class="cls-1" d="m88.72,43.8c-.41,0-.78,0-1.15,0s-.75,0-1.13,0c-.37,0-.73,0-1.1,0,0-.06-.02-.09-.02-.12,0-.19,0-.37,0-.55.08-.08.17-.05.26-.05.78,0,1.56,0,2.33,0,.62,0,1.23,0,1.85,0,.08,0,.17,0,.26.01-.02.12-.08.19-.13.26-.64,1.05-1.28,2.1-1.92,3.15-.55.91-1.1,1.81-1.65,2.72-.05.08-.11.15-.13.27.19.02.37,0,.55,0,.17,0,.34,0,.51,0h1.08c.18,0,.36,0,.54,0h1.04c.06.18.06.49.02.72-.03,0-.06.02-.09.02-1.62,0-3.25,0-4.87,0-.02,0-.05-.02-.09-.03.11-.25.28-.47.41-.7.14-.24.28-.47.42-.7.15-.24.29-.48.44-.72.14-.23.29-.47.43-.7.14-.23.29-.47.43-.7.14-.23.28-.47.42-.7.15-.24.29-.48.44-.72.14-.23.29-.46.43-.7.14-.23.29-.45.43-.74Z"></path>
      <path class="cls-1" d="m73.5,47.1c0,.37,0,.71,0,1.05,0,.34,0,.68,0,1.03,0,.34,0,.68,0,1.01-.2.06-.56.06-.78,0,0-.03-.02-.06-.02-.09,0-2.33,0-4.66,0-7.01.06-.01.11-.03.15-.03.52,0,1.04,0,1.56,0,.25,0,.49.05.73.13.65.2,1.05.65,1.24,1.29.14.5.1,1-.12,1.48-.19.43-.51.74-.96.92-.26.1-.52.17-.8.18-.27.02-.55.02-.82.02-.05,0-.1,0-.19,0Zm.02-.78s.08.02.12.02c.25,0,.5,0,.74,0,.12,0,.24-.02.35-.05.48-.14.82-.43.9-.94.03-.17.02-.36,0-.53-.03-.29-.19-.53-.42-.71-.2-.16-.42-.26-.68-.27-.32-.02-.63-.01-.95-.02-.02,0-.05.01-.07.02,0,.03-.02.05-.02.07,0,.78,0,1.55,0,2.33,0,.02.01.05.02.08Z"></path>
      <path class="cls-1" d="m37.89,43.08c.05.19.05.46,0,.69-.08.05-.16.03-.25.03-.63,0-1.27,0-1.9,0-.08,0-.17,0-.26.01-.01.05-.03.09-.03.13,0,.62,0,1.23,0,1.85,0,.04.01.08.02.13.26.04.52.01.77.02.27,0,.53,0,.8,0,.25,0,.51,0,.76,0,.05.21.05.46,0,.71-.08,0-.16.01-.24.01-.61,0-1.21,0-1.82,0-.08,0-.17,0-.25.01-.06.1-.04.2-.04.29,0,.98,0,1.97,0,2.95,0,.09.02.19-.03.28-.19.04-.51.05-.74,0-.04-.08-.02-.18-.02-.27,0-1.36,0-2.72,0-4.08,0-.82,0-1.64,0-2.46v-.29c.05-.01.09-.03.13-.03,1,0,2,0,3,0,.03,0,.07,0,.1.01Z"></path>
      <path class="cls-1" d="m58.86,43.07c.02.38,0,.73.01,1.08,0,.36,0,.72,0,1.08v2.1c0,.36,0,.72,0,1.08,0,.35,0,.7,0,1.06.08,0,.14.02.21.02.49,0,.97,0,1.46,0,.08,0,.17,0,.26,0,.07.12.04.24.04.36,0,.12.02.24-.02.35-.19.04-1.89.06-2.59.03-.05,0-.1-.02-.14-.03-.03-.27-.05-5.66-.02-6.96,0-.05,0-.1.01-.16.26-.04.5-.02.77-.02Z"></path>
      <path class="cls-1" d="m2.07,43.08c.27-.01.51,0,.76,0,0,.09.02.16.02.24,0,.55,0,1.09,0,1.64,0,1.33,0,2.65,0,3.98,0,.23-.02.46-.05.69-.02.13-.05.25-.1.37-.28.74-.95,1.03-1.58.98-.41-.04-.77-.21-1.08-.49-.01-.01-.02-.03-.03-.06.13-.19.26-.38.43-.58.08.06.15.12.22.18.2.16.43.23.69.2.24-.02.42-.14.53-.35.08-.15.13-.32.15-.49.02-.19.03-.38.03-.56,0-1.8,0-3.61,0-5.41,0-.1,0-.2,0-.33Z"></path>
      <path class="cls-1" d="m30.98,50.2c0-2.34,0-4.67,0-7,0-.03.01-.06.02-.11.25-.04.5-.01.75-.02.01.06.02.11.03.16,0,.05,0,.1,0,.15,0,2.18,0,4.36,0,6.53,0,.09,0,.19,0,.27-.2.06-.55.06-.8,0Z"></path>
    </g>
  </g>
</svg>
