<?xml version="1.0" encoding="UTF-8"?>
<svg xmlns="http://www.w3.org/2000/svg" id="Layer_2" data-name="Layer 2" viewBox="0 0 81.01 81.01">
  <defs>
    <style>
      .cls-1 {
        fill: #fff;
      }
    </style>
  </defs>
  <g id="Layer_1-2" data-name="Layer 1">
    <g>
      <path class="cls-1" d="m21.59,46.27c-.83,0-1.67.32-2.3.95-.61.61-.95,1.43-.95,2.3s.34,1.68.95,2.3l18.92,18.92c.61.61,1.43.95,2.3.95s1.68-.34,2.3-.95c1.27-1.27,1.27-3.33,0-4.6l-18.92-18.92c-.63-.63-1.47-.95-2.3-.95"></path>
      <path class="cls-1" d="m68.43,37.26c-.83,0-1.67.32-2.3.95l-18.92,18.92c-.61.61-.95,1.43-.95,2.3s.34,1.68.95,2.3c.61.61,1.43.95,2.3.95s1.68-.34,2.3-.95l18.92-18.92c1.27-1.27,1.27-3.33,0-4.6-.63-.63-1.47-.95-2.3-.95"></path>
      <path class="cls-1" d="m40.5,9.32c-.83,0-1.67.32-2.3.95s-.95,1.43-.95,2.3.34,1.68.95,2.3l18.92,18.92c.61.61,1.43.95,2.3.95s1.68-.34,2.3-.95c1.27-1.27,1.27-3.33,0-4.6l-18.92-18.92c-.63-.63-1.47-.95-2.3-.95"></path>
      <path class="cls-1" d="m35.84,55.31l4.6,4.6,12.57-12.57c-4.37-1.25-9.15-.04-12.38,3.18l-4.78,4.78Z"></path>
      <path class="cls-1" d="m28.43,64.95c-1.25,4.37-.04,9.15,3.18,12.38,2.37,2.37,5.53,3.68,8.9,3.68s6.52-1.31,8.89-3.68l9.01-9.02c3.23-3.23,4.43-8.01,3.18-12.38l-16.8,16.8c-1.15,1.15-2.67,1.78-4.3,1.78s-3.15-.63-4.3-1.78l-7.78-7.78Z"></path>
      <path class="cls-1" d="m21.1,40.44l12.57,12.57c1.25-4.37.04-9.15-3.18-12.38l-4.78-4.79-4.6,4.6Z"></path>
      <path class="cls-1" d="m12.59,27.94c-3.29,0-6.52,1.28-8.91,3.67s-3.68,5.53-3.68,8.9,1.31,6.52,3.68,8.89l9.02,9.02c3.23,3.22,8.01,4.43,12.38,3.18l-16.8-16.8c-1.15-1.15-1.78-2.67-1.78-4.3,0-1.62.63-3.15,1.78-4.3.24-.24.51-.46.81-.68l7.08-7.08c-1.17-.35-2.38-.52-3.57-.52"></path>
      <path class="cls-1" d="m64.95,52.58c1.14.33,2.31.5,3.48.5,3.36,0,6.52-1.31,8.89-3.68,2.38-2.38,3.68-5.54,3.68-8.9s-1.31-6.52-3.68-8.89l-9.01-9.02c-3.23-3.22-8.01-4.43-12.38-3.18l16.8,16.8c1.15,1.15,1.78,2.67,1.78,4.3s-.63,3.15-1.78,4.3l-7.78,7.78Z"></path>
      <path class="cls-1" d="m47.34,28.01c-1.25,4.37-.04,9.15,3.18,12.38l4.79,4.79,4.6-4.6-12.57-12.57Z"></path>
      <path class="cls-1" d="m28.01,33.67c1.14.33,2.31.5,3.48.5,3.36,0,6.52-1.31,8.89-3.68l4.79-4.79-4.6-4.6-12.57,12.57Z"></path>
      <path class="cls-1" d="m40.5,0c-3.36,0-6.52,1.31-8.89,3.68l-9.01,9.02c-3.23,3.23-4.43,8.01-3.18,12.38l16.8-16.8c1.15-1.15,2.67-1.78,4.3-1.78s3.15.63,4.3,1.78l7.79,7.79c.33-1.13.49-2.3.49-3.49,0-3.36-1.31-6.52-3.68-8.9-2.37-2.37-5.53-3.68-8.89-3.68"></path>
      <path class="cls-1" d="m31.49,18.34c-.83,0-1.67.32-2.3.95l-18.92,18.92c-1.27,1.27-1.27,3.33,0,4.6.61.61,1.43.95,2.3.95s1.68-.34,2.3-.95l18.91-18.92c1.27-1.27,1.27-3.33,0-4.6-.63-.63-1.47-.95-2.3-.95"></path>
    </g>
  </g>
</svg>
