<?xml version="1.0" encoding="UTF-8"?>
<svg xmlns="http://www.w3.org/2000/svg" id="Layer_2" data-name="Layer 2" viewBox="0 0 107.42 22.14">
  <defs>
    <style>
      .cls-1 {
        fill: #fff;
      }
    </style>
  </defs>
  <g id="Layer_1-2" data-name="Layer 1">
    <g>
      <path class="cls-1" d="m4.04,10.23c.11,0,.19.01.27.01,4.18,0,8.35,0,12.53,0,.38,0,.77-.08,1.13-.19.74-.23,1.27-.75,1.34-1.57.07-.95.07-1.92,0-2.87-.06-.96-.65-1.5-1.53-1.7-.27-.06-.55-.1-.83-.11-4.23-.01-8.46-.01-12.69-.02-.07,0-.15.02-.23.03v6.42Zm-.02,3.81v8.06H0V.02h.41C6.07.02,11.73,0,17.39.02c1.13,0,2.24.15,3.29.64,1.39.65,2.19,1.81,2.49,3.31.41,2.03.35,4.08-.1,6.09-.47,2.08-1.84,3.19-3.79,3.64-.13.03-.25.07-.42.11,1.46,2.77,2.91,5.51,4.39,8.31h-2.05c-.72,0-1.43-.02-2.15.01-.32.01-.47-.11-.61-.38-1.3-2.47-2.61-4.94-3.92-7.4-.11-.2-.21-.34-.47-.34-3.25.01-6.5,0-9.75,0-.08,0-.16.01-.29.02"></path>
      <path class="cls-1" d="m77.14,18.35v3.77h-.43c-4.69,0-9.39.02-14.08-.02-1.05,0-2.12-.12-3.14-.37-2.44-.58-3.82-2.31-4.44-4.76-.4-1.58-.51-3.2-.51-4.82,0-1.57.03-3.14.12-4.7.06-1.18.3-2.34.73-3.44.89-2.3,2.62-3.49,4.91-3.85.78-.12,1.58-.17,2.37-.17,4.5-.02,8.99,0,13.49,0h.49v3.74h-.52c-4.44,0-8.88,0-13.33,0-.55,0-1.12.05-1.66.17-1.36.3-2.15,1.18-2.37,2.7-.33,2.31-.32,4.63-.19,6.95.03.59.08,1.18.18,1.76.33,2.04,1.39,3,3.4,3.01,4.32.02,8.65.01,12.97.02.66,0,1.32,0,2.02,0"></path>
      <path class="cls-1" d="m25.5.02c1.51,0,2.95,0,4.4.01.13,0,.29.16.36.29,1.66,3.12,3.32,6.26,4.97,9.39,1.28,2.42,2.56,4.84,3.84,7.26.06.1.12.21.21.36.09-.16.17-.28.24-.41,2.92-5.51,5.84-11.02,8.75-16.54.14-.26.29-.37.58-.37,1.27.02,2.55,0,3.82,0,.11,0,.23.01.41.02-.41.78-.79,1.51-1.18,2.23-3.46,6.51-6.91,13.01-10.36,19.52-.13.25-.27.35-.55.34-1.14-.02-2.28-.01-3.42,0-.24,0-.38-.06-.5-.29-3.81-7.18-7.62-14.36-11.43-21.54-.04-.07-.07-.14-.13-.29"></path>
      <path class="cls-1" d="m107.42,22.13c-1.52,0-2.98,0-4.43-.02-.12,0-.28-.21-.36-.35-1.52-2.85-3.02-5.7-4.53-8.56-1.41-2.67-2.83-5.35-4.24-8.02-.06-.1-.12-.21-.21-.37-.3.56-.57,1.07-.84,1.58-2.72,5.13-5.43,10.25-8.14,15.39-.14.27-.29.36-.58.35-1.38-.02-2.76,0-4.21,0,.07-.16.12-.27.18-.38,3.79-7.15,7.59-14.29,11.37-21.44.11-.2.22-.3.46-.29,1.17.01,2.33.01,3.5,0,.25,0,.37.1.49.31,3.8,7.17,7.61,14.34,11.41,21.52.04.07.07.14.14.29"></path>
    </g>
  </g>
</svg>
