<?xml version="1.0" encoding="UTF-8"?>
<svg xmlns="http://www.w3.org/2000/svg" id="Layer_2" data-name="Layer 2" viewBox="0 0 95.45 39.88">
  <defs>
    <style>
      .cls-1 {
        fill: #fff;
      }
    </style>
  </defs>
  <g id="Layer_1-2" data-name="Layer 1">
    <g>
      <path class="cls-1" d="m2.21,3.5c.43.14.88.24,1.29.42.16.07.35.28.36.44,0,.15-.2.43-.33.44-.89.08-1.79.35-2.67-.07-1.27-.61-.95-1.36-.17-2.46.85-1.21,2.21-1.53,3.51-1.76C5.89.21,7.62-.04,9.34,0c4.65.11,9.16.97,13.49,2.75,3.04,1.25,5.91,2.81,8.52,4.79,2.92,2.22,5.53,4.75,7.1,8.16,1.62,3.51,1.03,7.82-1.75,10.59-2.12,2.12-4.68,3.27-7.56,3.8-1.4.26-2.83.51-4.24.47-2.06-.06-4.11-.39-6.2-.61,0,0-.03.12-.03.26-.05,1.25-.27,1.5-1.55,1.7-.8.12-1.42-.32-1.72-1.25-.14-.43-.27-.87-.33-1.31-.09-.67-.44-1.07-1.07-1.35-2.45-1.08-4.6-2.61-6.37-4.61-.71-.81-1.45-1.76-1.69-2.77-.41-1.68.92-2.57,2.18-3.31,1.89-1.11,3.99-1.68,6.12-2.1.31-.06.62-.13.82-.18.23-1.81.43-3.54.67-5.27.1-.68.18-1.61.93-1.66.42-.02,1.1.78,1.29,1.33.37,1.13.52,2.34.7,3.52.08.53.01,1.09.01,1.76.43,0,.83,0,1.22,0,2.77-.04,5.49.28,8.01,1.5,1.12.54,2.12,1.26,2.49,2.57.3,1.07-.14,2.58-1.05,3.19-1.19.81-2.23.8-3.35.22-.58-.3-.55-.67.02-.98.37-.2.75-.41,1.13-.59.61-.27.48-.64.07-.9-.49-.31-1.02-.66-1.57-.74-1.89-.29-3.79-.47-5.68-.68-.45-.05-.9-.1-1.52-.17.07,1.28.16,2.52.2,3.76.04,1.2.02,2.4.02,3.6,0,1.44,0,1.49,1.38,1.66,4.05.5,7.97.04,11.63-1.82,2.46-1.25,3.92-3.25,3.73-6.15-.12-1.8-.92-3.34-1.99-4.74-2.23-2.95-5.18-5.02-8.38-6.8-3.56-1.98-7.32-3.41-11.27-4.32-2.79-.64-5.62-.79-8.46-.42-1.03.13-2.05.25-3.08.37,0,.08,0,.15,0,.23Zm12.74,14.85c-1.37.16-2.75.24-4.08.51-1.31.27-2.73.38-3.79,1.6,1.87,2.82,4.78,4.04,7.87,5.31v-7.43Z"></path>
      <path class="cls-1" d="m87.55,13.65c.4,1.22.11,2.22-.4,3.22-.71,1.4-1.38,2.83-2.03,4.25-.14.3-.14.67-.06,1.07.62-.84,1.18-1.75,1.89-2.51,1.25-1.33,2.49-2.71,3.92-3.82,1.38-1.07,2.98-1.05,3.82.36.45.75.67,1.7.75,2.59.32,3.93-2.34,7.74-5.86,9.04-.93.35-2.01.29-3.1.43-1.22,3.2-2.23,6.56-2.66,10.08-.01.1-.05.21-.09.31-.19.41-.39.81-.58,1.22-.51-.25-1.12-.39-1.5-.77-.8-.79-1.16-1.85-1.25-2.97-.22-2.84.65-5.46,1.66-8.05.28-.72.66-1.41.96-2.12.07-.16.07-.41,0-.57-.86-2.03-.63-4.06.07-6.05.74-2.09,2.05-3.81,3.74-5.23.2-.17.44-.28.75-.47Zm.52,10.61c.11.13.23.25.34.38.98-.49,2.03-.89,2.93-1.51,1.14-.79,1.75-2.04,2.11-3.34.13-.49-.12-1.07-.19-1.62-.42.25-.97.4-1.25.76-1.35,1.75-2.63,3.55-3.93,5.33Z"></path>
      <path class="cls-1" d="m47.85,18.63c.36.12.72.31,1.09.34,1.53.14,3.07.22,4.61.35,1.26.11,2.51.27,3.55,1.1,1.34,1.07,1.34,2.54,1.23,4.06-.15,2.14-1.73,2.7-3.4,3.17-2.69.76-5.29.7-7.68-.97-.99-.69-1.69-1.56-1.68-2.86,0-.82.4-1.36,1.08-1.74,1.23-.68,2.55-.81,3.91-.52,1.02.22,2.04.4,3.03.72.39.12.67.56,1,.86-.31.32-.57.77-.94.94-1.19.55-2.41.34-3.6-.08-.48-.17-.92-.49-1.4-.58-.4-.07-.87.01-1.25.17-.35.15-.52.54-.08.81.42.26.89.58,1.35.61,2.05.13,4.11.14,6.02-.82.55-.28,1.3-.53,1.21-1.33-.08-.71-.76-.83-1.35-.94-1.26-.23-2.52-.48-3.79-.63-1.42-.17-2.86-.17-4.27-.37-1.09-.15-1.58-.88-1.56-2,.02-1.63.96-2.95,2.59-3.52,1.84-.64,3.72-1.09,5.68-1,1.45.07,2.91.16,4.36.33.56.07,1.33.08,1.3.98-.03.69-.77,1.37-1.58,1.44-.89.08-1.79.09-2.67.18-1.93.2-3.85.43-5.77.68-.33.04-.63.25-.95.38,0,.08-.01.15-.02.23Z"></path>
      <path class="cls-1" d="m76.12,19.47c1.24,0,2.44-.02,3.63.02.2,0,.51.29.57.5.1.33.07.71.02,1.06-.09.58-.33.92-1.06.9-1.24-.04-2.49.07-3.74.15-.19.01-.46.19-.52.36-.24.65-.4,1.32-.65,2.18.88-.18,1.62-.36,2.37-.48.98-.16,1.96-.31,2.95-.41.66-.07,1.14.31,1.27.9.13.57.17,1.11-.51,1.61-1.44,1.06-2.93,1.97-4.66,2.45-2.19.6-4.03-.24-4.51-2.22-.19-.8-.09-1.74.1-2.56.24-1.02.52-1.99.3-3.06-.12-.59.04-1.08.83-1.09.17,0,.4-.23.5-.42.27-.46.49-.95.76-1.48-.91-.21-1.68-.58-2.08-1.47-.33-.74-.22-1.03.58-1.2,1.12-.24,2.25-.49,3.39-.64,1.36-.17,2.74-.29,4.12-.34,1.62-.06,2.46.55,3.09,2.07.28.68.13,1.07-.6,1.17-1.28.17-2.57.29-3.86.34-1.72.06-1.72.01-2.28,1.66Z"></path>
      <path class="cls-1" d="m62.33,20.22c-.08.55-.17.92-.18,1.31-.07,1.57-.1,3.15-.17,4.72-.05,1.17-.68,1.88-1.64,1.7-.42-.08-1.03-.57-1.09-.94-.22-1.46-.41-2.95-.32-4.42.09-1.51.46-3.01.79-4.49.15-.67.45-1.31.76-1.93.48-.97,1.46-1.17,2.16-.35.93,1.1,1.74,2.31,2.55,3.51.77,1.15,1.47,2.36,2.19,3.54.09-.02.19-.03.28-.05-.03-.58.02-1.17-.11-1.73-.53-2.39-1.14-4.77-1.67-7.17-.1-.44-.15-1.12.1-1.35.42-.41.93,0,1.35.34,1.07.84,1.68,1.98,2.2,3.19.98,2.26,1.14,4.66.95,7.06-.08,1.05-.46,2.14-.94,3.09-.76,1.51-2.52,1.42-3.44.06-1.1-1.64-2.09-3.36-3.13-5.04-.18-.29-.36-.58-.64-1.02Z"></path>
      <path class="cls-1" d="m42.65,12.98c-.53-.08-1.06-.2-1.59-.21-.25,0-.58.14-.73.33-.67.86-1.35.82-1.86-.16-.27-.51-.67-1-.3-1.65.05-.09-.05-.32-.15-.42-1.56-1.79-.73-3.84.51-5.24,1.92-2.18,4.41-3.1,7.27-3.02.86.03,1.77.16,2.29,1.07.08.14.37.21.56.22,1.74.08,2.43,1.79,2.09,3.12-.43,1.69-1.57,2.9-2.85,3.93-1.5,1.2-3.19,2.09-5.24,2.03Zm-.87-2.68c.87,0,1.61.09,2.33-.02,1.89-.27,3.53-1.01,4.37-2.87.15-.33.15-.92-.05-1.16-.21-.26-.79-.41-1.14-.32-2.44.6-4,2.34-5.51,4.36Zm.15-4.39c-1.33.14-2.82,1.9-2.44,2.77.8-.91,1.61-1.83,2.44-2.77Z"></path>
      <path class="cls-1" d="m43.99,25.17c-.07.78-.18,1.55-.21,2.33-.02.62-.43.95-.91.94-.61-.02-1.25-.21-1.79-.49-.25-.13-.39-.65-.41-1-.09-1.54-.22-3.09-.16-4.63.08-2.21.27-4.41.5-6.61.04-.4.44-.89.81-1.08.19-.1.79.29,1,.6.34.49.66,1.08.74,1.65.15,1.21.17,2.43.19,3.65.03,1.54,0,3.09,0,4.64.08,0,.16,0,.23,0Z"></path>
    </g>
  </g>
</svg>
