<?xml version="1.0" encoding="UTF-8"?>
<svg xmlns="http://www.w3.org/2000/svg" id="Layer_2" data-name="Layer 2" viewBox="0 0 94.1 52.92">
  <defs>
    <style>
      .cls-1 {
        fill: #fff;
      }
    </style>
  </defs>
  <g id="Layer_1-2" data-name="Layer 1">
    <g>
      <path class="cls-1" d="m27.84,22.67c-.13.1-.28.09-.43.09-3.59,0-7.17,0-10.76,0-.13,0-.26-.03-.4-.04-.02-.11-.05-.19-.06-.28,0-.15,0-.3,0-.44,0-3.25,0-6.5,0-9.74,0-.18,0-.35,0-.53.01-.66-.29-1.18-.77-1.58-.35-.29-.77-.48-1.26-.48-.39,0-.75.06-1.1.27-.63.38-.96.94-1.01,1.66-.03.43-.02.86-.02,1.28,0,9.28,0,18.57,0,27.85,0,.19,0,.38.01.58.1,1.34,1.31,2.09,2.45,1.86.72-.15,1.17-.6,1.5-1.19.1-.18.14-.42.16-.64.03-.26.03-.53.03-.8,0-3.2,0-6.41,0-9.61,0-.16,0-.33.01-.49.01-.15.08-.21.23-.22.12-.01.24-.01.35-.01,3.51,0,7.03,0,10.54,0,.17,0,.36-.02.54.09.01.1.03.21.04.33,0,.52,0,1.03,0,1.55,0,2.04,0,4.07,0,6.11,0,.68-.04,1.36-.17,2.03-.15.73-.4,1.41-.77,2.06-.43.78-1.02,1.41-1.7,1.96-.75.6-1.49,1.2-2.24,1.81-.82.67-1.64,1.35-2.46,2.02-.66.54-1.34,1.07-2,1.6-.46.37-.91.75-1.36,1.13-.33.27-.67.53-1,.8-.41.33-.82.67-1.23,1.01-.17.14-.34.21-.56.21-1.21,0-2.42.01-3.63-.01-.75-.02-1.5-.11-2.23-.29-.72-.17-1.42-.4-2.1-.69-.42-.18-.82-.4-1.22-.63-1.06-.63-1.99-1.42-2.78-2.38-.63-.77-1.15-1.61-1.55-2.52-.39-.88-.62-1.81-.78-2.76-.11-.66-.14-1.32-.14-1.99C0,31.59,0,21.54,0,11.49c0-1.14.14-2.27.42-3.37.18-.68.44-1.34.76-1.98.51-1.01,1.17-1.91,1.98-2.7.78-.75,1.65-1.38,2.67-1.79.03-.01.05-.02.08-.04.52-.31,1.11-.47,1.67-.69.04-.02.08-.03.13-.04.76-.17,1.5-.43,2.28-.54.48-.07.96-.17,1.44-.2,1.27-.09,2.53-.19,3.8-.08.46.04.91.07,1.37.1.74.05,1.46.19,2.18.36.72.17,1.43.37,2.12.63,1.67.63,3.14,1.57,4.34,2.89.9.99,1.58,2.13,2.01,3.4.23.69.44,1.38.52,2.1.06.51.12,1.03.13,1.54.01,3.72,0,7.44,0,11.16,0,.15.02.3-.05.43Z"></path>
      <path class="cls-1" d="m66.47,12.05c-.23-.09-.41-.06-.58-.06-2.02,0-4.04,0-6.07,0-.15,0-.3,0-.44,0-.17-.01-.23-.07-.24-.25,0-.1,0-.21,0-.31,0-3.28,0-6.55,0-9.83,0-.16.01-.32.02-.46.18-.14.36-.11.53-.12.83,0,1.65,0,2.48,0,.27,0,.53,0,.8,0,6.55,0,13.11,0,19.66,0,1.22,0,2.45.01,3.67.02.13,0,.26.01.41.02.03.11.06.21.07.3.01.1,0,.21,0,.31,0,3.22,0,6.43-.01,9.65,0,.2.04.41-.08.6-.17.09-.35.06-.52.06-2.05,0-4.1,0-6.15,0-.18,0-.35,0-.54.01-.03.12-.07.21-.08.31-.01.18,0,.35,0,.53,0,13.09,0,26.18,0,39.27,0,.22,0,.44-.01.65-.16.13-.33.12-.48.12-.69,0-1.39,0-2.08,0-.31,0-.62-.01-.93,0-.25,0-.45-.07-.64-.24-.94-.81-1.88-1.61-2.83-2.41-.95-.8-1.91-1.58-2.86-2.38-.88-.74-1.77-1.48-2.65-2.21-.06-.05-.11-.1-.17-.15-.2-.16-.29-.36-.26-.62.01-.13,0-.27,0-.4,0-10.6,0-21.19,0-31.79,0-.2,0-.41,0-.63Z"></path>
      <path class="cls-1" d="m29.12,41.56c-.02-.11-.04-.16-.03-.2.06-.32.11-.64.18-.96.55-2.46,1.11-4.92,1.66-7.38.15-.66.31-1.32.45-1.98.36-1.66.72-3.31,1.09-4.97.22-.98.45-1.96.67-2.93.14-.63.28-1.27.42-1.9.19-.82.41-1.63.56-2.46.15-.83.36-1.64.53-2.46.24-1.18.53-2.36.79-3.54.29-1.31.59-2.62.88-3.93.52-2.36,1.04-4.72,1.57-7.08.04-.17.08-.35.12-.52.03-.13.12-.2.26-.2.12,0,.24,0,.35,0,4.84,0,9.68,0,14.52,0,.64,0,.57,0,.7.55.31,1.29.61,2.58.91,3.88.29,1.22.58,2.44.87,3.66.3,1.28.6,2.55.9,3.83.18.76.37,1.52.54,2.28.36,1.55.71,3.1,1.08,4.65.35,1.51.71,3.01,1.07,4.52.16.66.32,1.32.48,1.98.19.83.37,1.67.56,2.5.18.78.37,1.55.56,2.32.26,1.1.51,2.21.77,3.32.05.2.11.4.16.6.5,2.12,1.01,4.25,1.51,6.37.07.32.15.63.22.95.01.05,0,.11.01.21-.11-.05-.19-.07-.25-.12-.31-.25-.61-.51-.92-.77-2.83-2.37-5.65-4.74-8.48-7.11-1.25-1.05-2.52-2.09-3.77-3.14-.96-.8-1.92-1.61-2.88-2.42-.37-.31-.75-.62-1.12-.93-.03-.03-.08-.04-.14-.08-.08.05-.17.09-.25.15-.32.26-.64.52-.96.78-.52.42-1.04.83-1.55,1.25-.49.4-.98.81-1.47,1.2-.44.35-.88.7-1.32,1.05-.46.37-.92.74-1.38,1.11-.52.42-1.03.83-1.55,1.25-.68.55-1.35,1.09-2.03,1.64-.59.47-1.18.94-1.76,1.41-.9.73-1.8,1.47-2.71,2.21-.41.33-.83.66-1.25.99-.17.14-.34.27-.56.45Zm14.62-17.27s.09.05.13.05c1.33,0,2.66,0,3.99,0,.06,0,.11-.03.16-.04.07-.16.03-.3,0-.45-.13-.68-.27-1.36-.4-2.04-.21-1.08-.42-2.17-.63-3.25-.12-.64-.24-1.27-.36-1.91-.11-.58-.23-1.16-.34-1.74-.12-.58-.23-1.15-.36-1.8-.05.13-.07.18-.08.24-.7,3.59-1.4,7.18-2.09,10.77-.01.06,0,.12,0,.18Z"></path>
      <path class="cls-1" d="m73.02,52.89c-.07.01-.13.03-.19.03-18.32,0-36.64,0-54.96-.01-.02,0-.05-.03-.08-.04-.03-.09.03-.13.09-.18,1-.81,1.99-1.62,2.99-2.43,1.13-.92,2.27-1.84,3.4-2.76,1.74-1.41,3.49-2.82,5.23-4.23.9-.72,1.8-1.44,2.69-2.16.78-.63,1.56-1.26,2.34-1.9.89-.72,1.78-1.45,2.68-2.17.93-.75,1.86-1.49,2.8-2.24.68-.54,1.36-1.09,2.03-1.64.93-.75,1.86-1.5,2.79-2.25.18-.15.36-.31.54-.45.16-.13.33-.25.47-.35.06,0,.07,0,.09,0,.01,0,.03,0,.04.01,8.99,7.52,17.97,15.04,26.95,22.56.03.03.05.07.08.11,0,0,0,.03,0,.09Z"></path>
      <path class="cls-1" d="m91.07,7.32c-1.75.03-3.05-1.42-3.07-3-.02-1.5,1.14-3.08,3.05-3.08,1.95,0,3.04,1.63,3.05,3.03,0,1.55-1.27,3.06-3.02,3.05Zm-.01-.6c1.31.05,2.45-1.1,2.44-2.44-.01-1.34-1.09-2.48-2.44-2.46-1.55.03-2.48,1.22-2.46,2.48.03,1.63,1.4,2.49,2.46,2.42Z"></path>
      <path class="cls-1" d="m90.63,4.61c-.13.48.04.97-.11,1.42-.2.07-.39.06-.6.01-.02-.06-.06-.13-.06-.2,0-1.05,0-2.09,0-3.14,0-.04.02-.08.04-.15.08-.02.16-.07.24-.07.37,0,.74-.01,1.1,0,.16,0,.32.04.48.09.62.22.8.95.36,1.44-.06.06-.13.12-.21.19.29.28.31.64.34.99.02.26.06.52.09.81-.1.02-.18.06-.26.06-.4.01-.45-.03-.49-.44-.03-.25-.05-.5-.08-.75-.02-.17-.1-.27-.27-.3-.17-.03-.35-.04-.56.03Zm.01-.64c.18,0,.33,0,.47,0,.04,0,.09,0,.13,0,.23-.04.38-.23.38-.47,0-.24-.16-.43-.39-.44-.2-.01-.41-.05-.6.05-.07.28-.08.55.02.87Z"></path>
    </g>
  </g>
</svg>
