<?xml version="1.0" encoding="UTF-8"?>
<svg xmlns="http://www.w3.org/2000/svg" id="Capa_1" data-name="Capa 1" viewBox="0 0 741 214">
  <defs>
    <style>.cls-1{fill:#4d4d4d;}.cls-2{fill:#333;}</style>
  </defs>
  <polygon class="cls-1" points="382.25 71.18 409.35 70.16 386.61 145.1 435.24 145.1 457.98 70.16 484.47 71.18 495.27 35.6 393.04 35.6 382.25 71.18"></polygon>
  <path class="cls-1" d="M218.54,33.85c-40.65,0-78.34,22.37-85,56.79-6.8,35.14,22.31,56.2,63.13,56.2s78.09-21.06,84.89-56.2C288.21,56.22,259.18,33.85,218.54,33.85Zm13.92,57.37c-2.42,12.49-14.37,21.06-29.1,21.06s-23.36-8.57-21-21.06c2.25-11.62,13.72-21.35,29.16-21.35S234.71,79.6,232.46,91.22Z"></path>
  <path class="cls-1" d="M317.92,117.51c-11.18,0-20.78-4.5-28.41-10l-2.18-1.6-20.89,30.93c13.88,6.25,32.67,10,49.53,10,28.93,0,60.54-12.92,65.59-39.06,3.6-18.6-9.57-27.6-29.42-31.37l-10.61-2c-3.59-.72-9.51-1.31-8.72-5.37.87-4.5,7.33-5.81,11.59-5.81,10.47,0,19.17,3.63,26.62,8.28l18.55-28c-11.87-6.54-25.3-9.59-40.56-9.59-29.11,0-60.84,14.52-65.87,40.52-3.32,17.14,10.89,26.29,29.34,29.05l9.48,1.45c4.3.73,10.6,1.16,9.64,6.1S322.71,117.51,317.92,117.51Z"></path>
  <path class="cls-1" d="M556.85,69c11,0,19.78,5.08,26.44,11l6.64-41.68a112.78,112.78,0,0,0-31.78-4.51c-39.22,0-74.87,25.56-81,57.51-6,31.23,19.08,55.49,57.24,55.49,8.69,0,27-1.31,35.45-4.36l9.34-41c-9,6.24-18.65,10.17-29.83,10.17-14.55,0-25.35-9.3-23-21.35S542.3,69,556.85,69Z"></path>
  <path class="cls-1" d="M667.79,33.85c-40.64,0-78.33,22.37-85,56.79-6.8,35.14,22.31,56.2,63.13,56.2s78.09-21.06,84.88-56.2C737.47,56.22,708.43,33.85,667.79,33.85Zm13.93,57.37c-2.42,12.49-14.37,21.06-29.1,21.06s-23.37-8.57-21-21.06c2.25-11.62,13.71-21.35,29.15-21.35S684,79.6,681.72,91.22Z"></path>
  <path class="cls-1" d="M5.35,77.85c-7.53,37.75,23.81,67.07,71.4,67.07,10.84,0,33.73-1.58,44.21-5.27l11.65-49.51c-11.24,7.55-23.26,12.29-37.2,12.29-18.15,0-31.63-11.23-28.72-25.8,2.88-14.4,20-25.81,38.13-25.81,13.73,0,24.68,6.14,33,13.34l8.28-50.39a145.11,145.11,0,0,0-39.64-5.44C57.52,8.33,13.06,39.23,5.35,77.85Z"></path>
  <path class="cls-2" d="M436.17,184.4l-4.65,24.46H471l3-15.8H456l6.35-33.42H440.87l-4.7,24.72c2.93-15.46-9.89-25.5-27.82-25.5-17.47,0-33.67,9.55-37.23,24.33l4.48-23.55H354.91l-3.15,16.58H338.6l3.15-16.58H300.31l-9.89,20.69a63.75,63.75,0,0,0-3.14,8.69h-.47l-2.49-29.38H267.87l-10.12,20.3a59.93,59.93,0,0,0-3.53,9.08h-.47l-1.86-29.38H229.63L241,208.86h18.25l9.63-19.32a45.23,45.23,0,0,0,2.51-7.44h.71l1.65,26.76h18.72l27.92-45.51-8.65,45.51H332.4l3.25-17.1h13.16l-3.25,17.1h20.68l4.42-23.26c-2.11,15,10.47,24,28,24h.09C416.73,209.63,433.16,200.17,436.17,184.4Zm-43.77.24c1-5.22,6.06-9.59,12.87-9.59s10.22,4.37,9.23,9.59c-1.07,5.62-6.35,9.47-12.85,9.47S391.34,190.26,392.4,184.64Z"></path>
  <path class="cls-2" d="M645.16,193.07l6.34-33.43H630.05l-8.59,45-10.72-45H587l-21.56,35.5a17.53,17.53,0,0,0,1-3c1.55-8.36-4.27-12.39-13-14.12l-4.67-.92c-1.61-.29-4.2-.58-3.86-2.37.4-2.07,3.23-2.65,5.13-2.65a21.73,21.73,0,0,1,11.76,3.75l8.18-12.63A35.86,35.86,0,0,0,552,158.83c-12.86,0-26.86,6.57-29,18.22-1.5,7.72,4.78,11.81,12.91,13.08l4.21.63c1.9.35,4.67.52,4.26,2.77s-3.92,2.94-6.05,2.94a21,21,0,0,1-12.51-4.5l-1-.75-8.53,12.92,1.62-8.71H499.15l.92-4.84h16.55l2.42-12.8H502.55l.87-4.72h18.1l2.53-13.43H484.34L475,208.86h40.35l.69-3.51a56.41,56.41,0,0,0,21.39,4.32c9.45,0,19.54-3.23,25.07-9.63l-5.36,8.82h22.71l2.88-6.11H599l.74,6.11H660.2l3-15.79Zm-55.22-2,6.74-15h.81a58,58,0,0,0,.23,6.34l.8,8.7Z"></path>
  <polygon class="cls-2" points="664.16 208.86 704.51 208.86 707.07 195.41 688.34 195.41 689.25 190.58 705.79 190.58 708.22 177.79 691.69 177.79 692.58 173.09 710.68 173.09 713.24 159.64 673.51 159.64 664.16 208.86"></polygon>
  <polygon class="cls-2" points="236.04 208.69 236.02 208.61 235.84 208.61 232.97 196.6 9.01 196.6 9.01 208.69 236.04 208.69"></polygon>
  <polygon class="cls-2" points="9 190.8 231.73 190.8 228.84 178.71 9 178.71 9 190.8"></polygon>
  <polygon class="cls-2" points="9 172.83 227.53 172.83 226.55 168.41 224.53 159.99 9 159.99 9 172.83"></polygon>
  <polygon class="cls-1" points="708.38 135 711.63 135 709.75 143.87 712 143.87 713.88 135 717.13 135 717.54 133.1 708.78 133.1 708.38 135"></polygon>
  <polygon class="cls-1" points="726.92 143.86 729.2 133.1 725.95 133.1 722.23 141.59 722.2 141.59 722.05 133.1 718.77 133.1 716.49 143.86 718.59 143.86 720.5 134.87 720.52 134.87 720.58 143.86 722.78 143.86 726.7 134.87 726.73 134.87 724.82 143.86 726.92 143.86"></polygon>
</svg>
