<?xml version="1.0" encoding="UTF-8"?>
<svg xmlns="http://www.w3.org/2000/svg" xmlns:xlink="http://www.w3.org/1999/xlink" id="Capa_1" data-name="Capa 1" viewBox="0 0 863 298">
  <defs>
    <style>.cls-1{fill:none;}.cls-2{clip-path:url(#clip-path);}.cls-3{fill:#4d4d4d;}</style>
    <clipPath id="clip-path">
      <rect class="cls-1" x="8.35" y="8.08" width="849.3" height="279.83"></rect>
    </clipPath>
  </defs>
  <g class="cls-2">
    <path class="cls-3" d="M244.28,119.76l37.08,136.86-.15-.43a25,25,0,0,1,1.14,7.26,24.44,24.44,0,0,1-24.49,24.47H229L186.11,128.86,169,134.42,200.69,254.2l-.15-.29a24.12,24.12,0,0,1,1.7,9,24.56,24.56,0,0,1-24.48,24.61H152.57l-42.74-159L92.56,134l40.9,153.64H32.83A24.59,24.59,0,0,1,8.35,262.88a26.68,26.68,0,0,1,.43-4.7L46.56,116.77a24.67,24.67,0,0,1,23.22-16.64h79A15.25,15.25,0,0,1,164,115.49v.43h.14L217,102.12l.57-.29a22.59,22.59,0,0,1,5.38-.71,21.82,21.82,0,0,1,21.37,18.64"></path>
    <path class="cls-3" d="M760.42,287.49a24.89,24.89,0,0,1-23.92-19.06v.28L691.78,100.13h57.46l49.54,187.36Z"></path>
    <path class="cls-3" d="M519.54,136.69l40.2,150.8h-38.5a24.08,24.08,0,0,1-23.91-19.63l-.15-.29-36.8-137.28-.28-.57.15.71a21.85,21.85,0,0,1-1.84-8.53,21.55,21.55,0,0,1,21.51-21.63h80.53v17.07H534.12a15.47,15.47,0,0,0-15.42,15.37,16.27,16.27,0,0,0,.7,4.55Z"></path>
    <path class="cls-3" d="M640,136.69l38.64,150.8H636a19.36,19.36,0,0,1-19-16.36l.28,1v.13L577.71,116.77V27.86l54.2-19.78V84.34a15.48,15.48,0,0,0,15.29,15.5h33v17.07H655.41a15.81,15.81,0,0,0-15.71,15.8,7.62,7.62,0,0,0,.28,4"></path>
    <path class="cls-3" d="M753.49,54.89a26,26,0,0,0,2.69-1.43A12.32,12.32,0,0,0,744.57,32L691.08,51.62a12.38,12.38,0,0,0-8.22,12.66A12.15,12.15,0,0,0,696,75.52a19.8,19.8,0,0,0,3-.57Z"></path>
    <path class="cls-3" d="M295.37,207A15.41,15.41,0,0,1,305,192.6l70.76-25.89L408,287.49H309.94a15.25,15.25,0,0,1-14.72-15.37V206.54Z"></path>
    <path class="cls-3" d="M383.68,127.3A9.33,9.33,0,0,0,371.93,121l-.56.14L296.92,148.5l.14-18.07,68.79-25.32h-.15a58.87,58.87,0,0,1,23.5-4.84,59.9,59.9,0,0,1,58.59,48.09v.28l28.45,106,.14.85a25.5,25.5,0,0,1,1.13,7.39,24.59,24.59,0,0,1-24.63,24.62h-26.6Z"></path>
  </g>
  <g class="cls-2">
    <path class="cls-3" d="M848,273.69c2.7,0,3.83-1,3.83-3.42,0-1.27-.57-3.12-3.54-3.12h-6.37v6.54Zm-11-10.81,12.31-.15c6.51,0,7.78,4.84,7.78,6.84,0,2.7-1.27,5.12-3.67,5.83,2,.85,3.11,1.56,3.11,6.11,0,3.56,0,4.55,1.13,5v.71H852a18.24,18.24,0,0,1-.57-5c0-3.42-.28-4.7-4-4.7h-5.23v9.67h-5Z"></path>
  </g>
</svg>
