<?xml version="1.0" encoding="UTF-8"?>
<svg xmlns="http://www.w3.org/2000/svg" id="Capa_1" data-name="Capa 1" viewBox="0 0 679 631">
  <g id="hU0sUh">
    <path d="M5,239.68c7.87-5.63,14.42-11.71,22.1-15.44,8.05-3.92,14.73-9.66,22.44-14,13.69-7.62,26.29-17,39.6-25.3,12.59-7.83,24.91-16.23,37.52-24.07,13-8.12,25.65-16.93,38.79-24.94,10.93-6.67,21.71-13.79,32.43-20.91,14.48-9.61,28.83-19.42,44-28,6.22-3.52,11.72-8.28,17.87-11.93,11.25-6.7,21.54-14.86,33.21-21,6.83-3.57,12.4-9.51,19.22-13.1,13.14-6.92,24.22-17,37.62-23.52,6.38-3.12,11.88-8,17.81-12.06A8.54,8.54,0,0,1,370,5c4.38,6.65,8.93,13.53,13.44,20.43C396.35,45.26,409.5,65,422.16,85c11.14,17.63,22.62,35,33.83,52.58,7.77,12.19,16.36,24,23,36.89.53,1,1.68,1.74,2.87,2.94-2.68,2.06-5.12,4.44-8,6-17.21,9.59-33.05,21.34-49.87,31.48-10.73,6.47-20.62,14.19-31.77,20-6.56,3.43-12.2,8.59-18.64,12.29-11.12,6.39-21.05,14.58-32.49,20.52-6.31,3.27-11.81,8.07-17.94,11.74-13.2,7.89-25.17,17.69-39,24.72C278.1,307.31,272.84,312,267,315.6c-11.38,7-21.91,15.35-33.92,21.46-6.34,3.22-11.71,8.31-17.83,12-11,6.66-21.24,14.37-32.42,20.7-6.45,3.66-12.27,8.42-18.68,12.17-11.08,6.46-21.12,14.54-32.44,20.65-5,2.69-9.51,6.25-15,9.92-9.91-14.42-18.69-29-28.09-43.24s-18.79-28.62-27.85-43.15c-8.89-14.26-18.25-28.21-27.07-42.53C24.76,269,15,254.94,5,239.68Zm343.73-123.3L308.14,72.26l-34.61,22.1a17.12,17.12,0,0,0,1.9,2.37c3.36,2.84,6.82,5.55,10.16,8.41s6.85,5.67,10,8.58c10.93,10.08,22.37,19.54,33.46,29.41,7.13,6.35,14.11,12.86,21.15,19.31.45.41.79,1.09,1.3,1.24,4.26,1.3,6.29,4.46,8.41,8.22,3.51,6.22,8.54,11.59,11.94,17.86,4.2,7.76,10.47,14.17,13.79,22.5,1.23,3.07,4,5.5,6.38,8.58,11.36-7.23,22.41-14.25,33.8-21.51-.63-1.79-.93-3.55-1.81-4.94-6.35-10.14-12.91-20.15-19.24-30.3-4.93-7.91-10.88-15.23-13.59-24.42-1.92-6.48-3.49-13-5.64-19.49a115.84,115.84,0,0,1-3.84-13c-2.54-12.52-7.3-24.37-10.37-36.71-1.92-7.69-4.6-15.15-6.4-22.9-.73-3.16-.51-7.55-4.12-9.27C355,42,349.46,45.56,344,49.15c-5.76,3.75-11.48,7.56-16.4,10.81C334.16,79.27,342.19,97.51,348.71,116.38ZM184.3,272.6,147.79,296a26.18,26.18,0,0,0,1.76,4.82c3.1,5.11,6.58,10,9.57,15.19,3.23,5.61,7.73,10.78,7.36,18.33l-5.91,5.14c-2.54-1.39-5.42-2.05-6.74-3.85a280.37,280.37,0,0,1-16.41-24.16C131,300.32,123.3,290,116.71,279c-6-10-12.48-19.73-18.59-29.68-1.45-2.37-2.25-5.13-3.47-8l9.51-7c11.37,11.26,18.32,25.65,27.74,39.41,6-3.31,11.73-7.47,17.62-11.5,6.09-4.17,12.66-7.64,19-11.42-.35-1.94-.2-3.63-.93-4.73-6.55-9.77-12.83-19.77-20.06-29a39.62,39.62,0,0,0-19.81-13.61c-4.23-1.33-8.11-1.26-12.12-1.36-4.33-.1-8.51,0-13,1.49-17,5.73-28.59,13.51-38.13,26.47-9.25,12.57-10.23,31.38-3.17,44.38,5.28,9.73,11.35,19,17.33,28.37,8.48,13.23,17.22,26.29,25.81,39.44,6.55,10,14,19.22,23.69,26.46,1.56,1.17,3.4,2.55,5.21,2.7,7.37.62,14.29,3.08,22.31.55a105,105,0,0,0,23.24-10c7.55-4.56,14.55-9.53,19.07-17.36s8.53-16.14,8.56-25.61c0-4.54-5.1-19.35-8.15-24-1.57-2.37-3.08-4.79-4.6-7.21C190.77,283,187.74,278.09,184.3,272.6Zm117.89,6,37.55-24.21c-24.5-38.12-48.67-75.75-73.23-114l20.88-14.35c-2.84-8.62-10.15-14.54-13.49-22.73-.91-2.23-3.31-3.85-5.1-5.85-27.2,17.7-54.15,34.54-80.45,52,3.38,5.58,6.1,10.59,9.32,15.26s5.17,10.06,10,13.45c5.72-3.87,11.1-7.64,16.64-11.17,1.52-1,3.51-1.19,5-1.68C253.86,203.45,277.88,240.83,302.19,278.64ZM234.51,322.3l37.84-24.44c-1.27-1.27-2.51-2-2.92-3-3.83-9.58-12.12-16.52-15.5-26.34-14-18.77-25.84-39-38.55-58.66-10.36-16-21.09-31.76-30.75-48.22-1.26-2.16-3.4-3.8-5.36-5.92-13.23,7.21-25.08,15.41-37,23.79,6,9.45,11.7,18.31,17.41,27.08C171,224,182.38,241.45,193.48,259.06c7.29,11.56,14.77,23,22.22,34.48C221.91,303.12,228.2,312.65,234.51,322.3Z"></path>
    <path d="M488.28,386.17c-30-46.71-60.1-93.45-90.52-140.75a26,26,0,0,1,6.12-5.29c12.88-7.94,25.25-16.7,38.16-24.57,6.44-3.92,13.38-8.17,20.58-9.4,11-1.87,22.21-1.3,30.92,8.28,7.07,7.78,13.46,15.74,18.2,25.28,2.41,4.84,3,9.32,2.86,14.47l-8.68,13.29a40.89,40.89,0,0,0,5.13-.85,23.51,23.51,0,0,1,22.79,4.83,43.63,43.63,0,0,1,9.79,11.37c4.88,8.34,11,15.91,15.54,24.53A38.6,38.6,0,0,1,563.72,330a14.1,14.1,0,0,1-3.48,7.57A79.79,79.79,0,0,1,547,349.4C528.92,362,509.8,373,492,385.91,491.14,386.5,489.61,386.1,488.28,386.17Zm30-61.12c-6.63-10.38-12.19-21.49-20.84-30-5.43-.38-9.47,1.11-12.12,5l24.86,38.68,8.1-5.86ZM480.53,268.2c-4-7.22-7.52-13.89-11.69-20.32-2.55-3.94-5.27-6.43-9.27-7.52l-9.37,4.89,20.43,32.3Z"></path>
    <path d="M416.54,404.92l5.11-7c-.85-2-1.67-6.18-4-9.2-8-10.51-14.48-22-21.54-33.06C389.42,345.13,382,335.06,376,324c-3.51-6.51-8.19-12.39-12.23-18.62-5.73-8.84-11.35-17.74-17.27-27,4.57-6,11.52-8.39,17.42-12.25s11.84-7.87,18.47-12.28c4.22,6.18,8.15,11.79,11.94,17.51,7.57,11.42,15.39,22.69,22.51,34.39,8.59,14.12,17.67,27.91,26.71,41.74,2.8,4.28,5.56,8.6,8.09,13,2.92,5.14,6.73,10.17,8,15.74a43.22,43.22,0,0,1,0,19c-1.45,6.15-3.8,12.37-8.67,17.35-8,8.22-16.48,15.65-27.34,19.86-8.74,3.39-18,6.7-27.1,4.39-9.39-2.38-18.55-5.6-24.72-15.21-5.23-8.15-11.2-16-16.35-24.27-7-11.37-15.29-21.93-21.44-33.9-3.25-6.32-8.35-11.67-12-17.83-6.62-11.29-15.3-21.27-20.77-33.27-.67-1.49-2.31-2.54-3.66-4L334.13,285a34.4,34.4,0,0,1,6.19,7.69c3.82,7,8.54,13.46,12.69,20.26,7,11.41,15.37,21.88,21.41,33.92,3.06,6.09,7.6,11.43,11.44,17.12q11.55,17.07,23.06,34.16C409,403.06,414.05,402,416.54,404.92Z"></path>
    <path d="M253.6,624.92c-4.41-6.18-8.61-11.64-12.33-17.41-3.52-5.47-6.39-11.35-9.81-16.88-3.58-5.79-8.87-10.56-10.81-17.38,8.34-5.46,16.17-10.7,24.11-15.76q27.45-17.47,54.69-35.24c13.86-9,27.9-17.72,41.74-26.76,13.39-8.73,26.6-17.77,40.22-26.13q21.13-13,41.78-26.7c11.4-7.59,22.65-15.49,34.57-22.17,10.95-6.14,20.51-14.33,31.8-19.95,6.61-3.3,12.16-8.64,18.6-12.35,11.09-6.41,21.11-14.48,32.51-20.44,6.56-3.43,12.3-8.41,18.55-12.48,8.53-5.56,17.19-10.93,26-16.49,11.1,17.38,22.17,34.68,33.39,52.25-3.35,2.55-6.5,6-10.39,7.69-8.16,3.65-14.77,9.62-22.46,13.94-13.4,7.54-25.25,17.54-39,24.62-6.07,3.13-11.37,7.72-17.19,11.36-11.33,7.1-21.91,15.35-33.92,21.47-6.07,3.09-11.33,7.77-17.17,11.38-11.38,7-21.89,15.39-33.93,21.45-6.09,3.07-11.33,7.78-17.16,11.42-11.35,7.07-22.06,15.1-33.9,21.48-8.29,4.46-15.43,11-23.56,15.82-11,6.52-21.06,14.56-32.47,20.53-6.55,3.44-12.17,8.64-18.61,12.35-11.1,6.4-21.05,14.57-32.5,20.46-6.32,3.25-11.94,7.86-17.89,11.84-4,2.7-8.06,5.44-12.18,8C255.6,625.27,254.47,624.92,253.6,624.92ZM501.89,420.76c-4.56-2.18-7.73-6.88-13.51-7.5L483,419.11c8,12.27,15.69,24.1,23.59,36.25l6.77-5.07c1.08-5.84-5-6.76-4.13-11.31L520,446.65l7.91-5.68-23.64-37.05-8.37,5.69c1.87,2.69,3.74,5.18,5.35,7.82C501.76,418.34,501.68,419.63,501.89,420.76ZM319.59,537.42l-9.93-8.62-12.05,8,24.51,37.3,8.56-6.52c-3.32-3.11-5.48-6.1-5.62-10.15l8.4,8.92,6.16-4.33L336,552l6.76,7.28c4.42.56,6-2.77,8.38-5.45l-23.26-36.38-12.47,8.2Zm-49.7,46.8C278,586.48,277.26,595.6,284,598c1.39-.92,2.78-1.87,4.2-2.76s2.78-1.71,4.68-2.86l-23.72-37.1c-4.34,2.06-8.08,3.67-9.95,8,2.87,3.69,6.28,7.12,6.29,12.54l-9-12.63-10,6.55,24.16,37.12c3.8-2.55,7.82-3.58,9.06-8.09Zm147.78-71.71c4.13-2.62,7.9-5.13,11.79-7.44s7.82-4.82,8.72-10.58c-2.95-4.35-6.18-9.09-8.94-13.15l-5.84-1a9.34,9.34,0,0,1,.37-2.4,9.54,9.54,0,0,1,1.32-1.65c-1.22-1.95-3-3.56-3.18-5.35-.52-4.64-4.57-4.89-7.37-6.32s-5.87.56-8.18,1.85c-4.36,2.43-8.18,5.83-12.36,8.93Zm23.95-68.25c-4.09,2.67-8.09,3.71-9.15,8.26,5,7.45,10.27,15,15.22,22.61,1.4,2.17,3.68,4.32,2.54,8.9L429.5,452.5l-10.45,6.25c8.43,10.85,13.43,23.73,23.42,33.09h9.24c10.05-8.81,10.05-8.81,10-16.61C454.79,464.58,448.25,454.48,441.62,444.26ZM304.82,586.53l9.2-7.68v-9.58c-2.89-4.77-5.44-9.55-8.54-13.95s-6.91-8.65-9.82-12.24h-9.5c-1.93,1.4-3.31,2.5-4.78,3.44-5.85,3.75-6.58,7-3.77,13.71,2.66,6.35,7.06,11.67,10.17,17.66C291.46,585,296.79,587.28,304.82,586.53ZM529.26,388.86c-1.19,8.53,5.49,12.37,10.12,17.42h14.87l5.11,6.44c-5.84,1.94-5.57-2.84-8.11-5.38l-10.14,5.73,6.72,9.5h10.82c7.16-3.19,11.42-7.78,10.62-15.53l-9.8-12H544.55A32.57,32.57,0,0,1,540.6,391c-.48-.69-.09-2-.09-5.12l6.74,7.13,7.69-5.87-6.05-7.89C539.32,377.2,534.86,383.22,529.26,388.86Zm-82,52.9c-.93,8.67,5.64,12.47,10.2,17.47h14.71c1.24,2.44,5.64,3.2,3.54,7.26a16,16,0,0,1-6-5.63c-4.76-.7-6.34,4-10.25,5l6.77,9.52h10.3c2.51-1.5,4.27-2.45,5.93-3.57,5.38-3.6,6.38-8.87,2.67-14.07-2.37-3.32-4.85-6.57-7.07-9.57H462.41c-.56-2.58-5.1-2.93-3.89-7.85l6.09,6.08,8.32-6.16L467.12,432C457.6,429.91,452.84,436,447.22,441.76Zm124.47-77.41c-8.89-.1-8.89-.1-19,10.28,1.31,5.86,3.78,11.18,7.3,14.11l13.73,3.37c-1.87,1.39-3,2.28-4.21,3.12s-2.56,1.75-3.75,2.56a56.86,56.86,0,0,0,3.46,5.49,61.31,61.31,0,0,0,4.45,4.53C583,408,583,408,593,397.94c.61-5.94-2.27-10.79-5.89-14.74-5.59-6.12-13.58-4-20.69-4.44-.82-1.74-1.59-3.38-3.16-6.75l8.43,5.47c1.11-3.37,6.9-1.44,6.72-6.91ZM374.38,524.92l6.12,6.93h9.69l7.35-8.54,1.46,1.33,8.69-6.44-6.12-3.77v-5.79l-4.48-2.53-2,4.36-6.28-3.18c.55-7.72-3.18-12-11.14-14.09l-10.53,8v10l4.05,4.05,5.13.93C372.94,519.14,374.76,522.62,374.38,524.92Zm173.06-96.17c1-4.17-2.5-5.62-4.42-7.7l-5.89,3.05c-3.7-3.91-3.7-3.91-4-8.19l3.11-1.25c1.5-4.42-2.07-6-4.21-8.33-5,2-5,2-8.49-2.6l6-4.87-5.68-7.77-16.35,10.59q12,18.7,24.05,37.44ZM345.62,517.39l7.11-5.26c-1.72-2.44-3.42-4.83-5.19-7.32l-15.84,9.68c2.5,7.46,8,12.76,11.52,19.14a111.53,111.53,0,0,0,12.51,18.73l14.81-10.05v-2.15c-2.08-2.52-3.5-4.24-6.39-7.76l-1.88,6.31-6.2-6.7,3.89-6.35-5.89-6.06c-.41.57-1.4,2-2.07,3C350,520.92,348.35,519.6,345.62,517.39Zm146.82-54,10-5.44c-2.3-7.19-7.89-12.44-11.43-18.84-3.67-6.66-7.55-13.11-12.57-18.76L469.2,427Z"></path>
    <path d="M219.14,446.77c-9.66-13.48-15.75-28.52-28.17-39.43-1.68,1-2.86,1.77-4.06,2.47s-2.49,1.39-3.82,2.13v8.58c19.71,30.36,38.73,61.64,59.7,91.23h6.92l4.27-5.63c-.14-.75-.07-3.19-1-5.13-2.76-5.57-5.73-11-9-16.32-2.88-4.66-6.27-9-9.77-14,4.63-6,12.59-7.86,18.45-12.72,5.59-4.64,12.51-7.69,18.76-11.38,4,6.29,8.37,12.63,12.12,19.32,3.28,5.87,6.72,11.91,8.45,18.31a34,34,0,0,1,0,16.27c-1.78,7.35-4.52,14.7-9.83,20.47a91.28,91.28,0,0,1-22,17.13,63.1,63.1,0,0,1-23.94,8.06c-13.23,1.62-24.66-4.43-32.68-14.86-4.33-5.63-9.21-11-12.62-17.45-3.32-6.31-8.54-11.6-12-17.87-6-11-14.29-20.55-19.91-31.81-2.79-5.58-6.68-10.59-9.8-16-3.2-5.56-5.34-11.49-4.7-18.1.55-5.52-1.08-11.15,1.74-16.6,3.74-7.2,7.24-14.56,13.61-19.83,8.15-6.75,17.07-12.57,27.05-16,12.5-4.32,25.28-4,36.69,3.21,5.26,3.32,9.68,8.38,13.56,13.37,5.43,7,10,14.63,14.92,22,1.41,2.11,2.65,4.33,4,6.62C243.74,430.89,231.61,438.71,219.14,446.77Z"></path>
    <path d="M340.32,442.68l22.46-14.77q9.23,14.26,18.52,28.6c-19,12.32-38.14,24.75-57.33,37.11-.64.41-1.79.05-3.32.05L229.87,352.51c12.12-8.18,23.92-16.94,37.26-23.64Z"></path>
    <path d="M634.57,366.34c1.72,3.37,3.65,6.66,5.61,10l-2.49,2.49c-5.77-5.5-9-12.83-13.69-19.47l8-3,10.4,10.41c-1.68-6.07-3.08-11.09-4.47-16.12l1.83.75c.66-1.36,1.31-2.73,2.32-4.83a126.49,126.49,0,0,1,13.24,19.93l-2.64,2.88c-.42-.16-1-.19-1.22-.48-2.08-3.39-4.1-6.82-7.26-9.89,1.28,4.59,2.55,9.18,3.94,14.17l-4.91.29-7.87-7.86a4.38,4.38,0,0,0-.81.76,2.43,2.43,0,0,0,.58-.44l-1.27-1.49-.58.58A5.18,5.18,0,0,1,634.57,366.34Z"></path>
    <path d="M675.33,354.15l-3.85,3.35-4.47-6c-5.77.65-5.77.66-6.54,6.29l2.82,3-2.26,5-13.85-20.43c5-3.11,9-7.29,15.4-8.84l5.21,4.86v4.25ZM664,345c-1.48-2.27-3.81-3.6-6.13-2.45-2.47,1.21-4,3.64-2.33,6.72C659.91,349.16,659.91,349.16,664,345Z"></path>
    <path d="M348.93,116.14l1.48,1.27-.57.57-1.27-1.49Z"></path>
    <path d="M334.18,548.36c2.72.15,1.55,2.26,1.82,3.65C333.27,551.85,334.45,549.74,334.18,548.36Z"></path>
    <path d="M332.76,548.41l-.3-3.49,1.18-.16c.23,1.19.46,2.38.7,3.57Z"></path>
    <path d="M319.76,537.23l1.49,1.27-.58.58c-.42-.5-.84-1-1.27-1.49Z"></path>
    <path d="M323.07,555.84l-1.48-1.27.57-.57,1.27,1.49Z"></path>
    <path d="M325.06,557.47l-1.82-1.82Z"></path>
    <path d="M418,489c4.49,1,5.09,4.88,8.08,8.59C419.19,496.81,419.92,492,418,489Z"></path>
    <path d="M412.73,483.5c-.67-1.18-1.39-2.33-2-3.55s-1-2.49-1.48-3.65C413.68,475.89,414.07,476.38,412.73,483.5Z"></path>
    <path d="M509,439.18l-1.49-1.28.58-.57,1.27,1.49Z"></path>
    <path d="M502.05,420.56l1.49,1.28-.57.57-1.28-1.49Z"></path>
    <path d="M288.07,551.81c5,7.21,10.13,14.38,15,21.67.55.8.08,2.29.08,3.19-.54.44-.79.8-1,.76s-.48-.36-.64-.6q-7.68-11.79-15.33-23.59Z"></path>
    <path d="M575.19,391.85h4.53l2.94,7C577.09,398.87,578,393.55,575.19,391.85Z"></path>
    <path d="M376.42,500l4.19,5.91-4.19.63Z"></path>
    <path d="M388.39,522.84h-2.65l-.66-3.2,3.31-.67Z"></path>
  </g>
</svg>
