<?xml version="1.0" encoding="UTF-8"?>
<svg xmlns="http://www.w3.org/2000/svg" id="Capa_1" data-name="Capa 1" viewBox="0 0 811 196">
  <defs>
    <style>.cls-1{fill:#4d4d4d;}</style>
  </defs>
  <path class="cls-1" d="M744.19,3.67c-42.73,0-76.85,18-83.28,56.12-11.5,68.51,83.82,47.22,79.3,74.39-1.51,8.45-9,16.1-23.06,16.1-5.38,0-11.06-1.47-15.13-4.49s-8.49-7.57-7.88-26.62H670.78c-.43,17.37,1.5,28.4,6.3,35,10.23,15.34,30.59,16.1,34.69,16.1,32.74,0,54.66-14.4,58.71-38.67,3.13-18.13-13.09-24-31.66-28.94-3.52-.9-6.55-1.94-10.64-2.93-16.19-4.17-46.36-12-44.53-39.44,2.27-35.5,43-38.2,55.39-38.2,18.17,0,30.94,6,38.23,17.7,5.58,9.22,6,19.71,6.23,24.33v.34l23.81.11c-.22-36.17-15.77-60.86-63.12-60.86m28.89,38.88c-6.35-10.15-17.72-15.32-34-15.32-11.38,0-48.53,2.36-50.54,33.34-1.52,23.13,24,29.75,40.88,34.16,4.07,1,7.2,1.92,10.83,2.93,14.73,3.83,39.33,10.37,35.23,34.82-4.51,26.94-28.33,43-63.67,43-4.5,0-27-.89-38.64-18.25-5.59-7.45-7.73-19.28-7.29-38H643.73c-5,45,16.09,72.81,66.22,73.15,47,.44,82.76-18.38,88.9-59.95,10-67.73-89-47.68-85.14-76.75.85-6.54,6.75-11.37,19.09-11.37,5.49,0,10.31,1,14,3.28s6.14,6,7.43,17l24.35-.11v-.24c-.11-4-.53-13.62-5.46-21.63m-580.55-34L152.94,186.58H280.46l4.29-20.18H182.56L213.8,29.26H315.25l4.82-20.75Zm-3.75,152.71h97.15l4-18H214.56l5.57-23.55H291.3l4-19.51H224.87L226.26,95h70.08l4.08-19.51H230L235.57,53h74.31l4.18-18.59h-96.4Zm248-152.35H413L312.66,186.58h22.86l16.85-29.09h61.31L419,186.58h21.33l-8.68-50.37H364.1l2.77-5.2h63.89L415.51,44l4-7.45,25.88,150h21.91Zm-58.5,101.54,22-39.35,6.55,39.35ZM385,8.87,284,186.58h22.86L407.23,8.87ZM69.73,192.32c46.91.44,82.67-18.38,88.78-59.95,10-67.73-88.87-47.68-85.13-76.75.87-6.54,6.87-11.37,19.22-11.37,5.34,0,10.2,1,13.85,3.28s6.13,6,7.4,17l24.49-.11v-.24c-.24-4-.66-13.62-5.6-21.63C126.54,32.4,115,27.23,98.82,27.23c-11.35,0-48.52,2.36-50.56,33.34C46.77,83.7,72.21,90.32,89.17,94.73c4.07,1,7.18,1.92,10.74,2.93,14.7,3.83,39.28,10.37,35.2,34.82-4.51,26.94-28.34,43-63.65,43-4.4,0-27.06-.89-38.66-18.25-5.55-7.45-7.84-19.28-7.19-38H3.4a110.51,110.51,0,0,0-.71,12.2c0,37.76,21.53,60.64,67,60.95m1.73-22.09c32.73,0,54.75-14.4,58.82-38.67,3-18.13-13.2-24-31.77-28.94-3.44-.9-6.55-1.94-10.52-2.93-16.23-4.17-46.48-12-44.65-39.44,2.25-35.5,43-38.2,55.48-38.2,18.07,0,30.81,6,38.13,17.7,5.69,9.22,6.11,19.71,6.31,24.33v.34l23.74.11c-.1-36.17-15.68-60.86-63.11-60.86-42.75,0-76.87,18-83.32,56.12C9.09,128.3,104.52,107,99.91,134.18c-1.4,8.45-9,16.1-23,16.1-5.49,0-11.21-1.47-15.15-4.49-4.28-2.94-8.58-7.57-7.95-26.62H30.57c-.54,17.61,1.27,28.3,6.2,35,10.21,15.34,30.71,16.1,34.69,16.1m582.78-113c0-33.48-21.45-48.58-58.51-48.58H508.58l-38.86,178h23.6L527.59,27.9h68.46c11.25,0,20.52,3.72,26.85,10.49,5.68,6.08,8.9,14.65,8.9,24.11a49.59,49.59,0,0,1-12.86,32.79,47,47,0,0,1-23,13.87,29.2,29.2,0,0,1,7.69,6.4c3.78,4.63,7.86,12.74,6,24.93l.1-.24a.41.41,0,0,1-.1.24v0a28,28,0,0,1-.43,2.91c-2,14.09-3.88,30.22,1.07,43.18h22.23c-1.39-3.85-4-9.13-.68-22.44,3.68-14.77,8.94-43.71-9.84-53.73,4.92-2.5,32.19-14.23,32.19-53.21m-49.79,85.43.41-2.82c1.52-10.36-1.83-17-4.92-20.84a22.06,22.06,0,0,0-15.89-8.13H538.41l1.4-5.19h44.24c15.66-.44,25.65-7.76,31.33-14a44.32,44.32,0,0,0,11.48-29.2c0-8.12-2.68-15.46-7.49-20.52-5.37-5.74-13.46-8.89-23.32-8.89H531.53L498.38,186.58h23L533.7,131h29.83c4.28,0,19.64-2.15,15.15,16.56-1.07,6.44-4,23,0,39h26.61c-4.6-13.77-3-29.76-.84-44m-53.37-89.7h29.85c14.17,0,18.47,7.64,18.47,14.07,0,9.7-8.47,18.16-26.74,18.16H544.31Zm32.53,57.91Zm26.09,29.65h0v0Zm0,0a.41.41,0,0,0,.1-.24Z"></path>
</svg>
