<?xml version="1.0" encoding="UTF-8"?>
<svg xmlns="http://www.w3.org/2000/svg" id="Capa_1" data-name="Capa 1" viewBox="0 0 1044 209">
  <defs>
    <style>.cls-1{fill:#4d4d4d;}.cls-2{fill:#b3b3b3;}</style>
  </defs>
  <path class="cls-1" d="M77.58,152.78a11.3,11.3,0,1,0-11.27-11.32A11.28,11.28,0,0,0,77.58,152.78Z"></path>
  <path class="cls-1" d="M1.91,206.32H263.76V1.68H1.91ZM42.83,93.71a27.21,27.21,0,0,1,8.48,1.4,26.66,26.66,0,0,1,53,3.88A26,26,0,0,1,102,109.67H249.22v21.5h-9.37v37H225V152.24H213.43v15.93h-14.9v-37H102a25.52,25.52,0,0,1,2.3,10,26.65,26.65,0,0,1-53,4.56,27.19,27.19,0,0,1-7.82,1.4,26.7,26.7,0,1,1-.68-53.4Z"></path>
  <path class="cls-1" d="M43.15,131.71a11.3,11.3,0,1,0-11.27-11.33A11.28,11.28,0,0,0,43.15,131.71Z"></path>
  <path class="cls-1" d="M77.58,110.62A11.29,11.29,0,1,0,66.31,99.31,11.28,11.28,0,0,0,77.58,110.62Z"></path>
  <path class="cls-2" d="M518.85,77.71a36.86,36.86,0,1,0,36.86,36.86A36.86,36.86,0,0,0,518.85,77.71Z"></path>
  <path class="cls-2" d="M734,77.71a36.86,36.86,0,1,0,36.86,36.86A36.86,36.86,0,0,0,734,77.71Z"></path>
  <path class="cls-2" d="M804.66,114.57a36.6,36.6,0,0,0,6.78,21.24L862.58,84.7a36.17,36.17,0,0,0-21.09-7A36.84,36.84,0,0,0,804.66,114.57Z"></path>
  <path class="cls-2" d="M284,1.68V206.32h758.1V1.68ZM456.81,56.57H428.3a47.43,47.43,0,0,0,0,94.86h28.51v12.45H428.3a59.88,59.88,0,0,1,0-119.76h28.51Zm62,107.31a49.31,49.31,0,1,1,49.32-49.31A49.31,49.31,0,0,1,518.85,163.88Zm107.56,0A48.93,48.93,0,0,1,589.55,147v59.26H577.1V114.57a49.31,49.31,0,1,1,49.31,49.31Zm107.54,0A49,49,0,0,1,697.09,147v59.26H684.64V114.57A49.31,49.31,0,1,1,734,163.88Zm107.54-12.45H880.4v12.45H841.49A49.31,49.31,0,1,1,880.4,84.6l-60.13,60A36.54,36.54,0,0,0,841.49,151.43Zm116.17,12.45h-18.9a49.3,49.3,0,0,1-49.29-49.31V44.12h12.44v70.45a36.84,36.84,0,0,0,36.85,36.86h18.9Z"></path>
  <path class="cls-2" d="M626.41,77.71a36.86,36.86,0,1,0,36.85,36.86A36.86,36.86,0,0,0,626.41,77.71Z"></path>
  <path class="cls-2" d="M43.51,147.11a27.19,27.19,0,0,0,7.82-1.4,26.65,26.65,0,0,0,53-4.56,25.52,25.52,0,0,0-2.3-10h96.53v37h14.9V152.24H225v15.93h14.85v-37h9.37v-21.5H102A26,26,0,0,0,104.3,99a26.66,26.66,0,0,0-53-3.88,27.21,27.21,0,0,0-8.48-1.4,26.7,26.7,0,1,0,.68,53.4ZM77.58,88.05A11.29,11.29,0,1,1,66.31,99.31,11.27,11.27,0,0,1,77.58,88.05Zm0,42.14a11.3,11.3,0,1,1-11.27,11.27A11.28,11.28,0,0,1,77.58,130.19ZM43.15,109.12a11.3,11.3,0,1,1-11.27,11.26A11.28,11.28,0,0,1,43.15,109.12Z"></path>
  <path class="cls-1" d="M518.85,65.27a49.31,49.31,0,1,0,49.32,49.3A49.3,49.3,0,0,0,518.85,65.27Zm0,86.16a36.86,36.86,0,1,1,36.86-36.86A36.85,36.85,0,0,1,518.85,151.43Z"></path>
  <path class="cls-1" d="M626.41,65.27a49.3,49.3,0,0,0-49.31,49.3v91.71h12.45V147a49.22,49.22,0,1,0,36.86-81.75Zm0,86.16a36.86,36.86,0,1,1,36.85-36.86A36.85,36.85,0,0,1,626.41,151.43Z"></path>
  <path class="cls-1" d="M368.43,104a59.89,59.89,0,0,0,59.87,59.91h28.51V151.43H428.3a47.43,47.43,0,0,1,0-94.86h28.51V44.12H428.3A59.87,59.87,0,0,0,368.43,104Z"></path>
  <path class="cls-1" d="M734,65.27a49.31,49.31,0,0,0-49.31,49.3v91.71h12.45V147A49.22,49.22,0,1,0,734,65.27Zm0,86.16a36.86,36.86,0,1,1,36.86-36.86A36.85,36.85,0,0,1,734,151.43Z"></path>
  <path class="cls-1" d="M901.91,114.57V44.12H889.47v70.45a49.3,49.3,0,0,0,49.29,49.31h18.9V151.43h-18.9A36.84,36.84,0,0,1,901.91,114.57Z"></path>
  <path class="cls-1" d="M841.49,65.27a49.31,49.31,0,0,0,0,98.61H880.4V151.43H841.49a36.54,36.54,0,0,1-21.22-6.81l60.13-60A49.06,49.06,0,0,0,841.49,65.27Zm-30,70.54a36.81,36.81,0,0,1,30-58.1,36.17,36.17,0,0,1,21.09,7Z"></path>
</svg>
