<?xml version="1.0" encoding="UTF-8"?>
<svg xmlns="http://www.w3.org/2000/svg" id="Capa_1" data-name="Capa 1" viewBox="0 0 900 157">
  <defs>
    <style>.cls-1{fill:none;}.cls-2{fill:#333;}</style>
  </defs>
  <path class="cls-1" d="M759.39,107.86c0,10.32,6.54,17.13,13.56,17.13,6.63,0,12.69-4.51,16.79-10.75V73.62C771.23,81.35,759.39,93.33,759.39,107.86Z"></path>
  <path class="cls-1" d="M858.37,20.09A8.47,8.47,0,0,0,861.15,22a9.1,9.1,0,0,0,3.49.7,8.84,8.84,0,0,0,3.49-.7,9,9,0,0,0,2.79-1.93,8.37,8.37,0,0,0,1.83-2.9,9.68,9.68,0,0,0,0-7.23,8.31,8.31,0,0,0-1.83-2.84,9.3,9.3,0,0,0-2.79-1.93,8.5,8.5,0,0,0-3.49-.7,8.55,8.55,0,0,0-6.27,2.63A9.25,9.25,0,0,0,856.49,10a10.38,10.38,0,0,0,0,7.23A9.3,9.3,0,0,0,858.37,20.09Zm2.12-12.71h4.83a5.07,5.07,0,0,1,3.29.88,3.21,3.21,0,0,1,1.06,2.66,3.16,3.16,0,0,1-.91,2.47,4.35,4.35,0,0,1-2.36.92L870,19.82h-2.08l-3.39-5.36h-2.07v5.36h-1.94Z"></path>
  <path class="cls-1" d="M521.93,16.88h-8v59h7.36c16.69,0,24-12.71,24-30C545.25,29.79,537.19,16.88,521.93,16.88Z"></path>
  <path class="cls-1" d="M95.59,107.87c0,10.31,6.56,17.12,13.59,17.12,6.6,0,12.68-4.51,16.74-10.75V73.61C107.45,81.35,95.59,93.33,95.59,107.87Z"></path>
  <path class="cls-1" d="M388.14,16.87l-8.79.05V138.24h9.52c21.63,0,29.29-26.91,29.29-57.73l0-13.07C418.18,37.87,408.45,16.87,388.14,16.87Z"></path>
  <path class="cls-1" d="M656.3,15c-14,0-20.58,19.68-20.58,48.62h41.35C677.07,34.68,670,15,656.3,15Z"></path>
  <path class="cls-1" d="M865.68,12.85a3.24,3.24,0,0,0,1.06-.24,1.42,1.42,0,0,0,.73-.61,2.09,2.09,0,0,0,.29-1.16,1.79,1.79,0,0,0-.26-1,1.65,1.65,0,0,0-.63-.57A2.84,2.84,0,0,0,866,9a6.63,6.63,0,0,0-1-.07h-2.56v4h2C864.89,12.89,865.32,12.88,865.68,12.85Z"></path>
  <path class="cls-2" d="M655.92,3.3c-34.26,0-61,26-61,74.87,0,41.44,24.46,72.85,60.75,72.85,33.74,0,52.31-24.83,57.29-43.15a3.52,3.52,0,0,0-2.92-4.55c-1.76,0-3.14.58-4.72,3.06-8.85,13.67-18.41,22.55-34.42,22.55-19.52,0-33.2-19.9-35-52.47h81.59C717.51,30.34,695.13,3.3,655.92,3.3Zm-20.2,60.32c0-28.94,6.57-48.62,20.58-48.62,13.71,0,20.77,19.68,20.77,48.62Z"></path>
  <path class="cls-2" d="M174.48,141.3c-5.1-1.41-8.65-4.28-8.65-9.7V41.47C165.83,16,150,2.94,112.59,2.94,83.18,2.94,60,16.74,60,37.73A20.79,20.79,0,0,0,81,59c10.71,0,20.19-8.25,20.19-17.88a6.53,6.53,0,0,0-3.55-5.5c-4.18-2.37-6-6-6-9.3,0-8.27,7.75-12.38,18-12.38S125.92,20,125.92,30.63v30.8c-12,4.22-31,12.18-42.82,19.35-16.23,9.83-25.79,23.09-25.79,39.44A30.83,30.83,0,0,0,88.6,151.06c14.91,0,27.75-8.93,37.54-22.65,0,11.62,7.29,20.54,19.36,20.54h28.55c2.65,0,4.43-1.49,4.43-3.77C178.48,143.54,177.34,142.09,174.48,141.3Zm-48.56-27.06c-4.06,6.24-10.14,10.75-16.74,10.75-7,0-13.59-6.81-13.59-17.12,0-14.54,11.86-26.52,30.33-34.26Z"></path>
  <path class="cls-2" d="M318.5,141.29c-5.09-1.4-8.64-4.27-8.64-9.68v-92c0-21.37-12.1-36.23-33.73-36.23-14.84,0-28.4,7.55-40.57,21.48V5.45H187.45C184.81,5.45,183,7,183,9.24c0,1.63,1.14,3.08,4,3.88,5.1,1.41,8.64,4.25,8.64,9.7V131.61c0,5.41-3.54,8.28-8.64,9.68-2.87.8-4,2.25-4,3.88,0,2.29,1.79,3.78,4.43,3.78h56.37c2.62,0,4.4-1.49,4.4-3.78,0-1.63-1.15-3.08-4-3.88-5.11-1.4-8.68-4.27-8.68-9.68V40.73c5.65-8.11,14.9-13.44,22-13.44,6.9,0,12.38,4,12.38,14.18v90.14c0,5.41-3.55,8.28-8.64,9.68-2.86.8-4,2.25-4,3.88,0,2.29,1.78,3.78,4.44,3.78H318.1c2.62,0,4.4-1.49,4.4-3.78C322.5,143.54,321.37,142.09,318.5,141.29Z"></path>
  <path class="cls-2" d="M598.44,141.5c-4.62-.52-8.65-2.27-12.74-17.45-3-11.19-3.54-13.76-6-22.46-3.51-12.07-11.57-19.71-28.38-20.3v-.41c17.73-1.73,34.32-18,34.32-36.06,0-22.92-19.33-39.43-47.43-39.43l-65,.06h-7c-2.65,0-4.42,1.5-4.42,3.78,0,1.64,1.15,3.09,4,3.89,5.08,1.41,8.62,4.25,8.62,9.7V131.6c0,5.42-3.54,8.29-8.62,9.69-2.87.8-4,2.24-4,3.89,0,2.28,1.77,3.77,4.42,3.77H522c2.61,0,4.44-1.49,4.44-3.77,0-1.65-1.17-3.09-4-3.89-5-1.38-8.37-4.16-8.55-9.33V87.84h7c12.73,0,16.06,4.53,18.17,14.26,1.87,8.53,5.11,24.76,7.07,33.19,1.91,8.26,5.93,13.68,13.27,13.68H598c3.31,0,4.94-1.43,4.94-3.82C602.89,143,600.73,141.77,598.44,141.5ZM521.25,75.83h-7.36V16.88h8c15.26,0,23.32,12.91,23.32,28.94C545.25,63.12,537.94,75.83,521.25,75.83Z"></path>
  <path class="cls-2" d="M397.05,5.45H331.19c-2.62,0-4.41,1.52-4.41,3.78,0,1.64,1.15,3.09,4,3.89,5.08,1.41,8.65,4.25,8.65,9.7V131.6c0,5.42-3.57,8.29-8.65,9.7-2.86.79-4,2.24-4,3.87,0,2.29,1.8,3.78,4.45,3.78h67.1c32.62,0,62.14-22.64,62.14-72.48C460.47,31.53,431,5.45,397.05,5.45Zm21.11,75.06c0,30.82-7.66,57.73-29.29,57.73h-9.52V16.92l8.79-.05c20.31,0,30,21,30,50.57Z"></path>
  <path class="cls-2" d="M22.61,54.37A21.47,21.47,0,1,0,44.07,75.82,21.45,21.45,0,0,0,22.61,54.37Z"></path>
  <path class="cls-2" d="M875.38,54.37a21.47,21.47,0,1,0,21.46,21.45A21.47,21.47,0,0,0,875.38,54.37Z"></path>
  <path class="cls-2" d="M843,125.34c-3.66,0-3.51,5.92-8.48,5.92-2.71,0-4.87-1.43-4.87-6.84V41.47c0-25.43-15.83-38.54-53.24-38.54-29.41,0-52.58,13.81-52.58,34.8a20.78,20.78,0,0,0,21,21.24c10.7,0,20.21-8.26,20.21-17.88a6.56,6.56,0,0,0-3.59-5.5c-4.16-2.37-6-6-6-9.31,0-8.26,7.73-12.37,18-12.37s16.26,6.1,16.26,16.72v30.8c-12,4.22-31,12.19-42.86,19.35-16.22,9.83-25.78,23.09-25.78,39.45a30.84,30.84,0,0,0,31.33,30.84c14.87,0,28.45-8.92,38.24-22.59,2,14.37,14.41,22.59,26.3,22.59,19.4,0,29.43-13,29.43-22.16A3.54,3.54,0,0,0,843,125.34Zm-53.24-11.1C785.64,120.48,779.58,125,773,125c-7,0-13.56-6.81-13.56-17.13,0-14.53,11.84-26.51,30.35-34.24Z"></path>
  <path class="cls-2" d="M857.1,21.23a11,11,0,0,0,11.71,2.23,10.61,10.61,0,0,0,3.4-2.23,10.46,10.46,0,0,0,2.28-3.42,10.16,10.16,0,0,0,.89-4.26,10,10,0,0,0-.89-4.19A10.72,10.72,0,0,0,872.21,6a11.14,11.14,0,0,0-3.4-2.23,10.55,10.55,0,0,0-4.17-.81,10.41,10.41,0,0,0-4.12.81A10.77,10.77,0,0,0,857.1,6a10.92,10.92,0,0,0-2.35,3.38,11,11,0,0,0-.85,4.19,11.16,11.16,0,0,0,.85,4.26A10.64,10.64,0,0,0,857.1,21.23ZM856.49,10a9.25,9.25,0,0,1,1.88-2.84,8.55,8.55,0,0,1,6.27-2.63,8.5,8.5,0,0,1,3.49.7,9.3,9.3,0,0,1,2.79,1.93A8.31,8.31,0,0,1,872.75,10a9.68,9.68,0,0,1,0,7.23,8.37,8.37,0,0,1-1.83,2.9A9,9,0,0,1,868.13,22a8.84,8.84,0,0,1-3.49.7,9.1,9.1,0,0,1-3.49-.7,8.47,8.47,0,0,1-2.78-1.93,9.3,9.3,0,0,1-1.88-2.9,10.38,10.38,0,0,1,0-7.23Z"></path>
  <path class="cls-2" d="M862.43,14.46h2.07l3.39,5.36H870l-3.57-5.51a4.35,4.35,0,0,0,2.36-.92,3.16,3.16,0,0,0,.91-2.47,3.21,3.21,0,0,0-1.06-2.66,5.07,5.07,0,0,0-3.29-.88h-4.83V19.82h1.94Zm0-5.52H865A6.63,6.63,0,0,1,866,9a2.84,2.84,0,0,1,.88.26,1.65,1.65,0,0,1,.63.57,1.79,1.79,0,0,1,.26,1,2.09,2.09,0,0,1-.29,1.16,1.42,1.42,0,0,1-.73.61,3.24,3.24,0,0,1-1.06.24c-.36,0-.79,0-1.22,0h-2Z"></path>
  <path d="M751,68.28l0,.06c0-.07,0-.12,0-.19Z"></path>
  <path d="M751.59,67.05a1.18,1.18,0,0,0-.52,1.1l.58-1.14Z"></path>
</svg>
