<?xml version="1.0" encoding="UTF-8"?>
<svg xmlns="http://www.w3.org/2000/svg" id="Capa_1" data-name="Capa 1" viewBox="0 0 977 252">
  <defs>
    <style>.cls-1{fill:#4d4d4d;}.cls-2{fill:#999;}</style>
  </defs>
  <path class="cls-1" d="M258.22,89.32c0-36.34-26.31-55.91-52.8-55.91-12.26,0-29.23,5.17-41.56,21.93a34.86,34.86,0,0,0-5.2,10.8,44.1,44.1,0,0,0,7.13,38.48c6.36,8.48,14.44,14.84,21.58,20.43a121.31,121.31,0,0,1,13.29,12.61c3.56,4.4,6.27,7,9.5,16.73,2,5.89,2.26,13.65,1.28,18C233.8,150,258.22,120.93,258.22,89.32Z"></path>
  <path class="cls-2" d="M3.65,87C5.57,163.29,100.29,228.3,139.3,241.61c20.9-10.82,32-31,32-51.62,0-15.1-6.4-27.53-9.93-32.42-9.29-12.74-20-20.48-28.88-28.62-3.85-3.53-8.06-6.17-11.22-9.33-15-15-22-33.59-18.46-56.42,2.79-17.91,11.6-29.67,22.25-38.32A73.81,73.81,0,0,0,80.25,10.39h-.1C37.9,10.41,2.59,44.69,3.65,87Z"></path>
  <polygon class="cls-1" points="959.63 178.3 959.63 164.6 955.56 164.6 953.17 173.94 950.75 164.6 946.71 164.6 946.71 178.3 949.2 178.3 949.2 167.53 951.86 178.3 954.47 178.3 957.12 167.53 957.12 178.3 959.63 178.3"></polygon>
  <path class="cls-1" d="M313.93,140.31l-15.39,25.91c16.86,10.92,32.35,14.62,47.85,14.62,30.87,0,52.49-17.45,52.49-43.36,0-17.42-9-26.41-29.66-34.6C355,97.21,349.39,94,349.39,86.48c0-10.16,17-17.75,41.46,2.82L410.38,69a64.11,64.11,0,0,0-46.53-19.83c-36.42,0-49.53,22-49.53,41.3,0,22.12,12.62,28.68,28.34,34.75,14.44,5.5,20,9,20,15.49C362.66,158.23,334.93,154.61,313.93,140.31Z"></path>
  <path class="cls-1" d="M445.72,181.29c13.47,0,43.15-4.76,53.54-40.08,11-37.38-.3-63.68-34.33-63.68-13.5,0-42.64,4.76-53.07,40.09C405.31,139.83,402.93,181.29,445.72,181.29Zm14.45-80.81c6.4,0,10.37,5.74,9.83,15.65-.84,14.87-4.3,41.77-19.55,41.77-5.21,0-9.82-2.37-9.82-16.55C440.63,132.52,443.64,100.48,460.17,100.48Z"></path>
  <polygon class="cls-1" points="583.45 178.3 615.19 178.3 632.41 80.2 600.66 80.2 583.45 178.3"></polygon>
  <path class="cls-1" d="M721.16,178.3l1.14-19.82,12.8-73.06c-7.56-3.81-24.89-7.84-36.73-7.84-38.58,0-61.5,27.34-61.5,67.66,0,20.09,8.51,35.86,29.85,35.86,9.7,0,20.06-3.54,26.19-11.72.81-1.07,1.29-.61,1.29.42l-.21,8.5Zm-27.74-33.39c-2.12,10.66-7.57,13.51-13.39,13.51-7.72,0-11.3-4-11.3-18,0-13,6.07-40.72,24.5-40.72,2.81,0,6.82.9,7.87,1.65Z"></path>
  <path class="cls-1" d="M906.33,77.58c-38.56,0-61.55,27.35-61.55,67.67,0,20.07,8.61,35.84,29.9,35.84,9.7,0,20.07-3.52,26.19-11.7.79-1.1,1.34-.61,1.34.42L902,178.3h27.16l1.09-19.83L943.08,85.4C935.5,81.58,918.22,77.58,906.33,77.58Zm-4.91,67.31c-2.12,10.67-7.58,13.52-13.46,13.52-7.7,0-11.22-4-11.22-18,0-13,6-40.69,24.44-40.69,2.79,0,6.85.91,7.88,1.64Z"></path>
  <path class="cls-1" d="M791.76,178.21H823.6s10.17-56.58,12.08-67.87c4.06-24.28-8.37-32.64-24.49-32.64-13.21,0-23,5.19-29.52,12.42-.8.89-1.65.83-1.65-.35l0-9.56H753.68l-.6,18.28L739,178.3h31.75l11.11-62.92c1.41-8.37,7.19-13.44,13.63-13.44,5.68,0,8.83,3.12,7.37,12.63C802.24,119.05,791.76,178.21,791.76,178.21Z"></path>
  <path class="cls-1" d="M549.92,93.47c-.27.4-.5.26-.57-.33l-.16-12.94H523.34l-.63,18.28-14,79.82h31.75l10.22-58c2.93-17.17,18.39-19,29.77-12.17l9.37-26.68C577.42,74.67,561.13,75.57,549.92,93.47Z"></path>
  <path class="cls-1" d="M621.34,36.93c-10,1.5-17.19,8.54-17.19,18.28,0,9.35,7.71,14.47,17.19,13,10.59-1.63,17.13-9.36,17.13-18.29C638.47,41.32,630.78,35.46,621.34,36.93Z"></path>
  <path class="cls-1" d="M972.73,175.63a15.78,15.78,0,0,0-1.57-2.24,5.68,5.68,0,0,0-1.46-1.15,3.86,3.86,0,0,0,2.67-1.22,3.64,3.64,0,0,0,.91-2.54,3.81,3.81,0,0,0-.61-2.19,2.83,2.83,0,0,0-1.58-1.33,9.17,9.17,0,0,0-3.09-.37h-5.7V178.3H965v-5.7h.55a7.41,7.41,0,0,1,1.39.12,2.22,2.22,0,0,1,.79.61,13,13,0,0,1,1.39,2l1.94,3h3.28Zm-5.7-5.21h-2V167h4.06a1.4,1.4,0,0,1,1,.55,1.69,1.69,0,0,1,.37,1.15,1.6,1.6,0,0,1-.3,1,1.55,1.55,0,0,1-.67.54A10.06,10.06,0,0,1,967,170.42Z"></path>
</svg>
