<?xml version="1.0" encoding="UTF-8"?>
<svg xmlns="http://www.w3.org/2000/svg" id="Capa_1" data-name="Capa 1" viewBox="0 0 791 182">
  <defs>
    <style>.cls-1{fill:#4d4d4d;}.cls-2{fill:gray;}</style>
  </defs>
  <path class="cls-1" d="M94.29,96.76H56.44c-4.2,0-5.56-2.58-5.56-6.11,0-2.85,0-89.77,0-89.81H37.55V102.91c0,4.27,3.72,7.09,6.46,7.09H94.29Z"></path>
  <path class="cls-1" d="M27.11,128.35H94.29V115.07h-54c-5.67,0-7.69-3.6-7.69-8.26V.85H19.32s.05,114.39,0,119.61A7.59,7.59,0,0,0,27.11,128.35Z"></path>
  <path class="cls-1" d="M16.78,146.65H94.3V133.39H23c-6.52,0-8.74-4.71-8.74-9.19V.84H1V130.57A16,16,0,0,0,16.78,146.65Z"></path>
  <path class="cls-1" d="M55.85.84V85.09c0,3.54,1.88,6.62,6.76,6.62H94.28V78.43H74.15c-3.78,0-5-2.53-5-5.16V.84Z"></path>
  <path class="cls-2" d="M130.94,44.59c0-4.28-3.7-7.12-6.44-7.12H74.2V50.73h37.85c4.22,0,5.58,2.58,5.58,6.11,0,2.85,0,89.79,0,89.79h13.3Z"></path>
  <path class="cls-2" d="M149.18,146.64s-.06-114.4,0-119.62a7.59,7.59,0,0,0-7.78-7.88H74.19V32.42h54c5.67,0,7.69,3.58,7.69,8.26v106Z"></path>
  <path class="cls-2" d="M74.19,14.1h71.27c6.51,0,8.76,4.72,8.76,9.19V146.64h13.31V16.9A16,16,0,0,0,151.74.84H74.19Z"></path>
  <path class="cls-2" d="M99.34,74.22v72.42h13.31V62.39c0-3.52-1.89-6.63-6.77-6.63H74.21v13.3H94.36C98.13,69.06,99.34,71.57,99.34,74.22Z"></path>
  <path class="cls-1" d="M481.09,75.39H493V62H478.88a19.23,19.23,0,0,0-19.19,19.39v65.25h13.45l0-63A8,8,0,0,1,481.09,75.39Z"></path>
  <rect class="cls-1" x="264.03" y="61.73" width="13.43" height="84.88"></rect>
  <path class="cls-1" d="M504.72,134.62a44.85,44.85,0,0,0,69.51-8.55,44.86,44.86,0,0,0,76.36,0,44.89,44.89,0,1,0,0-47.1,44.82,44.82,0,0,0-76.36,0,44.87,44.87,0,0,0-83.08,23.54v76.65h13.57ZM688.78,71.06a31.46,31.46,0,1,1-31.45,31.45A31.47,31.47,0,0,1,688.78,71.06Zm-76.38,0a31.46,31.46,0,1,1-31.46,31.45A31.49,31.49,0,0,1,612.4,71.06Zm-76.38,0a31.46,31.46,0,1,1-31.44,31.45A31.49,31.49,0,0,1,536,71.06Z"></path>
  <path class="cls-1" d="M452.58,102.52A44.42,44.42,0,1,0,451.31,113h-13a31.92,31.92,0,0,1-62-7.91h76.22Zm-74.75-9.87a31.91,31.91,0,0,1,60.71,0Z"></path>
  <polygon class="cls-1" points="325.38 130.04 298.29 61.73 282.96 61.73 316.63 146.61 334.16 146.61 367.83 61.73 352.5 61.73 325.38 130.04"></polygon>
  <rect class="cls-1" x="740.28" y="32.66" width="13.46" height="113.96"></rect>
  <path class="cls-1" d="M204.18,32.66V138c0,5.08,3.32,8.59,9.06,8.59H258.8V133.47H225.75c-5.26,0-7.93-3.59-8-8.21V32.66Z"></path>
  <path class="cls-1" d="M787,41.51a8.85,8.85,0,1,0-8.86,8.87A8.84,8.84,0,0,0,787,41.51Zm-8.86,7.4a7.39,7.39,0,1,1,7.4-7.4A7.39,7.39,0,0,1,778.17,48.91Z"></path>
  <path class="cls-1" d="M779,42.19v-.06a2.67,2.67,0,0,0,2.7-2.74c0-1-.78-2.49-3.15-2.49h-4.21v9.51h1.56v-4h.92c1.17,0,1.61.43,2.82,2.56l.86,1.48h1.86l-1.15-1.86C780.37,43.29,779.77,42.48,779,42.19Zm-.89-1.13h-2.21V38.19h2.47c1,0,1.7.56,1.7,1.43S779.23,41.06,778.06,41.06Z"></path>
  <rect class="cls-1" x="264.01" y="32.67" width="13.45" height="13.61"></rect>
</svg>
