<?xml version="1.0" encoding="UTF-8"?>
<svg xmlns="http://www.w3.org/2000/svg" id="Capa_1" data-name="Capa 1" viewBox="0 0 961 162">
  <defs>
    <style>.cls-1{fill:#333;}</style>
  </defs>
  <path class="cls-1" d="M24.16,134.85Q35,142.49,52.42,147.11t42.18,4.63c1.66,0,4.68-.07,9-.19a130.74,130.74,0,0,0,14.9-1.45,132.09,132.09,0,0,0,17.53-4,80,80,0,0,0,17.41-7.42A55.32,55.32,0,0,0,168,126.66a39.51,39.51,0,0,0,8.49-18H136.35a66.13,66.13,0,0,1-6.4,9.75,29.55,29.55,0,0,1-8.35,7,40.39,40.39,0,0,1-12.53,4.34,101.3,101.3,0,0,1-18.65,1.45A69.84,69.84,0,0,1,69,128.39a43,43,0,0,1-14.62-7.71,29.69,29.69,0,0,1-8.35-11,32.41,32.41,0,0,1-2.64-12.93A29.74,29.74,0,0,1,55.48,72.82a49,49,0,0,1,16-7.72A82,82,0,0,1,94.6,62.21q16.7,0,27.7,5.6t13.22,13.7h40.09a36.28,36.28,0,0,0-13-20.74,74.56,74.56,0,0,0-22.27-12.06,114.5,114.5,0,0,0-24.92-5.6A201.08,201.08,0,0,0,94.6,41.76a169.8,169.8,0,0,0-38.43,4q-17,3.95-28.67,11.19a54,54,0,0,0-18,17.36A42,42,0,0,0,3.28,96.75a45.12,45.12,0,0,0,5,20.55Q13.3,127.25,24.16,134.85Z"></path>
  <rect class="cls-1" x="357.73" y="9.29" width="34.81" height="140.08"></rect>
  <polygon class="cls-1" points="185.91 149.37 223.81 149.37 223.81 116.38 247.71 102.67 299.34 149.37 350.42 149.37 277.37 85.69 344.65 47.11 291.1 47.11 223.81 88.01 223.81 9.29 185.91 9.29 185.91 149.37"></polygon>
  <path class="cls-1" d="M593,135.56c-2.58.11-4.77.11-6.64.11a21.2,21.2,0,0,1-2.41-.11,7.83,7.83,0,0,1-2.85-.66,6.57,6.57,0,0,1-2.25-1.7,4.87,4.87,0,0,1-1-3.23V77A42.91,42.91,0,0,0,576.37,66c-1-3.94-4.16-7.62-9.32-11.07s-13.16-6.31-24-8.55S517.11,43,497.53,43a241.11,241.11,0,0,0-30,1.7,97.88,97.88,0,0,0-23.85,5.76A45.94,45.94,0,0,0,427,61.11a32.19,32.19,0,0,0-8.44,16.56h38.1c1.32-11.19,14.92-16.78,40.9-16.78,5.65,0,11,.22,16.07.66a74.49,74.49,0,0,1,13.54,2.3,24.27,24.27,0,0,1,9.32,4.5,9,9,0,0,1,3.4,7.07A6.75,6.75,0,0,1,538,80.19c-1.2,1.26-3.94,2.36-8.17,3.23a159.08,159.08,0,0,1-18.64,2.36c-8.16.71-19.18,1.54-33.11,2.41-6.19.39-13.21.93-21.05,1.7a106.74,106.74,0,0,0-21.82,4.39A49.28,49.28,0,0,0,418,103.54c-4.71,4-7.07,9.54-7.07,16.51q0,14.88,15.68,23.3t45.29,8.39a249.23,249.23,0,0,0,28.34-1.43,153.28,153.28,0,0,0,20.28-3.62,87.56,87.56,0,0,0,13.55-4.6,60.2,60.2,0,0,0,8.06-4.28,14,14,0,0,0,1.37,3.73,12.32,12.32,0,0,0,4.11,4.27,24.43,24.43,0,0,0,8.61,4.5,65.8,65.8,0,0,0,15.24,1.43,137.34,137.34,0,0,0,15.95-.77c4-.5,7.9-1,11.68-1.54V135.12A48.93,48.93,0,0,1,593,135.56ZM539,107.27A18,18,0,0,1,533.22,121a42.3,42.3,0,0,1-14.41,8.45,79.09,79.09,0,0,1-18.32,4.33A153.81,153.81,0,0,1,482.84,135a102.83,102.83,0,0,1-10.58-.6,44.93,44.93,0,0,1-10.14-2.25,19.61,19.61,0,0,1-7.62-4.88,11.46,11.46,0,0,1-3-8.12,10.65,10.65,0,0,1,1.54-5.75,12.26,12.26,0,0,1,5.65-4.28A49.94,49.94,0,0,1,469.9,106c4.66-.82,10.69-1.53,18-2.19,7-.5,13-1,18-1.43s9.59-.88,13.54-1.31,7.45-1,10.58-1.54,6.08-1.26,8.88-2Z"></path>
  <path class="cls-1" d="M719.41,129.63a30.17,30.17,0,0,1-9.35,4.05,76.78,76.78,0,0,1-13,2.22q-7.26.67-14.24.68-5.31,0-12.15-.58a62.64,62.64,0,0,1-13.13-2.51,33.09,33.09,0,0,1-10.75-5.4,11.93,11.93,0,0,1-4.75-9.26H600.16a24.33,24.33,0,0,0,4.33,13.6,34.37,34.37,0,0,0,10.75,9.65,68,68,0,0,0,15.08,6.46,124.53,124.53,0,0,0,17.6,3.86q9.21,1.33,18.29,1.83t16.9.48a263.73,263.73,0,0,0,32-1.83A119.75,119.75,0,0,0,741.2,147q11.16-4,17.45-10.71a23.11,23.11,0,0,0,6.28-16.5q0-8.87-5.72-14.28T743,96.83a151.84,151.84,0,0,0-25.41-5.21Q702.66,89.7,684.5,88q-14-1.35-22.06-2.42A65.32,65.32,0,0,1,650.15,83q-4.18-1.44-5.3-3.37a9.88,9.88,0,0,1-1.12-5q0-4,8.37-7.91t25.14-3.86q5,0,11.73.49a66.31,66.31,0,0,1,13,2.22,36.5,36.5,0,0,1,11.17,5.11,14,14,0,0,1,6,9.16h40.22q-.84-12.34-10.2-19.39A64.39,64.39,0,0,0,727.09,50a130.38,130.38,0,0,0-26-4.35q-13.26-.85-21.93-.86-9.21,0-22.06,1.06a117.24,117.24,0,0,0-24.3,4.53,58,58,0,0,0-19.54,9.94q-8.12,6.46-8.1,17.46,0,8.68,4.46,14.08t13.27,8.69a105,105,0,0,0,21.78,5.11q13,1.83,30.31,3.38,15.63,1.55,25.13,2.8a85.79,85.79,0,0,1,14.53,2.89c3.35,1.09,5.58,2.32,6.7,3.66a7.81,7.81,0,0,1,1.68,5.12C723.05,125.9,721.83,128,719.41,129.63Z"></path>
  <path class="cls-1" d="M888.22,129a30.06,30.06,0,0,1-9.42,4.16,77.27,77.27,0,0,1-13.07,2.29q-7.32.69-14.33.69c-3.57,0-7.64-.2-12.24-.6A61.56,61.56,0,0,1,826,132.92a33.29,33.29,0,0,1-10.82-5.55,12.33,12.33,0,0,1-4.78-9.51H768.18a25.4,25.4,0,0,0,4.36,14,34.54,34.54,0,0,0,10.83,9.9,67,67,0,0,0,15.17,6.64,123.35,123.35,0,0,0,17.71,4q9.29,1.38,18.42,1.88t17,.49a258.51,258.51,0,0,0,32.19-1.88,118.41,118.41,0,0,0,26.29-6q11.24-4.17,17.57-11a24,24,0,0,0,6.33-16.94q0-9.12-5.77-14.67c-3.85-3.69-9.27-6.67-16.31-8.91a149.37,149.37,0,0,0-25.58-5.36q-15-2-33.31-3.76Q839,84.77,830.87,83.67A65.41,65.41,0,0,1,818.5,81.1c-2.81-1-4.59-2.15-5.34-3.47A10.37,10.37,0,0,1,812,72.48c0-2.78,2.81-5.48,8.43-8.13s14.06-4,25.3-4q5.07,0,11.81.49a66.3,66.3,0,0,1,13.07,2.28,36.62,36.62,0,0,1,11.25,5.25,14.42,14.42,0,0,1,6,9.42h40.48q-.84-12.69-10.26-19.92A64.51,64.51,0,0,0,896,47.11a129.35,129.35,0,0,0-26.14-4.46q-13.37-.88-22.07-.89-9.27,0-22.21,1.09a115.44,115.44,0,0,0-24.46,4.66,57.77,57.77,0,0,0-19.67,10.2q-8.16,6.65-8.16,17.94,0,8.91,4.5,14.46T791.1,99A103.68,103.68,0,0,0,813,104.28q13.08,1.89,30.5,3.47,15.75,1.59,25.3,2.87a86.39,86.39,0,0,1,14.62,3c3.38,1.13,5.62,2.38,6.75,3.77a8.11,8.11,0,0,1,1.69,5.25C891.88,125.12,890.66,127.24,888.22,129Z"></path>
  <path class="cls-1" d="M951.6,146.42a13.88,13.88,0,0,0-1.38-1.92,4.92,4.92,0,0,0-1.31-1,3.75,3.75,0,0,0,2.36-1.1,3.19,3.19,0,0,0,.82-2.25,3.14,3.14,0,0,0-.55-1.86,2.58,2.58,0,0,0-1.37-1.15,8.77,8.77,0,0,0-2.8-.33h-5.1v12h2.42v-5h.49a3.39,3.39,0,0,1,1.21.16,2.08,2.08,0,0,1,.76.5,14.2,14.2,0,0,1,1.27,1.75l1.75,2.63h2.91Zm-5.1-4.61h-1.81v-3h1.92a13.22,13.22,0,0,1,1.75,0,1.69,1.69,0,0,1,.93.44,1.83,1.83,0,0,1,.28,1,1.41,1.41,0,0,1-.22.87,1.3,1.3,0,0,1-.66.55A9.83,9.83,0,0,1,946.5,141.81Z"></path>
  <path class="cls-1" d="M947.65,131.72a11.05,11.05,0,1,0,11.07,11A11,11,0,0,0,947.65,131.72Zm0,19.3a8.25,8.25,0,1,1,8.28-8.28A8.27,8.27,0,0,1,947.65,151Z"></path>
</svg>
