<?xml version="1.0" encoding="UTF-8"?>
<svg xmlns="http://www.w3.org/2000/svg" id="Capa_1" data-name="Capa 1" viewBox="0 0 835 239">
  <defs>
    <style>.cls-1{fill:#4d4d4d;}</style>
  </defs>
  <path class="cls-1" d="M826.64,234.27c-.52-.4-.86-.52-1-.81-.57-.75-1-1.61-1.61-2.36a5.16,5.16,0,0,0-1.44-.92,6.84,6.84,0,0,0-.81,1.38c-.23.92-.4,1.85-.69,3-.4-.41-.69-.52-.69-.64-.06-2-.12-4.09-.06-6.11,0-.28.52-.74.87-.8s.63.4.92.69c.52.46-.12,2,1.15,1.67s.81-1.5.87-2.42c0-.06,0-.06.23-.4.75.34,1.5.69,2.53,1.09C824.45,229.77,826.47,231.79,826.64,234.27Z"></path>
  <path class="cls-1" d="M143.43,142.53c10.49-4.81,18.68-12.12,24-22.4,4.09-7.85,6.23-16.19,4.95-25.08-1.63-11.35-7.86-19.53-17.95-24.8-7.15-3.73-14.87-5.13-22.89-5.13q-49.68,0-99.36-.06H30.5c.08.29.08.41.13.46l1.08.7A15.93,15.93,0,0,1,38.82,75a38.49,38.49,0,0,1,1.63,17.16c-1.2,8.81-2.75,17.57-4.21,26.33q-3.51,21.09-7.08,42.15c-2.6,15.51-5.12,31-7.84,46.53a53.22,53.22,0,0,1-7.86,20.79c-2.08,3.09-4.43,5.91-8,7.41a5.42,5.42,0,0,0-1,.69,3.65,3.65,0,0,0,1.94.57c9,.06,18,.15,27,.16q34.44,0,68.88,0a81.62,81.62,0,0,0,20.47-2.45c13.56-3.5,25-10.35,33.59-21.52a50.16,50.16,0,0,0,10.52-27.33c.73-9.55-1-18.46-7.16-26-5.51-6.85-12.51-11.48-21.46-12.68a9.08,9.08,0,0,1-1.56-.54,14.16,14.16,0,0,1,1.66-1.25C140,144.09,141.73,143.31,143.43,142.53Zm-27.32,61.91c-4.93,7.79-12.24,12-21.3,13.37-6.67,1-13.37.81-20.07.85-4.4,0-8.81.09-13.22.13-2.07,0-2.4-.32-2.07-2.3q2.38-14.4,4.81-28.78c1.48-8.85,2.88-17.7,4.44-26.53.85-4.82-.13-3.88,4.55-3.94,4-.05,8,0,12.08,0h0c4.55,0,9.11-.1,13.66,0a27.73,27.73,0,0,1,15.07,4.86,19,19,0,0,1,8.2,13.91A41.72,41.72,0,0,1,116.11,204.44ZM126,108.88A42.31,42.31,0,0,1,118.54,129c-5.07,7.42-12.18,11.11-21.15,11.21-3.59,0-7.19,0-10.78,0v.26H74.4c-1.86,0-2.12-.4-1.81-2.27q2.23-13.49,4.43-27,2-12.28,4.06-24.56a1.93,1.93,0,0,1,2.2-1.89c8.09.06,16.19-.07,24.28.07C116,85,122,89.13,124.7,96,126.36,100.17,126.41,104.56,126,108.88Z"></path>
  <path class="cls-1" d="M516.06,166.29c-.29-5.27-2.92-8.78-8-10.38a26.81,26.81,0,0,0-13.34-.64c-7.32,1.43-13,5.59-18.05,10.85-1.15,1.21-2.21,2.52-3.39,3.72a1.56,1.56,0,0,1-1.23.44c-.26-.05-.48-.63-.62-1a3.69,3.69,0,0,1-.06-1c-.37-6.88-4.14-11.63-10.45-13.07a23.68,23.68,0,0,0-9.56,0c-5.91,1.1-10.71,4.24-15.16,8.07-.49.43-1,.79-1.82,1.39a10.73,10.73,0,0,1-.07-1.09c.4-3.68-1-5.34-4.66-5.93a25.12,25.12,0,0,0-9,.51c-4.48.88-7.24,3.44-7.95,8.06a26.41,26.41,0,0,1-.87,4.06c-2.45,7.7-4.84,15.42-7.48,23.05-4.17,12.07-8.52,24.07-12.79,36.11-1.45,4.07.61,7.33,4.94,7.71a27.2,27.2,0,0,0,4.86,0,11.81,11.81,0,0,0,10.8-9,343.27,343.27,0,0,1,12.62-36.75,51.6,51.6,0,0,1,10.71-16.71c3.5-3.59,7.47-6.44,12.5-7.48,2.83-.59,4.47.53,4.22,3.36a44.07,44.07,0,0,1-1.6,9.44c-3.77,12-7.74,23.93-11.73,35.85-1.57,4.66-3.53,9.2-5.06,13.88-1.11,3.4.61,6.3,4.1,7.12a18.85,18.85,0,0,0,5.41.31c5.71-.36,9.45-3.54,11.2-8.91,3.54-10.91,7-21.85,10.89-32.65a56.17,56.17,0,0,1,15.15-22.92,21.36,21.36,0,0,1,10.93-5.36c2.05-.36,2.9.07,3,2.11a24.53,24.53,0,0,1-.45,7.52c-2,7.17-4.16,14.32-6.6,21.36-3.73,10.8-7.74,21.5-11.63,32.25-.77,2.12-.45,3.73,1.32,5.09a8,8,0,0,0,3.18,1.52,18.37,18.37,0,0,0,4.57.27c6.2-.28,10.48-3.76,12.18-9.74,1.08-3.83,2-7.69,3.3-11.44,4.59-13.39,9.3-26.74,14-40.1A25.56,25.56,0,0,0,516.06,166.29Z"></path>
  <path class="cls-1" d="M262.3,171c4.28-14.68,8-29.54,14.07-43.66a2,2,0,0,0-1-2.93,34.91,34.91,0,0,0-7.11-2.92c-6.31-1.36-9.47,1.2-11.08,6.55-4.35,14.47-9,28.86-13.39,43.3a2.26,2.26,0,0,1-2.64,1.89c-4.93-.07-9.87,0-14.81,0v.21h-15.1c-2.13,0-2.2-.07-1.52-2.07a252.09,252.09,0,0,0,10.16-41.61c.74-4.79-1-7.82-5.27-8.7-5-1-9.8.14-14.39,2.16a1.88,1.88,0,0,0-.67,1.71c1.59,3.95,1.11,7.95.31,11.89a400.32,400.32,0,0,1-11.55,45.27c-4.87,14.93-10.69,29.5-16.71,44a16.78,16.78,0,0,0-1.53,7.38c.09,1.76.88,2.93,2.24,3.09a34.83,34.83,0,0,0,16-1.25,2.86,2.86,0,0,0,2-2.35c.86-3.63,1.63-7.29,2.78-10.83,3.53-10.82,7.24-21.58,10.85-32.36.48-1.44,1.47-1.82,2.87-1.82q15,0,30.06,0c1.92,0,2,.15,1.48,2-2,6.59-4.09,13.15-6,19.75-1.68,5.73-4,11.32-4.32,17.36-.32,5.55,1.32,7.87,6.26,8.74,5.12.91,10.1-.15,15-1.55a1.63,1.63,0,0,0,1-2.47c-2.41-5.32-2-10.72-.5-16.14C253.91,200.75,258,185.85,262.3,171Z"></path>
  <path class="cls-1" d="M599.26,158.37a6.31,6.31,0,0,0-6.1-1.91,22.51,22.51,0,0,1-6.5-.13c-2.79-.36-5.51-1.25-8.3-1.54a45.27,45.27,0,0,0-25.6,4.83c-9,4.55-16.16,11.26-22.34,19.08-7.75,9.79-13.57,20.6-16.42,32.86a25.37,25.37,0,0,0,.21,13.34c2.61,8.6,9.94,11.9,17.8,12.53,5.67.46,10.75-1.36,15.46-4.4,4.47-2.86,8.24-6.55,12-10.27.44-.44,1-.8,1.46-1.2l.34.23c-.14.53-.26,1.05-.42,1.58-.47,1.55-1.07,3.07-1.42,4.65-1,4.47,1.17,7.43,5.69,7.65a23.35,23.35,0,0,0,6.12-.55c3.73-.85,6-3,7-7,2-8.05,4.3-16.08,7-23.94,4.63-13.52,9.66-26.91,14.57-40.34C600.55,161.86,600.84,160.05,599.26,158.37Zm-20.39,9.41c-2.57,7.24-5.13,14.49-7.77,21.71-2.37,6.5-4.58,13.08-8.11,19.1s-8,11.22-14.35,14.5a48.93,48.93,0,0,1-6.25,2.27c0-.13-.09-.26-.14-.38-4.42,0-7.86-3.53-8.15-8.37-.36-6,1-11.76,2.61-17.46a66,66,0,0,1,13.46-25.08,28.23,28.23,0,0,1,16-9.79c4-.82,7.89-.12,11.75.82C579.07,165.38,579.37,166.38,578.87,167.78Z"></path>
  <path class="cls-1" d="M671.18,157.75c-5.14-1.83-10.43-1.93-15.74-1.36a40.3,40.3,0,0,0-19.41,7.7,6.13,6.13,0,0,1-1.53.52,7.7,7.7,0,0,1-.29-1.46c0-2.74-1.05-4.24-3.69-4.88-3-.73-6.07-.23-9.12.18-5.08.69-7.64,3.69-8.6,8.47a60.27,60.27,0,0,1-1.64,6.68c-4,12.23-7.94,24.46-12.08,36.64-2.15,6.33-4.61,12.57-7,18.82-1.51,3.95-.11,7,4,7.79a23.11,23.11,0,0,0,6.54.26,10.84,10.84,0,0,0,10-8c2-6.69,4-13.38,6.11-20,2.45-7.59,4.71-15.27,8.29-22.45,4.17-8.37,10.35-14.53,19.24-17.76a12.44,12.44,0,0,1,8.44-.41c2.27.76,3.62,2.31,3.56,4.66-.08,2.66,0,5.45-.83,7.93-3.95,12.29-8.1,24.51-12.3,36.72-1.41,4.11-3.16,8.1-4.83,12.13-1.45,3.5-.55,5.76,3.05,6.91a36.92,36.92,0,0,0,4.48.86c7-.29,11.56-3.23,13.46-10.12,2.08-7.6,4.6-15.09,7.06-22.58Q673.54,189,679,173.13C681.14,166.69,677.9,160.14,671.18,157.75Z"></path>
  <path class="cls-1" d="M766.22,174.91c-.52-8.28-4.33-14.44-12.14-17.83-4.63-2-9.55-2.27-14.5-2.32a49.64,49.64,0,0,0-27,7.23c-14.43,9-24,21.81-29,38-2,6.38-3.46,12.88-2,19.63,1.66,8,5.9,13.93,13.88,16.49A42.46,42.46,0,0,0,705.72,238a47.45,47.45,0,0,0,30.75-8.82c12-8.38,20.22-19.74,25.45-33.28C764.51,189.13,766.68,182.25,766.22,174.91Zm-20.06,1.75a91.62,91.62,0,0,1-10.95,33.71c-3.17,5.83-7.13,11-12.8,14.68a20.37,20.37,0,0,1-10.73,3.65c-5.57.1-9.46-3.15-10.44-8.65-.22-1.27-.28-2.56-.38-3.46a68.52,68.52,0,0,1,4.79-21.82c2.86-7.43,6.23-14.62,11.53-20.7,3.68-4.2,7.83-7.83,13.42-9.14a17.74,17.74,0,0,1,6.95-.35C744.33,165.79,746.69,172,746.16,176.66Z"></path>
  <path class="cls-1" d="M342.35,165.68c-1.38-5.59-5.19-8.94-10.55-10.2a44.06,44.06,0,0,0-23.4,1c-12.16,3.63-21.61,11-29.16,20.92-8,10.61-13.2,22.31-13.15,35.85v1.62c.06.8,0,1.61.12,2.42.81,8.18,4.55,14.23,12.51,17.12,10.26,3.63,20.63,3.22,30.89.05a13.11,13.11,0,0,0,7.67-6.4c1-1.67.57-3-1.1-4a4.88,4.88,0,0,0-4.55-.06A37.55,37.55,0,0,1,297.39,227c-6.51-.06-10.32-3.4-11.3-9.74a32.2,32.2,0,0,1,.58-11.24c.4-2.19.46-2.25,2.65-2.36,3.69-.29,7.44-.52,11.13-.93a57,57,0,0,0,22.82-7.32c8.42-4.78,14.82-11.41,18.27-20.63A15.64,15.64,0,0,0,342.35,165.68Zm-29.57,22.19c-5.47,4-11.7,6-18.27,7.2-1,.18-2.08.29-3.11.47-1.21.17-1.67-.29-1.33-1.44,3.46-12.17,9.8-22.25,20.87-28.88a18.12,18.12,0,0,1,6.16-2.08c3.35-.52,6.06,2.54,6.06,6.8C322.64,177.26,319.06,183.32,312.78,187.87Z"></path>
  <path class="cls-1" d="M818.17,205.51c-.67-3.88-3-6.67-6.1-8.88-4-2.85-8-5.63-12-8.39a11.79,11.79,0,0,1-4.62-5.17,10.57,10.57,0,0,1,.68-9.4,17.15,17.15,0,0,1,17.14-8.9,30.6,30.6,0,0,1,5.88,1.79c3.38,1.18,6.68,1.29,9.77-.73a5.41,5.41,0,0,0,2.61-5.26A5.49,5.49,0,0,0,828,156a9.68,9.68,0,0,0-2-.61,56.41,56.41,0,0,0-19.44,0c-12.15,1.85-21.52,8.13-28.54,18.05a18.66,18.66,0,0,0-3.47,9.76,14.09,14.09,0,0,0,5.94,12.72c3.75,2.81,7.8,5.21,11.61,7.94a29.47,29.47,0,0,1,5.14,4.5,7,7,0,0,1,1.21,6.9c-2,6.74-8.24,11.4-15.74,11.73a26.66,26.66,0,0,1-12.28-2.39,9.83,9.83,0,0,0-11.1,2.25c-2.48,2.54-2.37,5.8.43,8a10.13,10.13,0,0,0,3.92,2c3.74.74,7.53,1.16,11.31,1.71,0-.15,0-.3,0-.45,7.67.15,15.12-.88,22.13-4.1,9.27-4.27,16.38-10.72,20.12-20.44A14.9,14.9,0,0,0,818.17,205.51Z"></path>
  <path class="cls-1" d="M397.36,166.31a11.72,11.72,0,0,0,5.49-4.9c1.57-2.84.32-6-2.86-6.57a12.39,12.39,0,0,0-5.35.23c-6.16,1.66-11.14,5.41-15.87,9.52-.55.48-1.15.91-1.72,1.37l-.28-.23c.22-.65.48-1.3.68-2,1.05-3.43-.31-6.23-3.7-6.75-4.5-.7-9-.43-13.14,1.79a8.52,8.52,0,0,0-4.43,6.19,79.64,79.64,0,0,1-2.48,10.16q-9.42,27.09-19.13,54.08a4.55,4.55,0,0,0,1.19,5.29c2.06,2.1,4.67,2.41,7.43,2.35,6.48-.15,10.73-3.57,12.59-9.71,2.43-8,5-16.07,7.73-24,2.49-7.18,5.23-14.29,9.52-20.67,4.67-6.94,10.58-12.17,19-14.11A26.25,26.25,0,0,0,397.36,166.31Z"></path>
  <path class="cls-1" d="M92.44,26.67a1.9,1.9,0,0,1,.85,2.63c-.92,2.51-1.71,5.07-2.52,7.62a6,6,0,0,0-.12,1.47A5.48,5.48,0,0,0,92,37.87q3.49-2.52,6.91-5.15a1.37,1.37,0,0,1,1.91,0c2.27,1.7,4.56,3.35,6.85,5,.42.3.85.57,1.28.85l.39-.25a11.32,11.32,0,0,0-.29-1.43c-.88-2.64-1.74-5.27-2.69-7.88a1.66,1.66,0,0,1,.71-2.28c2.29-1.58,4.52-3.23,6.77-4.87a16.43,16.43,0,0,0,1.37-1.29,17.27,17.27,0,0,0-2-.24c-2.73,0-5.47.09-8.2.19a1.63,1.63,0,0,1-1.86-1.35c-.79-2.65-1.68-5.28-2.55-7.91a16.93,16.93,0,0,0-.89-1.78c-.35.84-.56,1.25-.69,1.68-.8,2.51-1.63,5-2.33,7.53a2.13,2.13,0,0,1-2.5,1.88c-2.63-.11-5.27,0-7.91,0-.47,0-1,.1-1.88.21.69.61,1,.94,1.36,1.2C88,23.54,90.17,25.17,92.44,26.67Z"></path>
  <path class="cls-1" d="M63.81,32.48c1.35,1.14,2.75,2.23,4,3.43a1.76,1.76,0,0,1,.53,1.42c-.6,1.91-1.34,3.77-2,5.66,1.41-.06,2.08-.45,4-2.28a3.09,3.09,0,0,1,4.6-.25c.78.63,1.52,1.31,2.31,1.94.4.32.86.57,1.45,1a7.65,7.65,0,0,0-1.19-4.89,2.44,2.44,0,0,1,1-3.65,10.55,10.55,0,0,0,1.69-1.08c.79-.73,1.49-1.57,2.22-2.37L82.09,31c-1.44.18-2.89.33-4.32.54a2.18,2.18,0,0,1-2.85-1.94,10.82,10.82,0,0,0-3-5.23,13.8,13.8,0,0,0-.47,1.56c-.17,1-.24,2-.43,3a2.9,2.9,0,0,1-3.33,2.63c-.72,0-1.43-.14-2.14-.2-.92-.07-1.84-.12-2.76-.17A3.3,3.3,0,0,0,63.81,32.48Z"></path>
  <path class="cls-1" d="M146.65,52.14a29.77,29.77,0,0,0-1.36,3.92,10.19,10.19,0,0,0-.15,1.71l2.09-1.5c1.32-.93,2.66-2.61,4-2.6s2.74,1.67,4.11,2.6l1.91,1.3.33-.27c-.09-.43-.15-.88-.28-1.3-.45-1.36-.87-2.74-1.42-4.06a1.82,1.82,0,0,1,.84-2.62c1.57-1,3-2.11,4.54-3.18,0-.2-.06-.4-.1-.6-1.06,0-2.13,0-3.19,0-5-.08-3.77.91-5.34-3.93-.32-1-.68-2-1-3h-.44a9.86,9.86,0,0,0-.56,1.19c-.43,1.32-.89,2.63-1.19,4s-.93,2-2.39,1.8a36.11,36.11,0,0,0-4.16-.1,11.39,11.39,0,0,0-1.41.2l-.08.4c1.42,1,2.79,2.13,4.28,3C146.92,49.88,147.33,50.7,146.65,52.14Z"></path>
  <path class="cls-1" d="M122.33,37.94c-.34.73-.59,1.51-.88,2.27l-1.08,2.87.29.25a11.63,11.63,0,0,0,1.31-.69c1-.75,2.08-1.53,3.11-2.32,1.6-1.24,2.52-1.24,4.07,0,1.14.94,2.26,1.9,3.7,3.11a4.83,4.83,0,0,0-.82-4.16c-1.29-2.3-1-3.36,1.19-4.71a7.39,7.39,0,0,0,3.38-3.69l-1.39.19c-1.19.13-2.37.25-3.55.41a2.08,2.08,0,0,1-2.51-1.75,35.39,35.39,0,0,0-1.44-4.05c-.14-.35-.69-.54-1.06-.8a3.79,3.79,0,0,0-.62,1c-.23,1-.33,2-.55,3a3.13,3.13,0,0,1-3.27,2.64,19.85,19.85,0,0,1-2.43-.17c-1-.11-1.92-.25-2.88-.37-.07.12-.13.25-.19.37,1.56,1.22,3.05,2.55,4.71,3.63A2.07,2.07,0,0,1,122.33,37.94Z"></path>
  <path class="cls-1" d="M43.94,52.07a28.33,28.33,0,0,0-1.37,4.08,4.51,4.51,0,0,0,0,1.28c.28-.08.39-.08.46-.14,1.47-1.07,3-2.12,4.37-3.26a1.54,1.54,0,0,1,2.27,0c1.19,1,2.45,1.86,3.69,2.76a10.41,10.41,0,0,0,1.14.63l.38-.28c-.37-1.1-.77-2.19-1.11-3.29-1.39-4.36-1.85-3,1.86-5.75.92-.68,1.86-1.35,2.92-2.11-.42-.27-.54-.41-.65-.41-1,0-1.92,0-2.87,0-4.93-.06-3.65.83-5.22-3.74-.36-1-.72-2.1-1.07-3.15H48.3c-.17.42-.38.82-.52,1.24-.47,1.46-1,2.91-1.35,4.39a1.47,1.47,0,0,1-1.72,1.3c-1.53-.06-3.07-.05-4.6,0a8.46,8.46,0,0,0-1.4.21c0,.13-.05.27-.09.4,1.44,1,2.83,2.09,4.32,3C44.16,49.91,44.59,50.67,43.94,52.07Z"></path>
  <path class="cls-1" d="M823.66,222.11a8,8,0,0,0-8.12,7.93,7.84,7.84,0,0,0,7.9,8.07,8,8,0,0,0,8.09-7.94A8.08,8.08,0,0,0,823.66,222.11Zm-.29,14.95a6.91,6.91,0,0,1,0-13.8A6.82,6.82,0,0,1,830,230.2,6.68,6.68,0,0,1,823.37,237.06Z"></path>
  <path class="cls-1" d="M824.34,226.56c-.2.31-.25.34-.25.39,0,.91.39,2.16-.84,2.44s-.66-1.2-1.18-1.7c-.27-.27-.63-.71-.9-.67s-.85.49-.85.78c-.05,2,0,4.09.06,6.14,0,.12.25.23.69.61.26-1.15.42-2.09.7-3a7.73,7.73,0,0,1,.79-1.39,6,6,0,0,1,1.42.93c.61.73,1,1.6,1.61,2.38a5.6,5.6,0,0,0,1.06.78c-.18-2.44-2.19-4.5.23-6.59Z"></path>
</svg>
