<?xml version="1.0" encoding="UTF-8"?>
<svg xmlns="http://www.w3.org/2000/svg" id="Capa_1" data-name="Capa 1" viewBox="0 0 530 336">
  <defs>
    <style>.cls-1{fill:none;}.cls-2{fill:#333;}.cls-3{fill:#4d4d4d;}.cls-4{fill:#242422;}.cls-5{fill:#fff;}</style>
  </defs>
  <path class="cls-1" d="M518.92,322.68l-.06,0Z"></path>
  <path class="cls-1" d="M509.92,308c0,.07.1.13.15.2S510,308.09,509.92,308Z"></path>
  <path class="cls-1" d="M518.92,312.91c0-.78,0-1.55,0-2.32a.75.75,0,0,0-.08-.33.65.65,0,0,1,.07.33C518.91,311.36,518.91,312.13,518.92,312.91Z"></path>
  <path class="cls-1" d="M513,276.42h-2.38a.86.86,0,0,1-.52-.09.84.84,0,0,0,.51.09Z"></path>
  <path class="cls-1" d="M516.46,310.09h0l-1.9,0Z"></path>
  <path class="cls-1" d="M457.77,321.89c0-.89,0-1.79,0-2.68,0-4.11,0-8.21,0-12.31l0-4.25,0,4.25c0,4.1,0,8.2,0,12.31,0,.89,0,1.79,0,2.68,0,.16,0,.3,0,.45a.32.32,0,0,0,.3.32.33.33,0,0,1-.3-.32C457.77,322.19,457.77,322,457.77,321.89Z"></path>
  <path class="cls-1" d="M471.12,306.46q.06,7.44.09,14.88c0,1.48.16,1.24-1.23,1.28-1.72.06-3.43.05-5.15.06h0c1.72,0,3.44,0,5.15-.05,1.39-.05,1.24.19,1.23-1.29q0-7.44-.09-14.88c0-3.06-.05-6.12-.07-9.18,0-.53.06-1.06.09-1.59,0,.53-.09,1.06-.09,1.59Q471.1,301.87,471.12,306.46Z"></path>
  <path class="cls-1" d="M479.36,288.21a17.74,17.74,0,0,1,3.26-.08l1.48.14-1.48-.14A17.74,17.74,0,0,0,479.36,288.21Z"></path>
  <path class="cls-1" d="M471.92,292.46a6.74,6.74,0,0,1,2.51-2.75A6.74,6.74,0,0,0,471.92,292.46Z"></path>
  <path class="cls-1" d="M506.7,268.33a6.89,6.89,0,0,1,1.36,1,6.89,6.89,0,0,0-1.36-1,7.73,7.73,0,0,0-7.21-.24,6.49,6.49,0,0,0-1.28.77,6.49,6.49,0,0,1,1.28-.77A7.79,7.79,0,0,1,506.7,268.33Z"></path>
  <path class="cls-1" d="M518.52,277.63c0-.1,0-.21,0-.31C518.51,277.42,518.52,277.53,518.52,277.63Z"></path>
  <path class="cls-1" d="M509.44,288.55s.12,0,.17,0S509.47,288.52,509.44,288.55Z"></path>
  <path class="cls-1" d="M512.67,310a9.59,9.59,0,0,0,1.77.13,9.59,9.59,0,0,1-1.77-.13,4,4,0,0,1-2.08-1.05A4,4,0,0,0,512.67,310Z"></path>
  <path class="cls-1" d="M518.44,276.52h0a2.58,2.58,0,0,0-1.26-.15A2.58,2.58,0,0,1,518.44,276.52Z"></path>
  <path class="cls-1" d="M518.45,288.21s.08,0,.08-.07,0-.26,0-.39c0,.13,0,.26,0,.39S518.47,288.18,518.45,288.21Z"></path>
  <path class="cls-1" d="M509.5,306.62c0-.25-.06-.49-.07-.73,0-.67,0-1.35,0-2,0,.67,0,1.35,0,2A6.21,6.21,0,0,0,509.5,306.62Z"></path>
  <path class="cls-1" d="M465.19,279.89A17.24,17.24,0,0,0,459,288a20.87,20.87,0,0,0-1,3.86,20.87,20.87,0,0,1,1-3.86A17.29,17.29,0,0,1,465.19,279.89Z"></path>
  <path class="cls-1" d="M509.38,299.46V291c0-.48,0-.95,0-1.43,0,.48,0,.95,0,1.43Q509.39,295.24,509.38,299.46Z"></path>
  <path class="cls-1" d="M485.79,288.38a.29.29,0,0,0,.21-.19A.31.31,0,0,1,485.79,288.38Z"></path>
  <path class="cls-1" d="M314.9,311.29a5.91,5.91,0,0,0,2.34-1,2.47,2.47,0,0,0,.48-.49,2.47,2.47,0,0,1-.48.49,6,6,0,0,1-2.34,1,15.82,15.82,0,0,1-3.35.41A15.9,15.9,0,0,0,314.9,311.29Z"></path>
  <path class="cls-1" d="M313,305.68a23.39,23.39,0,0,1,2.71.69,6,6,0,0,1,.73.32c-.24-.11-.47-.24-.73-.33A25.57,25.57,0,0,0,313,305.68Z"></path>
  <path class="cls-1" d="M318.32,323a22.32,22.32,0,0,0,5-1.87,17.41,17.41,0,0,0,3.64-2.67,17.36,17.36,0,0,1-3.64,2.66A22.06,22.06,0,0,1,318.32,323Z"></path>
  <path class="cls-1" d="M294.1,299.72a15.41,15.41,0,0,0,2.85,2c.54.28,1.11.51,1.68.74a18.11,18.11,0,0,1-1.69-.75A15.15,15.15,0,0,1,294.1,299.72Z"></path>
  <path class="cls-1" d="M307.7,323.78a30.8,30.8,0,0,1-7.45-1.85,30.25,30.25,0,0,0,7.45,1.86,32.79,32.79,0,0,0,4.54.12A31.31,31.31,0,0,1,307.7,323.78Z"></path>
  <path class="cls-1" d="M299.94,277.73a16.89,16.89,0,0,0-4.85,2.9c-.36.32-.61.67-.93,1,.32-.33.57-.68.93-1A16.7,16.7,0,0,1,299.94,277.73Z"></path>
  <path class="cls-1" d="M319.19,290.26l1.25.58c.32.14.64.25,1,.36-.33-.12-.65-.22-1-.36Z"></path>
  <path class="cls-1" d="M313.25,276a26,26,0,0,1,8.24,1.93,19.5,19.5,0,0,1,5.64,3.58,6,6,0,0,1,2,3.72,6,6,0,0,0-2-3.72,19.5,19.5,0,0,0-5.64-3.58,26,26,0,0,0-8.24-1.93,34.16,34.16,0,0,0-8,.25A34.16,34.16,0,0,1,313.25,276Z"></path>
  <path class="cls-1" d="M422.46,323.35a24.61,24.61,0,0,1-16-6.71,24.67,24.67,0,0,0,16,6.72,25.89,25.89,0,0,0,8.78-1A25.64,25.64,0,0,1,422.46,323.35Z"></path>
  <path class="cls-1" d="M421,288a10.27,10.27,0,0,1,4.91-.21,10.36,10.36,0,0,0-11.32,5.58,12.3,12.3,0,0,0-1.37,4.91,12.3,12.3,0,0,1,1.37-4.91A10.19,10.19,0,0,1,421,288Z"></path>
  <path class="cls-1" d="M432.45,292.3a12.8,12.8,0,0,1,2.09,7.19,12.59,12.59,0,0,1-1.07,5.21,12.59,12.59,0,0,0,1.07-5.21,12.85,12.85,0,0,0-2.09-7.2,10.58,10.58,0,0,0-3.32-3.18A10.5,10.5,0,0,1,432.45,292.3Z"></path>
  <path class="cls-1" d="M414.77,305.76a12.64,12.64,0,0,1-.53-1.27,12.64,12.64,0,0,0,.53,1.27,10.41,10.41,0,0,0,17.73.7,11.68,11.68,0,0,0,.73-1.28,11.68,11.68,0,0,1-.73,1.28A10.41,10.41,0,0,1,414.77,305.76Z"></path>
  <path class="cls-1" d="M486,276a.87.87,0,0,0-.34-.12.93.93,0,0,1,.34.12Z"></path>
  <path class="cls-1" d="M327.86,299.05a11.17,11.17,0,0,1,3.67,7.61c0,.61,0,1.18,0,1.76,0-.58.06-1.15,0-1.76A11.17,11.17,0,0,0,327.86,299.05Z"></path>
  <path class="cls-1" d="M422.67,275.31a25.81,25.81,0,0,1,4.47.18A25.81,25.81,0,0,0,422.67,275.31Z"></path>
  <path class="cls-1" d="M310.68,288a18.51,18.51,0,0,1,2.1.14,17.21,17.21,0,0,1,2.75.66,17.21,17.21,0,0,0-2.75-.66A16.46,16.46,0,0,0,310.68,288Z"></path>
  <path class="cls-1" d="M428.83,288.91l.06,0Z"></path>
  <path class="cls-1" d="M485.41,275.81l-.31,0c-1.52-.13-3.05-.21-4.57-.21,1.52,0,3.05.08,4.57.21Z"></path>
  <path class="cls-2" d="M503.73,6.71l-5.24,0-19.41.11,19.41-.11Z"></path>
  <path class="cls-3" d="M247.42,55.79h0Z"></path>
  <path class="cls-1" d="M318.19,55.49a2.68,2.68,0,0,0,.55-.11,1.62,1.62,0,0,1,.22,0,1.62,1.62,0,0,0-.22,0A2.68,2.68,0,0,1,318.19,55.49Z"></path>
  <path class="cls-3" d="M274.1,55.63a3.59,3.59,0,0,1-.46,0,3.59,3.59,0,0,0,.46,0,3.87,3.87,0,0,1,1.18-.06A3.87,3.87,0,0,0,274.1,55.63Z"></path>
  <path class="cls-2" d="M390.35,86.62c-.31-1.22-.61-2.44-.92-3.66s-.66-2.57-1-3.85c.34,1.28.68,2.56,1,3.85S390,85.4,390.35,86.62Z"></path>
  <path class="cls-2" d="M406.83,80.35l.06-.14-.07.15c-.14.37-.26.77-.39,1.16h0C406.56,81.13,406.67,80.74,406.83,80.35Z"></path>
  <path class="cls-2" d="M395.57,107.67h0a2,2,0,0,1-.05.34A2,2,0,0,0,395.57,107.67Z"></path>
  <path class="cls-2" d="M457.38,7.23c-1,.13-2,.28-3,.5A40,40,0,0,0,445.43,11a40,40,0,0,1,8.91-3.22C455.34,7.51,456.36,7.36,457.38,7.23Z"></path>
  <path class="cls-2" d="M396,107.48c.55-1.4,1.11-2.8,1.67-4.19-.56,1.39-1.12,2.79-1.67,4.19a.27.27,0,0,1-.27.2C395.84,107.68,395.93,107.65,396,107.48Z"></path>
  <path class="cls-2" d="M393.37,113.45a1.73,1.73,0,0,1-.24.23,1.73,1.73,0,0,0,.24-.23,16.86,16.86,0,0,0,1.51-3.22c.08-.19.15-.39.23-.58-.08.19-.15.39-.23.58A16.86,16.86,0,0,1,393.37,113.45Z"></path>
  <path class="cls-1" d="M319.58,75.28c-.09.22-.19.43-.26.65s-.22.55-.3.83c.08-.28.21-.55.3-.83S319.49,75.5,319.58,75.28Z"></path>
  <path class="cls-1" d="M327.21,56.2a2.63,2.63,0,0,0,.23-.72,2.21,2.21,0,0,1-.24.71q-3.48,8.76-7,17.52c-.08.19-.18.36-.27.54.09-.18.19-.35.27-.54Q323.71,65,327.21,56.2Z"></path>
  <path class="cls-1" d="M347.25,77.06h0a3.16,3.16,0,0,0,1.1-.13,1.5,1.5,0,0,1,.47-.08,1.84,1.84,0,0,0-.47.07A3,3,0,0,1,347.25,77.06Z"></path>
  <path class="cls-2" d="M349.68,76.84h36.47l.53,0h-37Z"></path>
  <path class="cls-1" d="M325,55.35h0Z"></path>
  <path class="cls-1" d="M327.65,55a2.3,2.3,0,0,0,.15-.32A2.3,2.3,0,0,1,327.65,55Z"></path>
  <path class="cls-1" d="M348.72,8.88a8.16,8.16,0,0,1,2.3-1A8.16,8.16,0,0,0,348.72,8.88Z"></path>
  <path class="cls-1" d="M344.7,13.33a26.41,26.41,0,0,0-1.8,3.61l-11,27.43,11-27.43A26.35,26.35,0,0,1,344.7,13.33Z"></path>
  <path class="cls-2" d="M427.11,29.61a32.51,32.51,0,0,1,5.51-8.86A32.51,32.51,0,0,0,427.11,29.61Z"></path>
  <path class="cls-2" d="M76.66,48.82l0-.07Z"></path>
  <path class="cls-3" d="M278,179.5a.35.35,0,0,1,0,.08A.35.35,0,0,0,278,179.5Z"></path>
  <path class="cls-1" d="M162,177.06a4.29,4.29,0,0,1-.2-.7A3.49,3.49,0,0,0,162,177.06Z"></path>
  <path class="cls-2" d="M100,192.93a39.49,39.49,0,0,1-5.37,6.29A39.49,39.49,0,0,0,100,192.93Z"></path>
  <path class="cls-2" d="M104.24,184.77a1.66,1.66,0,0,1-.13.27A1.66,1.66,0,0,0,104.24,184.77Z"></path>
  <path class="cls-1" d="M351.88,208a2.54,2.54,0,0,1-.29,0A2.54,2.54,0,0,0,351.88,208Z"></path>
  <path class="cls-1" d="M496.27,310.49a18.78,18.78,0,0,1-.22-2.9c0-1.34,0-2.69,0-4,0-1,0-2,0-3,0,1,0,2,0,3l0,4a17.7,17.7,0,0,0,.22,2.9,13.46,13.46,0,0,0,6.07,9.43A13.46,13.46,0,0,1,496.27,310.49Z"></path>
  <path class="cls-2" d="M387.83,76.8h0c-.35-1.45-.69-2.9-1.06-4.34-.57-2.3-1.15-4.59-1.73-6.89q.87,3.45,1.73,6.89C387.14,73.9,387.48,75.35,387.83,76.8Z"></path>
  <path class="cls-2" d="M522.34,6.71h0c0,.06,0,.11-.07.16S522.37,6.77,522.34,6.71Z"></path>
  <path class="cls-2" d="M426.8,30.31l0,.06,0-.06Z"></path>
  <polygon class="cls-3" points="245.34 56.31 245.33 56.32 245.34 56.31 245.34 56.31"></polygon>
  <path class="cls-2" d="M406.05,82.31l0,.06,0-.06Z"></path>
  <path class="cls-1" d="M495.9,274c0,.13,0,.26,0,.39v17h0v-17C495.87,274.24,495.89,274.11,495.9,274Z"></path>
  <path class="cls-3" d="M215.52,73.5h0a.11.11,0,0,0,0,0A.11.11,0,0,1,215.52,73.5Z"></path>
  <path class="cls-1" d="M171.81,8.39h0Z"></path>
  <path class="cls-2" d="M101.49,12.89a39.1,39.1,0,0,1,4.4-1.93A37.37,37.37,0,0,0,101.49,12.89Z"></path>
  <path class="cls-2" d="M91.44,20.26a39.52,39.52,0,0,1,5.62-4.63A38.85,38.85,0,0,0,91.44,20.26Z"></path>
  <path class="cls-3" d="M201.45,20a2,2,0,0,1,.16.24A2,2,0,0,0,201.45,20Z"></path>
  <path class="cls-1" d="M512.27,322.91a20.76,20.76,0,0,1-6.44-1.27,20.76,20.76,0,0,0,6.43,1.27c1.61,0,3.21,0,4.81,0,.28,0,.55,0,.82-.05-.27,0-.55.05-.81.05C515.47,322.9,513.87,323,512.27,322.91Z"></path>
  <path class="cls-1" d="M76.56,304.9s0,0,.1,0-.08,0-.1,0a2.3,2.3,0,0,1-.35-.41l-1.52-2.29,1.52,2.29A2.79,2.79,0,0,0,76.56,304.9Z"></path>
  <path class="cls-1" d="M89.74,300.5v0Z"></path>
  <path class="cls-1" d="M303.86,290.13a1,1,0,0,1,.07-.23h0A1,1,0,0,0,303.86,290.13Z"></path>
  <path class="cls-1" d="M111.78,324.66a18.62,18.62,0,0,1-5.28-2.39,18.62,18.62,0,0,0,5.28,2.39,8.73,8.73,0,0,0,4.75.17,11.36,11.36,0,0,0,2.33-.95,11.36,11.36,0,0,1-2.33.95A8.73,8.73,0,0,1,111.78,324.66Z"></path>
  <path class="cls-1" d="M64.92,309.76l5.92,8.76c.35.51.77,1,1.15,1.44-.38-.48-.8-.93-1.15-1.44Z"></path>
  <path class="cls-1" d="M57.62,324.72l-14.33,0a.69.69,0,0,1-.26-.05.69.69,0,0,0,.26.05l14.33,0c.62,0,.63,0,.65-.62h0C58.25,324.69,58.24,324.72,57.62,324.72Z"></path>
  <path class="cls-1" d="M67.81,291.79q-2.69-4.07-5.36-8.13c-.35-.53-.8-1-1.19-1.48.39.5.84.95,1.19,1.48Q65.12,287.73,67.81,291.79Z"></path>
  <path class="cls-1" d="M46.22,278.5a7.17,7.17,0,0,0-3.35,4.4,8.41,8.41,0,0,0-.25,1.31,8.41,8.41,0,0,1,.25-1.31A7.21,7.21,0,0,1,46.22,278.5Z"></path>
  <path class="cls-1" d="M42.55,285.56h0q.09,12.42.15,24.85c0,1.69,0,3.39,0,5.09,0-1.7,0-3.4,0-5.1Q42.64,298,42.55,285.56Z"></path>
  <path class="cls-1" d="M122.91,319.74a11.56,11.56,0,0,0,.89-2.36,9.69,9.69,0,0,0,.12-1.22,9.69,9.69,0,0,1-.12,1.22A11.56,11.56,0,0,1,122.91,319.74Z"></path>
  <path class="cls-1" d="M154.71,289.38a10.13,10.13,0,0,1,11.94,5.11,13.71,13.71,0,0,1,1.52,6.35h0a13.7,13.7,0,0,0-1.52-6.34,10.21,10.21,0,0,0-18.15,0,13.48,13.48,0,0,0-1.64,5.6,13.48,13.48,0,0,1,1.64-5.6A10,10,0,0,1,154.71,289.38Z"></path>
  <path class="cls-1" d="M156,324.71c-.51,0-1-.15-1.48-.2.5.05,1,.17,1.49.2a26.16,26.16,0,0,0,5.39-.26A26.23,26.23,0,0,1,156,324.71Z"></path>
  <path class="cls-1" d="M181.9,296c-.15-.71-.34-1.38-.53-2.05.19.67.38,1.34.53,2.05a20.41,20.41,0,0,1,.43,4.53,23.83,23.83,0,0,1-.68,5.52,23.83,23.83,0,0,0,.68-5.52A20.41,20.41,0,0,0,181.9,296Z"></path>
  <path class="cls-1" d="M205.83,324.23a8.85,8.85,0,0,0,1.14.23,8.85,8.85,0,0,1-1.14-.23Z"></path>
  <path class="cls-1" d="M141.85,282.12a24.07,24.07,0,0,0-2.25,2.05,25.23,25.23,0,0,0-4.3,6.09,25.23,25.23,0,0,1,4.3-6.09A24.07,24.07,0,0,1,141.85,282.12Z"></path>
  <path class="cls-1" d="M136.66,313.8a22.36,22.36,0,0,1-3.2-7.79A22.36,22.36,0,0,0,136.66,313.8Z"></path>
  <path class="cls-1" d="M124,307.93c0,2.34,0,4.67.05,7h0C124,312.6,124,310.27,124,307.93Z"></path>
  <path class="cls-1" d="M169.3,279.4a26.37,26.37,0,0,1,4.46,2.86A26.37,26.37,0,0,0,169.3,279.4Z"></path>
  <path class="cls-1" d="M76.75,287.05h0q0,8.44,0,16.9h0Q76.76,295.51,76.75,287.05Z"></path>
  <path class="cls-1" d="M13.46,324.62h0c0-.15,0-.31,0-.46C13.45,324.31,13.45,324.47,13.46,324.62Z"></path>
  <path class="cls-1" d="M28.93,323.43v.68a3.68,3.68,0,0,1,0,.39,3.68,3.68,0,0,0,0-.39V304.63h0Z"></path>
  <path class="cls-1" d="M14.15,324.92h.26l5.12,0-5.12,0Z"></path>
  <path class="cls-1" d="M356.08,301.47a11.29,11.29,0,0,1-.26-1.85h0A11.29,11.29,0,0,0,356.08,301.47Z"></path>
  <path class="cls-1" d="M15,280.8a7.68,7.68,0,0,0-1.71,4.87c0,2.08,0,4.15,0,6.23,0-2.08-.06-4.15,0-6.22A7.68,7.68,0,0,1,15,280.8Z"></path>
  <path class="cls-1" d="M363,310.05a10.34,10.34,0,0,0,11.59-3.21,10.85,10.85,0,0,0,1.77-3.14,10.85,10.85,0,0,1-1.77,3.14A10.37,10.37,0,0,1,363,310.05Z"></path>
  <path class="cls-1" d="M356.18,297.33a10.6,10.6,0,0,1,2-4.41A10.6,10.6,0,0,0,356.18,297.33Z"></path>
  <path class="cls-1" d="M123.31,282.08a8.23,8.23,0,0,0-4.83-4.63A8.23,8.23,0,0,1,123.31,282.08Z"></path>
  <path class="cls-1" d="M108.43,303.22h0c0,.36,0,.72,0,1.08l-.14,0,.14,0C108.41,303.94,108.43,303.58,108.43,303.22Z"></path>
  <path class="cls-1" d="M89.77,300.83h0q0,3.48,0,6.94C89.76,305.46,89.76,303.14,89.77,300.83Z"></path>
  <path class="cls-1" d="M92.72,279.65a14.86,14.86,0,0,1,1.54,1.74,13.4,13.4,0,0,0-1.54-1.74,8.81,8.81,0,0,0-4.84-2.38c-.46-.06-.92,0-1.37,0,.45,0,.91,0,1.37,0A8.81,8.81,0,0,1,92.72,279.65Z"></path>
  <path class="cls-1" d="M77.59,281.81a9.48,9.48,0,0,0-.62,2,14.35,14.35,0,0,0-.11,1.61,14.51,14.51,0,0,1,.11-1.61A9.66,9.66,0,0,1,77.59,281.81Z"></path>
  <path class="cls-1" d="M107.54,303.32l.14.21-.14-.21c-.89-1.43-1.79-2.85-2.64-4.29l-3.11-5.21c1,1.74,2.07,3.48,3.11,5.21C105.75,300.47,106.65,301.89,107.54,303.32Z"></path>
  <path class="cls-1" d="M58.27,323.65c0-1.61,0-3.21,0-4.82,0,1.61,0,3.21,0,4.82Z"></path>
  <path class="cls-1" d="M198.85,277.81a.64.64,0,0,1,.17.24A.64.64,0,0,0,198.85,277.81Z"></path>
  <path class="cls-1" d="M108.37,285.08h0c0-.38.08-.75.11-1.12C108.45,284.34,108.37,284.71,108.37,285.08Z"></path>
  <path class="cls-1" d="M88.8,320.29A8.24,8.24,0,0,1,82.87,325a8.58,8.58,0,0,1-1.1.16,8.43,8.43,0,0,0,1.09-.16,8.24,8.24,0,0,0,5.94-4.66,9.41,9.41,0,0,0,.8-2.9c.05-.47.05-.94.08-1.42,0,.48,0,.95-.08,1.42A9.41,9.41,0,0,1,88.8,320.29Z"></path>
  <path class="cls-1" d="M199.09,278.14h0Z"></path>
  <path class="cls-1" d="M261.57,303.62l-1.2.1c-.21,0-.41.06-.62.09.21,0,.41-.07.62-.09Z"></path>
  <path class="cls-1" d="M255.47,304.77c.2-.07.4-.1.6-.17-.2.07-.4.1-.6.17a7.54,7.54,0,0,0-2,1.13,3.4,3.4,0,0,0-.84,1,3.4,3.4,0,0,1,.84-1A7.39,7.39,0,0,1,255.47,304.77Z"></path>
  <path class="cls-1" d="M260.25,313.1a9.78,9.78,0,0,1-1.2.13A9.78,9.78,0,0,0,260.25,313.1Z"></path>
  <path class="cls-1" d="M256.37,324.37a31.21,31.21,0,0,1-4.92-.72,31.21,31.21,0,0,0,4.92.72,28.88,28.88,0,0,0,10.5-1.23,23.2,23.2,0,0,0,4.08-1.79,23.2,23.2,0,0,1-4.08,1.79A28.88,28.88,0,0,1,256.37,324.37Z"></path>
  <path class="cls-1" d="M240.05,300.18a10.83,10.83,0,0,0-2.44,5.35,14.06,14.06,0,0,0-.15,1.93,13.8,13.8,0,0,1,.15-1.92A10.87,10.87,0,0,1,240.05,300.18Z"></path>
  <path class="cls-1" d="M238,312.36a13.87,13.87,0,0,0,3.49,6.2,16.28,16.28,0,0,0,2.89,2.31,16.28,16.28,0,0,1-2.89-2.31A13.92,13.92,0,0,1,238,312.36Z"></path>
  <path class="cls-1" d="M280.52,309.78h0a25.46,25.46,0,0,0,1-4.64,26.33,26.33,0,0,1-1,4.64Z"></path>
  <path class="cls-1" d="M253.93,312a4,4,0,0,1-1.52-2.08,4,4,0,0,0,1.52,2.08,5.39,5.39,0,0,0,1.91.89c.31.09.61.12.92.18-.31-.06-.61-.09-.92-.18A5.39,5.39,0,0,1,253.93,312Z"></path>
  <path class="cls-1" d="M266.46,293.89c0,.05,0,.14-.1.15h0C266.46,294,266.43,293.94,266.46,293.89Z"></path>
  <path class="cls-1" d="M328.05,289.74a5.38,5.38,0,0,0,.24-.55,5.38,5.38,0,0,1-.24.55Z"></path>
  <path class="cls-1" d="M291.73,296.83a10.52,10.52,0,0,1-1.41-3.88A10.52,10.52,0,0,0,291.73,296.83Z"></path>
  <path class="cls-1" d="M329.12,285.27h0a6.67,6.67,0,0,1-.07,1.27A6.67,6.67,0,0,0,329.12,285.27Z"></path>
  <path class="cls-1" d="M304.87,291.81a10.26,10.26,0,0,0,2,.68c1.6.39,3.22.64,4.84.9a60.44,60.44,0,0,1,10,2.24c.57.19,1.12.42,1.67.66-.55-.24-1.1-.47-1.67-.66a60.44,60.44,0,0,0-10-2.24c-1.62-.26-3.24-.51-4.83-.9a10.12,10.12,0,0,1-2-.68,2.43,2.43,0,0,1-.88-.67,1.05,1.05,0,0,1-.19-.46,1,1,0,0,0,.19.46A2.43,2.43,0,0,0,304.87,291.81Z"></path>
  <path class="cls-1" d="M297.71,307q-4.33,4-8.58,7.94h0q4.23-3.94,8.59-7.94Z"></path>
  <path class="cls-1" d="M308.32,304.9c-1.55-.24-3.1-.54-4.64-.89C305.22,304.36,306.77,304.66,308.32,304.9Z"></path>
  <path class="cls-1" d="M294.59,319.21c-.6-.37-1.2-.74-1.78-1.15C293.39,318.47,294,318.84,294.59,319.21Z"></path>
  <path class="cls-1" d="M299.43,308.15a22.32,22.32,0,0,0,7.18,3.06A22.32,22.32,0,0,1,299.43,308.15Z"></path>
  <path class="cls-1" d="M265.23,303.51c-.41,0-.82,0-1.23,0,.41,0,.82,0,1.23,0Z"></path>
  <path class="cls-1" d="M183.84,277.77c-.28.09-.19.35.15,1.24l5.78,14.9L184,279C183.65,278.12,183.56,277.86,183.84,277.77Z"></path>
  <path class="cls-1" d="M199.4,318.39a16,16,0,0,0,1.49,2.31,10.44,10.44,0,0,0,4.88,3.5,10.44,10.44,0,0,1-4.88-3.5A16,16,0,0,1,199.4,318.39Z"></path>
  <path class="cls-1" d="M198.76,277.78a2.3,2.3,0,0,0-.94-.11l-9.16,0,9.16,0A2.3,2.3,0,0,1,198.76,277.78Z"></path>
  <path class="cls-1" d="M208.42,324.69a14,14,0,0,0,1.83,0,10,10,0,0,0,4.52-1.34,10,10,0,0,1-4.52,1.34A14,14,0,0,1,208.42,324.69Z"></path>
  <path class="cls-1" d="M224.44,305.55l4.65-11.71,2.1-5.25-2.1,5.26Z"></path>
  <path class="cls-1" d="M232.35,277.5c-1.66,0-3.32,0-5,0a7.78,7.78,0,0,0-6,2.67h0a7.81,7.81,0,0,1,6-2.66C229,277.52,230.69,277.5,232.35,277.5Z"></path>
  <path class="cls-1" d="M209.88,307l4.22-10.71L209.88,307c-.09.23-.21.47-.39.89h0C209.68,307.5,209.79,307.26,209.88,307Z"></path>
  <path class="cls-1" d="M209.1,306.91c0-.11-.09-.24-.12-.35q-2.35-6.75-4.69-13.5l4.68,13.5C209,306.67,209.06,306.79,209.1,306.91Z"></path>
  <path class="cls-1" d="M245.52,277.7a23.09,23.09,0,0,1,5.3-1.31,48.41,48.41,0,0,1,7.7-.47A25.14,25.14,0,0,1,272,280a20.68,20.68,0,0,1,7.38,8.43A20.68,20.68,0,0,0,272,280a25.24,25.24,0,0,0-13.52-4.09,49.54,49.54,0,0,0-7.7.48,23.09,23.09,0,0,0-5.3,1.31A5.48,5.48,0,0,0,242,282a7.51,7.51,0,0,0-.09,1.25A7.51,7.51,0,0,1,242,282,5.5,5.5,0,0,1,245.52,277.7Z"></path>
  <path class="cls-1" d="M262.57,289.38a11.75,11.75,0,0,0-1.39-.54,10.29,10.29,0,0,1,1.39.55,8.59,8.59,0,0,1,3,2.71A8.63,8.63,0,0,0,262.57,289.38Z"></path>
  <path class="cls-1" d="M247.32,288.89a7.43,7.43,0,0,1-1.88-.28,4.54,4.54,0,0,1-3.31-3.32,6.93,6.93,0,0,1-.23-1.35,8,8,0,0,0,.22,1.36,4.57,4.57,0,0,0,3.33,3.31,7.29,7.29,0,0,0,1.87.28,13.41,13.41,0,0,0,3.22-.35c.69-.15,1.38-.22,2.08-.31-.7.09-1.39.16-2.08.31A12.92,12.92,0,0,1,247.32,288.89Z"></path>
  <path class="cls-1" d="M255.87,288c.59,0,1.19-.05,1.78,0,.28,0,.53.1.8.14-.27,0-.53-.12-.8-.14C257.05,288,256.46,288,255.87,288Z"></path>
  <path class="cls-1" d="M281.6,296.2a27.13,27.13,0,0,0-.53-3.33,23.49,23.49,0,0,0-1.24-3.6,23.49,23.49,0,0,1,1.24,3.6A27.13,27.13,0,0,1,281.6,296.2Z"></path>
  <path class="cls-1" d="M248.7,295.44c1-.25,2-.45,3-.6C250.7,295,249.7,295.19,248.7,295.44Z"></path>
  <path class="cls-1" d="M244.57,321h0Z"></path>
  <path class="cls-1" d="M235.44,277.5a1,1,0,0,1-.12.73,1,1,0,0,0,.12-.73Z"></path>
  <path class="cls-1" d="M254.34,294.52c1.41-.15,2.8-.26,4.17-.34C257.14,294.26,255.75,294.37,254.34,294.52Z"></path>
  <path class="cls-3" d="M202.38,163.55l0,0Z"></path>
  <path class="cls-3" d="M210.13,144.24h0c.1-.24.24-.46.36-.69a2.93,2.93,0,0,0,.89,0,5.45,5.45,0,0,1,1.88-.18h0a5.53,5.53,0,0,0-1.89.18,2.86,2.86,0,0,1-.88,0,3.33,3.33,0,0,1,.26-.92,3.33,3.33,0,0,0-.26.92A6.47,6.47,0,0,0,210.13,144.24Z"></path>
  <path class="cls-3" d="M151.51,121.18a.91.91,0,0,0,.33,0,11.36,11.36,0,0,1,3.44-.2h0a11.37,11.37,0,0,0-3.44.2,1,1,0,0,1-.34,0,10.74,10.74,0,0,1-3-.2.74.74,0,0,0-.33,0h0a.74.74,0,0,1,.33,0A10.79,10.79,0,0,0,151.51,121.18Z"></path>
  <path class="cls-3" d="M214.05,134.58a3.54,3.54,0,0,1,.25-.64,6.11,6.11,0,0,0,.26-.64,4.55,4.55,0,0,1-.27.64A4.44,4.44,0,0,0,214.05,134.58Z"></path>
  <path class="cls-3" d="M217.73,120.73c.56,0,1.13,0,1.54.46.45-1,.9-2,1.34-3l.14-.35-.14.35c-.44,1-.89,2-1.34,3-.4-.51-1-.46-1.54-.46h0Z"></path>
  <path class="cls-3" d="M217.59,179.85l-.36,0Z"></path>
  <path class="cls-1" d="M184.16,206.14a8.46,8.46,0,0,1-3,2A8.38,8.38,0,0,0,184.16,206.14Z"></path>
  <path class="cls-3" d="M195.87,180h0l.16-.45c-.05.15-.11.3-.16.44Z"></path>
  <path class="cls-3" d="M187.53,200.68c.05-.12.12-.23.17-.35q.9-2.28,1.82-4.56l-1.83,4.56C187.64,200.45,187.58,200.56,187.53,200.68Z"></path>
  <path class="cls-3" d="M197.15,176.63c.42-1,.85-2,1.27-3.08q1.07-2.62,2.12-5.27l-2.12,5.27C198,174.58,197.57,175.61,197.15,176.63Z"></path>
  <path class="cls-2" d="M374.68,24.45q.92,3.61,1.82,7.23-.9-3.62-1.82-7.24a26.45,26.45,0,0,0-1.21-4A20.16,20.16,0,0,0,371,16.37a20,20,0,0,1,2.44,4.13A25.75,25.75,0,0,1,374.68,24.45Z"></path>
  <path class="cls-3" d="M186.53,135.91a5.21,5.21,0,0,1,1.88-.17q12.53,0,25.05,0c-.06.17-.1.36-.17.53-.71,1.8-1.44,3.59-2.14,5.39-.12.31-.27.62-.39.93.12-.31.27-.61.39-.92.7-1.81,1.43-3.6,2.15-5.4.06-.17.1-.36.16-.53H188.41a5.21,5.21,0,0,0-1.88.17,2.24,2.24,0,0,1-.78.05H151.87c-.3-1.11-.6-2.22-.88-3.34l-1.17-4.7,1.17,4.7c.27,1.12.59,2.23.88,3.34h33.89A2.21,2.21,0,0,0,186.53,135.91Z"></path>
  <path class="cls-3" d="M280,174.38c.74-1.85,1.48-3.69,2.21-5.54l.8-2.07-.8,2.07C281.46,170.69,280.71,172.54,280,174.38Z"></path>
  <path class="cls-3" d="M277.41,180.8c-.56,1.46-1.18,2.9-1.73,4.36a32.63,32.63,0,0,1-5.14,8.87,37.67,37.67,0,0,1-21.91,13.73c-.78.18-1.57.28-2.35.4.78-.12,1.57-.22,2.35-.4A37.67,37.67,0,0,0,270.54,194a32.63,32.63,0,0,0,5.14-8.87c.55-1.46,1.17-2.9,1.73-4.36a2.27,2.27,0,0,0,.31-1h0A2.47,2.47,0,0,1,277.41,180.8Z"></path>
  <path class="cls-3" d="M194.66,177.6a3,3,0,0,1,1.89.49h0a3.06,3.06,0,0,0-1.89-.49q-15.33,0-30.65,0a6.18,6.18,0,0,1-1.87-.22h0a6.22,6.22,0,0,0,1.87.22Z"></path>
  <path class="cls-3" d="M207,208.75l-8.17.05-18.69.12c-.37,0-.75,0-1.12,0l1.81-.58h0l-1.81.58a22.83,22.83,0,0,1-5.07-.62,8,8,0,0,1-1.94-.91,8,8,0,0,0,1.94.91,22.26,22.26,0,0,0,5.07.62c.37,0,.75,0,1.12,0l18.69-.12,8.17-.05,29.66-.13h0Z"></path>
  <path class="cls-1" d="M162.24,178.06c0,.18,0,.36.08.54l1.77,7.1-1.77-7.1C162.28,178.42,162.28,178.24,162.24,178.06Z"></path>
  <path class="cls-1" d="M123.19,137.33l4-10.11c.11-.3.25-.58.37-.87-.12.29-.26.57-.37.87Z"></path>
  <path class="cls-1" d="M130.83,118.09h0a4.57,4.57,0,0,1-.31,1,4.57,4.57,0,0,0,.31-1,2.19,2.19,0,0,0,.4-.79q1.83-4.6,3.65-9.2c-1.21,3.07-2.44,6.14-3.66,9.2A2.17,2.17,0,0,1,130.83,118.09Z"></path>
  <path class="cls-1" d="M136.93,102.84h0l-.3,0Z"></path>
  <path class="cls-1" d="M144.36,105.53h0l-.33-1.25c.11.42.22.83.32,1.25s.15.8.24,1.2c.19.79.39,1.57.58,2.35-.19-.78-.38-1.57-.58-2.35C144.5,106.34,144.44,105.93,144.36,105.53Z"></path>
  <path class="cls-1" d="M141.13,92.68s0,.09,0,.14h0l0,.14,0-.14S141.13,92.73,141.13,92.68Z"></path>
  <path class="cls-1" d="M128,125.22a3.44,3.44,0,0,0,.28-.66h0A3.44,3.44,0,0,1,128,125.22Z"></path>
  <path class="cls-3" d="M292.31,143.36c-.09.28-.16.57-.27.85q-3.3,8.26-6.61,16.54,3.31-8.28,6.61-16.55c.11-.27.18-.56.27-.84h0Z"></path>
  <path class="cls-1" d="M119,147.63c0-.14.09-.28.14-.42a1.18,1.18,0,0,0,.26-.43,1.27,1.27,0,0,1-.26.43C119.13,147.35,119.08,147.49,119,147.63Z"></path>
  <path class="cls-3" d="M277.27,179.79a6.35,6.35,0,0,0-1.31-.17h0A6.35,6.35,0,0,1,277.27,179.79Z"></path>
  <path class="cls-3" d="M239.85,143.13h40.94a3.72,3.72,0,0,0,1.11,0c.12,0,.24,0,.37-.06a2.2,2.2,0,0,0-.37.06,3.72,3.72,0,0,1-1.11,0H239.85a7.63,7.63,0,0,0-2.33.18h0A7.65,7.65,0,0,1,239.85,143.13Z"></path>
  <path class="cls-3" d="M248.16,179.85h0Z"></path>
  <path class="cls-3" d="M289.37,142.9c.44,0,.87,0,1.3,0-.43,0-.86,0-1.3,0h0Z"></path>
  <path class="cls-3" d="M242.41,132.68h0Z"></path>
  <path class="cls-3" d="M296.23,132.49a3.39,3.39,0,0,0-.91-.13h0A3.07,3.07,0,0,1,296.23,132.49Z"></path>
  <path class="cls-3" d="M223.38,115.8h0c-.33,0-.67,0-1,0a1.13,1.13,0,0,0-.22.08.71.71,0,0,1,.22-.07A8.35,8.35,0,0,1,223.38,115.8Z"></path>
  <path class="cls-3" d="M253.8,115.58h41.06a6.65,6.65,0,0,0,2.22-.19,1.44,1.44,0,0,1,.55,0h4.15a2.4,2.4,0,0,1,1,.22,2.41,2.41,0,0,0-1-.22h-4.14a1.44,1.44,0,0,0-.55,0,6.65,6.65,0,0,1-2.22.19H253.79a4.48,4.48,0,0,0-1.22.07,5.07,5.07,0,0,1-1.5.15,4.79,4.79,0,0,0,1.5-.15A4.56,4.56,0,0,1,253.8,115.58Z"></path>
  <polygon class="cls-1" points="127.87 125.44 127.87 125.44 127.87 125.44 127.87 125.44"></polygon>
  <path class="cls-1" d="M351.08,207.87h0Z"></path>
  <path class="cls-1" d="M354.44,207.9l-.55,0,.56,0,7.39,0,8.26,0-8.26,0Z"></path>
  <path class="cls-1" d="M405,207.76l7.59,0c1.23,0,2.45-.11,3.67-.24-1.22.13-2.44.23-3.67.24Z"></path>
  <path class="cls-2" d="M334.38,141.57h0a4.43,4.43,0,0,0-1.21.08,2.85,2.85,0,0,1-.4,0,2.85,2.85,0,0,0,.4,0A4.92,4.92,0,0,1,334.38,141.57Z"></path>
  <path class="cls-2" d="M379.83,141.34a12.93,12.93,0,0,0-2,.07l-.49,0,.49,0A12.93,12.93,0,0,1,379.83,141.34Z"></path>
  <path class="cls-1" d="M336.25,188.43l2.82,11.41a16.63,16.63,0,0,0,1.13,3.1,16.63,16.63,0,0,1-1.13-3.1Z"></path>
  <path class="cls-1" d="M417.69,207.3a35,35,0,0,0,3.62-.69c1.18-.31,2.27-.77,3.39-1.17-1.13.4-2.21.86-3.39,1.17A35,35,0,0,1,417.69,207.3Z"></path>
  <path class="cls-2" d="M520.52,7.83a8,8,0,0,1,1.3-.69c.14,0,.27-.12.41-.17h0c-.14,0-.27.13-.41.17A8,8,0,0,0,520.52,7.83Z"></path>
  <path class="cls-2" d="M450.85,174.92l1.71-4.29.09-.21-.09.21Z"></path>
  <path class="cls-2" d="M516.19,12.39a20.36,20.36,0,0,1,1.31-2,12.59,12.59,0,0,1,1.08-1.11,12.59,12.59,0,0,0-1.08,1.11A20.36,20.36,0,0,0,516.19,12.39Z"></path>
  <path class="cls-2" d="M381,144.91l-.29.72.29-.72a20.28,20.28,0,0,0,1.09-2.9h0l-.25-.22.24.22A19.1,19.1,0,0,1,381,144.91Z"></path>
  <path class="cls-2" d="M488.5,80.72Q498.25,56.37,508,32q1.93-4.86,3.88-9.71L508,32Q498.25,56.38,488.5,80.72Z"></path>
  <path class="cls-2" d="M471.91,122.07a2.23,2.23,0,0,1-.27.85L453.3,168.79c-.11.27-.26.53-.39.79h0a1.42,1.42,0,0,1-.05.22,1.42,1.42,0,0,0,.05-.22c.13-.27.28-.52.39-.79q9.18-22.93,18.34-45.87a2.24,2.24,0,0,0,.27-.84,1,1,0,0,0,.3-.58.93.93,0,0,1-.31.57Z"></path>
  <path class="cls-2" d="M487.81,82.46Q480,101.89,472.29,121.3q7.77-19.41,15.52-38.84c.11-.27.18-.57.27-.84a2.84,2.84,0,0,0,.42-.9h0a2.69,2.69,0,0,1-.42.89C488,81.9,487.92,82.19,487.81,82.46Z"></path>
  <path class="cls-2" d="M371.13,170h0a2.07,2.07,0,0,1,.12-.49A2.07,2.07,0,0,0,371.13,170Z"></path>
  <path class="cls-1" d="M310.46,98.2c.28-.73.57-1.45.86-2.17l.3-.78-.3.77C311,96.75,310.74,97.47,310.46,98.2Z"></path>
  <path class="cls-1" d="M312.27,93.71c.11-.25.21-.51.34-.75,0,.08.05.16.08.23s-.05-.15-.08-.23C312.48,93.2,312.38,93.46,312.27,93.71Z"></path>
  <path class="cls-2" d="M349.94,114.46a3.33,3.33,0,0,0,1,0,5.31,5.31,0,0,1,1.77-.17h0a5.28,5.28,0,0,0-1.77.17,3.33,3.33,0,0,1-1,0H318a14.28,14.28,0,0,1-.44-1.45,14.28,14.28,0,0,0,.44,1.45c0,.16.07.32.1.48,0-.16-.08-.32-.1-.48Z"></path>
  <path class="cls-1" d="M304.9,112.07l2.4-6,.93-2.41c-.31.8-.62,1.6-.94,2.41Q306.11,109.05,304.9,112.07Z"></path>
  <path class="cls-3" d="M307.29,102.14H291.85c-.15,0-.29,0-.43,0l.43,0h15.44a2.53,2.53,0,0,1,1.41.26h0l.12-.22-.12.22A2.55,2.55,0,0,0,307.29,102.14Z"></path>
  <path class="cls-1" d="M303.3,115.87c-.07.21-.15.42-.22.62.08-.2.15-.41.23-.62l.22-.43-.23.43Z"></path>
  <path class="cls-1" d="M324.79,141.79c-.38-1.41-.76-2.81-1.11-4.21q-2.43-9.83-4.85-19.64c-.05-.22-.11-.43-.16-.64.05.22.11.43.16.64q2.42,9.81,4.84,19.64c.36,1.41.74,2.8,1.12,4.21h0Z"></path>
  <path class="cls-1" d="M296.62,132.63h0c.05-.1.09-.19.14-.28-.05.09-.09.18-.14.28Z"></path>
  <path class="cls-2" d="M431.64,122.1a1.54,1.54,0,0,0-.48,0,3.2,3.2,0,0,1-.8.14,3.2,3.2,0,0,0,.8-.14A1.54,1.54,0,0,1,431.64,122.1Z"></path>
  <path class="cls-2" d="M409.77,122.3h0Z"></path>
  <path class="cls-2" d="M390.84,122.43a1.27,1.27,0,0,0-.54.45,13.15,13.15,0,0,0-.79,1.16,13.15,13.15,0,0,1,.79-1.16A1.27,1.27,0,0,1,390.84,122.43Z"></path>
  <path class="cls-2" d="M380.62,169.78a6.19,6.19,0,0,0-1.06,0,6.19,6.19,0,0,1,1.06,0h41.2a7.51,7.51,0,0,0,1.64-.12,7.54,7.54,0,0,1-1.64.11Z"></path>
  <path class="cls-2" d="M376.54,156.2c.18-.43.35-.86.52-1.29-.17.43-.34.86-.52,1.29-.6,1.52-1.2,3.05-1.81,4.57-.2.49-.4,1-.59,1.48.19-.49.39-1,.59-1.48Q375.65,158.49,376.54,156.2Z"></path>
  <path class="cls-2" d="M424.59,169.55a4.35,4.35,0,0,0-.63,0,4.36,4.36,0,0,1,.63,0h28.2l-.55,0Z"></path>
  <path class="cls-2" d="M389.51,124a9,9,0,0,0-.61,1.25c-.21.58-.45,1.15-.68,1.72.23-.57.47-1.14.69-1.72A8,8,0,0,1,389.51,124Z"></path>
  <path class="cls-1" d="M324.82,142.23a1.62,1.62,0,0,1,0-.31,1.62,1.62,0,0,0,0,.31l3.84,15.51,4.41,17.83-4.41-17.83Z"></path>
  <path class="cls-3" d="M217.48,81.21c-.43-1.68-.85-3.35-1.27-5-.11-.41-.19-.82-.33-1.21a11.93,11.93,0,0,1,.32,1.21C216.63,77.85,217.05,79.53,217.48,81.21Z"></path>
  <path class="cls-1" d="M143.69,86.06q.92-2.39,1.85-4.75l.92-2.25-.92,2.25h0l-1.86,4.75c-.42,1.1-.82,2.21-1.24,3.32-.05.05-.12.09-.15.15-.11.25-.21.5-.31.75.1-.25.2-.5.31-.74,0-.07.1-.11.15-.16a1.13,1.13,0,0,0,.24.08,1.13,1.13,0,0,1-.24-.08C142.86,88.28,143.26,87.16,143.69,86.06Z"></path>
  <path class="cls-3" d="M186.14,89.54a3.24,3.24,0,0,1-1,.06h0a3.29,3.29,0,0,0,1-.06,5,5,0,0,1,1.66-.16h0A5,5,0,0,0,186.14,89.54Z"></path>
  <path class="cls-1" d="M148.25,74.82a18.55,18.55,0,0,1,.78-2.16,18.55,18.55,0,0,0-.78,2.16Z"></path>
  <path class="cls-1" d="M148.39,74.84a12.72,12.72,0,0,0,2.82.21A12.72,12.72,0,0,1,148.39,74.84Z"></path>
  <path class="cls-1" d="M165,74.9a.77.77,0,0,1-.15,0,.77.77,0,0,0,.15,0Z"></path>
  <path class="cls-3" d="M194,74.82H166.21a5.27,5.27,0,0,0-1.2.08,4.73,4.73,0,0,1,1.2-.07Z"></path>
  <path class="cls-1" d="M164,8.5h-.46l-11.8,0,11.8,0Z"></path>
  <path class="cls-3" d="M157.11,52.62a2.85,2.85,0,0,0,1.41.27H196a2.62,2.62,0,0,0,.89-.07,3,3,0,0,1,1-.14,3,3,0,0,0-1,.14,2.62,2.62,0,0,1-.89.07H158.52a2.84,2.84,0,0,1-1.41-.26h0c-.18.36-.36.73-.52,1.11q-2,5-4,10c1.33-3.33,2.65-6.67,4-10C156.74,53.36,156.93,53,157.11,52.62Z"></path>
  <path class="cls-3" d="M215.51,73.46q-1.94-7.72-3.88-15.44c-.12-.49-.25-1-.38-1.45.13.48.26,1,.38,1.45Q213.58,65.73,215.51,73.46Z"></path>
  <path class="cls-1" d="M121.32,8.71c-1,0-2,0-3,0a29.68,29.68,0,0,0-4.21.28,28.26,28.26,0,0,1,4.21-.27C119.3,8.74,120.31,8.72,121.32,8.71Z"></path>
  <path class="cls-1" d="M138.07,8.55c-3.07,0-6.14,0-9.22.07C131.93,8.58,135,8.54,138.07,8.55Z"></path>
  <path class="cls-3" d="M203.26,52.66h5.51c.48,0,1,0,1.45,0h0c-.48,0-1,0-1.45,0Z"></path>
  <path class="cls-3" d="M206,35.84s0-.08,0-.11l-1.14-4.54L206,35.73S206,35.8,206,35.84Z"></path>
  <path class="cls-3" d="M210.22,52.59a1.57,1.57,0,0,0-.05-.3c-.67-2.68-1.34-5.37-2-8q1,4,2,8C210.19,52.39,210.2,52.49,210.22,52.59Z"></path>
  <path class="cls-1" d="M175.49,10.58A8.17,8.17,0,0,1,180,8.51a1.25,1.25,0,0,0,.3-.12h0a.94.94,0,0,1-.3.12A8.17,8.17,0,0,0,175.49,10.58Z"></path>
  <path class="cls-3" d="M290.13,7.84h-.23c-.62,0-1.22.09-1.84.13.62,0,1.22-.13,1.84-.13Z"></path>
  <path class="cls-3" d="M263.26,19.36a40.59,40.59,0,0,1,14.62-9.28c1.08-.4,2.18-.73,3.29-1-1.11.29-2.21.62-3.29,1a40.88,40.88,0,0,0-14.63,9.29,35.79,35.79,0,0,0-3.1,3.52c-.7.89-1.34,1.82-1.95,2.77.61-.95,1.25-1.88,1.95-2.77A34.63,34.63,0,0,1,263.26,19.36Z"></path>
  <path class="cls-3" d="M246.5,55.86a5.78,5.78,0,0,0-1,.16c.56-1.46,1.12-2.92,1.7-4.38q3-7.7,6.12-15.37c.9-2.25,1.77-4.51,2.75-6.73a27.69,27.69,0,0,1,1.77-3.37,29.23,29.23,0,0,0-1.78,3.37c-1,2.22-1.84,4.48-2.74,6.73Q250.25,44,247.2,51.64c-.58,1.46-1.14,2.92-1.7,4.38a2.34,2.34,0,0,0-.15.27,2.34,2.34,0,0,1,.15-.27A5.78,5.78,0,0,1,246.5,55.86Z"></path>
  <path class="cls-2" d="M368.07,13.24c-.46-.4-.91-.81-1.41-1.17a24.54,24.54,0,0,0-5.84-3.15,24.54,24.54,0,0,1,5.84,3.15C367.16,12.43,367.61,12.84,368.07,13.24Z"></path>
  <path class="cls-3" d="M237.67,75.5a3.29,3.29,0,0,1,.21-.42,4,4,0,0,0-.21.41q-4.89,12.2-9.77,24.39c-.12.32-.26.64-.4,1,.14-.31.28-.63.4-1Q232.78,87.69,237.67,75.5Z"></path>
  <path class="cls-1" d="M331.54,7.63h5.19c-1.73,0-3.46,0-5.19,0-9.55.09-19.1-.08-28.65.17h0C312.44,7.56,322,7.72,331.54,7.63Z"></path>
  <path class="cls-1" d="M352,7.47h-.39c-1.57,0-3.15.06-4.73.1,1.58,0,3.16-.1,4.74-.1Z"></path>
  <path class="cls-1" d="M183,105.29a5.63,5.63,0,0,0-.59,0A5.63,5.63,0,0,1,183,105.29Z"></path>
  <path class="cls-3" d="M221.54,105.26a10.27,10.27,0,0,0,1.9-.23,19.54,19.54,0,0,1,.78,3.1,1.85,1.85,0,0,0,0,.24,1.77,1.77,0,0,1,0-.23l.41,0s0,.07,0,.1,0-.06,0-.1c.54-1.4,1.08-2.8,1.63-4.19.19-.48.42-.94.62-1.41h0c-.2.47-.43.93-.62,1.4-.55,1.4-1.08,2.8-1.63,4.2l-.41-.06a18.51,18.51,0,0,0-.78-3.1l-.21-.93.21.92A9.5,9.5,0,0,1,221.54,105.26Z"></path>
  <path class="cls-2" d="M102.35,81.3l.56,0h0Z"></path>
  <path class="cls-3" d="M290.13,102.34c-.35,0-.7,0-1.05,0h0C289.43,102.36,289.78,102.37,290.13,102.34Z"></path>
  <path class="cls-1" d="M144.65,105.52l1.27,0h0Z"></path>
  <path class="cls-3" d="M224.44,108.53s0,0,0,0,0,0,0,0Z"></path>
  <path class="cls-3" d="M224.31,108.45s-.07,0-.08,0S224.29,108.43,224.31,108.45Z"></path>
  <path class="cls-1" d="M172.41,14.71a26.12,26.12,0,0,0-1.3,2.72q-2.55,6.33-5.06,12.68c1.68-4.23,3.36-8.46,5.07-12.69A24.88,24.88,0,0,1,172.41,14.71Z"></path>
  <path class="cls-1" d="M352.47,7.5a20.85,20.85,0,0,1,2.75.13,20.85,20.85,0,0,0-2.75-.13h0c-.12,0-.24.08-.36.1C352.22,7.58,352.35,7.53,352.47,7.5Z"></path>
  <path class="cls-1" d="M116.07,125.44Z"></path>
  <path class="cls-1" d="M124.55,125.22h0Z"></path>
  <path class="cls-1" d="M130.14,117.6h0Z"></path>
  <path class="cls-2" d="M75.1,125.44c-.4,0-.81,0-1.22,0,.41,0,.82,0,1.22,0Z"></path>
  <path class="cls-2" d="M49.06,118h4.71a7.59,7.59,0,0,0,2.32-.18,4.09,4.09,0,0,1,1.11,0H98.39a5.82,5.82,0,0,0,2-.17,2.63,2.63,0,0,1,.89,0h0a2.63,2.63,0,0,0-.89,0,5.84,5.84,0,0,1-2,.17H57.21a4.16,4.16,0,0,0-1.12,0,7.63,7.63,0,0,1-2.33.18c-1.56,0-3.13,0-4.69,0a29.21,29.21,0,0,1,1.27-3.33q2.23-5.59,4.49-11.19a3.78,3.78,0,0,1,.25-.49H70.3a6.62,6.62,0,0,0,.77,0,6.62,6.62,0,0,1-.77,0H55.08a19.42,19.42,0,0,1,1.1-2.92l1.22-3-1.22,3a19.42,19.42,0,0,0-1.1,2.92c-.09.17-.19.32-.26.49l-4.48,11.19A28.51,28.51,0,0,0,49.07,118c-.16.33-.32.66-.46,1-.52,1.27-1,2.54-1.53,3.81.51-1.27,1-2.54,1.53-3.81C48.74,118.7,48.91,118.37,49.06,118Z"></path>
  <path class="cls-2" d="M72.27,157.91a6.58,6.58,0,0,0-1,.06,6.58,6.58,0,0,1,1-.06h42.62a.73.73,0,0,0,.23-.32.66.66,0,0,1-.23.32Z"></path>
  <path class="cls-2" d="M22.12,185.43a16,16,0,0,0-1.05,2.45c-1.74,4.33-3.45,8.65-5.19,13,1.74-4.33,3.45-8.65,5.19-13A15.68,15.68,0,0,1,22.12,185.43Z"></path>
  <path class="cls-2" d="M67.93,209.47a37.81,37.81,0,0,0,8.56-.8,41.79,41.79,0,0,0,8.07-2.7,41.79,41.79,0,0,1-8.07,2.7A37.81,37.81,0,0,1,67.93,209.47Z"></path>
  <path class="cls-2" d="M72.07,125.65h0Z"></path>
  <path class="cls-2" d="M44.25,185.22h0Z"></path>
  <path class="cls-2" d="M101.59,184.77H91.52a3.31,3.31,0,0,0-1,0,5.7,5.7,0,0,1-1.88.18h0a5.7,5.7,0,0,0,1.88-.18,3.33,3.33,0,0,1,1,0h10.07a3.71,3.71,0,0,1,2,.4.88.88,0,0,0,.32.07h0a.88.88,0,0,1-.33-.07A3.73,3.73,0,0,0,101.59,184.77Z"></path>
  <path class="cls-2" d="M23.17,185.34a3.1,3.1,0,0,0-.5.09,2,2,0,0,1-.55,0,2.17,2.17,0,0,1,.27-.85q5.15-12.89,10.32-25.79a6.36,6.36,0,0,1,.33-.7c.29,0,.59,0,.89,0H70c.12,0,.23,0,.35,0-.12,0-.23,0-.35,0h-36c-.3,0-.6,0-.9,0l.1-.3c0,.1-.07.2-.1.29s-.22.47-.32.71q-5.17,12.9-10.33,25.79a2.33,2.33,0,0,0-.26.85,2.1,2.1,0,0,0,.56,0A2.81,2.81,0,0,1,23.17,185.34Z"></path>
  <path class="cls-2" d="M72.85,102.82h41.53a11.53,11.53,0,0,0,1.18,0,11.53,11.53,0,0,1-1.18,0H72.85c-.28,0-.56,0-.84,0C72.29,102.81,72.57,102.82,72.85,102.82Z"></path>
  <path class="cls-1" d="M134.84,102.59c.13,0,.26,0,.4,0-.14,0-.27,0-.4,0H117.15l-.29,0,.29,0Z"></path>
  <path class="cls-2" d="M75.92,50.79c.06-.13.14-.25.21-.38A9.88,9.88,0,0,1,76.61,49a9.88,9.88,0,0,0-.48,1.42,2.93,2.93,0,0,0-.21.39q-5.6,14-11.2,27.94c-.15.39-.32.77-.48,1.15.16-.38.33-.76.48-1.15Q70.3,64.76,75.92,50.79Z"></path>
  <path class="cls-2" d="M64,81.75a8.53,8.53,0,0,1,2.66-.21H99.92c.31,0,.63,0,.94,0-.31,0-.62,0-.94,0H66.69a8.53,8.53,0,0,0-2.66.21,1.6,1.6,0,0,1-.44,0c0-.22.14-.43.21-.64-.07.21-.16.42-.21.64l0,0,0,0A1.29,1.29,0,0,0,64,81.75Z"></path>
  <path class="cls-2" d="M28.93,323.44v.67a3.68,3.68,0,0,1,0,.39c0,.33-.17.35-.73.35l-8.65,0-5.12,0h-.26l-.41,0h0a.29.29,0,0,1-.28-.28h0c0-.15,0-.31,0-.46s0-.21,0-.32q0-7.44,0-14.89,0-6.33-.07-12.64c0-1.47,0-2.94,0-4.41,0-2.08-.06-4.15,0-6.23a7.74,7.74,0,0,1,15.48-.17c0,2.34.07,4.69.08,7,0,4,0,8.06,0,12.09h.11Zm95.11-8.5c0,.41-.08.81-.12,1.22a9.69,9.69,0,0,1-.12,1.22,11.56,11.56,0,0,1-.89,2.36,9.17,9.17,0,0,1-4,4.14,11.36,11.36,0,0,1-2.33.95,8.73,8.73,0,0,1-4.75-.17,18.62,18.62,0,0,1-5.28-2.39,16.18,16.18,0,0,1-4.15-4c-3.09-4.31-6-8.7-9-13.1q-1.53-2.26-3-4.55l-.32-.45a.36.36,0,0,0-.24.32v0c0,.11,0,.23,0,.33h0c0,2.31,0,4.63,0,6.94s0,4.63,0,6.94c0,.42,0,.84-.07,1.26s0,.95-.08,1.42a9.41,9.41,0,0,1-.8,2.9A8.24,8.24,0,0,1,82.86,325a8.43,8.43,0,0,1-1.09.16,8.81,8.81,0,0,1-5-.95,13.39,13.39,0,0,1-3.64-2.75A16.27,16.27,0,0,1,72,320c-.38-.48-.8-.93-1.15-1.44l-5.92-8.76L59,301l-.61-.89c-.34.14-.22.39-.22.59q0,3.75,0,7.5c0,1.94,0,3.88,0,5.82,0,1.6,0,3.21,0,4.81s0,3.21,0,4.82h0v.44h0c0,.6,0,.61-.65.62l-14.33,0a.69.69,0,0,1-.26-.05c-.2,0-.27-.13-.28-.53,0-1.2,0-2.39,0-3.59,0-1.69,0-3.39,0-5.09s0-3.4,0-5.09q-.06-12.44-.15-24.85h0a11.9,11.9,0,0,1,.07-1.34,8.41,8.41,0,0,1,.25-1.31,7.17,7.17,0,0,1,3.35-4.4,8.1,8.1,0,0,1,1.8-.75c4.54-1.3,8.63-.47,12.06,2.94a15.44,15.44,0,0,1,1.18,1.49c.39.5.84.95,1.19,1.48q2.67,4.06,5.36,8.13l5.37,8.12,1.51,2.28,1.52,2.29a2.3,2.3,0,0,0,.35.41s0,0,.1,0l.09,0c0-.3,0-.6,0-.9q0-8.46,0-16.9h0c0-.54.08-1.08.11-1.62a14.35,14.35,0,0,1,.11-1.61,9.48,9.48,0,0,1,.62-2,7.19,7.19,0,0,1,5.18-4.21,13.48,13.48,0,0,1,3.74-.38c.45,0,.91,0,1.37,0a8.81,8.81,0,0,1,4.84,2.38,13.4,13.4,0,0,1,1.54,1.74c.49.66.94,1.36,1.37,2.07q3.08,5.19,6.16,10.36L104.9,299c.85,1.44,1.75,2.86,2.64,4.29l.14.21c.17.28.35.55.53.81h.06l.14,0c0-.36,0-.72,0-1.08q0-9.08-.06-18.13h0c0-.37.08-.74.11-1.11a7,7,0,0,1,.11-1.11,7.71,7.71,0,0,1,7.28-5.86,7,7,0,0,1,2.61.45,8.23,8.23,0,0,1,4.83,4.63,6.93,6.93,0,0,1,.56,2.63c0,2,0,3.89,0,5.82,0,3.18,0,6.35,0,9.52,0,2.63,0,5.25.07,7.88,0,2.34,0,4.67.05,7Zm42.41,8.2A25.77,25.77,0,0,1,156,324.71c-.52,0-1-.15-1.49-.2a24.07,24.07,0,0,1-14.61-6.69,23.72,23.72,0,0,1-3.26-4,22.36,22.36,0,0,1-3.2-7.79,24.61,24.61,0,0,1-.47-2.59,23.66,23.66,0,0,1,2.31-13.16,25.23,25.23,0,0,1,4.3-6.09,24.53,24.53,0,0,1,12.1-6.83A25.16,25.16,0,0,1,169,279.25l.27.15a26.37,26.37,0,0,1,4.46,2.86,22.55,22.55,0,0,1,7.61,11.7c.19.67.38,1.34.53,2.05a20.41,20.41,0,0,1,.43,4.53,24.29,24.29,0,0,1-15.88,22.6Zm68.77-44.66-4,10.11-2.1,5.25-4.65,11.71L220.3,316a20.75,20.75,0,0,1-1.72,3.51,17.34,17.34,0,0,1-1.15,1.65,9.55,9.55,0,0,1-2.66,2.25,10,10,0,0,1-4.52,1.34,14,14,0,0,1-1.83,0,10.18,10.18,0,0,1-1.45-.23,8.85,8.85,0,0,1-1.14-.23h0l-.06,0a10.44,10.44,0,0,1-4.88-3.5,16,16,0,0,1-1.49-2.31,17.42,17.42,0,0,1-.88-1.85c-1-2.5-1.92-5-2.89-7.51l-5.86-15.12L184,279c-.34-.89-.43-1.15-.15-1.24a4.26,4.26,0,0,1,1-.06h3.83l9.16,0a2.3,2.3,0,0,1,.94.11s.07,0,.09,0a.64.64,0,0,1,.17.24.71.71,0,0,1,.07.09h0c.07.16.14.37.24.64l4.95,14.27q2.34,6.75,4.69,13.5c0,.11.08.24.12.35l.39,1c.18-.42.3-.66.39-.89l4.22-10.71q2.39-6,4.75-12.07a13,13,0,0,1,2.47-4.09h0a7.78,7.78,0,0,1,6-2.67c1.66,0,3.32,0,5,0h3.09a1,1,0,0,1-.12.73C235.29,278.32,235.25,278.4,235.22,278.48Zm46.62,24.38c-.07.77-.19,1.52-.29,2.27a25.46,25.46,0,0,1-1,4.64h0A19.75,19.75,0,0,1,271,321.35a23.2,23.2,0,0,1-4.08,1.79,28.88,28.88,0,0,1-10.5,1.23,31.21,31.21,0,0,1-4.92-.72,26.82,26.82,0,0,1-3.37-.95,19.62,19.62,0,0,1-3.51-1.7h0l-.16-.13a16.28,16.28,0,0,1-2.89-2.31,13.87,13.87,0,0,1-3.49-6.2,16,16,0,0,1-.37-1.59,17.52,17.52,0,0,1-.19-3.31,14.06,14.06,0,0,1,.15-1.93,10.83,10.83,0,0,1,2.44-5.35,11,11,0,0,1,1.22-1.25,16.25,16.25,0,0,1,5.79-3.07c.54-.17,1.1-.29,1.64-.42,1-.25,2-.45,3-.6.3,0,.6-.12.91-.16.57-.07,1.14-.1,1.71-.16,1.41-.15,2.8-.26,4.17-.34.8,0,1.62-.1,2.4-.13h5.45c.09,0,.07-.1.1-.15s.13-.08.1-.16a5.94,5.94,0,0,0-.35-.82,6.86,6.86,0,0,0-.61-.81,8.59,8.59,0,0,0-3-2.71,10.29,10.29,0,0,0-1.39-.55,12.71,12.71,0,0,0-2.73-.69c-.27,0-.52-.11-.8-.14-.59-.05-1.19,0-1.78,0a23.56,23.56,0,0,0-3.25.22c-.7.09-1.39.16-2.08.31a13.41,13.41,0,0,1-3.22.35,7.29,7.29,0,0,1-1.87-.28,4.57,4.57,0,0,1-3.33-3.31,8,8,0,0,1-.22-1.36,5.78,5.78,0,0,1,0-.72A7.51,7.51,0,0,1,242,282a5.48,5.48,0,0,1,3.56-4.27,23.09,23.09,0,0,1,5.3-1.31,49.54,49.54,0,0,1,7.7-.48A25.24,25.24,0,0,1,272,280a20.68,20.68,0,0,1,7.38,8.43c.13.28.29.55.41.84a23.49,23.49,0,0,1,1.24,3.6,27.13,27.13,0,0,1,.53,3.33A32.9,32.9,0,0,1,281.84,302.86Zm46,14.82c-.27.29-.58.52-.87.78a17.41,17.41,0,0,1-3.64,2.67,22.32,22.32,0,0,1-5,1.87c-.82.21-1.63.45-2.47.58a31.44,31.44,0,0,1-3.61.33,32.79,32.79,0,0,1-4.54-.12,30.25,30.25,0,0,1-7.45-1.86c-.8-.3-1.62-.53-2.41-.9a33.32,33.32,0,0,1-3.25-1.82c-.6-.37-1.2-.74-1.78-1.15a34.82,34.82,0,0,1-3.17-2.41c-.19-.17-.44-.29-.51-.67h0q4.25-3.94,8.58-7.94h0l.76.53c.31.22.64.38.95.58a22.32,22.32,0,0,0,7.18,3.06,25.51,25.51,0,0,0,3.07.48,16.67,16.67,0,0,0,1.87,0,15.82,15.82,0,0,0,3.35-.41,6,6,0,0,0,2.34-1,2.47,2.47,0,0,0,.48-.49,1.66,1.66,0,0,0,.37-.89,1.87,1.87,0,0,0-.92-1.9,5.46,5.46,0,0,0-.7-.3,6,6,0,0,0-.73-.32,23.39,23.39,0,0,0-2.71-.69c-.8-.16-1.61-.3-2.42-.42l-2.29-.36c-1.55-.24-3.1-.54-4.64-.89-.5-.12-1-.2-1.52-.33a28.94,28.94,0,0,1-3.53-1.24c-.57-.23-1.14-.46-1.68-.74a15.41,15.41,0,0,1-2.85-2,12.41,12.41,0,0,1-1.3-1.21,10.35,10.35,0,0,1-1.07-1.68,10.52,10.52,0,0,1-1.41-3.88c0-.1-.07-.19-.08-.29a13,13,0,0,1,3.92-11c.32-.33.57-.68.93-1a16.89,16.89,0,0,1,4.85-2.9,23.63,23.63,0,0,1,2.65-.91,26,26,0,0,1,2.7-.58,34.16,34.16,0,0,1,8-.25,26,26,0,0,1,8.24,1.93,19.5,19.5,0,0,1,5.64,3.58,6,6,0,0,1,2,3.72s0,0,0,0h0a6.67,6.67,0,0,1-.07,1.27,6.18,6.18,0,0,1-.76,2.65,5.38,5.38,0,0,1-.24.55h0a4.68,4.68,0,0,1-4.39,2,7.89,7.89,0,0,1-2.25-.5c-.33-.11-.65-.22-1-.36l-1.25-.58-1.29-.59c-.78-.34-1.57-.63-2.37-.89a17.21,17.21,0,0,0-2.75-.66,18.51,18.51,0,0,0-2.1-.14,15.53,15.53,0,0,0-3.9.3,6,6,0,0,0-1.87.72,2.65,2.65,0,0,0-1,.9,1,1,0,0,0-.07.23.88.88,0,0,0-.06.55,1.05,1.05,0,0,0,.19.46,2.43,2.43,0,0,0,.88.67,10.12,10.12,0,0,0,2,.68c1.59.39,3.21.64,4.83.9a60.44,60.44,0,0,1,10,2.24c.57.19,1.12.42,1.67.66a18.14,18.14,0,0,1,2.78,1.41,13.4,13.4,0,0,1,1.68,1.35,11.17,11.17,0,0,1,3.67,7.61c0,.61,0,1.18,0,1.76A13.79,13.79,0,0,1,327.87,317.68ZM448.48,303a23.65,23.65,0,0,1-14.43,18.37,27,27,0,0,1-2.81,1,25.89,25.89,0,0,1-8.78,1,24.67,24.67,0,0,1-16-6.72,22.69,22.69,0,0,1-7.12-13.73A23.42,23.42,0,0,1,403,286.15a24,24,0,0,1,15.2-10.24,25.61,25.61,0,0,1,8.9-.42,24.21,24.21,0,0,1,20.19,15.73,23.88,23.88,0,0,1,1.4,8.23A24.21,24.21,0,0,1,448.48,303ZM486.05,288a.33.33,0,0,1-.05.15.29.29,0,0,1-.21.19.38.38,0,0,1-.16,0l-1.53-.14-1.48-.14a17.74,17.74,0,0,0-3.26.08,16.64,16.64,0,0,0-2.61.48,9,9,0,0,0-2.25,1s0,0-.07,0a6.74,6.74,0,0,0-2.51,2.75,7.45,7.45,0,0,0-.71,2.15c-.06.35,0,.72-.07,1.08,0,.53-.09,1.06-.09,1.59,0,3.06.05,6.12.07,9.18q.06,7.44.09,14.88c0,1.48.16,1.24-1.23,1.29-1.71.05-3.43,0-5.15.05h-6.71s0,0,0,0a.32.32,0,0,1-.3-.32c0-.15,0-.29,0-.45,0-.89,0-1.79,0-2.68,0-4.11,0-8.21,0-12.31l0-4.25c0-2.13-.05-4.25-.05-6.38a26.57,26.57,0,0,1,.36-4.37,20.87,20.87,0,0,1,1-3.86,17.24,17.24,0,0,1,6.19-8.15,19.77,19.77,0,0,1,3.76-2.18,26.13,26.13,0,0,1,7-1.85,35.21,35.21,0,0,1,4.58-.29c1.52,0,3.05.08,4.57.21l.31,0a1,1,0,0,1,.24.05.87.87,0,0,1,.34.12h0c0,.13,0,.27,0,.42l0,11.3C486.06,287.81,486.06,287.93,486.05,288Zm33,34.18c0,.26,0,.39-.09.46l-.06,0a1,1,0,0,1-.44.09l-.53,0c-.27,0-.54.05-.82.05-1.6,0-3.2.09-4.81,0a20.76,20.76,0,0,1-6.43-1.27,12.67,12.67,0,0,1-1.47-.49,15.51,15.51,0,0,1-2-1.23,13.46,13.46,0,0,1-6.07-9.43,17.7,17.7,0,0,1-.22-2.9l0-4c0-1,0-2,0-3q0-3.35,0-6.71v-2.46h-.11v-17c0-.13,0-.26,0-.39a7.75,7.75,0,0,1,.12-1.51,5.89,5.89,0,0,1,2.19-3.61,6.49,6.49,0,0,1,1.28-.77,7.73,7.73,0,0,1,7.21.24,6.89,6.89,0,0,1,1.36,1,6.12,6.12,0,0,1,1.92,4.29c0,.75,0,1.49,0,2.24,0,.3,0,.45.14.52a.86.86,0,0,0,.52.09H513l3.44,0,.7,0a2.58,2.58,0,0,1,1.26.15h0a3.61,3.61,0,0,1,.07.8c0,.1,0,.21,0,.31,0,.26,0,.52,0,.78q0,4.59,0,9.17v.17c0,.13,0,.26,0,.39s-.06,0-.08.07-.1.2-.21.2h-.9l-6.94,0h-.56a.58.58,0,0,0-.23.06c-.05,0-.14,0-.17,0a.68.68,0,0,0-.09.45c0,.19,0,.39,0,.58,0,.48,0,.95,0,1.43v12c0,.3,0,.6,0,.89,0,.67,0,1.35,0,2,0,.24,0,.48.07.73a2.48,2.48,0,0,1,0,.27,4.08,4.08,0,0,0,.39,1.13c0,.07.1.13.15.2a3.6,3.6,0,0,0,.52.71,4,4,0,0,0,2.08,1.05,9.59,9.59,0,0,0,1.77.13h.12l1.9,0h1.9c.28,0,.39.07.46.19a.75.75,0,0,1,.08.33c0,.77,0,1.54,0,2.32,0,.34,0,.69,0,1q0,3.92.08,7.83ZM522.34,6.71c0,.06,0,.11-.07.16s0,.08,0,.1h0c-.14,0-.27.13-.41.17a8,8,0,0,0-1.3.69,9.13,9.13,0,0,0-1.94,1.44,12.59,12.59,0,0,0-1.08,1.11,20.36,20.36,0,0,0-1.31,2,24.17,24.17,0,0,0-1.73,3.45l-2.6,6.48Q509.92,27.18,508,32q-9.74,24.35-19.48,48.69h0a2.84,2.84,0,0,1-.42.9c-.09.27-.16.57-.27.84q-7.76,19.42-15.52,38.84l0,.09a.76.76,0,0,1,0,.11,1,1,0,0,1-.3.58,2.24,2.24,0,0,1-.27.84q-9.17,22.94-18.34,45.87c-.11.27-.26.52-.39.79a1.42,1.42,0,0,1-.05.22,3.23,3.23,0,0,1-.21.62l-.09.21-1.71,4.29c-1.26,3.13-2.54,6.27-3.76,9.42a33.34,33.34,0,0,1-4.88,8.51,37.61,37.61,0,0,1-17.51,12.59c-1.12.4-2.21.86-3.39,1.17a35,35,0,0,1-3.62.69c-.48.07-1,.14-1.46.19-1.22.13-2.44.23-3.67.24l-7.59,0-16.71.06-18.16,0-8.26,0-7.39,0-.56,0c-.41,0-.82,0-1.23,0l-.78,0a2.54,2.54,0,0,1-.29,0,2,2,0,0,1-.49-.06h0a14.15,14.15,0,0,1-6.58-.72,7.31,7.31,0,0,1-3.73-3.07c-.23-.37-.38-.76-.57-1.14a16.63,16.63,0,0,1-1.13-3.1l-2.82-11.41c-.39-1.58-.79-3.17-1.18-4.75-.67-2.71-1.33-5.41-2-8.11l-4.41-17.83-3.84-15.51a1.62,1.62,0,0,1,0-.31s0-.09,0-.13h0c-.38-1.41-.76-2.8-1.12-4.21q-2.43-9.83-4.84-19.64c-.05-.21-.11-.42-.16-.64a23.67,23.67,0,0,1-.53-2.36c0-.16-.08-.32-.1-.48a14.28,14.28,0,0,1-.44-1.45c-.15-.62-.29-1.25-.45-1.88q-2.17-8.77-4.32-17.54c0-.13-.09-.26-.14-.4s-.05-.15-.08-.23c-.13.24-.23.5-.34.75-.23.51-.45,1-.65,1.54l-.3.78c-.29.72-.58,1.44-.86,2.17-.49,1.2-1,2.41-1.45,3.62a3.13,3.13,0,0,1-.19.36l-.12.22h0c-.16.41-.32.82-.47,1.24l-.93,2.41-2.4,6c-.41,1-.83,2.08-1.24,3.11l-.13.26-.22.43c-.08.21-.15.42-.23.62s-.19.57-.3.85q-2.91,7.29-5.81,14.6c-.06.14-.14.27-.21.41s-.09.18-.14.28h0c-.62,1.59-1.23,3.18-1.86,4.77s-1.36,3.45-2.06,5.18a1.91,1.91,0,0,1-.39.78h0c-.09.28-.16.57-.27.84q-3.3,8.28-6.61,16.55c-.47,1.18-.94,2.37-1.42,3.55-.11.28-.25.54-.38.8-.21.56-.43,1.12-.64,1.67l-.8,2.07c-.73,1.85-1.47,3.69-2.21,5.54l-1.91,4.79c-.05.11-.07.22-.11.33a.35.35,0,0,1,0,.08.56.56,0,0,1-.19.27h0a2.27,2.27,0,0,1-.31,1c-.56,1.46-1.18,2.9-1.73,4.36a32.63,32.63,0,0,1-5.14,8.87,37.67,37.67,0,0,1-21.91,13.73c-.78.18-1.57.28-2.35.4a34.34,34.34,0,0,1-4.75.41l-4.31,0h-.61l-29.66.13-8.17.05-18.69.12c-.37,0-.75,0-1.12,0a22.26,22.26,0,0,1-5.07-.62,8,8,0,0,1-1.94-.91,7.87,7.87,0,0,1-2.87-3.14,17.36,17.36,0,0,1-1.31-3.68c-.8-3.17-1.58-6.34-2.37-9.52l-1.32-5.34-1.77-7.1c0-.18,0-.36-.08-.54a2.53,2.53,0,0,1-.1-.67h0a1.36,1.36,0,0,1-.14-.33,3.49,3.49,0,0,1-.2-.7c0-.08,0-.16-.05-.24Q159,165,156.22,153.83L152,136.61c-.05-.21-.06-.44-.09-.66h0c-.29-1.11-.61-2.22-.88-3.34l-1.17-4.7-1.44-5.82c-.08-.36-.14-.74-.2-1.1h0c-.47-1.8-1-3.59-1.4-5.39-.55-2.17-1.08-4.34-1.61-6.52-.19-.78-.39-1.56-.58-2.35-.09-.4-.15-.8-.24-1.2s-.21-.83-.32-1.25c-.38-1.48-.77-3-1.14-4.45-.55-2.2-1.08-4.4-1.62-6.6a1.48,1.48,0,0,0-.1-.27l0-.14a3.48,3.48,0,0,0-.63,1.28c-1,2.57-2.06,5.16-3.09,7.74-.13.34-.31.67-.46,1h0c-.54,1.39-1.07,2.78-1.62,4.17-.15.36-.29.73-.44,1.09q-1.81,4.61-3.65,9.2a2.19,2.19,0,0,1-.4.79,4.57,4.57,0,0,1-.31,1l-.29.68q-.94,2.42-1.93,4.82a3.44,3.44,0,0,1-.28.66.62.62,0,0,1-.15.22h0a4.76,4.76,0,0,1-.27.91c-.12.29-.26.57-.37.87l-4,10.11q-1.78,4.48-3.58,9c-.06.15-.11.31-.17.46a1.18,1.18,0,0,1-.26.43c-.05.14-.1.28-.14.42s-.08.28-.13.42q-1.83,4.59-3.67,9.18c0,.12-.07.24-.12.36a.73.73,0,0,1-.23.32h0a1.93,1.93,0,0,1-.27.84q-5.15,12.92-10.3,25.81l-.08.21a1.66,1.66,0,0,1-.13.27.66.66,0,0,1-.14.2h0a19.33,19.33,0,0,1-1.68,4c-.71,1.28-1.48,2.51-2.28,3.68a39.49,39.49,0,0,1-5.37,6.29A36.44,36.44,0,0,1,84.56,206a41.79,41.79,0,0,1-8.07,2.7,37.81,37.81,0,0,1-8.56.8c-3.24,0-6.49,0-9.74.05l-22.49.11-17,.07c-3.4,0-6.79.06-10.19.09H7.65c.09-.3.28-.32.45-.36a9,9,0,0,0,5.59-4.18,26.83,26.83,0,0,0,2.19-4.39c1.74-4.33,3.45-8.65,5.19-13a16,16,0,0,1,1.05-2.45,2.33,2.33,0,0,1,.26-.85q5.16-12.89,10.33-25.79c.1-.24.22-.47.32-.71s.07-.19.1-.29a3.37,3.37,0,0,1,.1-.34q2-5,4-10.06c.07-.17.16-.34.24-.5.56-1.42,1.1-2.85,1.67-4.27l6.36-15.88c.16-.38.34-.75.5-1.12h0c.15-.42.28-.84.44-1.25s.41-1,.61-1.52c.51-1.27,1-2.54,1.53-3.81.14-.34.3-.67.46-1a28.51,28.51,0,0,1,1.27-3.33l4.48-11.19c.07-.17.17-.32.26-.49a19.42,19.42,0,0,1,1.1-2.92l1.22-3,5.94-14.81c.06-.15.15-.29.22-.44l0,0c0-.22.14-.43.21-.64a12.82,12.82,0,0,1,.44-1.23c.16-.38.33-.76.48-1.15q5.59-14,11.2-27.94a2.93,2.93,0,0,1,.21-.39A9.88,9.88,0,0,1,76.61,49l0-.17,0-.07c.2-.49.42-1,.61-1.47q3-7.7,6.14-15.37a34.14,34.14,0,0,1,6.5-10.23c.46-.52,1-.93,1.5-1.42a38.85,38.85,0,0,1,5.62-4.63c.9-.61,1.74-1.29,2.69-1.83.57-.32,1.16-.61,1.74-.91a37.37,37.37,0,0,1,4.4-1.93,35.55,35.55,0,0,1,5.52-1.56c.89-.18,1.78-.29,2.67-.4a29.68,29.68,0,0,1,4.21-.28c1,0,2,0,3,0,.71,0,1.41,0,2.12,0,1.8-.07,3.61-.06,5.41-.08,3.08,0,6.15-.08,9.22-.07h5.39c2.75,0,5.49,0,8.24,0l11.8,0h.78c2.51,0,5-.06,7.53-.1h.11c2.52-.05,5.05-.08,7.57-.05.26,0,.52,0,.78.05h0c7.75-.79,15.22,3.46,19.1,8.34A20.08,20.08,0,0,1,201.45,20a2,2,0,0,1,.16.24A18.18,18.18,0,0,1,203.06,24q.91,3.57,1.81,7.15L206,35.73s0,.07,0,.11c.05.21.08.43.13.66.52,2,1.05,4,1.57,6l.42,1.7c.68,2.68,1.35,5.37,2,8a1.57,1.57,0,0,1,.05.3v0h0l1,4c.13.48.26,1,.38,1.45q2,7.73,3.88,15.44v0h0a.11.11,0,0,0,0,0c.08.34.14.69.21,1h0a2.46,2.46,0,0,1,.14.38c.14.39.22.8.33,1.21.42,1.68.84,3.35,1.27,5l2,7.73a3.13,3.13,0,0,1,0,.44h0a3.32,3.32,0,0,1,.4,1.26q1.65,6.54,3.28,13.08c0,.13.06.25.08.38l.21.93a18.51,18.51,0,0,1,.78,3.1l.41.06c.55-1.4,1.08-2.8,1.63-4.2.19-.47.42-.93.62-1.4h0a10.81,10.81,0,0,1,.62-1.76c.14-.31.28-.63.4-1q4.88-12.19,9.77-24.39a4,4,0,0,1,.21-.41c.05-.09.09-.19.14-.28h0a6.45,6.45,0,0,1,.22-.75l7.09-17.73h0s0,0,0,0a2.34,2.34,0,0,1,.15-.27c.56-1.46,1.12-2.92,1.7-4.38q3.06-7.68,6.12-15.37c.9-2.25,1.77-4.51,2.74-6.73a29.23,29.23,0,0,1,1.78-3.37c.11-.18.24-.35.36-.52.61-.95,1.25-1.88,1.95-2.77a35.79,35.79,0,0,1,3.1-3.52,40.88,40.88,0,0,1,14.63-9.29c1.08-.39,2.18-.72,3.29-1a38.75,38.75,0,0,1,4.28-.91c.86-.13,1.74-.13,2.61-.18.62,0,1.22-.13,1.84-.13h.23c4.17,0,8.33.06,12.49,0h.27c9.55-.25,19.1-.08,28.65-.17,1.73,0,3.46,0,5.19,0,2.49,0,5,0,7.46,0,.89,0,1.77,0,2.65-.05,1.58,0,3.16-.1,4.73-.1H352l.51,0h0a23.76,23.76,0,0,1,8.35,1.42,24.54,24.54,0,0,1,5.84,3.15c.5.36.95.77,1.41,1.17a20.84,20.84,0,0,1,3,3.13,20.16,20.16,0,0,1,2.44,4.12,26.45,26.45,0,0,1,1.21,4q.92,3.63,1.82,7.24,2.21,8.68,4.39,17.36Q383,57.3,385,65.57c.58,2.3,1.16,4.59,1.73,6.89.37,1.44.71,2.89,1.06,4.34h0l.6,2.31c.34,1.28.68,2.56,1,3.85s.61,2.44.92,3.66l5,20.06c.07.32.12.66.18,1h0a.47.47,0,0,0,.16,0,.27.27,0,0,0,.27-.2c.55-1.4,1.11-2.8,1.67-4.19.11-.26.21-.52.31-.78q4-10.07,8-20.14l0-.06h0c.11-.27.25-.53.38-.79s.25-.79.39-1.16l.07-.15,16.77-42c1-2.61,2.11-5.21,3.12-7.83l0-.06h0c.09-.24.22-.46.31-.7a32.51,32.51,0,0,1,5.51-8.86c.25-.29.49-.6.76-.89a42.36,42.36,0,0,1,21-12.13c1-.22,2-.37,3-.5a35.73,35.73,0,0,1,4.4-.3c2.83,0,5.67,0,8.51,0l8.79-.05,19.41-.11,5.24,0,2.38,0,8.5,0q2.68,0,5.37-.06c.71,0,1.42,0,2.13-.07a.34.34,0,0,1,.23.18Z"></path>
  <path class="cls-4" d="M351.55,332.79a6.25,6.25,0,0,0,3.78-4.41,9.08,9.08,0,0,0,.15-2c0-2,0-4,0-6,0-.32.16-.42.42-.24a18.55,18.55,0,0,0,3,1.71,23.16,23.16,0,0,0,25.9-5.36A23.73,23.73,0,0,0,391.07,295a22.39,22.39,0,0,0-11.28-15.89,25.55,25.55,0,0,0-12.59-3.41,27.46,27.46,0,0,0-10.73,1.81,23.38,23.38,0,0,0-15.22,22.16c0,2.43,0,4.85,0,7.28q0,8.79.05,17.57c0,.9,0,1.79,0,2.69a6.19,6.19,0,0,0,2.67,5,7,7,0,0,0,2.34,1c.15,0,.3,0,.34.22h3.14a.26.26,0,0,1,.23-.2A5.46,5.46,0,0,0,351.55,332.79Zm4.27-33.17a13.86,13.86,0,0,1,.36-2.29,10.6,10.6,0,0,1,2-4.41,10.88,10.88,0,0,1,4-3.24,10.35,10.35,0,0,1,12.94,3.69,11.54,11.54,0,0,1,1.17,10.33,10.85,10.85,0,0,1-1.77,3.14,10.52,10.52,0,0,1-16.85-.88,10.94,10.94,0,0,1-1.64-4.49,11.29,11.29,0,0,1-.26-1.85Z"></path>
  <path class="cls-2" d="M522.11,6.53c-.71,0-1.42.06-2.13.07q-2.68,0-5.37.06l-8.5,0-2.38,0-5.24,0-19.41.11-8.79.05c-2.84,0-5.68,0-8.51,0a35.73,35.73,0,0,0-4.4.3c-1,.13-2,.28-3,.5a42.36,42.36,0,0,0-21,12.13c-.27.29-.51.6-.76.89a32.51,32.51,0,0,0-5.51,8.86c-.09.24-.22.46-.31.7h0l0,.06c-1,2.62-2.08,5.22-3.12,7.83l-16.77,42-.06.14c-.16.39-.27.78-.4,1.17l6.72,0a.91.91,0,0,0,.33,0,9.19,9.19,0,0,1,3-.2h40.31a4.67,4.67,0,0,0,1.66-.16,2.62,2.62,0,0,1,.89-.06h27a2.25,2.25,0,0,1,1.76.52,2.69,2.69,0,0,0,.42-.89h0Q498.25,56.37,508,32l3.89-9.71,2.6-6.48a24.17,24.17,0,0,1,1.73-3.45,20.36,20.36,0,0,1,1.31-2,12.59,12.59,0,0,1,1.08-1.11,9.13,9.13,0,0,1,1.94-1.44,8,8,0,0,1,1.3-.69c.14,0,.27-.12.41-.17h0s0-.07,0-.1.1-.1.07-.16h0A.34.34,0,0,0,522.11,6.53Z"></path>
  <path class="cls-2" d="M488.08,81.61a2.25,2.25,0,0,0-1.76-.52h-27a2.62,2.62,0,0,0-.89.06,4.67,4.67,0,0,1-1.66.16H416.48a9.19,9.19,0,0,0-3,.2.91.91,0,0,1-.33,0l-6.72,0h0c-.13.26-.27.52-.38.79h0l0,.06q-4,10.06-8,20.14c-.1.26-.2.52-.31.78-.56,1.39-1.12,2.79-1.67,4.19-.07.17-.16.2-.27.2a.47.47,0,0,1-.16,0h0a2,2,0,0,1-.05.34,5.72,5.72,0,0,1-.41,1.64c-.08.19-.15.39-.23.58a16.86,16.86,0,0,1-1.51,3.22,1.73,1.73,0,0,1-.24.23,1.54,1.54,0,0,1-1.14.55H352.71a5.31,5.31,0,0,0-1.77.17,3.33,3.33,0,0,1-1,0H318c0,.16.07.32.1.48a23.67,23.67,0,0,0,.53,2.36c.05.21.11.42.16.64q2.42,9.82,4.85,19.64c.35,1.4.73,2.8,1.11,4.21h7a5.86,5.86,0,0,0,.93-.09,2.85,2.85,0,0,0,.4,0,4.43,4.43,0,0,1,1.21-.08H376a12.81,12.81,0,0,0,1.39-.11l.49,0a12.93,12.93,0,0,1,2-.07l1.27,0a1.12,1.12,0,0,1,.76.43l.25.22a4.8,4.8,0,0,0,.84-1.8c1.57-3.86,3.06-7.74,4.64-11.6l.63-1.6c.23-.57.47-1.14.68-1.72a9,9,0,0,1,.61-1.25,13.15,13.15,0,0,1,.79-1.16,1.27,1.27,0,0,1,.54-.45,1.43,1.43,0,0,1,.6-.13h37.95c.32,0,.65,0,1,0a3.2,3.2,0,0,0,.8-.14,1.54,1.54,0,0,1,.48,0c.18,0,.35,0,.52,0H471.9a.93.93,0,0,0,.31-.57.76.76,0,0,0,0-.11l0-.09q7.77-19.41,15.52-38.84C487.92,82.19,488,81.9,488.08,81.61Z"></path>
  <path class="cls-2" d="M381,144.91l-.29.72c-.6,1.48-1.17,3-1.76,4.46s-1.27,3.22-1.91,4.82c-.17.43-.34.86-.52,1.29q-.9,2.3-1.81,4.57c-.2.49-.4,1-.59,1.48l-2.57,6.38c-.11.29-.23.58-.32.88a2.07,2.07,0,0,0-.12.49h6.6a5.48,5.48,0,0,0,1.66-.16,1.11,1.11,0,0,1,.17,0,6.19,6.19,0,0,1,1.06,0h41.2a7.54,7.54,0,0,0,1.64-.11,2.14,2.14,0,0,0,.35-.06s.1,0,.15,0a4.35,4.35,0,0,1,.63,0h27.65l.55,0h.12c.13-.26.28-.52.39-.79l18.34-45.87a2.23,2.23,0,0,0,.27-.85H432.16c-.17,0-.34,0-.52,0a1.54,1.54,0,0,0-.48,0,3.2,3.2,0,0,1-.8.14c-.32,0-.65,0-1,0H391.44a1.43,1.43,0,0,0-.6.13,1.27,1.27,0,0,0-.54.45,13.15,13.15,0,0,0-.79,1.16,8,8,0,0,0-.6,1.25c-.22.58-.46,1.15-.69,1.72l-.63,1.6c-1.58,3.86-3.07,7.74-4.64,11.6a4.8,4.8,0,0,1-.84,1.8h0A20.28,20.28,0,0,1,381,144.91Z"></path>
  <path class="cls-3" d="M253.32,36.27Q250.25,44,247.2,51.64c-.58,1.46-1.14,2.92-1.7,4.38a5.78,5.78,0,0,1,1-.16c.31,0,.61-.07.92-.07h25.14a7.89,7.89,0,0,0,1.08-.1,3.59,3.59,0,0,0,.46,0,3.87,3.87,0,0,1,1.18-.06h41.58a9.88,9.88,0,0,0,1.33-.07,2.68,2.68,0,0,0,.55-.11,1.62,1.62,0,0,1,.22,0c.15,0,.29,0,.45,0h8a1.23,1.23,0,0,0,.19-.33,2.3,2.3,0,0,0,.15-.32,3.62,3.62,0,0,1,.13-.35l4-10,11-27.43a26.41,26.41,0,0,1,1.8-3.61c.24-.41.46-.83.73-1.23a12.46,12.46,0,0,1,1.62-2,9.32,9.32,0,0,1,1.67-1.23,8.16,8.16,0,0,1,2.3-1,7.2,7.2,0,0,1,1-.31l.05,0c.12,0,.24-.07.36-.1h0l-.51,0h-.38c-1.58,0-3.16.06-4.74.1-.88,0-1.76.05-2.65.05-2.48,0-5,0-7.46,0h-5.19c-9.55.09-19.1-.07-28.65.17h-.27c-4.16.1-8.32,0-12.49,0h-.23c-.62,0-1.22.09-1.84.13-.87,0-1.75,0-2.61.18a38.75,38.75,0,0,0-4.28.91c-1.11.29-2.21.62-3.29,1a40.59,40.59,0,0,0-14.62,9.28,34.63,34.63,0,0,0-3.11,3.52c-.7.89-1.34,1.82-1.95,2.77-.12.17-.25.34-.36.52a27.69,27.69,0,0,0-1.77,3.37C255.09,31.76,254.22,34,253.32,36.27Z"></path>
  <path class="cls-2" d="M76.58,50.4a8.51,8.51,0,0,1,2.66-.21H96.15A5.08,5.08,0,0,0,97.59,50,4.43,4.43,0,0,1,98.8,50h41.66a5,5,0,0,0,1.77-.17,2.63,2.63,0,0,1,.89,0h15c.63-1.23,1.06-2.54,1.57-3.81,1.16-2.87,2.3-5.75,3.45-8.61.08-.2.11-.44.31-.58a10.9,10.9,0,0,1,.77-2.09q.9-2.28,1.82-4.55,2.52-6.34,5.06-12.68a26.12,26.12,0,0,1,1.3-2.72,18.29,18.29,0,0,1,1.91-2.89,12.57,12.57,0,0,1,1.17-1.24A8.17,8.17,0,0,1,180,8.51a.94.94,0,0,0,.3-.12h0c-.26,0-.52-.05-.78-.05-2.52,0-5.05,0-7.57.05h-.11c-2.51,0-5,.1-7.53.1h-.78l-11.8,0c-2.75,0-5.49,0-8.24,0h-5.39c-3.07,0-6.14,0-9.22.07-1.8,0-3.61,0-5.41.08-.71,0-1.41,0-2.12,0-1,0-2,0-3,0a28.26,28.26,0,0,0-4.21.27c-.89.11-1.78.22-2.67.4A35.55,35.55,0,0,0,105.89,11a39.1,39.1,0,0,0-4.4,1.93c-.58.3-1.17.59-1.74.91-1,.54-1.79,1.22-2.69,1.83a39.52,39.52,0,0,0-5.62,4.63c-.49.49-1,.9-1.5,1.42a34.14,34.14,0,0,0-6.5,10.23q-3.09,7.68-6.14,15.37c-.19.49-.41,1-.61,1.47l0,.07,0,.17a9.88,9.88,0,0,0-.48,1.42A1.69,1.69,0,0,0,76.58,50.4Z"></path>
  <path class="cls-2" d="M352.1,7.6l-.05,0a7.2,7.2,0,0,0-1,.31,8.16,8.16,0,0,0-2.3,1,9.32,9.32,0,0,0-1.67,1.23,12.46,12.46,0,0,0-1.62,2c-.27.4-.49.82-.73,1.23a26.35,26.35,0,0,0-1.79,3.61l-11,27.43-4,10a3.62,3.62,0,0,0-.13.35,2.3,2.3,0,0,1-.15.32,1.23,1.23,0,0,1-.19.33h0s0,.09,0,.13a2.63,2.63,0,0,1-.23.72q-3.49,8.76-7,17.51c-.08.19-.18.36-.27.54l-.08.15h0a2.72,2.72,0,0,1-.27.88c-.09.22-.19.43-.26.65s-.22.55-.3.83a1.57,1.57,0,0,0-.08.29h28.31a3,3,0,0,0,1.1-.14,1.84,1.84,0,0,1,.47-.07,2.42,2.42,0,0,1,.38,0h37.48l1.15,0c-.35-1.45-.69-2.9-1.06-4.34Q385.92,69,385,65.57,383,57.31,380.89,49q-2.19-8.67-4.39-17.36-.9-3.62-1.82-7.23a25.75,25.75,0,0,0-1.21-3.95A20,20,0,0,0,371,16.37a20.84,20.84,0,0,0-3-3.13c-.46-.4-.91-.81-1.41-1.17a24.54,24.54,0,0,0-5.84-3.15,23.76,23.76,0,0,0-8.35-1.42C352.35,7.53,352.22,7.58,352.1,7.6Z"></path>
  <path class="cls-2" d="M452.91,169.58H424.59a4.36,4.36,0,0,0-.63,0s-.11,0-.15,0a2.14,2.14,0,0,1-.35.06,7.51,7.51,0,0,1-1.64.12h-41.2a6.19,6.19,0,0,0-1.06,0,1.11,1.11,0,0,0-.17,0,5.48,5.48,0,0,1-1.66.16h-6.6a24.11,24.11,0,0,0-1.33,3.19c-1.73,4.28-3.43,8.56-5.14,12.85-1.29,3.22-2.51,6.45-3.88,9.64a30.06,30.06,0,0,1-6.35,9.77,10.47,10.47,0,0,1-3,2.17,2.4,2.4,0,0,0-.37.25h0a2,2,0,0,0,.49.06,2.54,2.54,0,0,0,.29,0l.78,0c.41,0,.82,0,1.23,0l.55,0,7.4,0,8.26,0,18.16,0,16.71-.06,7.59,0c1.23,0,2.45-.11,3.67-.24.49-.05,1-.12,1.46-.19a35,35,0,0,0,3.62-.69c1.18-.31,2.26-.77,3.39-1.17a37.61,37.61,0,0,0,17.51-12.59,33.34,33.34,0,0,0,4.88-8.51c1.22-3.15,2.5-6.29,3.76-9.42l1.71-4.29.09-.21a3.23,3.23,0,0,0,.21-.62,1.42,1.42,0,0,0,.05-.22Z"></path>
  <path class="cls-2" d="M349.94,114.46a3.33,3.33,0,0,0,1,0,5.28,5.28,0,0,1,1.77-.17H392a1.54,1.54,0,0,0,1.14-.55,1.73,1.73,0,0,0,.24-.23,16.86,16.86,0,0,0,1.51-3.22c.08-.19.15-.39.23-.58a5.72,5.72,0,0,0,.41-1.64,2,2,0,0,0,.05-.34h0c-.06-.32-.11-.66-.18-1l-5-20.06c-.31-1.22-.61-2.44-.92-3.66s-.66-2.57-1-3.85l-.6-2.31h0l-1.15,0-.53,0H349.2a2.42,2.42,0,0,0-.38,0,1.5,1.5,0,0,0-.47.08,3.16,3.16,0,0,1-1.1.13H318.94c-.14.3-.3.59-.43.9Q315.75,84.87,313,91.8a3.58,3.58,0,0,0-.37,1.16c0,.08.05.16.08.23s.1.27.14.4q2.16,8.77,4.32,17.54c.16.63.3,1.26.45,1.88a14.28,14.28,0,0,0,.44,1.45Z"></path>
  <path class="cls-4" d="M123.92,300.05c0-3.17,0-6.34,0-9.52,0-1.93,0-3.87,0-5.82a6.93,6.93,0,0,0-.56-2.63,8.23,8.23,0,0,0-4.83-4.63,7,7,0,0,0-2.61-.45,7.71,7.71,0,0,0-7.28,5.86,7,7,0,0,0-.11,1.11c0,.37-.11.74-.11,1.12h0q0,9.06.06,18.13h0c0,.36,0,.72,0,1.08l-.14,0h-.06c-.18-.26-.36-.53-.53-.81l-.14-.21c-.89-1.43-1.79-2.85-2.64-4.29-1-1.73-2.07-3.47-3.11-5.21q-3.08-5.18-6.16-10.36c-.43-.71-.88-1.41-1.37-2.07a14.86,14.86,0,0,0-1.54-1.74,8.81,8.81,0,0,0-4.84-2.38c-.46-.06-.92,0-1.37,0a13.48,13.48,0,0,0-3.74.38,7.19,7.19,0,0,0-5.18,4.21,9.66,9.66,0,0,0-.62,2,14.51,14.51,0,0,0-.11,1.61c0,.54-.11,1.08-.11,1.62h0q0,8.46,0,16.9h0c0,.3,0,.6,0,.9l-.09,0s-.08,0-.1,0a2.79,2.79,0,0,1-.35-.42l-1.52-2.29-1.51-2.28-5.37-8.12q-2.69-4.07-5.36-8.13c-.35-.53-.8-1-1.19-1.48a15.44,15.44,0,0,0-1.18-1.49c-3.43-3.41-7.52-4.24-12.06-2.94a8.1,8.1,0,0,0-1.8.75,7.21,7.21,0,0,0-3.35,4.4,8.41,8.41,0,0,0-.25,1.31,11.9,11.9,0,0,0-.07,1.34h0q.09,12.42.15,24.84c0,1.7,0,3.4,0,5.1s0,3.4,0,5.09c0,1.2,0,2.39,0,3.59,0,.4.08.5.28.53a.69.69,0,0,0,.26.05l14.33,0c.62,0,.63,0,.65-.63v-.44c0-1.61,0-3.21,0-4.82s0-3.21,0-4.81c0-1.94,0-3.88,0-5.82q0-3.75,0-7.5c0-.2-.12-.45.22-.59L59,301l5.92,8.76,5.92,8.76c.35.51.77,1,1.15,1.44a16.27,16.27,0,0,0,1.15,1.45,13.39,13.39,0,0,0,3.64,2.75,8.81,8.81,0,0,0,5,.95,8.58,8.58,0,0,0,1.1-.16,8.24,8.24,0,0,0,5.93-4.66,9.41,9.41,0,0,0,.8-2.9c.05-.47.05-.94.08-1.42s.07-.84.07-1.26q0-3.46,0-6.94t0-6.94h0c0-.1,0-.22,0-.33v0a.36.36,0,0,1,.24-.32l.32.45q1.52,2.28,3,4.55c3,4.4,5.91,8.79,9,13.1a16.18,16.18,0,0,0,4.15,4,18.62,18.62,0,0,0,5.28,2.39,8.73,8.73,0,0,0,4.75.17,11.36,11.36,0,0,0,2.33-.95,9.17,9.17,0,0,0,4-4.14,11.56,11.56,0,0,0,.89-2.36,9.69,9.69,0,0,0,.12-1.22c0-.41.12-.81.12-1.22h0c0-2.34,0-4.67-.05-7C124,305.3,123.94,302.68,123.92,300.05Z"></path>
  <path class="cls-2" d="M64,81.75a8.53,8.53,0,0,1,2.66-.21H99.92c.32,0,.63,0,.94,0a3.45,3.45,0,0,0,.83-.15,2.39,2.39,0,0,1,.66-.07l.56,0h42.63l.92-2.25c.38-1,.76-1.9,1.15-2.85a5.16,5.16,0,0,1,.64-1.39,18.55,18.55,0,0,1,.78-2.16c.17-.39.33-.78.49-1.18,1-2.58,2.06-5.16,3.09-7.74q2-5,4-10c.16-.38.34-.75.52-1.11h0c.22-.58.44-1.15.65-1.74a4.05,4.05,0,0,0,.37-1.13h-15a2.63,2.63,0,0,0-.89,0,5,5,0,0,1-1.77.17H98.8a4.43,4.43,0,0,0-1.21.07,5.08,5.08,0,0,1-1.44.15H79.24a8.51,8.51,0,0,0-2.66.21,1.69,1.69,0,0,1-.45,0c-.07.13-.15.25-.21.38q-5.61,14-11.2,27.95c-.15.39-.32.77-.48,1.15a12.82,12.82,0,0,0-.44,1.23c-.07.21-.16.42-.21.64A1.6,1.6,0,0,0,64,81.75Z"></path>
  <path class="cls-2" d="M351.47,207.62a10.47,10.47,0,0,0,3-2.17,30.06,30.06,0,0,0,6.35-9.77c1.37-3.19,2.59-6.42,3.88-9.64,1.71-4.29,3.41-8.57,5.14-12.85a24.11,24.11,0,0,1,1.33-3.19,2.07,2.07,0,0,1,.12-.49c.09-.3.21-.59.32-.88l2.57-6.38c.19-.5.39-1,.59-1.48.61-1.52,1.21-3.05,1.81-4.57.18-.43.35-.86.52-1.29q1-2.4,1.91-4.82c.59-1.49,1.16-3,1.76-4.46l.29-.72a19.1,19.1,0,0,0,1.08-2.9l-.24-.22a1.12,1.12,0,0,0-.76-.43l-1.27,0a12.93,12.93,0,0,0-2,.07l-.49,0a12.81,12.81,0,0,1-1.39.11h-41.6a4.92,4.92,0,0,0-1.22.08,2.85,2.85,0,0,1-.4,0,5.86,5.86,0,0,1-.93.09h-7s0,.08,0,.13a1.62,1.62,0,0,0,0,.31l3.84,15.51,4.41,17.83c.67,2.7,1.33,5.4,2,8.11.39,1.58.79,3.17,1.18,4.75l2.82,11.41a16.63,16.63,0,0,0,1.13,3.1c.19.38.34.77.57,1.14a7.31,7.31,0,0,0,3.73,3.07,14.15,14.15,0,0,0,6.58.72h0A2.4,2.4,0,0,1,351.47,207.62Z"></path>
  <path class="cls-3" d="M313,91.8q2.76-6.93,5.53-13.85c.13-.31.29-.6.43-.9h0a1.57,1.57,0,0,1,.08-.29c.08-.28.21-.55.3-.83s.17-.43.26-.65a2.72,2.72,0,0,0,.27-.88l-10.07,0h-6.49a6.31,6.31,0,0,0-1.88.17,4.12,4.12,0,0,1-1.22,0H259.13a6,6,0,0,0-2.1.19,1.81,1.81,0,0,1-.66,0H238.58c-.19,0-.37,0-.56,0h0c-.05.09-.09.19-.14.28a3.29,3.29,0,0,0-.21.42q-4.89,12.18-9.77,24.38c-.12.32-.26.64-.4,1a10.81,10.81,0,0,0-.62,1.76h18a5.48,5.48,0,0,0,1.66-.16,4.12,4.12,0,0,1,1.22-.06h41.3c.35,0,.7,0,1.05,0a3,3,0,0,0,.83-.15,1.4,1.4,0,0,1,.46,0c.14,0,.28,0,.43,0h15.44a2.55,2.55,0,0,1,1.41.26l.12-.22a3.13,3.13,0,0,0,.19-.36c.48-1.21,1-2.42,1.45-3.62.28-.73.57-1.45.86-2.18l.3-.77c.2-.52.42-1,.65-1.54.11-.25.21-.51.34-.75A3.58,3.58,0,0,1,313,91.8Z"></path>
  <path class="cls-3" d="M291.85,102.15l-.43,0a1.4,1.4,0,0,0-.46,0,3,3,0,0,1-.83.15c-.35,0-.7,0-1.05,0h-41.3a4.12,4.12,0,0,0-1.22.06,5.48,5.48,0,0,1-1.66.16h-18c-.2.47-.43.93-.62,1.41-.55,1.39-1.09,2.79-1.63,4.19,0,0,0,.07,0,.1s-.06.19-.15.22,0,0,0,0h0c-.08,0-.09,0-.13-.08s-.07,0-.08,0v0a1.85,1.85,0,0,1,0-.24,19.54,19.54,0,0,0-.78-3.1,10.27,10.27,0,0,1-1.9.23c-.74,0-1.47,0-2.21,0H183a5.63,5.63,0,0,0-.59,0,2.91,2.91,0,0,0-.59.1,4.17,4.17,0,0,1-1.23.06h-34.7l-1.27,0h-.29c.08.4.14.81.23,1.2.2.78.39,1.57.58,2.35.53,2.18,1.06,4.35,1.61,6.52.45,1.8.93,3.59,1.4,5.39h0a.74.74,0,0,1,.33,0,10.74,10.74,0,0,0,3,.2,1,1,0,0,0,.34,0,11.37,11.37,0,0,1,3.44-.2h40.11a4.73,4.73,0,0,0,1.75-.18,2.47,2.47,0,0,1,.82,0h19.77c.56,0,1.14,0,1.54.46.45-1,.9-2,1.34-3l.14-.35c.15-.36.29-.73.43-1.1a1.29,1.29,0,0,1,1-.8,1.13,1.13,0,0,1,.22-.08c.33,0,.67,0,1,0h27.69a5.07,5.07,0,0,0,1.5-.15,4.48,4.48,0,0,1,1.22-.07h41.07a6.65,6.65,0,0,0,2.22-.19,1.44,1.44,0,0,1,.55,0h4.14a2.41,2.41,0,0,1,1,.22,1.71,1.71,0,0,1,.52.3l.23-.43.13-.26c.41-1,.83-2.07,1.24-3.11q1.2-3,2.39-6c.32-.81.63-1.61.94-2.41.15-.42.31-.83.47-1.24h0a2.53,2.53,0,0,0-1.41-.26Z"></path>
  <path class="cls-3" d="M270.54,194a32.63,32.63,0,0,0,5.14-8.87c.55-1.46,1.17-2.9,1.73-4.36a2.47,2.47,0,0,0,.31-1,3.47,3.47,0,0,0-.45-.06,6.35,6.35,0,0,0-1.31-.17H262.2a5.11,5.11,0,0,0-1.45.15,4.84,4.84,0,0,1-1.21.07h-42l-.36,0a3.79,3.79,0,0,0-1,.16,2.13,2.13,0,0,1-.67,0H196.65l-.78,0h0c-.64,1.54-1.29,3.09-1.9,4.64q-2.24,5.53-4.45,11.09-.92,2.28-1.82,4.56c0,.12-.12.23-.17.35a28.08,28.08,0,0,1-1.39,2.87,14.45,14.45,0,0,1-1.37,2,8.09,8.09,0,0,1-.61.56,8.38,8.38,0,0,1-3,2c-.13,0-.23.13-.35.18h0l-1.81.58c.37,0,.75,0,1.12,0l18.69-.12,8.17-.05,29.66-.14h.61l4.31,0a34.34,34.34,0,0,0,4.75-.41c.78-.12,1.57-.22,2.35-.4A37.67,37.67,0,0,0,270.54,194Z"></path>
  <path class="cls-2" d="M71.28,158a2.39,2.39,0,0,0-.45.09,1.55,1.55,0,0,1-.53,0c-.12,0-.23,0-.35,0h-36c-.3,0-.6,0-.89,0a6.36,6.36,0,0,0-.33.7q-5.16,12.9-10.32,25.79a2.17,2.17,0,0,0-.27.85,2,2,0,0,0,.55,0,3.1,3.1,0,0,1,.5-.09,9,9,0,0,1,1.64-.12H45a3.86,3.86,0,0,0,.88-.15,2.73,2.73,0,0,1,.86-.07H88.64a5.7,5.7,0,0,0,1.88-.18,3.31,3.31,0,0,1,1,0h10.07a3.73,3.73,0,0,1,2,.4.88.88,0,0,0,.33.07h0a.66.66,0,0,0,.14-.2,1.66,1.66,0,0,0,.13-.27l.08-.21q5.16-12.9,10.3-25.81a1.93,1.93,0,0,0,.27-.84H72.27A6.58,6.58,0,0,0,71.28,158Z"></path>
  <path class="cls-3" d="M194.66,177.59a3.06,3.06,0,0,1,1.89.49h0l.6-1.45c.42-1,.85-2,1.27-3.08l2.12-5.27,1-2.5c.07-.17.17-.32.25-.49a11.19,11.19,0,0,1,.57-1.69l0,0c.21-.53.45-1.06.66-1.59q3.53-8.86,7.09-17.72h0a6.47,6.47,0,0,1,.36-.69,3.33,3.33,0,0,1,.26-.92.06.06,0,0,1,0,0c.12-.31.27-.62.39-.93.7-1.8,1.43-3.59,2.14-5.39.07-.17.11-.36.17-.53q-12.53,0-25.05,0a5.21,5.21,0,0,0-1.88.17,2.21,2.21,0,0,1-.77.05H151.87c0,.22,0,.45.09.66l4.26,17.22Q159,165,161.75,176.12c0,.08,0,.16.05.24a4.29,4.29,0,0,0,.2.7,1.36,1.36,0,0,0,.14.33h0a6.18,6.18,0,0,0,1.87.22Q179.33,177.59,194.66,177.59Z"></path>
  <path class="cls-2" d="M101.59,184.77H91.52a3.33,3.33,0,0,0-1,0,5.7,5.7,0,0,1-1.88.18H46.76a2.73,2.73,0,0,0-.86.07,3.86,3.86,0,0,1-.88.15H24.81a9,9,0,0,0-1.64.12,2.81,2.81,0,0,0-.49.09,2.1,2.1,0,0,1-.56,0,15.68,15.68,0,0,0-1.05,2.46c-1.74,4.32-3.45,8.64-5.19,13a26.83,26.83,0,0,1-2.19,4.39,9,9,0,0,1-5.59,4.18c-.17,0-.36.06-.45.36H8.5c3.4,0,6.79-.08,10.19-.09l17-.07,22.49-.11c3.25,0,6.5-.05,9.74-.05a37.81,37.81,0,0,0,8.56-.8,41.79,41.79,0,0,0,8.07-2.7,36.44,36.44,0,0,0,10.07-6.75,39.49,39.49,0,0,0,5.37-6.29c.8-1.17,1.57-2.4,2.28-3.68a19.33,19.33,0,0,0,1.68-4,.88.88,0,0,1-.32-.07A3.71,3.71,0,0,0,101.59,184.77Z"></path>
  <path class="cls-3" d="M292.31,143.36h-.11a3.42,3.42,0,0,0-1.53-.42c-.43,0-.86,0-1.3,0h-5.72a6.43,6.43,0,0,0-1.38.11c-.13,0-.25,0-.37.06a3.72,3.72,0,0,1-1.11,0H239.85a7.65,7.65,0,0,0-2.33.18h0a3.87,3.87,0,0,1-1.08,0H213.26a5.45,5.45,0,0,0-1.88.18,2.93,2.93,0,0,1-.89,0c-.12.23-.26.45-.36.69h0Q206.58,153.09,203,162c-.21.53-.45,1.06-.66,1.59l0,0a11.19,11.19,0,0,0-.57,1.69,12.85,12.85,0,0,1,3.33-.22h28.65a6.31,6.31,0,0,0,1.88-.17,4.49,4.49,0,0,1,1.22-.06h41a11.85,11.85,0,0,0,2.22-.16,9.56,9.56,0,0,1,2.45,0,4.52,4.52,0,0,1,1.13.45c.13-.26.27-.52.38-.8.48-1.18.95-2.37,1.42-3.55q3.3-8.28,6.61-16.54C292.15,143.93,292.22,143.64,292.31,143.36Z"></path>
  <path class="cls-2" d="M141.13,92.68a.93.93,0,0,1,0-.41c.27-.67.55-1.33.83-2,.1-.25.2-.5.31-.75,0-.06.1-.1.15-.15.42-1.11.82-2.22,1.24-3.32l1.86-4.75H102.91l-.56,0a2.39,2.39,0,0,0-.66.07,3.45,3.45,0,0,1-.83.15c-.31,0-.63,0-.94,0H66.69a8.53,8.53,0,0,0-2.66.21,1.29,1.29,0,0,1-.44,0l0,0c-.07.15-.16.29-.22.44L57.4,97.06l-1.22,3a19.42,19.42,0,0,0-1.1,2.92H70.3a6.62,6.62,0,0,0,.77,0,1.82,1.82,0,0,0,.45-.1,1.61,1.61,0,0,1,.49-.07c.28,0,.56,0,.84,0h41.53a11.53,11.53,0,0,0,1.18,0,3.32,3.32,0,0,0,.7-.13,1.49,1.49,0,0,1,.6,0l.29,0h17.69c.13,0,.26,0,.4,0a2.49,2.49,0,0,1,.81.09,2.27,2.27,0,0,0,.59.07l.3,0h0c.15-.33.33-.66.46-1,1-2.58,2-5.17,3.09-7.74a3.48,3.48,0,0,1,.63-1.28h0S141.13,92.73,141.13,92.68Z"></path>
  <path class="cls-2" d="M127.87,125.44a12.33,12.33,0,0,0-3.32-.22h-1c-1.42,0-2.85,0-4.27,0a6.68,6.68,0,0,0-2,.17,3.92,3.92,0,0,1-1.19,0h-41c-.4,0-.81,0-1.22,0a3.87,3.87,0,0,0-1.21.19,1.72,1.72,0,0,1-.6,0h-.19q-12.42,0-24.84,0h0c-.34,0-.67,0-1,0-.16.37-.34.74-.5,1.12l-6.36,15.88c-.57,1.42-1.11,2.85-1.67,4.27.45,0,.9,0,1.34,0H76.11a4.55,4.55,0,0,0,1.55-.15,2.56,2.56,0,0,1,.88-.07q19.69,0,39.39,0c.49,0,1-.08,1.25.5a1.27,1.27,0,0,0,.26-.43c.06-.15.11-.31.17-.46q1.78-4.5,3.58-9l4-10.11c.11-.3.25-.58.37-.87a4.76,4.76,0,0,0,.27-.91Z"></path>
  <path class="cls-3" d="M238.58,74.83h17.79a1.81,1.81,0,0,0,.66,0,6,6,0,0,1,2.1-.19h41.06a4.12,4.12,0,0,0,1.22,0,6.31,6.31,0,0,1,1.88-.17h6.49l10.07,0h0l.08-.15c.09-.18.19-.35.27-.54q3.51-8.76,7-17.52a2.21,2.21,0,0,0,.24-.71s0-.08,0-.13h-8c-.16,0-.3,0-.45,0a1.62,1.62,0,0,0-.22,0,2.68,2.68,0,0,1-.55.11,9.88,9.88,0,0,1-1.33.07H275.28a3.87,3.87,0,0,0-1.18.06,3.59,3.59,0,0,1-.46,0,7.89,7.89,0,0,1-1.08.1H247.42c-.31,0-.61,0-.92.07a5.78,5.78,0,0,0-1,.16,2.34,2.34,0,0,0-.15.27s0,0,0,0h0l-7.09,17.73a6.45,6.45,0,0,0-.22.75h0C238.21,74.81,238.39,74.83,238.58,74.83Z"></path>
  <path class="cls-4" d="M427.14,275.49a25.61,25.61,0,0,0-8.9.42A24,24,0,0,0,403,286.15a23.42,23.42,0,0,0-3.75,16.76,22.69,22.69,0,0,0,7.12,13.73,24.61,24.61,0,0,0,16,6.71,25.64,25.64,0,0,0,8.78-1,27,27,0,0,0,2.81-1A23.65,23.65,0,0,0,448.48,303a24.21,24.21,0,0,0,.25-3.52,23.88,23.88,0,0,0-1.4-8.23A24.21,24.21,0,0,0,427.14,275.49Zm5.36,31a10.41,10.41,0,0,1-17.73-.7,12.64,12.64,0,0,1-.53-1.27,12.06,12.06,0,0,1-1-4.27,13.49,13.49,0,0,1,0-1.91,12.3,12.3,0,0,1,1.37-4.91,10.24,10.24,0,0,1,14.23-4.49l.06,0c.09.05.16.12.24.17a10.58,10.58,0,0,1,3.32,3.18,12.85,12.85,0,0,1,2.09,7.2,12.59,12.59,0,0,1-1.07,5.21c-.07.16-.16.32-.24.48A11.68,11.68,0,0,1,432.5,306.46Z"></path>
  <path class="cls-4" d="M181.9,296c-.15-.71-.34-1.38-.53-2.05a22.55,22.55,0,0,0-7.61-11.7,26.37,26.37,0,0,0-4.46-2.86l-.27-.15a25.16,25.16,0,0,0-17.33-1.91,24.53,24.53,0,0,0-12.1,6.83,25.23,25.23,0,0,0-4.3,6.09A23.66,23.66,0,0,0,133,303.42a24.61,24.61,0,0,0,.47,2.59,22.36,22.36,0,0,0,3.2,7.79,23.72,23.72,0,0,0,3.26,4,24.07,24.07,0,0,0,14.61,6.69c.5.05,1,.17,1.48.2a25.78,25.78,0,0,0,10.44-1.57,24.29,24.29,0,0,0,15.88-22.6A20.41,20.41,0,0,0,181.9,296Zm-25.18,16.36a9.79,9.79,0,0,1-8.85-6.53,12.92,12.92,0,0,1-1-5.73,13.48,13.48,0,0,1,1.64-5.6,10.21,10.21,0,0,1,18.15,0,13.7,13.7,0,0,1,1.52,6.34h0a12.34,12.34,0,0,1-1.55,6.11A10,10,0,0,1,156.72,312.37Z"></path>
  <path class="cls-4" d="M281.07,292.87a23.49,23.49,0,0,0-1.24-3.6c-.12-.29-.28-.56-.41-.84A20.68,20.68,0,0,0,272,280a25.14,25.14,0,0,0-13.52-4.08,48.41,48.41,0,0,0-7.7.47,23.09,23.09,0,0,0-5.3,1.31A5.5,5.5,0,0,0,242,282a7.51,7.51,0,0,0-.09,1.25,5.78,5.78,0,0,0,0,.72,6.93,6.93,0,0,0,.23,1.35,4.54,4.54,0,0,0,3.31,3.32,7.43,7.43,0,0,0,1.88.28,12.92,12.92,0,0,0,3.22-.35c.69-.15,1.38-.22,2.08-.31a23.56,23.56,0,0,1,3.25-.22c.59,0,1.18-.05,1.78,0,.27,0,.53.1.8.14a12.71,12.71,0,0,1,2.73.69,11.75,11.75,0,0,1,1.39.54,8.63,8.63,0,0,1,3,2.72,6.86,6.86,0,0,1,.61.81,5.94,5.94,0,0,1,.35.82c0,.08-.06.1-.1.16s0,.14-.09.15h-5.46c-.78,0-1.6.09-2.4.13-1.37.08-2.76.19-4.17.34-.57.06-1.14.09-1.71.16-.31,0-.61.11-.91.16-1,.15-2,.35-3,.6-.54.13-1.1.25-1.64.42a16.25,16.25,0,0,0-5.79,3.07,11,11,0,0,0-1.22,1.25,10.87,10.87,0,0,0-2.44,5.36,13.8,13.8,0,0,0-.15,1.92,17.52,17.52,0,0,0,.19,3.31,16,16,0,0,0,.37,1.59,13.92,13.92,0,0,0,3.49,6.2,16.28,16.28,0,0,0,2.89,2.31l.16.13h0a19.62,19.62,0,0,0,3.51,1.7,26.82,26.82,0,0,0,3.37.95,31.21,31.21,0,0,0,4.92.72,28.88,28.88,0,0,0,10.5-1.23,23.2,23.2,0,0,0,4.08-1.79,19.75,19.75,0,0,0,9.57-11.57h0a26.33,26.33,0,0,0,1-4.64c.1-.75.22-1.5.29-2.27a32.9,32.9,0,0,0-.24-6.66A27.13,27.13,0,0,0,281.07,292.87Zm-13.85,15.47a7.83,7.83,0,0,1-5,4.33,14,14,0,0,1-2,.43,9.78,9.78,0,0,1-1.2.13,11.11,11.11,0,0,1-2.29-.18c-.31-.06-.61-.09-.92-.18a5.39,5.39,0,0,1-1.91-.89,4,4,0,0,1-1.52-2.08,4.53,4.53,0,0,1-.17-2,2.78,2.78,0,0,1,.35-.95,3.4,3.4,0,0,1,.84-1,7.54,7.54,0,0,1,2-1.13c.2-.07.4-.1.6-.17a18.57,18.57,0,0,1,3.68-.79c.21,0,.41-.07.62-.09l1.2-.1c.8-.08,1.61-.11,2.43-.11.41,0,.82,0,1.23,0h0c.8,0,1.65,0,2.51,0,.54,0,.7.05.61.76A13.41,13.41,0,0,1,267.22,308.34Z"></path>
  <path class="cls-3" d="M303.3,115.87a1.71,1.71,0,0,0-.52-.3,2.4,2.4,0,0,0-1-.22h-4.15a1.44,1.44,0,0,0-.55,0,6.65,6.65,0,0,1-2.22.19H253.8a4.56,4.56,0,0,0-1.23.07,4.79,4.79,0,0,1-1.5.15H223.38a8.35,8.35,0,0,0-1,0,.71.71,0,0,0-.22.07,1.29,1.29,0,0,0-1,.8c-.14.37-.28.74-.43,1.1l-.14.35c-.44,1-.89,2-1.34,3a34.15,34.15,0,0,1-1.34,3.53c-1,2.49-2,5-3,7.46-.08.21-.13.42-.2.63H241.2a3.46,3.46,0,0,0,1.19-.13h0a3.72,3.72,0,0,1,1.33-.08h41.53a5.19,5.19,0,0,0,1.88-.17,2.25,2.25,0,0,1,.78,0h7.39a3.39,3.39,0,0,1,.91.13,2,2,0,0,1,.39.14c.05-.1.09-.19.14-.28s.15-.27.21-.41q2.89-7.31,5.81-14.6c.11-.28.21-.56.3-.85s.15-.41.22-.62Z"></path>
  <path class="cls-4" d="M327.86,299.05a13.4,13.4,0,0,0-1.68-1.35,18.14,18.14,0,0,0-2.78-1.41c-.55-.24-1.1-.47-1.67-.66a60.44,60.44,0,0,0-10-2.24c-1.62-.26-3.24-.51-4.84-.9a10.26,10.26,0,0,1-2-.68,2.43,2.43,0,0,1-.88-.67,1,1,0,0,1-.19-.46.88.88,0,0,1,.06-.55,1,1,0,0,1,.07-.23h0a2.65,2.65,0,0,1,1-.9,6,6,0,0,1,1.87-.72,15.53,15.53,0,0,1,3.9-.3,16.46,16.46,0,0,1,2.1.14,17.21,17.21,0,0,1,2.75.66c.8.26,1.59.55,2.37.89l1.29.59,1.25.58c.32.14.64.24,1,.36a7.89,7.89,0,0,0,2.25.5,4.68,4.68,0,0,0,4.39-2h0a5.38,5.38,0,0,0,.24-.55,6.18,6.18,0,0,0,.76-2.65,6.67,6.67,0,0,0,.07-1.27h0s0,0,0,0a6,6,0,0,0-2-3.72,19.5,19.5,0,0,0-5.64-3.58,26,26,0,0,0-8.24-1.93,34.16,34.16,0,0,0-8,.25,26,26,0,0,0-2.7.58,23.63,23.63,0,0,0-2.65.91,16.7,16.7,0,0,0-4.85,2.91c-.36.31-.61.66-.93,1a13,13,0,0,0-3.92,11c0,.1.06.19.08.29a10.52,10.52,0,0,0,1.41,3.88,10.35,10.35,0,0,0,1.07,1.68,12.41,12.41,0,0,0,1.3,1.21,15.15,15.15,0,0,0,2.84,2,18.11,18.11,0,0,0,1.69.75,28.94,28.94,0,0,0,3.53,1.24c.5.13,1,.21,1.52.33,1.54.35,3.09.65,4.64.89l2.29.36c.81.12,1.62.26,2.42.42a25.57,25.57,0,0,1,2.71.68c.26.09.49.22.73.33a5.46,5.46,0,0,1,.7.3,1.87,1.87,0,0,1,.92,1.9,1.66,1.66,0,0,1-.37.89,2.47,2.47,0,0,1-.48.49,5.91,5.91,0,0,1-2.34,1,15.9,15.9,0,0,1-3.35.41,16.67,16.67,0,0,1-1.87,0,25.51,25.51,0,0,1-3.07-.48,22.32,22.32,0,0,1-7.18-3.06c-.31-.2-.64-.36-.95-.58l-.76-.53h0q-4.35,4-8.59,7.94h0c.07.38.32.5.51.67a34.82,34.82,0,0,0,3.17,2.41c.58.41,1.18.78,1.78,1.15a33.32,33.32,0,0,0,3.25,1.82c.79.37,1.61.6,2.41.9a30.8,30.8,0,0,0,7.45,1.85,34.11,34.11,0,0,0,8.15-.2c.84-.13,1.65-.37,2.47-.58a22.06,22.06,0,0,0,5-1.88,17.36,17.36,0,0,0,3.64-2.66c.29-.26.6-.49.87-.78a13.79,13.79,0,0,0,3.64-9.26c0-.58.06-1.15,0-1.76A11.17,11.17,0,0,0,327.86,299.05Z"></path>
  <path class="cls-3" d="M203.26,52.66H198a3,3,0,0,0-1,.14,2.62,2.62,0,0,1-.89.07H158.52a2.85,2.85,0,0,1-1.41-.27c-.18.37-.37.74-.51,1.12-1.34,3.33-2.66,6.67-4,10-1,2.58-2.07,5.16-3.09,7.74-.16.4-.32.79-.49,1.18a18.55,18.55,0,0,0-.78,2.16l.14,0a12.72,12.72,0,0,0,2.82.21h12.34a5.64,5.64,0,0,0,1.29-.12.77.77,0,0,0,.15,0h0a5.27,5.27,0,0,1,1.2-.08h41.84a4.47,4.47,0,0,0,1.54-.16,3.33,3.33,0,0,1,1-.06h5.15c-.07-.35-.13-.7-.21-1a.11.11,0,0,1,0,0h0v0q-1.94-7.72-3.88-15.44c-.12-.49-.25-1-.38-1.45l-1-4h0c-.48,0-1,0-1.45,0Z"></path>
  <path class="cls-3" d="M144.36,105.53h.29l1.27,0h34.7a4.17,4.17,0,0,0,1.23-.06,2.91,2.91,0,0,1,.59-.1,5.63,5.63,0,0,1,.59,0h36.3c.74,0,1.47,0,2.21,0a9.5,9.5,0,0,0,1.9-.24l-.21-.92c0-.13,0-.25-.08-.38q-1.64-6.54-3.28-13.08a3.32,3.32,0,0,0-.4-1.26H187.8a5,5,0,0,0-1.66.16,3.29,3.29,0,0,1-1,.06H143.55a2.56,2.56,0,0,1-.87-.14,1.13,1.13,0,0,1-.24-.08c-.05.05-.12.09-.15.16-.11.24-.21.49-.31.74-.28.66-.56,1.32-.83,2a.93.93,0,0,0,0,.41s0,.09,0,.14l0,.14a1.48,1.48,0,0,1,.1.27c.54,2.2,1.07,4.4,1.62,6.6.37,1.49.76,3,1.14,4.45l.33,1.25Z"></path>
  <path class="cls-2" d="M136.05,102.73a2.49,2.49,0,0,0-.81-.09c-.14,0-.27,0-.4,0H117.15l-.29,0a1.49,1.49,0,0,0-.6,0,3.32,3.32,0,0,1-.7.13,11.53,11.53,0,0,1-1.18,0H72.85c-.28,0-.56,0-.84,0a1.61,1.61,0,0,0-.49.07,1.82,1.82,0,0,1-.45.1,6.62,6.62,0,0,1-.77,0H55.08a3.78,3.78,0,0,0-.25.49q-2.25,5.6-4.49,11.19A29.21,29.21,0,0,0,49.07,118c1.56,0,3.13,0,4.69,0a7.63,7.63,0,0,0,2.33-.18,4.16,4.16,0,0,1,1.12,0H98.39a5.84,5.84,0,0,0,2-.17,2.63,2.63,0,0,1,.89,0h28.87a.77.77,0,0,1,.69.49,2.17,2.17,0,0,0,.39-.79c1.22-3.06,2.45-6.13,3.66-9.2.15-.36.29-.73.44-1.09.55-1.39,1.08-2.78,1.62-4.17h0l-.29,0A2.27,2.27,0,0,1,136.05,102.73Z"></path>
  <path class="cls-3" d="M282.5,164.65a9.56,9.56,0,0,0-2.45,0,11.85,11.85,0,0,1-2.22.16h-41a4.49,4.49,0,0,0-1.22.06,6.31,6.31,0,0,1-1.88.17H205.12a12.85,12.85,0,0,0-3.33.22c-.08.17-.18.32-.25.49l-1,2.5q-1,2.64-2.12,5.27c-.42,1-.85,2.06-1.27,3.08l-.6,1.45h0c-.18.5-.35,1-.52,1.5l-.16.45h0l.78,0h18.92a2.13,2.13,0,0,0,.67,0,3.79,3.79,0,0,1,1-.16l.36,0h42a4.84,4.84,0,0,0,1.21-.07,5.11,5.11,0,0,1,1.45-.15H276a6.35,6.35,0,0,1,1.31.17,3.47,3.47,0,0,1,.45.06h0a.56.56,0,0,0,.19-.27.35.35,0,0,0,0-.08c0-.11.06-.22.11-.33l1.91-4.79c.73-1.84,1.48-3.69,2.21-5.54l.8-2.07c.21-.55.43-1.11.64-1.67A4.52,4.52,0,0,0,282.5,164.65Z"></path>
  <path class="cls-4" d="M235.44,277.5h-3.09c-1.66,0-3.32,0-5,0a7.81,7.81,0,0,0-6,2.66h0a13,13,0,0,0-2.47,4.09q-2.37,6-4.75,12.07L209.88,307c-.09.23-.2.47-.39.9h0l-.39-1c0-.12-.09-.24-.13-.35l-4.68-13.5-4.95-14.27c-.1-.27-.17-.48-.24-.64h0a.71.71,0,0,0-.07-.09.64.64,0,0,0-.17-.24s-.07,0-.09,0a2.3,2.3,0,0,0-.94-.11l-9.16,0h-3.83a4.26,4.26,0,0,0-1,.06c-.28.09-.19.35.15,1.24l5.78,14.9L195.63,309c1,2.5,1.9,5,2.89,7.51a17.42,17.42,0,0,0,.88,1.85,16,16,0,0,0,1.49,2.31,10.44,10.44,0,0,0,4.88,3.5l.06,0h0a8.85,8.85,0,0,0,1.14.23,10.18,10.18,0,0,0,1.45.23,14,14,0,0,0,1.83,0,10,10,0,0,0,4.52-1.34,9.55,9.55,0,0,0,2.66-2.25,17.34,17.34,0,0,0,1.15-1.65A20.75,20.75,0,0,0,220.3,316l4.14-10.42,4.65-11.7,2.1-5.26,4-10.11c0-.08.07-.16.1-.25a1,1,0,0,0,.12-.73Z"></path>
  <path class="cls-3" d="M210.59,74.6a3.33,3.33,0,0,0-1,.06,4.47,4.47,0,0,1-1.54.16H166.21a4.73,4.73,0,0,0-1.2.07h0a.77.77,0,0,1-.15,0,5.64,5.64,0,0,1-1.29.12H151.21a12.72,12.72,0,0,1-2.82-.21l-.14,0h0a5.16,5.16,0,0,0-.64,1.39c-.39,1-.77,1.9-1.15,2.85l-.92,2.25q-.93,2.37-1.85,4.75c-.43,1.1-.83,2.22-1.25,3.32a1.13,1.13,0,0,0,.24.08,2.56,2.56,0,0,0,.87.14h41.6a3.24,3.24,0,0,0,1-.06,5,5,0,0,1,1.67-.16h31.66a3.13,3.13,0,0,0,0-.44l-2-7.73c-.43-1.68-.85-3.36-1.28-5a11.93,11.93,0,0,0-.32-1.21,2.46,2.46,0,0,0-.14-.38h-5.15Z"></path>
  <path class="cls-3" d="M151.87,136h33.88a2.24,2.24,0,0,0,.78-.05,5.21,5.21,0,0,1,1.88-.17h25.05a3.44,3.44,0,0,0,.59-1.16,4.44,4.44,0,0,1,.24-.64,4.55,4.55,0,0,0,.27-.64l.21-.49h0c.07-.21.12-.42.2-.63,1-2.49,2-5,3-7.46a34.15,34.15,0,0,0,1.34-3.53c-.41-.51-1-.46-1.54-.46H198a2.47,2.47,0,0,0-.82,0,4.73,4.73,0,0,1-1.75.18H155.28a11.36,11.36,0,0,0-3.44.2.91.91,0,0,1-.33,0,10.79,10.79,0,0,1-3-.2.74.74,0,0,0-.33,0h0c.06.36.12.74.2,1.1l1.44,5.82,1.17,4.7C151.27,133.73,151.57,134.84,151.87,136Z"></path>
  <path class="cls-4" d="M518.92,312.91c0-.78,0-1.55,0-2.32a.65.65,0,0,0-.07-.33c-.07-.12-.18-.19-.46-.19h-1.9l-1.9,0h-.12a9.59,9.59,0,0,1-1.77-.13,4,4,0,0,1-2.08-1.05,3.6,3.6,0,0,1-.52-.71c-.05-.07-.11-.13-.15-.2a4.08,4.08,0,0,1-.39-1.13,2.48,2.48,0,0,0,0-.27,6.21,6.21,0,0,1-.07-.73c0-.67,0-1.35,0-2,0-.29,0-.59,0-.89v-3.52q0-4.21,0-8.45c0-.48,0-.95,0-1.43,0-.19,0-.39,0-.58a.68.68,0,0,1,.09-.45s.12,0,.17,0a.58.58,0,0,1,.23-.06h.56l6.94,0h.9c.11,0,.16-.1.21-.2s.07,0,.08-.07,0-.26,0-.39v-.17q0-4.57,0-9.17c0-.26,0-.52,0-.78,0-.1,0-.21,0-.31a3.61,3.61,0,0,0-.07-.8h0a2.58,2.58,0,0,0-1.26-.15l-.7,0-3.44,0h-2.39a.84.84,0,0,1-.51-.09c-.1-.07-.13-.22-.14-.52,0-.75,0-1.49,0-2.24a6.12,6.12,0,0,0-1.92-4.29,6.89,6.89,0,0,0-1.36-1,7.79,7.79,0,0,0-7.21-.24,6.49,6.49,0,0,0-1.28.77,5.89,5.89,0,0,0-2.19,3.61,7.75,7.75,0,0,0-.12,1.51c0,.13,0,.26,0,.38v17h.1v2.46q0,3.36,0,6.71c0,1,0,2,0,3,0,1.34,0,2.69,0,4a18.78,18.78,0,0,0,.22,2.9,13.46,13.46,0,0,0,6.07,9.43,15.51,15.51,0,0,0,2,1.23,12.67,12.67,0,0,0,1.47.49,20.76,20.76,0,0,0,6.44,1.27c1.6,0,3.2,0,4.81,0,.26,0,.54,0,.81-.05l.53,0a1,1,0,0,0,.44-.09l.06,0c.07-.07.08-.2.09-.46v-.45q0-3.91-.08-7.83C518.93,313.6,518.92,313.25,518.92,312.91Z"></path>
  <path class="cls-2" d="M117.93,146.71q-19.7,0-39.39,0a2.56,2.56,0,0,0-.88.07,4.55,4.55,0,0,1-1.55.15H38.84c-.44,0-.89,0-1.34,0-.08.16-.17.33-.24.5q-2,5-4,10.06a3.37,3.37,0,0,0-.1.34l-.1.3c.3,0,.6,0,.9,0H70c.12,0,.23,0,.35,0a1.55,1.55,0,0,0,.53,0,2.39,2.39,0,0,1,.45-.09,6.58,6.58,0,0,1,1-.06h42.62a.66.66,0,0,0,.23-.32c0-.12.08-.24.12-.36q1.85-4.59,3.67-9.18c0-.14.09-.28.13-.42s.09-.28.14-.42C118.93,146.63,118.42,146.71,117.93,146.71Z"></path>
  <path class="cls-3" d="M175.49,10.58a12.57,12.57,0,0,0-1.17,1.24,18.29,18.29,0,0,0-1.91,2.89,24.88,24.88,0,0,0-1.29,2.71c-1.71,4.23-3.39,8.46-5.07,12.69q-.92,2.27-1.82,4.55a10.9,10.9,0,0,0-.77,2.09,6.2,6.2,0,0,0,1.87.24h34a4.32,4.32,0,0,0,1.55-.16,2.82,2.82,0,0,1,.88-.06h3.13a2.55,2.55,0,0,0,1.3-.26c0-.23-.08-.45-.13-.66,0,0,0-.07,0-.11l-1.14-4.54q-.9-3.59-1.81-7.15a18.18,18.18,0,0,0-1.45-3.85,2,2,0,0,0-.16-.24,20.08,20.08,0,0,0-2.08-3.22c-3.88-4.88-11.35-9.13-19.1-8.34h0a1.25,1.25,0,0,1-.3.12A8.17,8.17,0,0,0,175.49,10.58Z"></path>
  <path class="cls-3" d="M296.23,132.49a3.07,3.07,0,0,0-.91-.12h-7.39a2.25,2.25,0,0,0-.78,0,5.19,5.19,0,0,1-1.88.17H243.74a3.72,3.72,0,0,0-1.33.08h0a3.46,3.46,0,0,1-1.19.13H214.77l-.21.49a6.11,6.11,0,0,1-.26.64,3.54,3.54,0,0,0-.25.64,3.44,3.44,0,0,1-.59,1.16h0c-.06.17-.1.36-.16.53-.72,1.8-1.45,3.59-2.15,5.4-.12.31-.27.61-.39.92a.06.06,0,0,0,0,0,3.33,3.33,0,0,0-.26.92,2.86,2.86,0,0,0,.88,0,5.53,5.53,0,0,1,1.89-.18h23.15a3.87,3.87,0,0,0,1.08,0h0a7.63,7.63,0,0,1,2.33-.18h40.94a3.72,3.72,0,0,0,1.11,0,2.2,2.2,0,0,1,.37-.06,6.43,6.43,0,0,1,1.38-.11h5.72c.44,0,.87,0,1.3,0a3.42,3.42,0,0,1,1.53.42h.11a1.91,1.91,0,0,0,.39-.78c.7-1.73,1.38-3.45,2.06-5.18s1.24-3.18,1.86-4.77h0A2,2,0,0,0,296.23,132.49Z"></path>
  <path class="cls-3" d="M204.86,36.76h-3.13a2.82,2.82,0,0,0-.88.06,4.32,4.32,0,0,1-1.55.16h-34a6.2,6.2,0,0,1-1.87-.24c-.2.14-.23.38-.31.58-1.15,2.86-2.29,5.74-3.45,8.61-.51,1.27-.94,2.58-1.57,3.81h0a4.05,4.05,0,0,1-.37,1.13c-.21.59-.43,1.16-.65,1.74h0a2.84,2.84,0,0,0,1.41.26H196a2.62,2.62,0,0,0,.89-.07,3,3,0,0,1,1-.14h10.82c.49,0,1,0,1.45,0h0v0c0-.1,0-.2-.05-.3q-1-4-2-8l-.42-1.7c-.52-2-1-4-1.57-6A2.55,2.55,0,0,1,204.86,36.76Z"></path>
  <path class="cls-4" d="M486,276h0a.93.93,0,0,0-.34-.12,1,1,0,0,0-.24-.05l-.31,0c-1.52-.13-3.05-.21-4.57-.21a35.21,35.21,0,0,0-4.58.29,26.13,26.13,0,0,0-7,1.85,19.77,19.77,0,0,0-3.76,2.18A17.29,17.29,0,0,0,459,288a20.87,20.87,0,0,0-1,3.86,26.57,26.57,0,0,0-.36,4.37c0,2.13,0,4.25.05,6.38l0,4.25c0,4.1,0,8.2,0,12.31,0,.89,0,1.79,0,2.68,0,.15,0,.3,0,.45a.33.33,0,0,0,.3.32s0,0,0,0h6.71c1.72,0,3.43,0,5.15-.06,1.39,0,1.24.2,1.23-1.28q0-7.44-.09-14.88,0-4.59-.07-9.18c0-.53.06-1.06.09-1.59,0-.36,0-.73.07-1.08a7.45,7.45,0,0,1,.71-2.15,6.74,6.74,0,0,1,2.51-2.75s0,0,.07,0a9,9,0,0,1,2.25-1,16.64,16.64,0,0,1,2.61-.48,17.74,17.74,0,0,1,3.26-.08l1.48.14,1.53.14a.38.38,0,0,0,.16,0,.31.31,0,0,0,.21-.19.33.33,0,0,0,.05-.15c0-.11,0-.23,0-.34l0-11.3C486,276.25,486,276.11,486,276Z"></path>
  <path class="cls-3" d="M179,208.91l1.81-.58h0c.12-.05.22-.13.35-.18a8.46,8.46,0,0,0,3-2,8.09,8.09,0,0,0,.61-.56,14.45,14.45,0,0,0,1.37-2,28.08,28.08,0,0,0,1.39-2.87c.05-.12.11-.23.16-.35l1.83-4.56q2.22-5.55,4.45-11.09c.61-1.55,1.26-3.1,1.9-4.64h0c0-.14.11-.29.16-.44.17-.5.34-1,.52-1.5h0a3,3,0,0,0-1.89-.49H164a6.22,6.22,0,0,1-1.87-.22h0a2.53,2.53,0,0,0,.1.67c0,.18,0,.36.08.54l1.77,7.1,1.32,5.34c.79,3.18,1.57,6.35,2.37,9.52a17.36,17.36,0,0,0,1.31,3.68,7.87,7.87,0,0,0,2.87,3.14,8,8,0,0,0,1.94.91A22.83,22.83,0,0,0,179,208.91Z"></path>
  <path class="cls-4" d="M28.93,323.43v-18.8h-.11c0-4,0-8.06,0-12.09,0-2.35-.08-4.7-.08-7a7.74,7.74,0,0,0-15.48.18c0,2.07,0,4.14,0,6.22,0,1.47,0,2.94,0,4.41q0,6.31.07,12.64,0,7.44,0,14.89c0,.11,0,.21,0,.32s0,.31,0,.46a.29.29,0,0,0,.28.28h0l.41,0h.26l5.12,0,8.65,0c.56,0,.7,0,.73-.35a3.68,3.68,0,0,0,0-.39Z"></path>
  <path class="cls-2" d="M130.83,118.09a.77.77,0,0,0-.69-.49H101.27a2.63,2.63,0,0,0-.89,0,5.82,5.82,0,0,1-2,.17H57.2a4.09,4.09,0,0,0-1.11,0,7.59,7.59,0,0,1-2.32.18H49.06c-.15.33-.32.66-.45,1-.52,1.27-1,2.54-1.53,3.81-.2.51-.41,1-.61,1.52s-.29.83-.44,1.25h0c.34,0,.67,0,1,0h0q12.42,0,24.84,0h.19a1.72,1.72,0,0,0,.6,0,3.87,3.87,0,0,1,1.21-.19c.41,0,.82,0,1.22,0h41a3.92,3.92,0,0,0,1.19,0,6.68,6.68,0,0,1,2-.17c1.42,0,2.85,0,4.27,0h1a12.33,12.33,0,0,1,3.32.22h0a.62.62,0,0,0,.15-.22,3.44,3.44,0,0,0,.28-.66h0q1-2.4,1.93-4.82l.29-.68a4.57,4.57,0,0,0,.31-1Z"></path>
  <path class="cls-3" d="M224.22,108.14a1.77,1.77,0,0,0,0,.23v0s.06,0,.08,0,.05.08.13.08h0s0,0,0,0,.13-.11.15-.22,0-.06,0-.1Z"></path>
  <path class="cls-5" d="M357.72,306a10.52,10.52,0,0,0,16.85.88,10.85,10.85,0,0,0,1.77-3.14,11.54,11.54,0,0,0-1.17-10.33,10.35,10.35,0,0,0-12.94-3.69,10.88,10.88,0,0,0-4,3.24,10.6,10.6,0,0,0-2,4.41,13.86,13.86,0,0,0-.36,2.29h0a11.29,11.29,0,0,0,.26,1.85A10.94,10.94,0,0,0,357.72,306Z"></path>
  <path class="cls-5" d="M434.54,299.49a12.8,12.8,0,0,0-2.09-7.19,10.5,10.5,0,0,0-3.32-3.19c-.08-.05-.15-.12-.24-.17l-.06,0a10.13,10.13,0,0,0-2.91-1.09,10.36,10.36,0,0,0-11.32,5.58,12.3,12.3,0,0,0-1.37,4.91,13.49,13.49,0,0,0,0,1.91,12.06,12.06,0,0,0,1,4.27,12.64,12.64,0,0,0,.53,1.27,10.41,10.41,0,0,0,17.73.7,11.68,11.68,0,0,0,.73-1.28c.08-.16.17-.32.24-.48A12.59,12.59,0,0,0,434.54,299.49Z"></path>
  <path class="cls-5" d="M166.62,307a12.34,12.34,0,0,0,1.55-6.11h0a13.71,13.71,0,0,0-1.52-6.35,10.21,10.21,0,0,0-18.15,0,13.48,13.48,0,0,0-1.64,5.6,12.92,12.92,0,0,0,1,5.73,9.79,9.79,0,0,0,8.85,6.53A10,10,0,0,0,166.62,307Z"></path>
  <path class="cls-5" d="M267.74,303.51c-.86,0-1.71,0-2.51,0h0c-.41,0-.82,0-1.23,0-.82,0-1.63,0-2.43.11l-1.2.1c-.21,0-.41.06-.62.09a18.57,18.57,0,0,0-3.68.79c-.2.07-.4.1-.6.17a7.39,7.39,0,0,0-2,1.13,3.4,3.4,0,0,0-.84,1,2.78,2.78,0,0,0-.35.95,4.53,4.53,0,0,0,.17,2,4,4,0,0,0,1.52,2.08,5.39,5.39,0,0,0,1.91.89c.31.09.61.12.92.18a11.11,11.11,0,0,0,2.29.18,9.78,9.78,0,0,0,1.2-.13,14,14,0,0,0,2-.43,7.83,7.83,0,0,0,5-4.33,13.41,13.41,0,0,0,1.13-4.07C268.44,303.56,268.28,303.52,267.74,303.51Z"></path>
</svg>
