<?xml version="1.0" encoding="UTF-8"?>
<svg xmlns="http://www.w3.org/2000/svg" xmlns:xlink="http://www.w3.org/1999/xlink" id="Capa_1" data-name="Capa 1" viewBox="0 0 1002 333">
  <defs>
    <style>.cls-1{fill:none;}.cls-2{fill:#666;}.cls-3{fill:#4d4d4d;}.cls-4{clip-path:url(#clip-path);}.cls-5{fill:#fff;}</style>
    <clipPath id="clip-path">
      <rect class="cls-1" x="5" y="4.44" width="992" height="325.12"></rect>
    </clipPath>
  </defs>
  <rect class="cls-2" x="5" y="4.44" width="323.48" height="325.12"></rect>
  <rect class="cls-3" x="351.29" y="4.44" width="645.7" height="325.12"></rect>
  <g class="cls-4">
    <path class="cls-5" d="M136.54,61.69S88,85.46,88,128.65a60.31,60.31,0,0,0,17.25,49.7s19.41,14,19.41,35.65c0,0-2.69,23.22-32.37,52.91,0,0-8.55,8.13-4.27,12.41s20.62-6.75,38.06-24.22,27.73-29.77,27.73-56-15.06-41.29-15.06-41.29-24.56-18.27-22.2-39.31,13.28-31.95,29.93-48.63c0,0,5.75-4.19,3.78-9.34s-13.75,1.13-13.75,1.13"></path>
    <path class="cls-3" d="M237.07,195.56c-5.14,31-26.94,47.65-26.94,47.65s-7.53,7.14-9.89-.42c0,0-14.28-67.5,19-75,0,0,23-3.16,17.83,27.81M201,161.81s-5.94-34.94,5.56-81.81c0,0,4.75-13.08,0-14.67s-11.5-3.76-18.25,8.73c0,0-13.87,14.69-13.87,86.56s10.31,94.08,10.31,94.08,7.14,16.68,22.6,6,51.13-36.92,51.13-81S218.43,136,201,161.81"></path>
    <path class="cls-5" d="M442,94.33s-38,27.76-38,59.92,21,42.1,21,42.1a19.14,19.14,0,0,1,9.9,17.07c0,12.31-12.68,31.34-25.35,40.89,0,0-8.74,8.34-5.15,11.91s34.08-9.53,47.14-39.3-.39-45.26-.39-45.26-23.38-25.8-23.38-42.09,21.8-38.11,21.8-38.11,7.15-6.35,4.37-9.15-11.9,2-11.9,2"></path>
    <path class="cls-5" d="M480,150.3S468.14,165.78,468.14,194s9.91,44.88,24.18,44.88,17-12,17-12,2-3.15,5.14,0,7.93,12.32,15.06,10.76,4.37-79,4.37-79,.64-16.84-7.55-13.1c-7.62,3.49-8.7,16.3-9.08,29.76C516.91,188.39,511,215,499.44,215s-14.6-27.7-15-34.05c-.57-9.85,4.71-29.47,4.71-29.47s1.47-5.11-1.15-5.67c-3.86-.87-8,4.49-8,4.49"></path>
    <path class="cls-5" d="M629.27,150.3s-11.9,15.48-11.9,43.66,9.92,44.88,24.17,44.88,17.06-12,17.06-12,2-3.15,5.17,0,7.9,12.32,15,10.76,4.36-79,4.36-79,.62-16.84-7.54-13.1c-7.64,3.49-8.72,16.3-9.1,29.76-.4,13.1-6.36,39.71-17.83,39.71s-14.64-27.7-15-34.05c-.56-9.85,4.7-29.47,4.7-29.47s1.47-5.11-1.15-5.67c-3.86-.87-8,4.49-8,4.49"></path>
    <path class="cls-5" d="M567,220.36c-4.1-63.08,12.36-57.19,12.36-57.19s14.11-1.18,14.11,17.1c0,30.54-26.47,40.09-26.47,40.09m0-66s-7.15-48,1.76-61.33c0,0,5.78-10.39-6.31-10.39,0,0-16.63,4.51-16.63,44.59s-2.95,105.53,15.89,109.65,48.83-25.94,48.83-63.07S583.17,138.12,567,154.34"></path>
    <path class="cls-5" d="M768.75,220.36c-4.12-63.08,12.36-57.19,12.36-57.19s14.12-1.18,14.12,17.1c0,30.54-26.48,40.09-26.48,40.09m0-66s-7.16-48,1.77-61.33c0,0,5.77-10.39-6.31-10.39,0,0-16.64,4.51-16.64,44.59s-3,105.53,15.88,109.65,48.85-25.94,48.85-63.07-27.38-35.67-43.55-19.45"></path>
    <path class="cls-5" d="M709.68,195.08s-1.07,40-7.2,40-10.06-13.33-10.06-47.18,2.88-46.81,19.06-46.81c0,0,6.47,2.17,2.16,13.69,0,0,.17,3.79,4,0s12.78-12.78,17.25-8.29-.34,19.81-2.51,19.81-4.68,1.08-6.29-4.15-16.36,12.09-16.36,33"></path>
    <path class="cls-5" d="M836.94,145.4s-12.23,1.1-15.11,42.85S834.78,234,834.78,234s4,3.23,4-10.09,2.31-59.59,6.81-64.08,2.54-17.28-8.6-14.41"></path>
    <path class="cls-5" d="M843.05,111.92s-13,2.88-13,13,8.63,8.65,8.63,8.65,6-.85,9.35-12.62c2.16-7.55-5-9-5-9"></path>
    <path class="cls-5" d="M893.72,208.41S872.14,230,874,195.46,893,153,893,153c7.39-3.57,11.17,2.7,11.5,5.23,0,34.94-10.77,50.21-10.77,50.21m26,28.37s-7.64-50.69.44-75.54c0,0,7.16-23.05-14.91-23.05,0,0-51.06,4.7-51.06,56.56s32.54,41.55,43.5,30.57c0,0,3.61-3.6,3.61,0,0,0,4.65,22.33,18.68,22.33,0,0,4,0,4-3.94Z"></path>
  </g>
</svg>
