<?xml version="1.0" encoding="UTF-8"?>
<svg xmlns="http://www.w3.org/2000/svg" id="Capa_1" data-name="Capa 1" viewBox="0 0 895 211">
  <defs>
    <style>.cls-1{fill:#4d4d4d;}.cls-1,.cls-2{fill-rule:evenodd;}.cls-2{fill:#bcbcbc;}</style>
  </defs>
  <path class="cls-1" d="M505.81,132.51a18.18,18.18,0,0,1-.63,5c-1.95,6.46-8.64,11.92-17,11.92-6.94,0-12.5-4-12.5-12.34,0-12.78,14.09-16.3,30.12-16.23Zm25.12-22.28c0-21.09-9-39.63-39.45-39.63-15.62,0-28,4.36-34.8,8.29l4.94,17A50.57,50.57,0,0,1,487,88.7c15.43,0,18,8.73,18,14.37v1.32c-33.67,0-54.93,11.61-54.93,35.35,0,14.52,10.84,28.09,29.66,28.09,11.58,0,21.28-4.61,27.08-12h.57s3.86,16.06,25,9.94a139.19,139.19,0,0,1-1.46-22.45Z"></path>
  <path class="cls-1" d="M6.48,41.86S28.47,132,32,146.61c4.09,17.1,11.48,23.36,32.76,19.15l13.73-55.9C82,96,84.3,86.08,86.53,72h.38c1.6,14.25,3.84,24.07,6.7,38,0,0,5.58,25.36,8.45,38.66s10.85,21.72,31.7,17.17l32.75-123.9H140.08L128.91,95.42c-3,15.59-5.75,27.78-7.83,42h-.38c-1.92-14.11-4.33-25.81-7.4-41L101.67,41.86H74.15L61.71,95.07c-3.54,16.17-6.84,29.24-8.94,43h-.39c-2.14-13-5-29.38-8.09-45,0,0-7.39-38.07-10-51.19Z"></path>
  <path class="cls-1" d="M216.44,132.51a17.11,17.11,0,0,1-.62,5c-1.94,6.46-8.62,11.92-17,11.92-7,0-12.5-4-12.5-12.34,0-12.78,14.07-16.3,30.09-16.23Zm25.13-22.28c0-21.09-9-39.63-39.45-39.63-15.63,0-28,4.36-34.81,8.29l5,17a50.47,50.47,0,0,1,25.38-7.15c15.43,0,18,8.73,18,14.37v1.32c-33.67,0-54.93,11.61-54.93,35.35,0,14.52,10.83,28.09,29.64,28.09,11.59,0,21.29-4.61,27.09-12H218s3.86,16.06,25,9.94a135.68,135.68,0,0,1-1.48-22.45Z"></path>
  <polygon class="cls-1" points="283.51 139.44 283.51 41.85 258.36 41.85 258.36 165.76 283.51 165.76 283.51 139.44"></polygon>
  <path class="cls-1" d="M612.65,41.86v91.42c0,12.55,2.35,21.41,7.45,26.8,4.42,4.7,11.7,7.75,20.45,7.75,7.45,0,14.77-1.39,18.21-2.68l-.33-19.66a39.16,39.16,0,0,1-9.53,1.12c-8.58,0-11.46-5.46-11.46-16.79V94.88h21.9V71.16h-21.9V41.86Z"></path>
  <path class="cls-1" d="M547.69,72.69v93.07h26V118.08a36.81,36.81,0,0,1,.55-6.86c1.94-10,9.56-16.34,20.52-16.34a48.11,48.11,0,0,1,7.48.64V71.16a24.94,24.94,0,0,0-5.7-.58c-9.68,0-20.69,6.25-25.32,19.66h-.72V72.69Z"></path>
  <path class="cls-1" d="M301.13,72.69v93.07h25.29V111.18a21.58,21.58,0,0,1,1.19-7.62c2.09-5.5,7.2-11.93,15.37-11.93,10.21,0,15,8.62,15,21.08v53.05h25.26V110.53a26.56,26.56,0,0,1,1-7.56c2.08-6.26,7.6-11.34,15.19-11.34,10.35,0,15.3,8.47,15.3,23.14v51H440V110.94c0-28.92-14.68-40.36-31.26-40.36a33.69,33.69,0,0,0-18.36,5,39.18,39.18,0,0,0-11.78,11.6h-.37c-4-10-13.42-16.65-25.66-16.65-15.72,0-22.8,8-27.11,14.75h-.36V72.69Z"></path>
  <path class="cls-2" d="M800.39,74.05c4.58,0,8.34-2.39,8.87-5.48l4.51-51.16c0-5.05-5.92-9.2-13.36-9.2S787,12.36,787,17.41l4.53,51.16c.49,3.09,4.29,5.48,8.84,5.48Z"></path>
  <path class="cls-2" d="M772.75,90c2.28-4,2.1-8.42-.31-10.39L730.37,50.13c-4.35-2.53-10.93.51-14.64,7S712.65,70.76,717,73.28L763.58,95c2.92,1.08,6.89-1,9.18-5Z"></path>
  <path class="cls-2" d="M828.06,90c2.31,4,6.25,6,9.17,5l46.58-21.7c4.37-2.53,5-9.72,1.27-16.17s-10.28-9.5-14.65-7L828.37,79.64c-2.41,2-2.56,6.44-.29,10.39Z"></path>
  <path class="cls-2" d="M800.39,137.93c4.58,0,8.34,2.39,8.87,5.47l4.51,51.17c0,5.06-5.92,9.22-13.36,9.22S787,199.63,787,194.57l4.53-51.17c.49-3.08,4.29-5.47,8.84-5.47Z"></path>
  <path class="cls-2" d="M828.06,122c2.31-4,6.25-6,9.17-4.94l46.58,21.67c4.37,2.53,5,9.72,1.27,16.18s-10.28,9.5-14.65,7l-42.06-29.49c-2.41-2-2.56-6.44-.29-10.41Z"></path>
  <path class="cls-2" d="M772.75,122c2.28,4,2.1,8.42-.31,10.4l-42.07,29.47c-4.35,2.54-10.93-.5-14.64-6.94s-3.08-13.66,1.29-16.19l46.56-21.66c2.92-1.09,6.89,1,9.18,4.92Z"></path>
</svg>
