<?xml version="1.0" encoding="UTF-8"?>
<svg xmlns="http://www.w3.org/2000/svg" viewBox="0 0 939 166">
  <defs>
    <style>.cls-1{isolation:isolate;}.cls-2{mix-blend-mode:saturation;opacity:0.85;}.cls-3{fill:#333;}</style>
  </defs>
  <g class="cls-1">
    <g id="Capa_1" data-name="Capa 1">
      <g id="law0Ij" class="cls-2">
        <path class="cls-3" d="M192.61,47.23c.24,5,.43,9.05.65,13.75,21-20.82,32.86-20.69,51.74.18,1.49-1.74,2.92-3.46,4.41-5.12,8.38-9.32,19-12.08,30.82-9.35,12,2.77,19,11.13,21.43,22.92,1.17,5.68,1.27,11.63,1.34,17.46.18,14.64.06,29.27.06,44.38H287.25c0-14.45,0-28.62,0-42.79,0-3.56.14-7.14-.14-10.68-.59-7.37-3.47-13.49-10.87-16.17-7.86-2.85-14.88-.9-20.74,4.93S248,80.11,247.93,88.06c-.07,12.15,0,24.29,0,36.44,0,2.23,0,4.47,0,7.06H232.08v-6.93c0-15.08.06-30.16-.06-45.23-.07-9.17-4.1-15.27-11.28-17.75-7.85-2.72-16.4,0-21.88,6.84-4.72,5.9-5.86,12.84-5.89,20.08-.05,11.93,0,23.87-.05,35.81,0,2.25-.2,4.5-.33,7.12H177.81c-.18-2.65-.51-5.26-.52-7.87q-.06-33.91,0-67.85c0-8.58,0-8.58,8.44-8.55Z"></path>
        <path class="cls-3" d="M903.48,80.19c-8.92-8.64-17.67-17-26.25-25.47-8.33-8.24-16.53-16.61-24.73-25-7.21-7.35-7.11-10.85.28-18.36C855.42,8.7,858,6,860.91,2.93c1.61,1.41,3,2.52,4.31,3.8q32.47,32.76,64.92,65.55c7.13,7.21,7.1,10,0,17.19Q897.63,122.26,865.16,155c-1.16,1.17-2.38,2.27-4.27,4l-9.95-10.51c-5.18-5.47-5.23-9.66.15-15.13q23.56-23.93,47.23-47.74C899.76,84.23,901.12,82.71,903.48,80.19Z"></path>
        <path class="cls-3" d="M826.55,3.06c3.19,3.27,6.41,6.5,9.55,9.81,5.37,5.66,5.45,10.1-.08,15.73q-23.09,23.52-46.4,46.79c-1.6,1.6-3.93,2.47-6.21,3.85,2.71,3.11,3.82,4.56,5.1,5.84q23.16,23.43,46.37,46.83c7,7.06,7,11,.25,18-2.76,2.86-5.47,5.76-8.42,8.88a22.28,22.28,0,0,1-2.69-2Q790.44,123,756.9,89.05c-6-6.09-6.31-10-.79-15.57q34.13-34.67,68.47-69.1A14.34,14.34,0,0,1,826.55,3.06Z"></path>
        <path class="cls-3" d="M653.46,13.26V62.78c1.16-.55,1.88-.65,2.12-1,7.8-12.72,19.49-17.44,33.76-15.42,15,2.13,25.13,11,30.1,25.22C724.1,84.87,723.8,98.3,718,111.3c-12.17,27.22-50.06,29.19-62.13,6.47-.24-.46-.87-.71-2.33-1.84v15.71H637.87c-.11-2.56-.31-5-.31-7.41,0-33.28.19-66.56-.21-99.84-.08-6.67,1.86-9.58,8.34-9.82A67.06,67.06,0,0,0,653.46,13.26Zm52,76.37c0-16.35-11.11-28.78-25.91-28.89-14.59-.1-25.93,12.48-26,28.83-.05,16.52,11,28.79,25.85,28.82S705.45,106,705.49,89.63Z"></path>
        <path class="cls-3" d="M159.55,131.91c-3.93,0-7.69.39-11.3-.19a5.85,5.85,0,0,1-3.89-3.89c-.56-3.81-.19-7.76-.79-11.92-5.11,7.68-11.23,13.62-20.08,16.11-16.34,4.62-34.43-2.69-42.36-17.79-8.32-15.85-8.33-32.17-.62-48.29,10.84-22.69,46.94-29.34,63.17-1.79.32-6.48.57-11.41.83-16.6h15ZM144,89.37c0-16.37-11.33-28.79-26.1-28.65S92,73.31,92.05,89.74s11.33,28.78,26.1,28.67S144,105.75,144,89.37Z"></path>
        <path class="cls-3" d="M604.15,47.48h14.57c.37.45.87.76.87,1.08,0,18.83,1,37.74-.37,56.47-1.35,17.92-16.51,28.9-35.46,28.22-19.76-.72-33.17-12.35-33.88-30.81-.7-18.13-.15-36.31-.15-54.84h15.6V62.69c0,11.52-.1,23,0,34.56.15,13.54,7.2,20.81,19.76,20.62,12.24-.19,19-7.52,19-20.72C604.17,80.85,604.15,64.55,604.15,47.48Z"></path>
        <path class="cls-3" d="M325.43,124.69,332.14,111c6.92,2.42,13.27,5,19.84,6.77,2.86.78,6.23.33,9.24-.24,4.48-.85,7.46-3.67,8.09-8.42s-2.11-7.63-6-9.27c-6.16-2.59-12.59-4.52-18.74-7.11C333,87.87,328.36,80.82,328.66,69.1c.22-8.67,4.19-15.15,11.85-19.28,12.44-6.72,32.48-4.67,44,4.63-2.12,4-4.28,8-6.64,12.43-1.88-.84-3.49-1.68-5.18-2.28-3.73-1.32-7.42-2.93-11.28-3.66-8-1.52-14.47,1.49-15.68,6.77s1.89,9.05,10.11,12.23c5.64,2.18,11.46,4,16.94,6.53,9.76,4.53,14.35,12.27,13.45,23.22-.88,10.6-6.58,17.59-16.28,20.95C354.55,136,340.05,132.62,325.43,124.69Z"></path>
        <path class="cls-3" d="M65.77,54,59,66.57c-5.22-1.87-9.83-3.82-14.62-5.13a22.61,22.61,0,0,0-8.67-.58c-4.31.55-8.2,2.31-9.08,7.28s1.94,8.1,6,9.88c5.73,2.51,11.76,4.32,17.55,6.72C63.66,90.33,68.53,98.15,67,111.36c-1.29,11-9.56,18.79-22.53,21-13.37,2.29-25.64-.82-37.92-7.72C8.83,119.78,11,115.16,13,111c7.23,2.46,14,5.17,20.92,6.93,3,.75,7.09.49,9.67-1,2.87-1.68,6-5.16,6.36-8.18.31-2.59-2.43-6.88-5-8.24-6-3.21-12.8-5-19.18-7.6C15.51,88.73,9.35,81.62,9.51,70c.13-10.07,4.7-17.49,14-21.09C38.12,43.22,52.12,45.47,65.77,54Z"></path>
        <path class="cls-3" d="M500.79,120.29c-15.85,16.85-45.7,17.08-62.38,1-16.41-15.82-16.3-47.55.22-63.78,15.82-15.53,47-15.5,62,.5l-9.15,11.35C482.92,62.7,473.6,58.26,463,61.89c-5.26,1.8-10.81,5-14.33,9.2-8.69,10.34-6.85,30.84,2.59,40,10.26,9.94,26,9.29,40.28-2Z"></path>
        <path class="cls-3" d="M526,13.31v8.92q0,38.6,0,77.19c0,13.79,1.08,15.13,14.45,18.47.12,1.73.31,3.57.35,5.42.17,10.57-.6,11.22-10.88,9.42-11.72-2-18.38-9-19.06-21.36-.65-11.89-.41-23.83-.45-35.75-.06-17.37.27-34.74-.18-52.09-.15-5.82,1.65-8.43,7.29-8.84C520,14.52,522.47,13.91,526,13.31Z"></path>
        <path class="cls-3" d="M306.58,56.4c2.22-11.74,4-21.55,6-31.3a4.09,4.09,0,0,1,2.91-2.54c4.5-.29,9-.13,14.53-.13-3.44,10.94-5.9,21.12-10.13,30.51C318.84,55.3,312.11,55.09,306.58,56.4Z"></path>
      </g>
    </g>
  </g>
</svg>
