<?xml version="1.0" encoding="UTF-8"?>
<svg xmlns="http://www.w3.org/2000/svg" id="Capa_1" data-name="Capa 1" viewBox="0 0 946 283">
  <defs>
    <style>.cls-1{fill:none;}.cls-2{fill:#1d1d1b;}</style>
  </defs>
  <path class="cls-1" d="M600.81,211.11a8.61,8.61,0,0,0,.36-1.58c.3-2.53-.58-4.14-3.09-4.36s-5-.24-7.13.67c-8.9,3.88-13.65,11.49-17.51,20.07C584.79,228.35,597.38,221.38,600.81,211.11Z"></path>
  <path class="cls-1" d="M463.77,210.07c-.5-4.58-3.92-6.85-8.14-5.1a18.63,18.63,0,0,0-6.54,4.63,137.41,137.41,0,0,0-9.3,11.91,184.69,184.69,0,0,0-16.59,28.12c-1.32,2.81-2.85,6.11-.26,8.8,2.78,2.86,6.39,1.8,9.56.42,6.82-3,11.51-8.32,15.93-14-4.31-3.76-5-6.62-2.58-11.39,2.92-5.75,7.29-9.49,14.42-9A22,22,0,0,0,463.77,210.07Z"></path>
  <path class="cls-1" d="M215.3,210.82c-.2-3.38-1.15-5.71-3.06-6.39-2.59-.93-4.51.42-6.16,2.16a41.5,41.5,0,0,0-4.45,5.3c-6.39,9.66-12.83,19.28-18.89,29.15-2.24,3.66-3.54,7.92-5.13,12a4.34,4.34,0,0,0,.8,5c1.66,1.58,3.8,1.12,5.35.17a33.26,33.26,0,0,0,7.69-5.94,126,126,0,0,0,21.93-34.74A58.71,58.71,0,0,0,215.3,210.82Z"></path>
  <path class="cls-1" d="M313.3,211.88c.16-4.35-.82-6.83-2.67-7.47-2.56-.88-4.5.4-6.17,2.14a30.57,30.57,0,0,0-3.76,4.3c-6.81,10.36-13.67,20.7-20.19,31.24-2,3.3-3.15,7.21-4.59,10.87a4.36,4.36,0,0,0,.77,5c1.63,1.63,3.76,1.14,5.34.23a28.48,28.48,0,0,0,7.15-5.34,127.23,127.23,0,0,0,22.7-35.71A34.61,34.61,0,0,0,313.3,211.88Z"></path>
  <path class="cls-1" d="M215.08,100.49a6.36,6.36,0,0,0-1-1,39.23,39.23,0,0,0-28.68-5.21c-9.17,1.7-17.21,5.94-24.73,11.27a135,135,0,0,0-26.54,25.38c-5,6.12-9.52,12.56-14.51,19.19,7.29,5.86,9.1,13.86,10.53,22,2.42,13.65,2.32,27.18-2.56,40.35-6.83,18.46-19.87,31.3-37,40.39-.8.42-1.66.7-2.48,1a15.89,15.89,0,0,1,3.45-3,95,95,0,0,0,19.6-18.44,55,55,0,0,0,10.84-20.86c2.85-11.3,5.19-22.61,4.41-34.35-.48-7.19-2.23-14-6.33-20a22.41,22.41,0,0,0-2.07-2.2c-3.33,8.25-3.45,16.64-5.22,24.69-2.76-9.47,1-18.2,3.19-27.3a36.93,36.93,0,0,0-30.37-9.25,82.82,82.82,0,0,0-38.5,16C25.82,174.92,10,208.61,15.21,238.9c2.71,15.75,10.55,27.6,25.72,33.86a60.13,60.13,0,0,0,18.69,4.07c15.15,1.12,29.25-1.86,41.9-10.71,10.19-7.12,18.6-16,26-25.88,13.56-18.18,23.68-38.22,31.71-59.35A155.29,155.29,0,0,1,170.77,157c11.6-19.61,25.89-37.11,41.6-53.52C213.28,102.51,214.15,101.52,215.08,100.49Z"></path>
  <path class="cls-1" d="M101.81,35.5a34.06,34.06,0,0,0,15.39.37,33.2,33.2,0,0,0,8.9-2.74c5.13-2.59,5.4-8.33.56-11.4a23.51,23.51,0,0,0-8.21-3.39c-10.59-1.86-18.1,3.7-25,10.62C95.73,32.92,97.58,34.37,101.81,35.5Z"></path>
  <path class="cls-1" d="M531.63,210.91c0-2.95.11-5.17-2.13-6.22s-4.34-.21-6,1.38a37,37,0,0,0-4.58,5.19A283,283,0,0,0,498.11,245a86.1,86.1,0,0,0-3.5,8.27c-.65,1.65-.61,3.52,1,4.38a5.41,5.41,0,0,0,4.17.27,18.92,18.92,0,0,0,5.7-3.85c10.93-11.11,19.54-23.78,25-38.46A36.63,36.63,0,0,0,531.63,210.91Z"></path>
  <path class="cls-1" d="M931.67,210.9c-.45-5.54-4.5-8-9.47-5.54a18.55,18.55,0,0,0-5.68,4.52,103.5,103.5,0,0,0-8.66,11.36c-5.49,8.59-10.73,17.34-15.93,26.12a21.4,21.4,0,0,0-2.22,6.11c-.94,4.19,1.07,6.68,5.37,6.47a16.24,16.24,0,0,0,6.24-1.61c6.23-3.08,10.67-8.13,14.76-13.55-4.34-3.85-4.89-6-2.55-11,2.83-6,7.23-9.84,14.51-9.35C930.65,220,932.06,215.68,931.67,210.9Z"></path>
  <path class="cls-1" d="M794.65,211.11a7.89,7.89,0,0,0,.41-1.57c.31-2.49-.63-3.88-3.1-4.44a11,11,0,0,0-7.56.78c-8.5,4.28-13.39,11.54-17,20.08C778.79,228.3,791.08,221.49,794.65,211.11Z"></path>
  <path class="cls-2" d="M467.36,231.31a90.52,90.52,0,0,1-6.06,7.18c-1.57,1.62-3.37,3.18-6.53,2.8,1.07-1.89,2.05-3.46,2.88-5.1,2.89-5.71,6-11.34,8.46-17.23a24,24,0,0,0,1.46-9.17c0-4.29-2.59-7.12-6.8-8.06a18.7,18.7,0,0,0-6.06-.34,31.44,31.44,0,0,0-12.25,4.32c-10,5.75-17.7,13.88-24.3,23.3-5.16,7.35-10.75,14.42-16.48,21.35-2.4,2.9-5.56,5.2-8.55,7.54a8.76,8.76,0,0,1-4.14,1.54c-2.5.3-3.91-1.41-3.2-3.82a19.41,19.41,0,0,1,1.88-4.06q13.11-22.68,26.26-45.33c.72-1.24,1.38-2.5,2.19-4H401.71c-2.77,4.72-5.66,9.35-8.26,14.14a156.14,156.14,0,0,1-20.11,28.79c-5.11,5.82-10.92,10.71-18.32,13.33a19.23,19.23,0,0,1-6.75,1.27c-4.61-.11-6.63-3.08-5.41-7.48a32,32,0,0,1,1.91-4.95,189.35,189.35,0,0,1,22-35.88,26.9,26.9,0,0,1,5.93-5.54,10.41,10.41,0,0,1,5.35-1.57c2.93-.07,5,2.45,5.22,5.76.26,3.48-.83,4.91-4.25,5.7a10.65,10.65,0,0,0-2.7.86,4.4,4.4,0,0,0-1.84,5.31c.69,1.41,2.53,1.85,4.72,1a8.73,8.73,0,0,0,2.15-1.15,13.81,13.81,0,0,0,5.41-8.86c1.44-7.56-2.16-11.93-9.8-12-5.22,0-9.87,2-14.27,4.45-9.67,5.5-17.12,13.3-23.57,22.31-5.86,8.2-12.23,16-18.66,23.82-2,2.45-4.88,4.3-7.56,6.15a8.22,8.22,0,0,1-4.23,1.23c-2.79.08-3.94-1.67-3-4.29a19.37,19.37,0,0,1,1.63-3.29q13.46-22.71,26.92-45.41c.67-1.13,1.19-2.34,1.91-3.77H321.55c-1.27,1.91-2.63,4-4.28,6.48-.45-1.08-.68-1.55-.84-2-1.61-4.94-3.28-6.11-8.35-5.8a26.77,26.77,0,0,0-12.25,4.22c-9.3,5.58-16.3,13.43-22.51,22.25-5.72,8.13-11.95,15.92-18.34,23.54-2.49,3-5.94,5.15-9.14,7.45-1.54,1.12-3.74,1.78-5.27.16-1.37-1.44-.51-3.38.32-5,2.14-4.11,4.23-8.26,6.58-12.25Q273.2,197.57,299,153.88c.51-.87.86-1.84,1.31-2.81h-14c-1.06,1.77-2,3.29-2.87,4.81q-20.44,34.51-40.87,69a153.13,153.13,0,0,1-20.64,26.9,42.47,42.47,0,0,1-7.63,6.08,8.31,8.31,0,0,1-4.65,1.07c-2.37-.11-3.29-1.75-2.46-4a24.2,24.2,0,0,1,2-4q13.58-23.11,27.18-46.21a16.63,16.63,0,0,0,.94-2.49h-14l-4.5,6.62c-.39-1.09-.56-1.55-.72-2-1.74-5.22-3.63-6.74-9.08-5.81a31.58,31.58,0,0,0-10.72,3.63,65.73,65.73,0,0,0-29.41,35.47,32.43,32.43,0,0,0-1.74,11.61c.26,8.22,6.47,12.48,14.4,10.31a16.13,16.13,0,0,0,5.15-2.38c2.32-1.66,4.38-3.67,6.54-5.55,1-.86,1.92-1.77,3.32-3.07.13,1.66.17,2.7.29,3.74.6,4.8,3,7.39,7.76,8.14a15.92,15.92,0,0,0,13-3.7c3.46-2.85,6.58-6.12,9.77-9.28a18.23,18.23,0,0,0,2-2.89,11.91,11.91,0,0,1,.06,4.64c-.78,8.18,4.2,12.63,12.31,11.13a22.22,22.22,0,0,0,9.23-4.15c4.91-3.58,8.78-8.16,12.51-12.87.68-.86,1.46-1.65,2.43-2.74-.23,3.16-.64,5.74-.57,8.3.24,9.85,7.46,12.08,14.12,10.8a13.79,13.79,0,0,0,5.19-2.27,87.67,87.67,0,0,0,6.88-5.78c1-.85,1.91-1.78,3.22-3,.16,1.6.23,2.65.38,3.69.79,5.14,3.46,7.75,8.64,8.24A15.7,15.7,0,0,0,316,259.25c4.18-3.68,8-7.77,11.91-11.75,1.39-1.4,2.6-3,3.88-4.47a7.56,7.56,0,0,1,.21,3.23c-.84,11.75,6.84,18.54,18.48,16.45,8.23-1.49,14.88-5.85,21-11.26,1.09-1,2.15-2,3.72-3.41-.11,1.45-.11,2.12-.21,2.76-1.51,8.79,5.67,13.15,12.19,12.24a19.11,19.11,0,0,0,10.61-4.89c3.79-3.53,7.28-7.36,10.91-11,.7-.71,1.43-1.39,2.46-2.38,0,1.79,0,3,0,4.22.07,7.47,4.46,12.59,11.84,13.92,5.28.95,10-.58,14.36-3.37A48.73,48.73,0,0,0,449.42,248c1.69-2.18,3.41-3.61,6.35-3.68a9.55,9.55,0,0,0,4.55-1.64c4.67-3,7.79-7.36,11-11.68C469.4,229.08,468.42,230,467.36,231.31ZM191.45,252.19a33.26,33.26,0,0,1-7.69,5.94c-1.55.95-3.69,1.41-5.35-.17a4.34,4.34,0,0,1-.8-5c1.59-4,2.89-8.29,5.13-12,6.06-9.87,12.5-19.49,18.89-29.15a41.5,41.5,0,0,1,4.45-5.3c1.65-1.74,3.57-3.09,6.16-2.16,1.91.68,2.86,3,3.06,6.39a58.71,58.71,0,0,1-1.92,6.63A126,126,0,0,1,191.45,252.19Zm97.73.63a28.48,28.48,0,0,1-7.15,5.34c-1.58.91-3.71,1.4-5.34-.23a4.36,4.36,0,0,1-.77-5c1.44-3.66,2.55-7.57,4.59-10.87,6.52-10.54,13.38-20.88,20.19-31.24a30.57,30.57,0,0,1,3.76-4.3c1.67-1.74,3.61-3,6.17-2.14,1.85.64,2.83,3.12,2.67,7.47a34.61,34.61,0,0,1-1.42,5.23A127.23,127.23,0,0,1,289.18,252.82Zm156.67-19.37c-2.43,4.77-1.73,7.63,2.58,11.39-4.42,5.69-9.11,11.06-15.93,14-3.17,1.38-6.78,2.44-9.56-.42-2.59-2.69-1.06-6,.26-8.8a184.69,184.69,0,0,1,16.59-28.12,137.41,137.41,0,0,1,9.3-11.91,18.63,18.63,0,0,1,6.54-4.63c4.22-1.75,7.64.52,8.14,5.1a22,22,0,0,1-3.5,14.36C453.14,224,448.77,227.7,445.85,233.45Z"></path>
  <path class="cls-2" d="M702.51,272.32a9.53,9.53,0,0,1-8.77-6.89,22.08,22.08,0,0,1-1-6c-.36-6.37,1.1-12.48,2.91-18.51,4.53-15.09,11.25-29.26,18.45-43.21a11.9,11.9,0,0,1,.83-1.14h9.5v-4l-6-.52a52.27,52.27,0,0,1,2.09-5.82c4.29-8.52,8.26-17.23,13.11-25.43,11.64-19.69,26-37.41,41.12-54.48.74-.84,1.41-1.74,2.12-2.61a9.23,9.23,0,0,0-3.41,1.68,237.9,237.9,0,0,0-28.84,24.77,315.71,315.71,0,0,0-46.33,58.64c-1.13,1.83-2.29,2.73-4.52,2.66-4.09-.12-8.18.09-12.28.11-1.05,0-2.1-.17-3.53-.3.54-1.87.93-3.43,1.43-5,3.9-12,9.82-23.08,16.58-33.69A284.82,284.82,0,0,1,731.78,108c1-1,1.86-2,2.78-3l-.56-.69c-3.08,1.35-6.12,2.8-9.26,4a22.28,22.28,0,0,1-6.22,1.73c-6.25.5-12.52.86-18.8.94-12.67.15-25.28-.08-37.8-3a38.05,38.05,0,0,0-24,2.47c-11.7,5.14-19.33,18.39-18.32,31.67.64,8.33,4.56,13.28,12.69,15.59a36.18,36.18,0,0,0,16.58,1.08c9.25-1.68,16.56-6.71,22.79-13.51A15.57,15.57,0,0,0,673,143.2a110.2,110.2,0,0,0-9.28,6.22c-7.8,5.51-16.49,7.52-26,6.68-12.19-1.1-19.16-11.55-15.23-23.21a37.06,37.06,0,0,1,9.58-15.06,19.71,19.71,0,0,1,10.25-5.64,47.39,47.39,0,0,1,23.45,1.39c10.9,3.7,21.92,5.43,33.37,4.17,3.91-.44,7.8-1,12.41-1.64-23.49,23.75-45.51,47.73-60.11,78H634.93v4.18h13c-.86,2.16-1.4,3.69-2.07,5.16A205.67,205.67,0,0,1,627.7,236c-9,13-19.34,24.61-32,34.18-7.48,5.65-15.66,7.21-24.63,6.58-8-.55-15.54-2.74-23-5.53-1.22-.45-2.46-.88-4.45-1.59,4.82,4.6,12.84,8.35,19.8,10.1,11.69,2.93,23,1.29,34.2-2.33,12.68-4.09,23.56-11.27,33.48-20,17-15,29.61-33.41,40-53.42,1.18-2.28,1.95-5.35,3.86-6.54s5-.51,7.56-.53c3,0,6.08.06,9.66.11-1.47,2.49-2.57,4.33-3.66,6.2a138.11,138.11,0,0,0-11.68,25.19A59.32,59.32,0,0,0,673.91,253a32.55,32.55,0,0,0,4.25,14,16.89,16.89,0,0,0,8.77,7.66c8.45,3.05,16.37.94,24-2.28C708.18,272.36,705.33,272.53,702.51,272.32Z"></path>
  <path class="cls-2" d="M188.29,160.22c8.33-20.41,19.42-39.35,31.31-57.85a10.51,10.51,0,0,1,1.15-1.25c9.06,5.14,14.45,12.81,17,22.65,1.35,5.21,1.07,10.53,1.24,15.84.37,11.61-4.13,20.67-13.45,27.39-7.55,5.44-16.15,8.39-25.17,10.29l-5.43,1.11a74,74,0,0,0,13.52.4c8.83-.74,17.13-3.28,24.36-8.61,12.67-9.34,18.36-26.57,14.24-42.9-2.88-11.41-9.63-20.33-18.19-28.07-.86-.78-1.7-1.61-3-2.84,2.75-1.65,4.91-3.44,7.4-4.31a18,18,0,0,1,7.57-.81c2.53.28,4.95,1.52,8.27,2.62a12.66,12.66,0,0,0-11.31-5.37,31.13,31.13,0,0,0-14.68,4.6,5.13,5.13,0,0,1-5.29.32,52.22,52.22,0,0,0-18.52-4.66c-14.67-.87-27.6,4-39.52,12.1a121.5,121.5,0,0,0-27.65,26.52c-5,6.46-9.55,13.27-14.58,20.33-8.39-6.39-18.06-8.6-28.44-8.05-17.47.92-33.36,6.2-47.21,17.21C13.67,179.33,1.08,207.62,9.47,243.72c2.74,11.79,8.37,21.89,18.45,29,8.1,5.75,17.33,8.41,27.11,9.43,11.92,1.24,23.65-.17,35.33-2.51,23.32-4.67,42.73-15.9,58-34.25,16.94-20.41,27.78-43.88,34.76-69.31A140.1,140.1,0,0,1,188.29,160.22Zm-29.08,20.67c-8,21.13-18.15,41.17-31.71,59.35-7.38,9.9-15.79,18.76-26,25.88C88.87,275,74.77,278,59.62,276.83a60.13,60.13,0,0,1-18.69-4.07c-15.17-6.26-23-18.11-25.72-33.86-5.23-30.29,10.61-64,31.95-79.84a82.82,82.82,0,0,1,38.5-16A36.93,36.93,0,0,1,116,152.35c-2.22,9.1-6,17.83-3.19,27.3,1.77-8.05,1.89-16.44,5.22-24.69a22.41,22.41,0,0,1,2.07,2.2c4.1,6.05,5.85,12.85,6.33,20,.78,11.74-1.56,23.05-4.41,34.35a55,55,0,0,1-10.84,20.86,95,95,0,0,1-19.6,18.44,15.89,15.89,0,0,0-3.45,3c.82-.35,1.68-.63,2.48-1,17.09-9.09,30.13-21.93,37-40.39,4.88-13.17,5-26.7,2.56-40.35-1.43-8.12-3.24-16.12-10.53-22,5-6.63,9.55-13.07,14.51-19.19a135,135,0,0,1,26.54-25.38c7.52-5.33,15.56-9.57,24.73-11.27a39.23,39.23,0,0,1,28.68,5.21,6.36,6.36,0,0,1,1,1c-.93,1-1.8,2-2.71,3-15.71,16.41-30,33.91-41.6,53.52A155.29,155.29,0,0,0,159.21,180.89Z"></path>
  <path class="cls-2" d="M935.36,231.08c-2.13,2.49-4.11,5.11-6.37,7.46-1.55,1.62-3.37,3.14-6.29,2.74.57-1.08,1-1.91,1.45-2.72,2.45-4.41,5.23-8.67,7.27-13.27a57.1,57.1,0,0,0,4-12.8c1.1-6.08-2.42-10.36-8.54-11.19a10.78,10.78,0,0,0-4.46.12c-4,1.22-8.2,2.26-11.85,4.23-10.67,5.77-18.84,14.31-25.31,24.5a138,138,0,0,1-17.67,22.47,41.2,41.2,0,0,1-5.65,4.7,24.4,24.4,0,0,1-4.36,2.2c-1.33.59-2.9.74-3.68-.6a4.83,4.83,0,0,1-.13-3.38,17.7,17.7,0,0,1,2-4c4.66-7.54,9.43-15,14-22.61a83.84,83.84,0,0,0,6.11-11.54c2.36-5.8,1.27-9-3.54-13-1.55-1.27-3.16-2.48-4.84-3.79,1.12-1.76,2.12-3.21,3-4.74a36.15,36.15,0,0,0,3-5.79c1.31-3.81-.41-5.91-4.41-5.44-4.28.5-7.2,3.11-9.11,6.81-1.74,3.42-1.16,6.61,1.54,9.39a5.82,5.82,0,0,1,.68,1.16c-1.88,2.66-3.7,5.35-5.63,8-8.82,12-17.51,24-26.61,35.78-3.21,4.15-7.35,7.63-11.3,11.16a14.7,14.7,0,0,1-5.42,2.74c-2.52.78-4.13-.84-3.33-3.36a25.79,25.79,0,0,1,2.69-5.48c4.57-7.44,9.32-14.77,13.79-22.27a105.63,105.63,0,0,0,6.16-12c2-4.56.76-8.55-3.18-11.64-1.81-1.4-3.6-2.82-5.29-4.14,2-3.6,4-6.83,5.52-10.32,1.74-4.11-.28-6.57-4.58-5.77s-7.29,3.58-9,7.57c-1.48,3.46-.27,6.38,2.15,9,.16.18.17.5.3.93-.76,1.14-1.56,2.4-2.43,3.6-5.66,7.86-11.25,15.78-17.05,23.53q-5.26,7-11.09,13.64a64.68,64.68,0,0,1-14.5,12.55,26.7,26.7,0,0,1-11.85,4.14q-8.15.68-6.85-7.3a20.18,20.18,0,0,1,1.43-4.67c1.66-3.88,3.76-7.61,5.11-11.6,1.46-4.28,4-5.67,8.45-5.72a45.63,45.63,0,0,0,18.67-4c5.68-2.61,9.48-6.7,10.36-13.18,1-7.31-3.17-12.22-10.59-12.23a25.62,25.62,0,0,0-12.77,3.83c-10.56,6-18.79,14.37-25.49,24.38a83,83,0,0,1-5.36,7.73c-5.17,6.14-10.41,12.26-15.92,18.1-1.79,1.9-4.42,3.13-6.87,4.23a4,4,0,0,1-3.64-.65c-.67-.72-.31-2.44-.31-3.71a2.8,2.8,0,0,1,.48-1.12c1.9-3.62,3.68-7.31,5.74-10.85,7.14-12.25,14.38-24.45,21.57-36.68.71-1.21,1.34-2.46,2.14-3.92H733.66a2.37,2.37,0,0,0-.56.5c-8.26,14.29-16.54,28.57-24.72,42.9a14.89,14.89,0,0,0-1.64,5c-1.21,7.89,4.13,13.29,12,12.34a19,19,0,0,0,10.62-4.85c3.22-2.93,6.22-6.11,9.28-9.22,1.2-1.22,2.3-2.55,4-4.43v3.91c0,7,3.48,11.79,10.33,13.28a27.9,27.9,0,0,0,10.1.3c10.58-1.73,18.82-7.79,25.76-15.54,10.39-11.6,19.57-24.15,28.37-37,1.14-1.66,2.38-3.26,3.65-5,2.65,1.84,2.58,4.18,1.7,6.38a50.48,50.48,0,0,1-4.24,8.36c-4.28,6.65-8.9,13.09-13.17,19.75a52,52,0,0,0-5.32,10.08c-3.15,8.66,3,15.47,12,13.67a27.13,27.13,0,0,0,14-8A94.84,94.84,0,0,0,834.6,245c9.17-12.21,18.15-24.56,27.22-36.85.93-1.25,1.94-2.45,2.94-3.71a5.39,5.39,0,0,1,1.19,7.1c-2.08,4-4.27,7.91-6.7,11.69-4,6.2-8.3,12.18-12.22,18.41a36.59,36.59,0,0,0-4.11,8.86c-1.78,5.94,1.45,10.91,7.53,12.23,4.59,1,8.59-.77,12.43-2.91,5.09-2.85,9-7.06,12.69-11.46.94-1.11,1.91-2.18,3.4-3.87-.12,1.62-.22,2.39-.24,3.17-.31,8.52,4.66,14.33,13.12,15.33a18.87,18.87,0,0,0,14.8-4.69A125.53,125.53,0,0,0,917.84,247c1.38-1.5,2.63-2.52,4.76-2.59a11.94,11.94,0,0,0,7.41-3.12,51.15,51.15,0,0,0,9.08-10.43C936.61,229.64,936.59,229.63,935.36,231.08Zm-151-25.2a11,11,0,0,1,7.56-.78c2.47.56,3.41,2,3.1,4.44a7.89,7.89,0,0,1-.41,1.57c-3.57,10.38-15.86,17.19-27.24,14.85C771,217.42,775.9,210.16,784.4,205.88ZM913.53,233.8c-2.34,4.95-1.79,7.13,2.55,11-4.09,5.42-8.53,10.47-14.76,13.55a16.24,16.24,0,0,1-6.24,1.61c-4.3.21-6.31-2.28-5.37-6.47a21.4,21.4,0,0,1,2.22-6.11c5.2-8.78,10.44-17.53,15.93-26.12a103.5,103.5,0,0,1,8.66-11.36,18.55,18.55,0,0,1,5.68-4.52c5-2.48,9,0,9.47,5.54.39,4.78-1,9.13-3.63,13.55C920.76,224,916.36,227.81,913.53,233.8Z"></path>
  <path class="cls-2" d="M548.77,249c.14,6.08,3.54,10.75,9.35,12.49a23.34,23.34,0,0,0,6.43,1c7.35,0,13.81-2.68,19.82-6.72,6.31-4.24,11.27-9.87,16.11-15.6,2.62-3.11,5-6.41,7.49-9.6-2.28-2.24-3.21-.66-4.34.85-5.92,7.87-12.31,15.31-20.16,21.36-3.48,2.69-7.17,5-11.49,6a22,22,0,0,1-6.84.61c-3.37-.3-4.8-2.17-4.5-5.57a18.79,18.79,0,0,1,1.37-5.52c2.13-5,4.55-9.92,6.68-14.93.89-2.08,2.19-2.78,4.38-2.83a84,84,0,0,0,9.35-.89,38.62,38.62,0,0,0,14.33-4.52,15.63,15.63,0,0,0,8.32-12.83c.57-6.86-3.43-11.26-10.28-11.42A25.1,25.1,0,0,0,582,204.57c-11.08,6.18-19.34,15.24-26.66,25.49-5.85,8.18-12.47,15.83-19,23.46-1.89,2.19-4.74,3.57-7.27,5.12a3.37,3.37,0,0,1-4.2-.43c-1.29-1.25-.92-2.84-.25-4.19,1-2.06,2.31-4,3.48-6q27.48-46.74,55-93.47c.67-1.14,1.24-2.34,2-3.79H570.49c-11.28,19.07-22.69,38.34-34.39,58.1-.4-1.17-.54-1.55-.66-1.94-1.72-5.58-3.9-7.17-9.64-6a34.69,34.69,0,0,0-10.32,3.6A67.68,67.68,0,0,0,485.41,240a32.27,32.27,0,0,0-2,11.19c0,8.19,5.41,12.62,13.45,11.17a21.19,21.19,0,0,0,7.72-3.45c2.34-1.58,4.21-3.85,6.32-5.78.63-.59,1.36-1.06,2.42-1.87,0,1.39,0,2.2,0,3,.35,5.28,2.72,7.93,8,8.68a15.64,15.64,0,0,0,12-3,76.11,76.11,0,0,0,8.15-7.4c2.46-2.5,4.63-5.26,7.25-8.29C548.76,246.17,548.73,247.6,548.77,249ZM591,205.84c2.09-.91,4.77-.87,7.13-.67s3.39,1.83,3.09,4.36a8.61,8.61,0,0,1-.36,1.58c-3.43,10.27-16,17.24-27.37,14.8C577.3,217.33,582.05,209.72,591,205.84Zm-85.46,48.24a18.92,18.92,0,0,1-5.7,3.85,5.41,5.41,0,0,1-4.17-.27c-1.62-.86-1.66-2.73-1-4.38a86.1,86.1,0,0,1,3.5-8.27,283,283,0,0,1,20.81-33.75,37,37,0,0,1,4.58-5.19c1.66-1.59,3.77-2.42,6-1.38s2.13,3.27,2.13,6.22a36.63,36.63,0,0,1-1.15,4.71C525,230.3,516.42,243,505.49,254.08Z"></path>
  <path class="cls-2" d="M63.66,123c14.52-.87,27.8-5.39,39.23-14.57a53.19,53.19,0,0,0,8.93-8.94c9-11.66,5.46-26.89-7.61-33.68-10.53-5.46-20.76-4.7-30.53,2-6,4-10.5,9.48-14.5,15.4A20.81,20.81,0,0,0,58,85.52c4.87-4.38,9.71-9,14.8-13.25a28.51,28.51,0,0,1,12-6c7.56-1.78,14.14.27,19.29,6,4.59,5.11,4.71,11.28,2.43,17.33a46.63,46.63,0,0,1-18.1,22.69C78.31,119,66.9,118.8,55.62,115.91S39.11,104.35,40.91,93a48.52,48.52,0,0,1,11-23.82A55.88,55.88,0,0,1,86.31,49.48c2.57-.45,4.78-.25,6.59,2.05a7,7,0,0,0,3.47,2c2.29.65,4.85-.63,5.49-2.45.71-2-.3-4.22-2.85-5.17a31.18,31.18,0,0,0-6.34-1.32C90,44.14,88.2,42.49,88,39.79a6.47,6.47,0,0,1,1.77-5.33l2.86,1.74c7.72,4.7,15.93,6.93,25,5.19,5.46-1,10.07-3.47,13.16-8.18A13.26,13.26,0,0,0,132.88,28c.87-6.12-2.79-10.61-9.68-11.93a38.41,38.41,0,0,0-20.53,1.58,40.45,40.45,0,0,0-14.22,8.61L84.28,24a56,56,0,0,0-16.84-6.1,26,26,0,0,0-15.26,1.38c-4.36,1.91-5.66,4.51-4.7,9.24.76-5.5,2.33-7.34,7.21-8.38a15.33,15.33,0,0,1,2.85-.36C68,19.61,77.12,23.49,85.32,29.1c-.26,5.48-.5,10.49-.77,16.08h0c-.53.11-1.07.19-1.61.28C70,47.63,57.69,51.38,47,59.29,34,68.92,28.28,81.63,31.54,97.88,34.88,114.55,46.86,124,63.66,123ZM118.45,18.34a23.51,23.51,0,0,1,8.21,3.39c4.84,3.07,4.57,8.81-.56,11.4a33.2,33.2,0,0,1-8.9,2.74,34.06,34.06,0,0,1-15.39-.37c-4.23-1.13-6.08-2.58-8.31-6.54C100.35,22,107.86,16.48,118.45,18.34Z"></path>
  <path class="cls-2" d="M115.48,103.55a22.39,22.39,0,0,0-2,7.4c-.29,4.09,2.4,6.59,6.51,6.75,4.36.18,7.92-1.67,11.1-4.43,6.31-5.49,10.76-12.53,16.26-19.33-2.71-1.07-3.29.67-4.16,1.7-4.13,4.89-8.1,9.92-12.37,14.68a20.36,20.36,0,0,1-5.57,4c-.91.5-2.27.16-3.42.19,0-1.16-.44-2.5,0-3.45a93,93,0,0,1,4.6-8.65q18.94-32.25,37.95-64.48A28,28,0,0,0,165.69,35H155.5c-.82,1.36-1.6,2.63-2.36,3.91q-16.27,27.66-32.53,55.34A96.68,96.68,0,0,0,115.48,103.55Z"></path>
  <path class="cls-2" d="M740.7,190.8c-.6,2.16,0,3.78,2.11,4.65a16.9,16.9,0,0,0,3.22.75c4.48-.46,8-1.94,9.86-5.94,1.16-2.47.24-4.58-2.22-5.65C749.18,182.66,742,186.08,740.7,190.8Z"></path>
  <path class="cls-2" d="M414.91,196.12a10.92,10.92,0,0,0,8-3.8c1.45-1.65,2.14-3.56,1.28-5.64s-3-2.66-5.1-2.63a11.25,11.25,0,0,0-8.59,4c-1.39,1.59-2.41,3.46-1.44,5.58S412.16,196.08,414.91,196.12Z"></path>
</svg>
