<?xml version="1.0" encoding="UTF-8"?>
<svg xmlns="http://www.w3.org/2000/svg" id="Capa_1" data-name="Capa 1" viewBox="0 0 777 450">
  <defs>
    <style>.cls-1{fill:none;}.cls-2{fill:#333;}</style>
  </defs>
  <path class="cls-1" d="M512.68,206.23h.89c37.78-.06,49.26-24.55,50.06-37.49v-.25c.08-4.34-.26-7.47-2.3-9.54a6.13,6.13,0,0,0-4.42-1.87c-5.06,0-7,5.66-7.17,6.31-.86,2.15-8.53,20-27.5,20-20.69,0-26.21-24.68-26.21-39.27,0-18.77,6-38.73,17-38.73a16.12,16.12,0,0,1,6,.89l2.07.86-1.45,1.71c-4.4,5.17-5.55,14.11-2.8,21.76,2.43,6.77,13.71,11.5,22.3,11.5,4.75,0,20.26-1.64,20.26-22.67,0-25.15-30-31.79-45.86-31.79-21.45,0-62,11.74-62,56.2C451.52,204.49,506.42,206.23,512.68,206.23Zm.9-113.35s40.08,0,40.08,26-29,16-31.41,9.22-.81-15.45,4.07-17.9c0,0,3.24-11.12-13.27-11.12s-22.75,25.23-22.75,44.49,8.12,45,31.95,45,32.82-23.43,32.94-24,2.91-6.62,2.7,3.17c0,0-2,32.09-44.4,32.09,0,0-56.23,2.26-56.23-56.6C457.26,92.53,513.58,92.88,513.58,92.88Z"></path>
  <path class="cls-1" d="M405.54,78.3C421.66,78.3,434.3,69,434.3,57s-12.64-21.26-28.76-21.26S376.78,45.12,376.78,57,389.41,78.3,405.54,78.3Zm0-37.31c12.71,0,23,6.94,23,15.51s-10.3,15.5-23,15.5-23-6.94-23-15.5S392.82,41,405.54,41Z"></path>
  <path class="cls-1" d="M712,243.39c10.21,0,17.73-8.24,17.73-18.47s-7.52-18.76-17.88-18.76-18,8.38-18,18.62S701.47,243.39,712,243.39Zm-9.23-29.7a47.63,47.63,0,0,1,8.94-.71c4.4,0,6.38.71,8.09,1.71a6.44,6.44,0,0,1,2.27,5.11c0,2.56-2,4.55-4.83,5.4v.28c2.28.86,3.55,2.57,4.26,5.69.71,3.55,1.14,5,1.7,5.82h-5.81c-.71-.85-1.14-3-1.85-5.68-.42-2.56-1.84-3.7-4.82-3.7h-2.55V237h-5.4Z"></path>
  <path class="cls-1" d="M297.85,184c-1.48-1.84-1.25-4.78-1-5.76l.19-.76V131l.42-.46c8.65-9.64,16.59-13,18.82-13.82l1.28-.47.68,1.18c3.86,6.65,14.06,10.33,19.64,10.33,9,0,22.35-6.2,22.35-19.49,0-13.9-8.67-20.94-25.78-20.94-8.54,0-20.92,7.21-34.85,20.3l-2.73,2.57V87.5H233.89v18.73h5.74c10.41,0,13.14,4.17,13.82,6l.11.28V177c0,3,0,10.15-11.3,10.15a17.49,17.49,0,0,1-1.92-.1l-6.63-1v19.81h79V186.81H307C303.82,186.81,299.68,186.33,297.85,184Zm-58.4,15.53v-7.41s19.86,2.89,19.86-15.74V111.33s-1.45-11.39-19.68-11.39V92.71h51.45v27.48h3.61s25.09-27.66,39.72-27.66,20,5.06,20,15.19-11.56,13.74-16.61,13.74-15.35-4.52-15.35-9.77-17-.54-31.23,16.64v47.91S287.2,192,307,192v7.46l.18.09Z"></path>
  <path class="cls-1" d="M348.64,356.59V296.13c0-16.7-14.78-34-39.51-34-13,0-25.86,6.56-34.35,12.06l-2.51,1.62V223.11H205.9v22.53h5.75c9.87,0,14,2.56,14.53,4.75l.07.3,0,.31V356c0,3.19-.57,6.58-7.45,6.58a14.83,14.83,0,0,1-2-.13l-6.83-1.22V380H287.2V362.15h-4c-5.79,0-8.14-1.52-9-2.43A4.19,4.19,0,0,1,273,357.2l0-.41.05-.11V298.35l.62-.49c4-3.19,12.31-8.55,22.07-8.55,4.37,0,6,1.75,6.61,2.32,2.65,2.74,3.09,7.67,3,9.34v55.09c0,4-3.05,6.05-9,6.05-.44,0-.75,0-.8,0l-4.55.05V380h73.49V361.74h-5.74C349.94,361.74,348.74,358.14,348.64,356.59Zm10.1,16.74H295v-6.06s16.16,1.45,16.16-11.75V300.73S312,283,295.73,283s-28.43,12.21-28.43,12.21V355.7s-1.43,11.66,15.88,11.66v6.33H215.62v-6.14S232,370.48,232,355.43V250.88s1.71-11.53-20.32-11.53v-11h54.89v58.77s21.48-19.71,42.6-19.71,33.76,14.46,33.76,28.2V355.7S342.22,367,358.74,367Z"></path>
  <path class="cls-1" d="M296.34,358.86c5.79,0,5.79-1.89,5.79-2.8V300.84c0-1.42-.43-5.18-2.13-6.94-.32-.33-1.29-1.33-4.28-1.33-8.32,0-15.54,4.41-19.44,7.36v57.14a.78.78,0,0,0,.2.38c.14.15,1.56,1.45,6.69,1.45H286l9.79,0Z"></path>
  <path class="cls-1" d="M437.48,184.19a9.22,9.22,0,0,1-2.05-6.1l.05-.54V87.5H369.1v18.91h5.75c5.79,0,8.28,1.13,9.26,1.8l.7.49v68.09c0,2.65,0,9.7-8.84,9.7-.36,0-.63,0-.74,0l-6.67-.88V205.5H451.9V187h-5.74C442.1,187,439.18,186,437.48,184.19Zm8.68,15H374.31v-7.6s16.24,2.18,16.24-15.36V109s1.45-8.86-15.7-8.86V92.71h54.88v84.08s-1.63,15.36,16.43,15.36Z"></path>
  <path class="cls-1" d="M716.23,220.37c0-2.13-1.56-3.55-5-3.55a13.09,13.09,0,0,0-3,.28v6.68h2.55C713.82,223.78,716.23,222.79,716.23,220.37Z"></path>
  <path class="cls-1" d="M638.29,113.56c-5.28,0-9.12,1.39-11.72,4.25s-3.72,6.67-4.32,10l33.39-.18a19,19,0,0,0-4.1-9.31C648.7,115.1,644.36,113.56,638.29,113.56Z"></path>
  <path class="cls-1" d="M439.06,289.3c-1-2.61-3.39-5.74-12.08-5.74-9.54,0-10.83,3.74-11.52,5.75-2.54,7-3.73,17.77-3.55,32.06-.18,14.47,1,25.27,3.5,32.15,1,3,2.8,6.1,11.57,6.1,8.61,0,11-3,12.12-6,2.12-6.88,3.11-17.68,2.93-32C442.21,307.14,441.22,296.28,439.06,289.3Z"></path>
  <path class="cls-1" d="M638.29,104c-28.71,0-25.46,32.27-25.46,32.27L665,136S668.75,104,638.29,104Zm21.05,26.82-40.82.21.23-1.83c.5-4,1.85-9.66,5.41-13.59,3.26-3.57,7.88-5.32,14.13-5.32,7.05,0,12.17,1.9,15.67,5.8s4.73,9.18,5.16,12.93Z"></path>
  <path class="cls-1" d="M156.37,253.77c-6.84-4.64-10.52-6-21.67-6.12a41.4,41.4,0,0,0-19.58,4.45c-5.21,2.71-6,5.54-6.05,8,0,.59.11,1.31,1.43,2.33a34.72,34.72,0,0,0,9.54,5.38A134,134,0,0,0,135.63,272l14,3.5a140,140,0,0,1,20.74,5.94q1.09.38,2.19.81l-.12-1.49C171.05,264,163.59,258.78,156.37,253.77Z"></path>
  <path class="cls-1" d="M694.54,143.57c0-.56-2-56.25-59.19-56.25-54.67,0-59.51,50-59.88,55.71-.25,2.81-1.94,27.63,14.33,45.61,10.56,11.67,26.06,17.59,46.1,17.59h.17c1.88-.06,46.21-1.74,58.63-34.25l.24-.83c.46-2.1.62-5.08-1.25-7.4a6.33,6.33,0,0,0-5-2.37c-3.5,0-6.29,2.71-9.65,7.06l-.29.43c-.08.12-9.38,13.47-40,13.47a22.62,22.62,0,0,1-10.2-4.47c-4-3.37-8.51-11.1-9.65-26.66l-.13-1.75h75.81ZM613,143.16c0,45.92,25.86,44.38,25.86,44.38,34.52,0,44.81-16.13,44.81-16.13,7.31-9.49,5.69-2,5.69-2-11.19,29.3-53.43,30.56-53.43,30.56-60.3,0-54.71-57-54.71-57S583,92.53,635.35,92.53s53.44,50.63,53.44,50.63Z"></path>
  <path class="cls-1" d="M182.62,366c14.9-9,22.71-21.58,23.25-37.3v-.22a41.3,41.3,0,0,0-5.16-21l-.11-.17A44.26,44.26,0,0,0,187,293.48a70.29,70.29,0,0,0-7.76-4.67l-3-1.57v0l-2.48-1c-1.48-.64-3-1.23-4.51-1.76A136.52,136.52,0,0,0,149,278.66l-14-3.51a136.75,136.75,0,0,1-16-4.32,38.18,38.18,0,0,1-10.45-5.89,6,6,0,0,1-2.65-4.92c.08-3,1-7.26,7.79-10.8a44.68,44.68,0,0,1,21.1-4.83h0c11.82.12,16.23,1.78,23.48,6.69s15.94,11.08,17.5,29.39l.45,5.26h21.19V223h-22l-1.05,4.43c-.12.52-.22,1.13-.33,1.78-.07.42-.18,1-.28,1.5l-.28,1.19-1.21.07h-.48c-3.17,0-7.91-.9-14.52-2.71-7.15-1.89-16.26-2.92-27.06-3-17.31,0-33.09,3.69-46.89,11C68.09,244.86,59.88,257.26,59.45,273c0,8.1,1.83,15.21,5.43,21.08a40.74,40.74,0,0,0,13.56,14.15,93.74,93.74,0,0,0,17.67,8.57,168.72,168.72,0,0,0,19.12,5.7c6.74,1.56,13.08,3,19,4.3a107,107,0,0,1,15.48,4.67l.25.09a21.66,21.66,0,0,1,9.28,5.71,10.42,10.42,0,0,1,2.61,7.3c-.08,3.25-1,8-8.2,12.41-5.63,3.53-14.75,5.73-23.79,5.73-13.09-.12-24-3-32.59-8.68-8.36-5.25-13.31-11.46-15.49-29.16l-.62-5H58.92v58.57H82.15v-4.86h1.63a92,92,0,0,1,18.51,2.89l.4.09c4.28.75,8.61,1.45,13.19,2.13a119.22,119.22,0,0,0,15.59,1l0,1.31h0v-1.31C151.38,379.5,168.58,374.92,182.62,366Zm-51.15,7.29a113.32,113.32,0,0,1-14.85-.92c-4.53-.67-8.83-1.37-13-2.1A96.64,96.64,0,0,0,84,367.26a10.83,10.83,0,0,0-5.18,1.21,3.74,3.74,0,0,0-2.38,3.65H64.66V325.05h11.4c2.38,19.35,8.45,27.24,18.17,33.34q14.14,9.35,35.54,9.54c9.44,0,19.87-2.19,26.92-6.62s10.7-10,10.89-17.06a16.31,16.31,0,0,0-4.11-11.38c-2.76-3.13-6.64-5.54-11.68-7.29a113.36,113.36,0,0,0-16.3-4.92q-8.9-2-19-4.3a160.25,160.25,0,0,1-18.45-5.5,87.22,87.22,0,0,1-16.58-8,34.72,34.72,0,0,1-11.68-12.21q-4.62-7.47-4.63-18.18c.38-13.6,7.2-23.85,20.6-30.68q19.62-10.35,44.33-10.36c10.32.12,18.87,1.08,25.59,2.86s12,2.87,15.93,2.89c7.78,0,7.52-6,8.22-9H191.6v51.28H181.44c-1.73-20.27-11.3-27.61-19.94-33.62s-14.29-7.6-26.72-7.72a50.18,50.18,0,0,0-23.86,5.5c-7.06,3.65-10.65,8.9-10.84,15.67A11.77,11.77,0,0,0,105,269a43.63,43.63,0,0,0,11.91,6.71,140.2,140.2,0,0,0,16.87,4.58c6.16,1.56,7.43,1.84,13.87,3.47a129.69,129.69,0,0,1,19.62,5.59,69.56,69.56,0,0,1,16.58,8.39,38.79,38.79,0,0,1,11.91,12.21c2.94,5.08,4.39,11.13,4.39,18.09-.47,13.67-7.23,24.53-20.46,32.56Q159.78,373.15,131.47,373.33Z"></path>
  <path class="cls-1" d="M182.22,92.53c0-24-26-24-26-24H132v47.91h27.07S182.22,116.75,182.22,92.53ZM137.77,74.77h18.41c9.37.11,20.3,5,20.3,18.3,0,8.35-4.55,18.1-17.37,18.11H137.77Z"></path>
  <path class="cls-1" d="M65.13,182.82l-6.36-.69v23.73H169V183h-5.74c-18.67,0-23.92-3.91-25.3-5.6l-.37-.45V138.42h24.22c46.09,0,59.21-27.88,59.72-42.63v-.22c0-32.3-25.39-43.16-38.81-44.39l-.33,0H58.77V70.43h5.75C85.38,70.43,87,79.9,87.11,81.8v94.81c0,6-12.87,6.43-16.81,6.43C67.3,183,65.15,182.82,65.13,182.82Zm27.73-6.76V81.31s.36-17.17-28.34-17.17V56.36h117.7s33.58,3.08,33.58,38.7c0,0-1.26,37.07-54,37.07h-30v44.11s-1.27,11.94,31.4,11.94v11.39H64.52V188S92.86,191.07,92.86,176.06Z"></path>
  <path class="cls-1" d="M173.22,93.07c0-13.78-13.05-15-17.06-15H141v29.9h18.08C172.21,107.92,173.22,96.55,173.22,93.07Z"></path>
  <path class="cls-1" d="M617,336c-3.5,0-6.28,2.71-9.64,7.06l-.3.43c-.08.12-9.38,13.47-40,13.47h-8.44l3.07-1.23a17,17,0,0,1-4.83-3.24c-3.77-3.58-8.51-11.11-9.66-26.67l-.13-1.74H622.9l-.13-5.88c0-.56-2-56.26-59.17-56.26-54.68,0-59.52,50-59.89,55.72-.25,2.81-1.94,27.63,14.33,45.61,10.55,11.67,26.07,17.59,46.1,17.59l.11,1.62,0-1.62h.12c1.86-.05,46.2-1.79,58.61-34.25l.25-.83c.45-2.1.6-5.08-1.26-7.4A6.3,6.3,0,0,0,617,336Zm.6,8c-11.19,29.29-53.44,30.56-53.44,30.56-60.3,0-54.7-57-54.7-57s1.8-50.44,54.16-50.44S617,317.82,617,317.82H541.21c0,45.93,25.86,44.39,25.86,44.39,34.53,0,44.82-16.14,44.82-16.14C619.2,336.58,617.58,344,617.58,344Z"></path>
  <path class="cls-1" d="M646.92,330a35.67,35.67,0,0,1-11.85-12.3,34.67,34.67,0,0,1-4.8-18.44c.37-13.86,7.51-24.68,20.64-31.35,11.16-5.87,23.91-8.86,37.88-8.86a91.67,91.67,0,0,1,21.82,2.47,62.18,62.18,0,0,0,7.94,1.75l1.07-4.53h25.07v18.47c8-16.68,12.34-34.17,12.34-52.22,0-47.67-29.68-91.57-79.34-126.36,19.24,17.47,20.09,44.47,20.09,44.87l.2,9.2H622.36c1.27,13.32,5.28,19.73,8.51,22.78a12.07,12.07,0,0,0,7.66,3.6l.22,0,9.85-.48c20.74-2.28,27.42-11.41,27.5-11.52l.42-.6c4-5.14,7.39-8.33,12.22-8.33a9.54,9.54,0,0,1,7.48,3.58c2.67,3.32,2.51,7.34,1.9,10.13l-.39,1.3c-13.19,34.51-59.6,36.29-61.57,36.34h-.26c-21,0-37.31-6.28-48.51-18.65-17.2-19-15.42-45.13-15.16-48.05.39-6,5.49-58.72,63.12-58.72,11.81,0,21.36,2.25,29.13,5.85C596.81,47.56,498,20.8,388,20.8c-70.58,0-136.55,11.05-192.67,30.14,13.86,5.39,29.46,18.45,29.46,44.66v.28c-.54,15.86-14.4,45.79-63,45.79h-21v34c1.3,1.05,6.44,4.07,22.43,4.07h9v29.41H55.52V178.5l10,1.08s2,.21,4.82.21c8.91,0,13.56-2.07,13.56-3.18v-67.1C43,142.38,19,182.16,19,225c0,32.91,14.19,64,39.29,91.58H84l1,7.91c2,16.41,6.48,22.08,14,26.81,8,5.31,18.41,8.05,30.85,8.16,8.44,0,16.9-2,22.07-5.24,5.77-3.54,6.59-7,6.66-9.67a7.22,7.22,0,0,0-1.79-5.1,18.49,18.49,0,0,0-8-4.81l-.31-.11a103,103,0,0,0-15-4.55q-8.84-1.94-19-4.31A170.5,170.5,0,0,1,95,319.87,96.39,96.39,0,0,1,76.71,311a44,44,0,0,1-14.62-15.23c-3.9-6.35-5.89-14-5.89-22.79.47-17.06,9.29-30.44,25.51-38.71,14.26-7.52,30.55-11.34,48.41-11.34,11.08.13,20.46,1.2,27.89,3.16a69.13,69.13,0,0,0,12.71,2.57,0,0,0,0,1,0,0c.11-.72.24-1.4.37-2l1.64-6.94h27.85V289H186.15c.92.59,1.82,1.18,2.7,1.79a47.68,47.68,0,0,1,14.52,14.92l.14.22c3.73,6.44,5.61,14,5.61,22.63v.28c-.58,16.91-8.92,30.36-24.79,40a90.08,90.08,0,0,1-33.53,12.41c64.19,29.9,146.92,48,237.2,48,92.48,0,177-19,241.86-50.18V330.27h17.47Zm64.91-128.54c13.48,0,23.84,10.37,23.84,23.31a23.91,23.91,0,0,1-47.81,0C687.86,211.84,698.5,201.47,711.83,201.47Zm-198.28-117c17,0,49.1,7.33,49.1,35.05,0,19.11-12.14,25.92-23.5,25.92-9.84,0-22.33-5.22-25.36-13.65-2.79-7.76-2-16.79,1.87-22.91a20.12,20.12,0,0,0-2.62-.16c-7.58,0-13.75,15.92-13.75,35.48,0,13.37,4.84,36,23,36,16.83,0,23.71-16,24.44-17.86,1.19-3.85,4.63-8.48,10.23-8.48a9.36,9.36,0,0,1,6.74,2.85c2.83,2.89,3.33,6.7,3.23,11.91v.32c-.87,14-13.11,40.52-53.26,40.58h-.94c-6.6,0-64.42-1.84-64.42-65.61C448.26,96.85,491,84.42,513.55,84.42Zm-108-51.89c17.95,0,32,10.76,32,24.51s-14.06,24.51-32,24.51-32-10.77-32-24.51S387.59,32.53,405.54,32.53ZM365.31,181.86l10.18,1.36H376c4.73,0,5.59-2.17,5.59-6.44V110.55a19.35,19.35,0,0,0-6.71-.88h-9V84.24h72.87l0,94a6.06,6.06,0,0,0,1.18,3.77c1,1.11,3.26,1.72,6.3,1.72h9v25.07H365.31Zm-134.85.43,10.28,1.49c.33,0,.84.07,1.52.07,8.05,0,8.05-3.82,8.05-6.89V113.12c-.51-1-2.63-3.63-10.68-3.63h-9V84.24h69.43v18.49c10.06-9,23.36-18.67,34.34-18.67,18.72,0,29,8.59,29,24.2S348.16,131,337.84,131c-6.17,0-16.75-3.74-21.69-10.77-2.91,1.26-9.09,4.56-15.89,12l-.06,45.88L300,179a4.67,4.67,0,0,0,.41,3c.57.72,2.64,1.55,6.59,1.55h9v25.57h-85.5Zm137.27,201H206.62V357.32l10.54,1.89a12.37,12.37,0,0,0,1.6.1c4.2,0,4.2-1.05,4.2-3.33V251.09c-.51-.47-3.53-2.19-11.31-2.19h-9V219.85h72.87v50c8.78-5.33,21.06-11,33.61-11,26.76,0,42.75,18.92,42.75,37.22v60.35c.08.94,2.45,2,6.86,2h9ZM496,320.86c-.27,18.66-6.61,33.83-18.83,45.11C465.26,377.24,448.34,383,427,383.18h-.06c-21.1-.15-37.87-6-49.91-17.26-12.66-11.22-19.09-26.42-19.09-45.18,0-18.91,6.51-34.22,19.34-45.52,11.87-10.93,28.6-16.56,49.67-16.7,21.38.14,38.3,5.81,50.32,16.83,12.21,11.27,18.54,26.49,18.81,45.27ZM626.36,346.5l-.39,1.3c-13.16,34.46-59.59,36.29-61.56,36.35h-.27c-21,0-37.31-6.28-48.51-18.65-17.2-19-15.42-45.14-15.16-48.05.39-6,5.49-58.72,63.13-58.72,60.64,0,62.41,58.85,62.42,59.45l.2,9.19H550.61c1.26,13.33,5.28,19.74,8.5,22.79a12,12,0,0,0,7.67,3.59l.2,0,11.69-1.24-1.91.77c20.81-2.27,27.5-11.42,27.57-11.53l.43-.6c4-5.15,7.39-8.33,12.22-8.33a9.57,9.57,0,0,1,7.48,3.57C627.13,339.69,627,343.71,626.36,346.5Z"></path>
  <path class="cls-1" d="M710.22,287l-.18-.13c-4.92-3.32-9.9-4.65-17.77-4.73a29.07,29.07,0,0,0-13.93,3.15c-3.16,1.62-3.42,3-3.47,4a2.12,2.12,0,0,0,.25.22,24.68,24.68,0,0,0,6.72,3.77,98.44,98.44,0,0,0,11.59,3.11l.31.08c2.33.59,3.73.93,5.16,1.28l5.28,1.32a109.51,109.51,0,0,1,14.74,4.09C717.61,292.15,715.69,290.82,710.22,287Z"></path>
  <path class="cls-1" d="M566.53,288.23c-5.28,0-9.11,1.39-11.72,4.25s-3.73,6.67-4.32,9.95l33.38-.17a18.92,18.92,0,0,0-4.09-9.31C576.94,289.77,572.61,288.23,566.53,288.23Z"></path>
  <path class="cls-1" d="M566.53,278.67c-28.71,0-25.45,32.28-25.45,32.28l52.12-.27S597,278.67,566.53,278.67Zm-19.76,27,.23-1.84c.49-4,1.83-9.66,5.41-13.58,3.26-3.58,7.87-5.32,14.12-5.32,7.05,0,12.18,1.9,15.67,5.8s4.74,9.18,5.17,12.92l.21,1.81Z"></path>
  <path class="cls-1" d="M426.91,261.77c-20.22.14-36.21,5.48-47.5,15.88-12.13,10.67-18.26,25.16-18.26,43.09,0,17.78,6.07,32.17,18,42.77,11.45,10.76,27.49,16.27,47.67,16.41l.1,1.63v-1.63c20.53-.14,36.71-5.64,48.06-16.34,11.55-10.65,17.53-25,17.79-42.75v-.19c-.26-17.82-6.23-32.26-17.76-42.9C463.62,267.29,447.44,261.91,426.91,261.77Zm44.21,97q-15.54,14.64-44.23,14.83-28.12-.21-43.75-14.83c-10.83-9.6-16.25-22.43-16.25-38.6s5.42-29.19,16.28-38.75Q398.73,267.16,427,267q28.61.19,44.19,14.47t15.89,38.75C486.81,336.37,481.51,349.2,471.12,358.8Z"></path>
  <path class="cls-1" d="M666.18,357c5.81,3.83,13.35,5.8,22.43,5.88,5.87,0,12.19-1.47,15.7-3.66,4-2.44,4-4.56,4.07-5.58a3.19,3.19,0,0,0-.8-2.35,12.2,12.2,0,0,0-5.19-3.08l-.31-.11a77.54,77.54,0,0,0-11.18-3.37c-4.48-1-9.33-2.08-14.5-3.27A132.34,132.34,0,0,1,661.28,337c-2.6-.95-5.12-2-7.52-3.17l.55,4.38C655.72,349.59,660.52,353.45,666.18,357Z"></path>
  <path class="cls-1" d="M743.72,324.71a35.28,35.28,0,0,0-10.75-11c-1-.71-2.07-1.37-3.13-2l-5.08-3h16.68V262H722.2l-1.12,4.75-1.37-.08a53.79,53.79,0,0,1-9.94-2,89.11,89.11,0,0,0-21-2.35c-13.42,0-25.66,2.85-36.37,8.49-12,6.1-18.54,16-18.88,28.51A31.53,31.53,0,0,0,637.85,316a32.58,32.58,0,0,0,10.8,11.22,72.61,72.61,0,0,0,13.74,6.64,129.91,129.91,0,0,0,14.75,4.38c5.14,1.19,10,2.28,14.46,3.27A81.93,81.93,0,0,1,703.23,345l.25.1a15,15,0,0,1,6.52,4,6.53,6.53,0,0,1,1.63,4.56c-.06,2.16-.7,5.3-5.61,8.31-4,2.51-10.88,4.15-17.42,4.15-9.74-.09-17.87-2.24-24.18-6.4-5.86-3.67-11.75-8.34-13.34-21.16l-.62-5.05H633.11v46.41h20.45v-2.84l1.75.13a79.26,79.26,0,0,1,11.94,2.06l.33.07c3.29.58,6.62,1.12,10.17,1.64a91.6,91.6,0,0,0,12.08.75l0,1.63v-1.63c15.41-.1,28.76-3.64,39.67-10.52,11.79-7.13,18-17.05,18.4-29.5v-.22a32.69,32.69,0,0,0-4.13-16.63Zm-17.12,41q-15.18,9.57-36.77,9.71a88,88,0,0,1-11.34-.69c-3.45-.51-6.73-1-9.9-1.6a74.41,74.41,0,0,0-15-2.32,8.31,8.31,0,0,0-4,.91c-1.22.56-1.83.6-1.83,1.9h-8.95V338.73h6.52c1.82,14.72,8.62,20.72,16,25.36q10.8,7.11,27.12,7.25c7.2,0,15.16-1.67,20.54-5s8.16-7.64,8.3-13a12.33,12.33,0,0,0-3.14-8.65,20.55,20.55,0,0,0-8.91-5.54,87.76,87.76,0,0,0-12.43-3.75c-4.53-1-9.34-2.07-14.47-3.26A123.91,123.91,0,0,1,664.35,328a66.41,66.41,0,0,1-12.65-6.11,26.51,26.51,0,0,1-8.9-9.28,25.64,25.64,0,0,1-3.54-13.83c.28-10.34,5.49-18.13,15.72-23.32q15-7.87,33.81-7.88a82.21,82.21,0,0,1,19.53,2.17c5.06,1.38,9.12,2.19,12.15,2.2,5.93,0,5.74-2.44,6.27-4.69h9v35.18h-7.76c-1.78-16-6.2-18.87-12.79-23.43s-13.32-6.23-22.8-6.33a38.39,38.39,0,0,0-18.2,4.18c-5.39,2.78-8.13,6.77-8.27,11.92a8.91,8.91,0,0,0,3.74,7.36,33.28,33.28,0,0,0,9.08,5.11,109.48,109.48,0,0,0,12.87,3.48c4.7,1.18,5.66,1.39,10.58,2.63a100.65,100.65,0,0,1,15,4.25,53.78,53.78,0,0,1,12.65,6.38,29.4,29.4,0,0,1,9.08,9.29A26.87,26.87,0,0,1,742.2,341C741.85,351.38,736.68,359.64,726.6,365.73Zm-3.86-57.68-3.58-1.32a107.57,107.57,0,0,0-15.7-4.48l-5.34-1.33L693,299.64l-.25-.06a103,103,0,0,1-12-3.23,28.44,28.44,0,0,1-7.61-4.29,3.18,3.18,0,0,1-1.48-2.57c.06-2.22.72-4.74,5.21-7.05a32.37,32.37,0,0,1,15.45-3.51h0c8.57.08,14.06,1.57,19.57,5.29l.21.14c6,4.13,8.69,6,10.16,19.21Z"></path>
  <path class="cls-1" d="M447.58,285.84Q443.07,274,427,274c-10.65,0-17.3,3.93-20,11.83q-4.36,12-4,35.1-.3,23.13,4,35.12c2.71,8,9.36,12,20,12s17.6-4,20.61-12q3.76-12,3.44-35.12Q451.32,297.84,447.58,285.84Zm-5.42,68.83c-1.39,3.58-4.43,8.21-15.18,8.21-10.49,0-13.33-4.43-14.63-8.28-2.64-7.22-3.88-18.4-3.69-33.23-.19-14.64,1.07-25.81,3.74-33.15,1.26-3.67,4.07-7.91,14.58-7.91,10.77,0,13.8,4.51,15.14,7.9,2.3,7.43,3.35,18.63,3.16,33.39C445.47,336.22,444.42,347.36,442.16,354.67Z"></path>
  <path class="cls-2" d="M316,183.55h-9c-4,0-6-.83-6.59-1.55a4.67,4.67,0,0,1-.41-3l.23-.91.06-45.88c6.8-7.44,13-10.74,15.89-12,4.94,7,15.52,10.77,21.69,10.77,10.32,0,25.6-7.23,25.6-22.75s-10.31-24.2-29-24.2c-11,0-24.28,9.63-34.34,18.67V84.24H230.64v25.25h9c8.05,0,10.17,2.66,10.68,3.63V177c0,3.07,0,6.89-8.05,6.89-.68,0-1.19,0-1.52-.07l-10.28-1.49v26.83H316Zm-3.25,22.31h-79V186.05l6.63,1a17.49,17.49,0,0,0,1.92.1c11.3,0,11.3-7.11,11.3-10.15V112.47l-.11-.28c-.68-1.79-3.41-6-13.82-6h-5.74V87.5h62.94v22.69l2.73-2.57c13.93-13.09,26.31-20.3,34.85-20.3,17.11,0,25.78,7,25.78,20.94,0,13.29-13.34,19.49-22.35,19.49-5.58,0-15.78-3.68-19.64-10.33l-.68-1.18-1.28.47c-2.23.8-10.17,4.18-18.82,13.82L297,131v46.53l-.19.76c-.21,1-.44,3.92,1,5.76,1.83,2.29,6,2.77,9.12,2.77h5.74Z"></path>
  <path class="cls-2" d="M405.54,81.55c17.95,0,32-10.77,32-24.51s-14.06-24.51-32-24.51-32,10.76-32,24.51S387.59,81.55,405.54,81.55Zm0-45.77c16.12,0,28.76,9.34,28.76,21.26S421.66,78.3,405.54,78.3,376.78,69,376.78,57,389.41,35.78,405.54,35.78Z"></path>
  <path class="cls-2" d="M455.15,183.69h-9c-3,0-5.27-.61-6.3-1.72a6.06,6.06,0,0,1-1.18-3.77l0-94H365.85v25.43h9a19.35,19.35,0,0,1,6.71.88v66.24c0,4.27-.86,6.44-5.59,6.44h-.48l-10.18-1.36v26.9h89.84ZM451.9,205.5H368.56V185.58l6.67.88c.11,0,.38,0,.74,0,8.84,0,8.84-7.05,8.84-9.7V108.7l-.7-.49c-1-.67-3.47-1.8-9.26-1.8H369.1V87.5h66.37v90.05l-.05.54a9.22,9.22,0,0,0,2.05,6.1c1.7,1.83,4.62,2.76,8.68,2.76h5.74Z"></path>
  <path class="cls-2" d="M512.68,209.49h.94c40.15-.06,52.39-26.54,53.26-40.58v-.32c.1-5.21-.4-9-3.23-11.91a9.36,9.36,0,0,0-6.74-2.85c-5.6,0-9,4.63-10.23,8.48-.73,1.83-7.61,17.86-24.44,17.86-18.12,0-23-22.64-23-36,0-19.56,6.17-35.48,13.75-35.48a20.12,20.12,0,0,1,2.62.16C511.81,115,511,124,513.79,131.74c3,8.43,15.52,13.65,25.36,13.65,11.36,0,23.5-6.81,23.5-25.92,0-27.72-32.12-35-49.1-35-22.58,0-65.29,12.43-65.29,59.46C448.26,207.65,506.08,209.49,512.68,209.49Zm.87-121.81c15.86,0,45.86,6.64,45.86,31.79,0,21-15.51,22.67-20.26,22.67-8.59,0-19.87-4.73-22.3-11.5-2.75-7.65-1.6-16.59,2.8-21.76l1.45-1.71-2.07-.86a16.12,16.12,0,0,0-6-.89c-11,0-17,20-17,38.73,0,14.59,5.52,39.27,26.21,39.27,19,0,26.64-17.88,27.5-20,.19-.65,2.11-6.31,7.17-6.31a6.13,6.13,0,0,1,4.42,1.87c2,2.07,2.38,5.2,2.3,9.54v.25c-.8,12.94-12.28,37.43-50.06,37.49h-.89c-6.26,0-61.16-1.74-61.16-62.35C451.52,99.42,492.1,87.68,513.55,87.68Z"></path>
  <path class="cls-2" d="M617,332.79c-4.83,0-8.26,3.18-12.22,8.33l-.43.6c-.07.11-6.76,9.26-27.57,11.53l1.91-.77L567,353.72l-.2,0a12,12,0,0,1-7.67-3.59c-3.22-3.05-7.24-9.46-8.5-22.79h75.61l-.2-9.19c0-.6-1.78-59.45-62.42-59.45-57.64,0-62.74,52.74-63.13,58.72-.26,2.91-2,29,15.16,48.05,11.2,12.37,27.52,18.65,48.51,18.65h.27c2-.06,48.4-1.89,61.56-36.35l.39-1.3c.61-2.79.77-6.81-1.9-10.14A9.57,9.57,0,0,0,617,332.79Zm6.21,13-.25.83c-12.41,32.46-56.75,34.2-58.61,34.25h-.12l0,1.62-.11-1.62c-20,0-35.55-5.92-46.1-17.59-16.27-18-14.58-42.8-14.33-45.61.37-5.7,5.21-55.72,59.89-55.72,57.17,0,59.16,55.7,59.17,56.26l.13,5.88H547.08l.13,1.74c1.15,15.56,5.89,23.09,9.66,26.67a17,17,0,0,0,4.83,3.24L558.63,357h8.44c30.59,0,39.89-13.35,40-13.47l.3-.43c3.36-4.35,6.14-7.06,9.64-7.06a6.3,6.3,0,0,1,4.95,2.37C623.79,340.73,623.64,343.71,623.19,345.81Z"></path>
  <path class="cls-2" d="M582.2,290.77c-3.49-3.9-8.62-5.8-15.67-5.8-6.25,0-10.86,1.74-14.12,5.32-3.58,3.92-4.92,9.55-5.41,13.58l-.23,1.84,40.81-.21-.21-1.81C586.94,300,585.69,294.67,582.2,290.77Zm-31.71,11.66c.59-3.28,1.82-7.19,4.32-9.95s6.44-4.25,11.72-4.25c6.08,0,10.41,1.54,13.25,4.72a18.92,18.92,0,0,1,4.09,9.31Z"></path>
  <path class="cls-2" d="M176.48,93.07c0-13.34-10.93-18.19-20.3-18.3H137.77v36.41h21.34C171.93,111.17,176.48,101.42,176.48,93.07ZM141,78h15.13c4,0,17.06,1.27,17.06,15,0,3.48-1,14.85-14.11,14.85H141Z"></path>
  <path class="cls-2" d="M638.29,110.3c-6.25,0-10.87,1.75-14.13,5.32-3.56,3.93-4.91,9.55-5.41,13.59l-.23,1.83,40.82-.21-.22-1.8c-.43-3.75-1.66-9-5.16-12.93S645.34,110.3,638.29,110.3Zm-16,17.47c.6-3.29,1.81-7.2,4.32-10s6.44-4.25,11.72-4.25c6.07,0,10.41,1.54,13.25,4.72a19,19,0,0,1,4.1,9.31Z"></path>
  <path class="cls-2" d="M712.07,284.36l-.21-.14c-5.51-3.72-11-5.21-19.57-5.29h0a32.37,32.37,0,0,0-15.45,3.51c-4.49,2.31-5.15,4.83-5.21,7.05a3.18,3.18,0,0,0,1.48,2.57,28.44,28.44,0,0,0,7.61,4.29,103,103,0,0,0,12,3.23l.25.06,5.15,1.28,5.34,1.33a107.57,107.57,0,0,1,15.7,4.48l3.58,1.32-.51-4.48C720.76,290.37,718,288.49,712.07,284.36Zm-7.89,14.72-5.28-1.32c-1.43-.35-2.83-.69-5.16-1.28l-.31-.08a98.44,98.44,0,0,1-11.59-3.11,24.68,24.68,0,0,1-6.72-3.77,2.12,2.12,0,0,1-.25-.22c0-1,.31-2.35,3.47-4a29.07,29.07,0,0,1,13.93-3.15c7.87.08,12.85,1.41,17.77,4.73l.18.13c5.47,3.78,7.39,5.11,8.7,16.13A109.51,109.51,0,0,0,704.18,299.08Z"></path>
  <path class="cls-2" d="M746.48,323a38.56,38.56,0,0,0-10.34-11.08h8.55V299.51C759.91,276,767.86,250.87,767.86,225c0-58.05-39.93-112.37-112.44-153C583.9,32,488.93,10,388,10c-78.32,0-153,13.32-216,38l-116.5,0V73.69h9c14.88,0,19.17,5.22,19.34,8.21v14C34.74,132.81,8.14,177.66,8.14,225c0,37.29,16.51,73,47.53,104.61v52.06H85.4v-4.79a96.88,96.88,0,0,1,16.18,2.74l.5.1c4.36.77,8.72,1.48,13.35,2.16a119.18,119.18,0,0,0,14.22,1C200,419.79,291.27,440.05,388,440.05c96.44,0,187.42-20.14,257.72-56.86h11.09v-2.56a83.11,83.11,0,0,1,9.67,1.82l.54.11c3.32.59,6.68,1.12,10.29,1.66a96.89,96.89,0,0,0,12.54.78h0c16-.11,30-3.82,41.35-11,12.77-7.72,19.48-18.54,20-32.19v-.28a35.89,35.89,0,0,0-4.59-18.31ZM619,151.2c1.14,15.56,5.69,23.29,9.65,26.66a22.62,22.62,0,0,0,10.2,4.47c30.59,0,39.89-13.35,40-13.47l.29-.43c3.36-4.35,6.15-7.06,9.65-7.06a6.33,6.33,0,0,1,5,2.37c1.87,2.32,1.71,5.3,1.25,7.4l-.24.83c-12.42,32.51-56.75,34.19-58.63,34.25h-.17c-20,0-35.54-5.92-46.1-17.59-16.27-18-14.58-42.8-14.33-45.61.37-5.7,5.21-55.71,59.88-55.71,57.18,0,59.17,55.69,59.19,56.25l.12,5.88H618.85ZM87.11,176.61V81.8C87,79.9,85.38,70.43,64.52,70.43H58.77V51.15H182.41l.33,0c13.42,1.23,38.81,12.09,38.81,44.39v.22c-.51,14.75-13.63,42.63-59.72,42.63H137.6v38.49l.37.45c1.38,1.69,6.63,5.6,25.3,5.6H169v22.9H58.77V182.13l6.36.69s2.17.22,5.17.22C74.24,183,87.11,182.58,87.11,176.61Zm44.4,204.33,0-1.31a119.22,119.22,0,0,1-15.59-1c-4.58-.68-8.91-1.38-13.19-2.13l-.4-.09a92,92,0,0,0-18.51-2.89H82.15v4.86H58.92V319.84H81.14l.62,5c2.18,17.7,7.13,23.91,15.49,29.16,8.54,5.64,19.5,8.56,32.59,8.68,9,0,18.16-2.2,23.79-5.73,7.18-4.4,8.12-9.16,8.2-12.41a10.42,10.42,0,0,0-2.61-7.3,21.66,21.66,0,0,0-9.28-5.71l-.25-.09a107,107,0,0,0-15.48-4.67c-5.9-1.3-12.24-2.74-19-4.3a168.72,168.72,0,0,1-19.12-5.7,93.74,93.74,0,0,1-17.67-8.57,40.74,40.74,0,0,1-13.56-14.15c-3.6-5.87-5.43-13-5.43-21.08.43-15.75,8.64-28.15,23.76-35.86,13.8-7.28,29.58-11,46.89-11,10.8.12,19.91,1.15,27.06,3,6.61,1.81,11.35,2.7,14.52,2.71h.48l1.21-.07.28-1.19c.1-.48.21-1.08.28-1.5.11-.65.21-1.26.33-1.78l1.05-4.43h22v62.78H176.16l-.45-5.26c-1.56-18.31-10.39-24.45-17.5-29.39s-11.66-6.57-23.48-6.69h0a44.68,44.68,0,0,0-21.1,4.83c-6.81,3.54-7.71,7.83-7.79,10.8a6,6,0,0,0,2.65,4.92,38.18,38.18,0,0,0,10.45,5.89,136.75,136.75,0,0,0,16,4.32l14,3.51a136.52,136.52,0,0,1,20.35,5.81c1.51.53,3,1.12,4.51,1.76l2.48,1v0l3,1.57a70.29,70.29,0,0,1,7.76,4.67,44.26,44.26,0,0,1,13.56,13.91l.11.17a41.3,41.3,0,0,1,5.16,21v.22c-.54,15.72-8.35,28.26-23.25,37.3-14,8.88-31.24,13.46-51.11,13.59v1.31Zm41.09-98.71q-1.09-.44-2.19-.81a140,140,0,0,0-20.74-5.94l-14-3.5A134,134,0,0,1,120,267.77a34.72,34.72,0,0,1-9.54-5.38c-1.32-1-1.43-1.74-1.43-2.33.06-2.42.84-5.25,6.05-8a41.4,41.4,0,0,1,19.58-4.45c11.15.12,14.83,1.48,21.67,6.12,7.22,5,14.68,10.19,16.11,27ZM629.86,379C565,410.23,480.48,429.2,388,429.2c-90.28,0-173-18.09-237.2-48a90.08,90.08,0,0,0,33.53-12.41c15.87-9.62,24.21-23.07,24.79-40v-.28c0-8.58-1.88-16.19-5.61-22.63l-.14-.22a47.68,47.68,0,0,0-14.52-14.92c-.88-.61-1.78-1.2-2.7-1.79h14.44V219.69H172.74l-1.64,6.94c-.13.59-.26,1.27-.37,2a0,0,0,0,0,0,0A69.13,69.13,0,0,1,158,226.08c-7.43-2-16.81-3-27.89-3.16-17.86,0-34.15,3.82-48.41,11.34-16.22,8.27-25,21.65-25.51,38.71,0,8.75,2,16.44,5.89,22.79A44,44,0,0,0,76.71,311,96.39,96.39,0,0,0,95,319.87a170.5,170.5,0,0,0,19.49,5.8q10.16,2.37,19,4.31a103,103,0,0,1,15,4.55l.31.11a18.49,18.49,0,0,1,8,4.81,7.22,7.22,0,0,1,1.79,5.1c-.07,2.64-.89,6.13-6.66,9.67-5.17,3.23-13.63,5.24-22.07,5.24-12.44-.11-22.81-2.85-30.85-8.16-7.54-4.73-12-10.4-14-26.81l-1-7.91H58.25C33.15,289,19,257.91,19,225c0-42.84,24-82.62,64.9-115.49v67.1c0,1.11-4.65,3.18-13.56,3.18-2.78,0-4.8-.21-4.82-.21l-10-1.08v30.62H172.26V179.71h-9c-16,0-21.13-3-22.43-4.07v-34h21c48.57,0,62.43-29.93,63-45.79V95.6c0-26.21-15.6-39.27-29.46-44.66C251.45,31.85,317.42,20.8,388,20.8c110,0,208.81,26.76,276.48,69.11-7.77-3.6-17.32-5.85-29.13-5.85-57.63,0-62.73,52.75-63.12,58.72-.26,2.92-2,29,15.16,48.05,11.2,12.37,27.52,18.65,48.51,18.65h.26c2-.05,48.38-1.83,61.57-36.34l.39-1.3c.61-2.79.77-6.81-1.9-10.13a9.54,9.54,0,0,0-7.48-3.58c-4.83,0-8.26,3.19-12.22,8.33l-.42.6c-.08.11-6.76,9.24-27.5,11.52l-9.85.48-.22,0a12.07,12.07,0,0,1-7.66-3.6c-3.23-3.05-7.24-9.46-8.51-22.78H698l-.2-9.2c0-.4-.85-27.4-20.09-44.87C727.35,133.43,757,177.33,757,225c0,18.05-4.34,35.54-12.34,52.22V258.75H719.62l-1.07,4.53a62.18,62.18,0,0,1-7.94-1.75,91.67,91.67,0,0,0-21.82-2.47c-14,0-26.72,3-37.88,8.86-13.13,6.67-20.27,17.49-20.64,31.35a34.67,34.67,0,0,0,4.8,18.44A35.67,35.67,0,0,0,646.92,330l.41.26H629.86Zm118.08-37.3c-.42,12.45-6.61,22.37-18.4,29.5-10.91,6.88-24.26,10.42-39.67,10.52v1.63l0-1.63a91.6,91.6,0,0,1-12.08-.75c-3.55-.52-6.88-1.06-10.17-1.64l-.33-.07a79.26,79.26,0,0,0-11.94-2.06l-1.75-.13v2.84H633.11V333.52h17.35l.62,5.05c1.59,12.82,7.48,17.49,13.34,21.16,6.31,4.16,14.44,6.31,24.18,6.4,6.54,0,13.39-1.64,17.42-4.15,4.91-3,5.55-6.15,5.61-8.31a6.53,6.53,0,0,0-1.63-4.56,15,15,0,0,0-6.52-4l-.25-.1a81.93,81.93,0,0,0-11.63-3.49c-4.48-1-9.32-2.08-14.46-3.27a129.91,129.91,0,0,1-14.75-4.38,72.61,72.61,0,0,1-13.74-6.64A32.58,32.58,0,0,1,637.85,316a31.53,31.53,0,0,1-4.33-16.72c.34-12.55,6.86-22.41,18.88-28.51,10.71-5.64,23-8.49,36.37-8.49a89.11,89.11,0,0,1,21,2.35,53.79,53.79,0,0,0,9.94,2l1.37.08L722.2,262h19.24v46.68H724.76l5.08,3c1.06.63,2.1,1.29,3.13,2a35.28,35.28,0,0,1,10.75,11l.1.16A32.69,32.69,0,0,1,748,341.5Zm-94.18-7.93c2.4,1.16,4.92,2.22,7.52,3.17a132.34,132.34,0,0,0,15.12,4.49c5.17,1.19,10,2.29,14.5,3.27a77.54,77.54,0,0,1,11.18,3.37l.31.11a12.2,12.2,0,0,1,5.19,3.08,3.19,3.19,0,0,1,.8,2.35c0,1-.09,3.14-4.07,5.58-3.51,2.19-9.83,3.66-15.7,3.66-9.08-.08-16.62-2.05-22.43-5.88-5.66-3.54-10.46-7.4-11.87-18.82Z"></path>
  <path class="cls-2" d="M426.91,258.52c-21.07.14-37.8,5.77-49.67,16.7-12.83,11.3-19.34,26.61-19.34,45.52,0,18.76,6.43,34,19.09,45.18,12,11.3,28.81,17.11,49.91,17.26H427c21.38-.15,38.3-5.94,50.25-17.21,12.22-11.28,18.56-26.45,18.83-45.11v-.24c-.27-18.78-6.6-34-18.81-45.27C465.21,264.33,448.29,258.66,426.91,258.52Zm65.88,62.31c-.26,17.71-6.24,32.1-17.79,42.75-11.35,10.7-27.53,16.2-48.06,16.34v1.63l-.1-1.63c-20.18-.14-36.22-5.65-47.67-16.41-12-10.6-18-25-18-42.77,0-17.93,6.13-32.42,18.26-43.09,11.29-10.4,27.28-15.74,47.5-15.88,20.53.14,36.71,5.52,48.12,16,11.53,10.64,17.5,25.08,17.76,42.9Z"></path>
  <path class="cls-2" d="M442.12,288.21c-1.34-3.39-4.37-7.9-15.14-7.9-10.51,0-13.32,4.24-14.58,7.91-2.67,7.34-3.93,18.51-3.74,33.15-.19,14.83,1,26,3.69,33.23,1.3,3.85,4.14,8.28,14.63,8.28,10.75,0,13.79-4.63,15.18-8.21,2.26-7.31,3.31-18.45,3.12-33.07C445.47,306.84,444.42,295.64,442.12,288.21Zm-3,65.39c-1.16,3-3.51,6-12.12,6-8.77,0-10.56-3.13-11.57-6.1-2.51-6.88-3.68-17.68-3.5-32.15-.18-14.29,1-25.07,3.55-32.06.69-2,2-5.75,11.52-5.75,8.69,0,11,3.13,12.08,5.74,2.16,7,3.15,17.84,3,32.3C442.21,335.92,441.22,346.72,439.1,353.6Z"></path>
  <path class="cls-2" d="M64.52,199.57h98.74V188.18c-32.67,0-31.4-11.94-31.4-11.94V132.13h30c52.72,0,54-37.07,54-37.07,0-35.62-33.58-38.7-33.58-38.7H64.52v7.78c28.7,0,28.34,17.17,28.34,17.17v94.75c0,15-28.34,11.94-28.34,11.94ZM132,68.48h24.18s26,0,26,24c0,24.22-23.11,23.86-23.11,23.86H132Z"></path>
  <path class="cls-2" d="M307,192c-19.77,0-15.71-15.78-15.71-15.78V128.33c14.26-17.18,31.23-21.88,31.23-16.64s10.29,9.77,15.35,9.77,16.61-3.62,16.61-13.74-5.42-15.19-20-15.19-39.72,27.66-39.72,27.66h-3.61V92.71H239.63v7.23c18.23,0,19.68,11.39,19.68,11.39v65.09c0,18.63-19.86,15.74-19.86,15.74v7.41h67.7l-.18-.09Z"></path>
  <path class="cls-2" d="M405.54,72c12.71,0,23-6.94,23-15.5S418.25,41,405.54,41s-23,6.94-23,15.51S392.82,72,405.54,72Z"></path>
  <path class="cls-2" d="M429.73,176.79V92.71H374.85v7.41c17.15,0,15.7,8.86,15.7,8.86v67.27c0,17.54-16.24,15.36-16.24,15.36v7.6h71.85v-7.06C428.1,192.15,429.73,176.79,429.73,176.79Z"></path>
  <path class="cls-2" d="M513.49,199.93c42.43,0,44.4-32.09,44.4-32.09.21-9.79-2.53-3.79-2.7-3.17s-9.11,24-32.94,24-31.95-25.77-31.95-45,6.23-44.49,22.75-44.49,13.27,11.12,13.27,11.12c-4.88,2.45-6.51,11.13-4.07,17.9s31.41,16.82,31.41-9.22-40.08-26-40.08-26-56.32-.35-56.32,50.45C457.26,202.19,513.49,199.93,513.49,199.93Z"></path>
  <path class="cls-2" d="M635.35,92.53C583,92.53,581.19,143,581.19,143s-5.59,57,54.71,57c0,0,42.24-1.26,53.43-30.56,0,0,1.62-7.45-5.69,2,0,0-10.29,16.13-44.81,16.13,0,0-25.86,1.54-25.86-44.38h75.82S687.71,92.53,635.35,92.53ZM665,136l-52.13.27S609.58,104,638.29,104C668.75,104,665,136,665,136Z"></path>
  <path class="cls-2" d="M611.89,346.07s-10.29,16.14-44.82,16.14c0,0-25.86,1.54-25.86-44.39H617S616,267.2,563.6,267.2s-54.16,50.44-54.16,50.44-5.6,57,54.7,57c0,0,42.25-1.27,53.44-30.56C617.58,344,619.2,336.58,611.89,346.07Zm-45.36-67.4c30.46,0,26.67,32,26.67,32l-52.12.27S537.82,278.67,566.53,278.67Z"></path>
  <path class="cls-2" d="M200.13,328c0-7-1.45-13-4.39-18.09a38.79,38.79,0,0,0-11.91-12.21,69.56,69.56,0,0,0-16.58-8.39,129.69,129.69,0,0,0-19.62-5.59c-6.44-1.63-7.71-1.91-13.87-3.47a140.2,140.2,0,0,1-16.87-4.58A43.63,43.63,0,0,1,105,269a11.77,11.77,0,0,1-4.9-9.69c.19-6.77,3.78-12,10.84-15.67a50.18,50.18,0,0,1,23.86-5.5c12.43.12,18,1.81,26.72,7.72s18.21,13.35,19.94,33.62H191.6V228.16H179.86c-.7,3-.44,9-8.22,9-4,0-9.3-1.08-15.93-2.89s-15.27-2.74-25.59-2.86q-24.74,0-44.33,10.36c-13.4,6.83-20.22,17.08-20.6,30.68q0,10.72,4.63,18.18A34.72,34.72,0,0,0,81.5,302.82a87.22,87.22,0,0,0,16.58,8,160.25,160.25,0,0,0,18.45,5.5q10.08,2.34,19,4.3a113.36,113.36,0,0,1,16.3,4.92c5,1.75,8.92,4.16,11.68,7.29a16.31,16.31,0,0,1,4.11,11.38c-.19,7-3.79,12.71-10.89,17.06s-17.48,6.62-26.92,6.62q-21.38-.19-35.54-9.54c-9.72-6.1-15.79-14-18.17-33.34H64.66v47.07H76.41a3.74,3.74,0,0,1,2.38-3.65A10.83,10.83,0,0,1,84,367.26a96.64,96.64,0,0,1,19.66,3.05c4.16.73,8.46,1.43,13,2.1a113.32,113.32,0,0,0,14.85.92q28.31-.18,48.2-12.77C192.9,352.53,199.66,341.67,200.13,328Z"></path>
  <path class="cls-2" d="M729.77,317.94a53.78,53.78,0,0,0-12.65-6.38,100.65,100.65,0,0,0-15-4.25c-4.92-1.24-5.88-1.45-10.58-2.63a109.48,109.48,0,0,1-12.87-3.48,33.28,33.28,0,0,1-9.08-5.11,8.91,8.91,0,0,1-3.74-7.36c.14-5.15,2.88-9.14,8.27-11.92a38.39,38.39,0,0,1,18.2-4.18c9.48.1,16.14,1.83,22.8,6.33s11,7.47,12.79,23.43h7.76V267.21h-9c-.53,2.25-.34,4.72-6.27,4.69-3,0-7.09-.82-12.15-2.2a82.21,82.21,0,0,0-19.53-2.17q-18.85,0-33.81,7.88c-10.23,5.19-15.44,13-15.72,23.32a25.64,25.64,0,0,0,3.54,13.83,26.51,26.51,0,0,0,8.9,9.28A66.41,66.41,0,0,0,664.35,328a123.91,123.91,0,0,0,14.07,4.18c5.13,1.19,9.94,2.27,14.47,3.26a87.76,87.76,0,0,1,12.43,3.75,20.55,20.55,0,0,1,8.91,5.54,12.33,12.33,0,0,1,3.14,8.65c-.14,5.34-2.89,9.67-8.3,13s-13.34,5-20.54,5q-16.31-.15-27.12-7.25c-7.41-4.64-14.21-10.64-16-25.36h-6.52v34.91h8.95c0-1.3.61-1.34,1.83-1.9a8.31,8.31,0,0,1,4-.91,74.41,74.41,0,0,1,15,2.32c3.17.56,6.45,1.09,9.9,1.6a88,88,0,0,0,11.34.69q21.58-.13,36.77-9.71c10.08-6.09,15.25-14.35,15.6-24.75a26.87,26.87,0,0,0-3.35-13.75A29.4,29.4,0,0,0,729.77,317.94Z"></path>
  <path class="cls-2" d="M427,267q-28.2.19-43.8,14.47-16.29,14.34-16.28,38.75c0,16.17,5.42,29,16.25,38.6q15.6,14.64,43.75,14.83,28.68-.21,44.23-14.83c10.39-9.6,15.69-22.43,15.93-38.6q-.36-24.39-15.89-38.75T427,267Zm20.61,89.08q-4.51,12-20.61,12c-10.65,0-17.3-4-20-12q-4.36-12-4-35.12-.3-23.1,4-35.1c2.71-7.9,9.36-11.83,20-11.83s17.6,3.93,20.61,11.83q3.76,12,3.44,35.1Q451.32,344.07,447.58,356.06Z"></path>
  <path class="cls-2" d="M342.89,355.7V295.58c0-13.74-12.63-28.2-33.76-28.2s-42.6,19.71-42.6,19.71V228.32H211.64v11c22,0,20.32,11.53,20.32,11.53V355.43c0,15.05-16.34,12.12-16.34,12.12v6.14h67.56v-6.33c-17.31,0-15.88-11.66-15.88-11.66V295.22S279.48,283,295.73,283s15.39,17.72,15.39,17.72v54.79c0,13.2-16.16,11.75-16.16,11.75v6.06h63.78V367C342.22,367,342.89,355.7,342.89,355.7Z"></path>
  <path class="cls-2" d="M708.15,227.61h2.55c3,0,4.4,1.14,4.82,3.7.71,2.7,1.14,4.83,1.85,5.68h5.81c-.56-.85-1-2.27-1.7-5.82-.71-3.12-2-4.83-4.26-5.69v-.28c2.84-.85,4.83-2.84,4.83-5.4a6.44,6.44,0,0,0-2.27-5.11c-1.71-1-3.69-1.71-8.09-1.71a47.63,47.63,0,0,0-8.94.71V237h5.4Zm.14-10.51a13.09,13.09,0,0,1,3-.28c3.4,0,5,1.42,5,3.55,0,2.42-2.41,3.41-5.39,3.41h-2.55Z"></path>
  <path class="cls-2" d="M711.83,248.36a23.4,23.4,0,0,0,23.84-23.58c0-12.94-10.36-23.31-23.84-23.31s-24,10.37-24,23.31A23.6,23.6,0,0,0,711.83,248.36Zm0-42.2c10.36,0,17.88,8.38,17.88,18.76s-7.52,18.47-17.73,18.47c-10.51,0-18.16-8.24-18.16-18.61S701.47,206.16,711.83,206.16Z"></path>
  <path class="cls-2" d="M351.88,356.48V296.13c0-18.3-16-37.22-42.75-37.22-12.55,0-24.83,5.66-33.61,11v-50H202.65V248.9h9c7.78,0,10.8,1.72,11.31,2.19V356c0,2.28,0,3.33-4.2,3.33a12.37,12.37,0,0,1-1.6-.1l-10.54-1.89v25.92H367.73V358.49h-9C354.33,358.49,352,357.42,351.88,356.48ZM364.48,380H291V362.14l4.55-.05s.36,0,.8,0c6,0,9-2,9-6.05V301c.05-1.67-.39-6.6-3-9.34-.56-.57-2.24-2.32-6.61-2.32-9.76,0-18,5.36-22.07,8.55l-.62.49v58.33l-.05.11,0,.41a4.19,4.19,0,0,0,1.12,2.52c.89.91,3.24,2.43,9,2.43h4V380H209.88V361.21l6.83,1.22a14.83,14.83,0,0,0,2,.13c6.88,0,7.45-3.39,7.45-6.58V251l0-.31-.07-.3c-.53-2.19-4.66-4.75-14.53-4.75H205.9V223.11h66.37v52.73l2.51-1.62c8.49-5.5,21.34-12.06,34.35-12.06,24.73,0,39.51,17.27,39.51,34v60.46c.1,1.55,1.3,5.15,10.1,5.15h5.74ZM286,358.9h-2.79c-5.13,0-6.55-1.3-6.69-1.45a.78.78,0,0,1-.2-.38V299.93c3.9-2.95,11.12-7.36,19.44-7.36,3,0,4,1,4.28,1.33,1.7,1.76,2.17,5.52,2.13,6.94v55.22c0,.91,0,2.8-5.79,2.8h-.58Z"></path>
</svg>
