<?xml version="1.0" encoding="UTF-8"?>
<svg xmlns="http://www.w3.org/2000/svg" id="Capa_1" data-name="Capa 1" viewBox="0 0 882 132">
  <defs>
    <style>.cls-1{fill:#4d4d4d;}</style>
  </defs>
  <path class="cls-1" d="M157.8,31.57c1.62-5,5.21-7.74,10.54-8,1.26-.06,1.65-.69,1.65-1.86,0-3.2,0-6.39,0-9.59,0-3.45,0-3.45-3.43-3.44l-37.65.09c-2,0-2,0-1.92,2,.09,3.55.23,7.1.25,10.66,0,1.41.45,1.84,1.91,1.95a33.08,33.08,0,0,1,7,1.2c2.19.65,3,2.06,2.79,4.31a43.2,43.2,0,0,1-1.11,6.89q-7.44,28.15-15,56.26c-.1.37-.27.71-.46,1.21a5.38,5.38,0,0,1-2.09-3.54c-3.73-15.26-7.5-30.52-11.18-45.79-1.12-4.62-2.13-9.28-3-14-.61-3.38,1-5.63,4.4-6.32a26.06,26.06,0,0,1,5-.52c1.45,0,2-.57,2-2,.07-3.55.19-7.1.41-10.65.09-1.38-.38-1.73-1.7-1.72-7.06.06-14.13,0-21.19.06-10,0-20,.1-30,.1-1.3,0-1.79.32-1.74,1.7.12,2.84.05,5.69.1,8.53.08,4.28-.62,3.21,3.37,4.66,2.45.89,5.08,1.67,6.57,3.91,4.43,6.64,6.91,13.78,4.45,21.83C75.92,55.32,74,61.1,72.15,66.89q-3.95,12.3-7.91,24.59a14.79,14.79,0,0,1-.93,1.87l-.45-.11c-.2-.55-.44-1.09-.6-1.66Q56.79,71.65,51.35,51.7C49.51,45,47.76,38.18,46,31.41c-1-4,.4-6.35,4.46-7.24a22.15,22.15,0,0,1,3.62-.47c1.38-.07,1.83-.73,1.82-2,0-3.6,0-7.21,0-10.81,0-2-.06-2.08-2-2.07l-19.51.13C24.57,9,14.76,9,5,9c-1.29,0-1.81.33-1.78,1.71.08,3.45.06,6.9,0,10.35A2.54,2.54,0,0,0,5.39,24a12.79,12.79,0,0,1,8.42,6.29,32.81,32.81,0,0,1,3.13,7.38Q28.71,80.44,40.3,123.29c.6,2.21.63,2.25,2.87,2.24,9.31,0,18.6-.07,27.9,0a2.44,2.44,0,0,0,2.83-2.13q6.3-21.92,12.75-43.78c.18-.62.45-1.2.68-1.79h.49c.26.74.56,1.47.77,2.24q6.06,21.66,12.06,43.35a2.51,2.51,0,0,0,2.88,2.18c8.84-.12,17.68-.14,26.52-.2,2,0,2.44-.31,3-2.29,6.12-23.44,12.18-46.89,18.4-70.3C153.3,45.67,155.5,38.6,157.8,31.57Z"></path>
  <path class="cls-1" d="M532.24,55.61a1.54,1.54,0,0,0,1.51-1.72c.07-3.24.15-6.49.34-9.73.07-1.32-.42-1.64-1.64-1.62-5.9.07-11.79.07-17.69.12L498,42.8c-.74,0-1.4-.06-1.4,1.05,0,3.55-.05,7.11-.11,10.66,0,.94.35,1.38,1.32,1.44,2.13.12,4.26.38,6.38.47,1.16,0,1.77.46,1.58,1.64a50.19,50.19,0,0,1-1.14,6.25c-2.86,9.45-5.85,18.87-8.77,28.31-1,3.29-1.93,6.61-2.95,9.9-.13.41-.62.69-.93,1-.3-.32-.71-.58-.86-1a37.58,37.58,0,0,1-1.3-3.88c-2.67-10.09-5.39-20.17-7.93-30.29-.78-3.13-1.11-6.37-1.6-9.56-.19-1.17.34-1.74,1.59-1.85,2-.18,3.92-.55,5.88-.79,1.07-.13,1.46-.68,1.48-1.72.08-3.35.15-6.7.35-10,.09-1.39-.39-1.71-1.7-1.7-6.61.06-13.21,0-19.82,0q-12.27,0-24.54-.05c-.91,0-1.46.24-1.47,1.26,0,3.55-.07,7.1-.17,10.65,0,1.54.69,1.87,2.07,1.75,1.82-.16,3.66-.13,5.48-.24,1-.06,1.41.36,1.51,1.38a25,25,0,0,1-1.39,10.17c-3.13,10-6.15,20-9.24,30.07a36.25,36.25,0,0,1-1.65,4.39c-.24.52-.88.86-1.33,1.28a7.94,7.94,0,0,1-.8-1.56q-5-19.35-9.87-38.74a18.25,18.25,0,0,1-.27-4.06,1.85,1.85,0,0,1,1.7-2,39.38,39.38,0,0,1,4.95-.62c1.37,0,1.93-.48,1.91-1.87,0-3.35-.08-6.7,0-10,0-1.42-.41-1.79-1.79-1.78-7.37.06-14.73,0-22.1,0v.3c-7.47,0-14.94,0-22.41,0-1.37,0-1.93.4-1.85,1.83.1,1.87,0,3.75.05,5.63.08,5.66-.72,4.86,4.9,6.22a10.16,10.16,0,0,1,7.36,6.21,23.82,23.82,0,0,1,1.14,3.3q7.64,28.4,15.21,56.83c.4,1.52,1.1,2,2.65,1.94q13.64-.21,27.27-.21a2.06,2.06,0,0,0,2.3-1.68c.8-2.61,1.73-5.19,2.48-7.82,2.77-9.86,5.49-19.73,8.27-29.58a5.43,5.43,0,0,1,1-1.47,5.54,5.54,0,0,1,1.07,1.33c.59,1.56,1.11,3.15,1.58,4.76q4.78,16.17,9.5,32.38a2,2,0,0,0,2.33,1.7c8.59,0,17.18,0,25.77,0,2.45,0,2.7-.18,3.4-2.56q6.47-22.09,12.93-44.2c1.41-4.82,2.9-9.61,4.43-14.38a9.74,9.74,0,0,1,7.71-6.81C529.56,56.16,530.89,55.82,532.24,55.61Z"></path>
  <path class="cls-1" d="M876.75,110.34c-2,0-3.89.1-5.74,0-4.53-.28-6-1.92-6-6.41,0-11.93,0-23.86-.13-35.79a56.62,56.62,0,0,0-1.24-11C861.85,49,857,43.66,848.79,41.69a42.83,42.83,0,0,0-15.87-.95c-6.76.92-12.85,3.31-17.78,8.23-1.39,1.39-2.88,2.71-4.35,4a16.64,16.64,0,0,1-1.63,1.09,11.58,11.58,0,0,1-.2-1.71c.19-5.07.52-10.14.58-15.22.12-9.23.08-18.48.12-27.71,0-.93-.29-1.38-1.33-1.38q-18.68,0-37.35,0c-.91,0-1.28.31-1.28,1.23,0,3.85,0,7.71-.08,11.57,0,1.15.5,1.48,1.59,1.44,1.88-.07,3.76,0,5.64,0,3.69,0,5.13,1.52,5.12,5.23q-.11,38.76-.22,77.52c0,2.77-.93,4.19-3.69,4.77a40.77,40.77,0,0,1-6.64.58c-1,0-1.52.39-1.55,1.41-.1,3.71-.2,7.41-.33,11.12,0,1,.38,1.44,1.43,1.44q23.87,0,47.72,0c1.08,0,1.4-.42,1.39-1.45-.05-2.89,0-5.79,0-8.68,0-3.53,0-3.53-3.52-3.95-4.77-.57-6.61-2.68-6.51-7.41.2-9.59.31-19.18.63-28.77a42.72,42.72,0,0,1,1.25-8.86c1.13-4.5,3.79-8,8.57-8.94a24.39,24.39,0,0,1,7.39-.13,7.81,7.81,0,0,1,6.83,5.55,22.67,22.67,0,0,1,1.18,6.69c.21,11.51.27,23,.34,34.56a23.3,23.3,0,0,1-.28,3.64c-.31,2.12-1.16,2.91-3.25,3.19-1.71.23-3.42.49-5.14.66-1.09.11-1.61.52-1.59,1.72.07,3.5.06,7,0,10.51,0,1.21.38,1.71,1.67,1.71q23.72-.07,47.42,0c1.37,0,1.74-.52,1.73-1.81-.05-3.6,0-7.21,0-10.81C876.84,111.26,876.78,110.77,876.75,110.34Z"></path>
  <path class="cls-1" d="M346,73.3c-2.34-12.15-9-21.07-19.67-27.16-8.36-4.79-17.52-6.13-27-6.27,0-.13,0-.26-.05-.39-5.17.71-10.45,1-15.48,2.21-14.15,3.54-24.52,11.75-29.38,25.84-3.36,9.75-3.32,19.77-1,29.72,3.39,14.28,12.95,23.06,26.38,27.67,11.56,4,23.46,3.68,35.32,1,12.73-2.85,21.67-10.49,27.43-22C347.55,94.23,348.05,83.91,346,73.3ZM313.9,101.62c-1.53,5.92-4.88,10.23-11.28,11.06a26.16,26.16,0,0,1-8.28-.32c-4-.78-6.6-3.56-8.23-7.25a35.85,35.85,0,0,1-2.62-13.19c-.24-5.61-.31-11.25,0-16.85a52.65,52.65,0,0,1,1.88-10.75c1.48-5.56,6-9,12-9.32a26.62,26.62,0,0,1,7.25.43c5.47,1.29,8.1,5.37,9.32,10.54a23.58,23.58,0,0,1,.6,3.44c.46,5,.86,10.09,1.27,15.13C315.5,90.3,315.33,96,313.9,101.62Z"></path>
  <path class="cls-1" d="M619.58,66.4a36.89,36.89,0,0,0-22.76-23.24,59.64,59.64,0,0,0-42-.49,37,37,0,0,0-21.6,19c-6.17,12.27-6.54,24.87-2.59,37.85,3.34,10.93,10.27,18.57,20.68,23.15a57.09,57.09,0,0,0,23.43,4.55l.06.41c5.07-.67,10.21-1,15.19-2.09,14.55-3.19,25-11.47,29.83-25.81A50.09,50.09,0,0,0,619.58,66.4Zm-30,34.52c-1.46,8.08-6.26,11.68-14.48,11.44a25.12,25.12,0,0,1-5.27-.6c-5.35-1.35-7.78-5.4-8.9-10.35-1.79-7.88-1.88-15.9-1.38-23.91a98.73,98.73,0,0,1,1.29-10.71c1.54-8.9,5.71-12.41,14.73-12.48a21.63,21.63,0,0,1,5.25.65,10.58,10.58,0,0,1,8,7.38c1.61,4.78,2,9.72,2.28,14.67.14,2.12,0,4.26,0,6.39l.59.06C591,89.28,590.63,95.16,589.59,100.92Z"></path>
  <path class="cls-1" d="M220,44c-13.13-5.22-26.6-5.36-40-1.5-13,3.75-21.84,12.28-26.48,25a50.18,50.18,0,0,0-2.34,23.85c1.95,15.45,10.17,26.31,24.32,32.64,7,3.14,14.61,3.66,21.57,3.8A63.59,63.59,0,0,0,217.29,125c13.2-4.32,22.37-12.67,26-26.39A57.75,57.75,0,0,0,244.68,77C242.88,61.2,234.87,50,220,44Zm-7.65,58.12c-.87,4.79-3.56,8.65-8.58,10.18a20.81,20.81,0,0,1-10.68.44,11.3,11.3,0,0,1-8.16-6.91,31,31,0,0,1-2.65-11.64c-.18-6.54-.35-13.1,0-19.62a47.76,47.76,0,0,1,2.43-11.38c1.65-5.17,5.55-7.86,10.94-8.24a26.16,26.16,0,0,1,6.5.15c5.41,1,8.51,4.6,9.94,9.75,1.7,6.12,1.94,12.4,2,18.69l.42,0C213.83,89.81,213.42,96.05,212.31,102.16Z"></path>
  <path class="cls-1" d="M766.86,85.55c-3.51,0-7,0-10.52-.06-1.42,0-1.83.46-1.83,1.85,0,5.18,0,10.35-.25,15.52a18.75,18.75,0,0,1-1,5.19A5.34,5.34,0,0,1,748,112c-2.91.06-5.06-1.09-6-3.79A21.67,21.67,0,0,1,741,101.8c-.13-7-.05-13.9-.05-20.86h.47V58.55c0-2.6,0-2.48,2.67-2.35,5.53.26,11.07.37,16.6.58,1.13,0,1.5-.37,1.49-1.49,0-3.71-.06-7.42,0-11.12,0-1.15-.34-1.49-1.47-1.47-5.69.07-11.39.06-17.08.1-2.33,0-2.42,0-2.4-2.35.09-9.34.15-18.68.27-28,0-1.25-.31-1.66-1.6-1.65-4.83.08-9.66.08-14.49,0-1.18,0-1.53.39-1.65,1.56a71.14,71.14,0,0,1-1.23,8.87c-2.55,11.07-8.16,19.52-20,22.32-.88.21-1.09.75-1.06,1.56.13,3.24.24,6.49.3,9.74,0,1.17.48,1.63,1.66,1.6,2.53-.06,5.08,0,7.62,0,2.08,0,2.06,0,2.06,2.11q0,21.71,0,43.4a32.55,32.55,0,0,0,3,14.17,17.93,17.93,0,0,0,12.2,10.15,43.55,43.55,0,0,0,15.1,1.39,48.22,48.22,0,0,0,10.13-1.93c7-2.28,10.94-7.61,13-14.42,2.48-8.06,2.16-16.34,1.84-24.62C768.43,85.58,767.66,85.55,766.86,85.55Z"></path>
  <path class="cls-1" d="M395,110.57c-3-.07-6-.4-9.05-.72-1.19-.12-1.64-.94-1.64-2.16,0-3.65-.18-7.3-.17-11q.08-43,.18-86V8.51c-.46,0-.65-.1-.86-.1-13.25,0-26.51,0-39.77,0-1.14,0-1.36.49-1.35,1.47,0,3.71,0,7.42,0,11.12,0,2,.17,2,2.11,2,2.68-.08,5.36,0,8.05,0,1.09,0,1.79.43,1.81,1.72,0,1.87.25,3.74.25,5.62q0,35.55,0,71.1c0,2.37-.41,4.74-.6,7.11-.12,1.42-1,1.87-2.26,1.91-2.48.07-5,.29-7.45.28-1.41,0-1.88.53-1.88,1.88,0,3.65,0,7.31-.12,11,0,1.23.36,1.55,1.55,1.54,6.55-.06,13.11,0,19.66-.06,10.57,0,21.14-.06,31.7,0,1.33,0,1.78-.43,1.76-1.76-.07-3.6-.08-7.21,0-10.81C397,110.91,396.45,110.61,395,110.57Z"></path>
  <path class="cls-1" d="M688.35,41.73A24.55,24.55,0,0,0,674,40.87c-5,1.08-8.83,4.18-12.56,7.43-.63.55-1.3,1.08-1.94,1.62l-.61-.18c0-1.65,0-3.31,0-5,0-2-.05-2-2-2l-21.34-.12c-5.33,0-10.67,0-16-.07-1,0-1.69.11-1.62,1.39.19,3.64.32,7.3.48,11,0,1.09.57,1.42,1.67,1.41a39.93,39.93,0,0,1,6.38.26c4.2.62,5.16,1.79,5.18,6q.06,20.87,0,41.73c0,3.73-1.45,5.42-5.17,5.79-2.16.21-4.36.2-6.54.22-1,0-1.44.32-1.46,1.4,0,3.75-.14,7.51-.27,11.26,0,1.09.37,1.39,1.42,1.39q27.12,0,54.27,0c1.07,0,1.4-.37,1.39-1.41,0-3.66,0-7.31,0-11,0-2,0-1.85-1.93-1.86-3.09,0-6.18,0-9.25-.33-2-.19-3-1.42-3.26-3.44a15.11,15.11,0,0,1-.15-2.12c0-9.45-.09-18.89,0-28.33a61.66,61.66,0,0,1,.88-9.68,22.36,22.36,0,0,1,5.21-11.49A10,10,0,0,1,678.14,52c.43.16,1.1.61,1.07.85a2.21,2.21,0,0,1-.88,1.23,16.29,16.29,0,0,1-2.07,1.29c-6.39,3.6-6,12.33-2,16.52,6.61,7.09,19.64,4.82,23.52-4.21A20.59,20.59,0,0,0,699,56.46C698.07,49.66,695.06,44.34,688.35,41.73Z"></path>
</svg>
