<?xml version="1.0" encoding="UTF-8"?>
<svg xmlns="http://www.w3.org/2000/svg" id="Capa_1" data-name="Capa 1" viewBox="0 0 912 162">
  <defs>
    <style>.cls-1{fill:none;}.cls-2{fill:#999;}.cls-3{fill:#333;}</style>
  </defs>
  <path class="cls-1" d="M581.76,53.6c-1-1.3-3.13-1.93-6.3-1.92a13.91,13.91,0,0,0-7.74,2,12.81,12.81,0,0,0-4.36,6.49l-3.26,9.17,18.3-.11,3.22-9.15a10.26,10.26,0,0,0,.78-4.81l0-.26A2.79,2.79,0,0,0,581.76,53.6Z"></path>
  <path class="cls-1" d="M301.81,52.94c-5.54,1.88-8.25,10.68-11.1,17.79L277.46,108.8c-1.08,3-1.11,5.24-.18,6.55s3.07,1.91,6.34,1.9,5.81-.67,7.68-2,3.31-3.52,4.41-6.56L312.58,60.2c1.06-3,1.06-5.13.13-6.46C311.11,51.5,306.51,51.29,301.81,52.94Z"></path>
  <path class="cls-1" d="M168.17,118a11.3,11.3,0,0,0,6.85-2,12.38,12.38,0,0,0,4.1-6l17.42-49.8c.93-2.66,1-4.61.05-5.88s-2.75-1.9-5.47-1.88a11.62,11.62,0,0,0-8.52,3.46c-2.25,2.31-4.5,6.55-6.67,12.72L164.26,102c-2.16,6.1-2.88,10.33-2.19,12.6S164.74,118,168.17,118Z"></path>
  <polygon class="cls-2" points="155.29 8.92 188.97 24.33 194.37 8.78 155.29 8.92"></polygon>
  <path class="cls-3" d="M839.27,102.23l-36.19.19-2.37,6.77q-4.61,13.11,4.67,20.45t30,7.25c14.75-.06,27.39-2.74,37.82-8s17.26-12.36,20.35-21.22c2.08-5.9,1.95-11-.35-15.48s-7.62-9.43-16.07-15q-2.56-1.78-7.37-4.83-15.36-9.81-13.46-15.19a9,9,0,0,1,4.13-4.76,13,13,0,0,1,6.77-1.92c3,0,4.94.7,5.76,2.13s.73,3.7-.37,6.84L871,63.86l36-.2,1.58-4.52c3-8.64,1.63-15.36-4.14-20.11s-15.6-7.1-29.25-7q-21.24.11-36.54,7.93c-10.19,5.26-16.87,12.28-19.93,21-3.59,10.22,3.08,20.85,19.88,32,2.49,1.6,4.43,2.9,5.8,3.77a6.19,6.19,0,0,0,1.1.78c7.17,4.84,10.16,8.91,9,12.31a11.47,11.47,0,0,1-4.46,5.8,12.88,12.88,0,0,1-7.25,2.2c-2.9,0-4.84-.81-5.8-2.48s-.85-4.07.29-7.25Z"></path>
  <path class="cls-3" d="M145.67,155l10-28.47a21,21,0,0,0,9.77,8.79,37.3,37.3,0,0,0,15.66,2.92c9.69-.06,17.73-2.18,24-6.42s11-10.6,13.93-19l19.56-55.87c3-8.44,2.72-14.7-.62-18.79s-9.94-6.16-19.71-6.1A55.48,55.48,0,0,0,199,35.65a52.46,52.46,0,0,0-16.62,10L187,32.05l-38.68.21-43,123Zm18.59-53,11.67-33.4c2.17-6.17,4.42-10.41,6.67-12.72a11.62,11.62,0,0,1,8.52-3.46c2.72,0,4.56.62,5.47,1.88s.88,3.22-.05,5.88L179.12,110a12.38,12.38,0,0,1-4.1,6,11.3,11.3,0,0,1-6.85,2c-3.43,0-5.43-1.11-6.1-3.38S162.1,108.11,164.26,102Z"></path>
  <path class="cls-3" d="M99.22,8.86,86.7,44.5A20.69,20.69,0,0,0,77,35.77a37.46,37.46,0,0,0-15.64-2.91c-9.76,0-17.76,2.19-24,6.32A33.58,33.58,0,0,0,25.7,52.77l48.6-.24c3.5,0,5.55,1.13,6.17,3.3s-.15,6.89-2.37,13.29L66.46,102.35c-2.22,6.27-4.43,10.55-6.62,12.76a11.53,11.53,0,0,1-8.43,3.35c-2.78,0-4.63-.64-5.51-1.88s-.82-3.23.07-5.9L60.36,69.31,25.2,53.9a35.94,35.94,0,0,0-1.72,4.17L3.92,113.92c-3,8.45-2.75,14.75.58,19s9.88,6.24,19.69,6.19a54.86,54.86,0,0,0,19.12-3.6,54.33,54.33,0,0,0,16.78-10l-4,11.49,38.67-.21L139.58,8.86Z"></path>
  <path class="cls-3" d="M493.89,69.81,460.2,55,442,107.19c-4.42,12.52-4.76,20.6-1.18,24.34s12,5.57,25.28,5.5c2.71,0,5.41-.13,8.15-.33s5.54-.45,8.26-.81l7.06-20.1h-1c-3.52,0-6-.4-7.54-1.31a3,3,0,0,1-1.32-4Z"></path>
  <path class="cls-3" d="M380.75,32.26,344.22,136.9h40.3l21.89-62.81c2.57-7.39,6.34-12.49,11.31-15.35s12.34-4.31,22.19-4.44l10.57,0,0,0,10-.05L499.46,54l11.76-.06,7.61-21.27-11,.06L514.51,13l-39.67.21-6.7,19.7-10,.09L447,33c-5.89.17-11,.44-16.93,3.21-6.37,2.92-11.87,8-17.44,14.24L419,32.05Z"></path>
  <path class="cls-3" d="M650.2,32.64l-7.53,21.45L642,56l-.87,2.48L613.67,136.9H654l23-65.63,5.81-16.08,9.85-.08c2.82,0,4.67.64,5.59,2s.94,3.35,0,6L672.43,136.9H712.8l28-80c3-8.4,2.76-14.74-.66-18.83s-9.94-6.18-19.72-6.12a55.2,55.2,0,0,0-19.51,3.73,56.65,56.65,0,0,0-17.25,10.48l4.85-13.7Z"></path>
  <polygon class="cls-3" points="734.4 134.2 733.47 136.9 773.17 136.9 774.19 133.99 802.36 52.82 762.76 53.21 734.4 134.2"></polygon>
  <polygon class="cls-3" points="768.87 35.74 766.18 43.45 805.92 43.25 811.43 27.5 812.12 25.59 772.34 25.8 768.87 35.74"></polygon>
  <path class="cls-3" d="M582.37,31.94c-16.87.09-30.32,2.81-40.45,8.14a42.49,42.49,0,0,0-20.87,24.15l-14.29,40.84q-5.67,16.19,4,24.08t34.88,7.75q25.29-.12,40.59-8.2a42.31,42.31,0,0,0,21-24.15l1.54-3.56-41.17.21-2.91,7.37a13.2,13.2,0,0,1-4.41,6.62,13.47,13.47,0,0,1-7.74,2c-3.3,0-5.39-.62-6.35-1.94s-.87-3.47.21-6.57l7.16-20.51L613,87.84l5.79-16.47,0-.19c4-10.88,4.57-15.6,4.66-16.35.47-6.41-1.56-11.42-6.11-15.12C610.85,34.45,599.22,31.86,582.37,31.94Zm-.75,28.18-3.22,9.15-18.3.11,3.26-9.17a12.81,12.81,0,0,1,4.36-6.49,13.91,13.91,0,0,1,7.74-2c3.17,0,5.29.62,6.3,1.92a2.79,2.79,0,0,1,.59,1.45l0,.26A10.26,10.26,0,0,1,581.62,60.12Z"></path>
  <path class="cls-3" d="M348.25,39.75A27.92,27.92,0,0,0,338.92,35a67.56,67.56,0,0,0-15.38-2.67l-1.21-.09H322c-2.58-.14-5.34-.23-8.25-.22h-.35a110,110,0,0,0-27.57,3.23A60.78,60.78,0,0,0,273,40.14a42.51,42.51,0,0,0-14.28,11.92,54.85,54.85,0,0,0-6.53,12.15L238,105.14c-3.78,10.8-2.45,18.77,3.94,24.06s17.95,7.8,34.8,7.7,30.26-2.78,40.44-8.14a42.23,42.23,0,0,0,20.94-24.14l14.2-40.92Q358,47.64,348.25,39.75ZM312.58,60.2l-16.87,48.51c-1.1,3-2.56,5.25-4.41,6.56s-4.41,2-7.68,2-5.4-.61-6.34-1.9-.9-3.5.18-6.55l13.25-38.07c2.85-7.11,5.56-15.91,11.1-17.79,4.7-1.65,9.3-1.44,10.9.8C313.64,55.07,313.64,57.22,312.58,60.2Z"></path>
</svg>
