<?xml version="1.0" encoding="UTF-8"?>
<svg xmlns="http://www.w3.org/2000/svg" id="Capa_1" data-name="Capa 1" viewBox="0 0 935 417">
  <defs>
    <style>.cls-1{fill:none;}.cls-2{fill:#4d4d4d;}</style>
  </defs>
  <path class="cls-1" d="M547.82,210.54c2.69-1,5.1-2.28,8.23-2,1.66.14,4.41,3.35,5.62,0,2.34,0,3.11,1.51,5.8,1,1.25-.26,1.19-1.13,2.53-1.46a17.71,17.71,0,0,1,3.64,0,23.92,23.92,0,0,1,3.69,0c1,.15,2.22,1.18,2.91,1.11,3-.4,2-1.68,5-.72,1.16.34.93,1.55,2.65,1.46s1-1.7,2.08-2c2.83-.67,3.12,1.41,4.84,2,2.71.77,1.74-.39,4.37-1.4a6.43,6.43,0,0,1,4.64.11c6.18-11.34,9.86-20,9.86-20,5.1-11.33-5.84-15.69-5.84-15.69,4,24.11-9.15,26.28-9.15,26.28,13.9-26.28-16.05-34.3-16.05-34.3,20.08-1.84,23.75-16.45,23.75-16.45,3.27-11.28-15-20.44-15-20.44l-5.82,8.41c2.52,1.81,5.09,6.2,5.09,6.2,3.63,12.76-12.79,13.51-12.79,13.51l-4.38,8L567,158.34c-17.52,0-16.07-8.42-16.07-8.42-1.07-5.08,4.38-9.11,4.38-9.11L548.33,135c-9.47,3.29-12,14.63-12,14.63-2.19,17.14,24.48,17.51,24.48,17.51-14.61,9.14-5.14,35.42-5.14,35.42-11.69-3.64-10.21-21.91-10.21-21.91-6.21,8.77-4,16.81-4,16.81A134.84,134.84,0,0,0,547.82,210.54Zm46.9-72.64c7.29,2.16,6.55,9.83,6.55,9.83-.34,7.66-10.56,8-10.56,8C600.93,149.2,594.72,137.9,594.72,137.9Zm-2.55,59.64c-.79,1.33-5.56,3-6.41,1C584.13,194.61,594.72,193.15,592.17,197.54ZM580.9,176.63c1,0,1.84.34,2.78.31s1.52-.58,2.33-.71c.29-.06,2.4.06,2.45.43C588.81,180.14,579.57,181.31,580.9,176.63Zm-2.43,11.64c1.25.09,4.69,1.06,3.44,3.07-.84,1.31-3.68.79-5,.95s-3.06,1-2.85-1.27C574.27,189,576.75,188.12,578.47,188.27Zm-37.42-35.42s-1.49-8,5.12-9.86c0,0-4.75,13.87,9.1,18.25C555.27,161.24,545.07,162.71,541.05,152.85Zm22,25.24c.94-.05,1.83.32,2.75.29s1.54-.57,2.34-.68c.29,0,2.4,0,2.45.41C570.94,181.6,561.69,182.76,563,178.09Zm-3.13,18c.49-.62,2.62,0,3.25,0,1.6.1,6.72-.54,6,2.34-.6,2.43-7.06,2.37-8.57,1C560.1,199,559.31,196.76,559.89,196.09Z"></path>
  <path class="cls-1" d="M356.77,148.83l-2.55-6.2c-4,0-4,4-4,4C350.57,151,356.77,148.83,356.77,148.83Z"></path>
  <path class="cls-1" d="M493.93,74.7c-19,8.76-43.8-1.94-43.8-1.94l19,33.61Z"></path>
  <path class="cls-1" d="M459.26,101.72,452.2,90.87c-6.51,1.64-4.89,8.16-4.89,8.16C448.42,106.63,459.26,101.72,459.26,101.72Z"></path>
  <path class="cls-1" d="M441.37,203.49s2.18,2.19,5.35,0c0,0,2.91-3.43,5.38,0,0,0,1.82,3.44,3.88,1.72,4.87-4.16,7-1.65,8,1.72,0,0,2.18,5.54,5.55,5.54,0,0,3.7,0,4.66-7.52,0,0,2.17-7.07,9.26-4.16,0,0,3.39,2.43,8.49-.47,0,0,2.68-2.44,5.61.73,0,0,3.65.71,6.1-.73,0,0,5.84-2.57,9.12,3.72,8-16.47,15.63-41.08-.83-54.84,0,0,8.74,32.13-13.66,46.23,0,0,20-45.75-15.08-62.78,0,0,38.45-.48,41.84-29.21,0,0,3.43-19-18-30.18l-8.27,9.26s8.75,15.08,1.44,21.9c0,0-7.8,11.67-24.82,4.86l-8.27,14.57-6.34-13.12s-24.32,5.86-23.35-19c0,0,.46-6.81,8.24-10.2L435.52,71.31s-22.41,7.29-20,31.17c0,0,2.42,26.75,39.93,26.75,0,0-38.94,21.91-17.05,66.71,0,0-20.46-14.11-11.71-45.3,0,0-11.66,6.36-10.2,27.27,0,0-.61,12.75,11.52,30C431.45,204.65,436.51,201.19,441.37,203.49Zm55.76-32.42c3.17,3.48-5.79,4.19-7.06,4.19-2.07,0-6.09.22-5.4-2.92.58-2.63,3.71-.9,5.36-.74C492.1,171.83,495.49,169.3,497.13,171.07Zm9.45-86.6c12.21,4.86,6.84,25.29,6.84,25.29-11.23,20.94-31.65,12.65-31.65,12.65C515.85,117.56,506.58,84.47,506.58,84.47ZM477.75,156c1.34-1.32,3.67-.38,5.23-.73,1.81-.44,4.55-3.24,6.48-1.68s0,3.75-1.36,4.79c-2,1.48-7.43,1.65-9.75.57C476.7,158.19,476.57,157.21,477.75,156Zm-.41,32.18c1.32-.08,2.72,1.28,4.34,1.2,2.23-.1,8-3.26,6.66,2-1,4.26-8.11,3.86-11,2.24C475.22,192.5,473.75,188.42,477.34,188.22Zm-53-83.32s-4.86-19,10.72-24.83c0,0-14.61,30.18,15.1,38C450.13,118,431.63,127.28,424.31,104.9Zm26.61,83.53c.53-.87,5.22.79,6.14.91.32-.48,4.9-.59,4.95-.16C463.19,195.79,448.3,192.52,450.92,188.43Zm14.45-16.32c2.14.48,4.87-1.36,6.79.11,5.07,3.84-4.58,4.59-6.45,4.49-2.09-.13-6.44-.91-5.63-4.12C460.86,169.66,463.51,171.67,465.37,172.11Zm-17.11-18.93c.31-1.06,4.6.37,5.3.47,2.78.39,4.56-1.36,7.21-1C463.05,161.15,446.46,159.2,448.26,153.18Zm-8.86,22.08c1.24-1.6,3.93-1,5.63-1s5.06-1.39,6.15-.34c2.46,2.5-1.54,4.7-5.52,5.46-2.67.48-5.31.32-6.18-.73C439,178,438.89,175.83,439.4,175.26Z"></path>
  <path class="cls-1" d="M378.32,136.79s-9.51,2.92-22.27-3.65l9.87,18.6Z"></path>
  <path class="cls-1" d="M374.18,151.49s5.72,3.26,6.85-1c0,0,.68-3.94-3.24-4.66Z"></path>
  <path class="cls-1" d="M490,91.26l-9.26,11.2c3.44,7.3,12.19,0,12.19,0v0C498.83,94.67,490,91.26,490,91.26Z"></path>
  <path class="cls-1" d="M562.71,151.49l-3.6-5.66c-3.94.72-3.26,4.66-3.26,4.66C557,154.73,562.71,151.49,562.71,151.49Z"></path>
  <path class="cls-1" d="M344.79,228a127.79,127.79,0,0,0,15.28,18.74s8-6.17,17.36-18.24l-3.75-.14C362.16,228.14,352.51,228,344.79,228Z"></path>
  <path class="cls-1" d="M446.17,230.74l22.46,30.92s14.95-17.57,27.07-31.94c-19.5.86-38,1.26-38,1.26C454.76,230.94,450.75,230.86,446.17,230.74Z"></path>
  <path class="cls-1" d="M559.37,228.32c9.35,12.16,17.44,18.38,17.44,18.38a125.28,125.28,0,0,0,15.05-18.43C580.93,228.42,569.55,228.4,559.37,228.32Z"></path>
  <path class="cls-1" d="M580.86,133.14c-12.78,6.57-22.29,3.65-22.29,3.65l12.41,15Z"></path>
  <path class="cls-1" d="M586.69,146.65s0-4-4-4l-2.56,6.2S586.35,151,586.69,146.65Z"></path>
  <path class="cls-1" d="M442.82,367.3c-8.76,26.77,1.45,29.22,1.45,29.22C454,396,461.82,378,461.82,378c2.43-9.74-8.3-21.93-8.3-21.93C447.21,354.65,442.82,367.3,442.82,367.3Z"></path>
  <path class="cls-1" d="M340.34,207.82c2.59,1,1.68,2.2,4.38,1.39,1.75-.51,2-2.62,4.85-1.94,1.11.27.51,1.81,2.1,1.94s1.46-1.1,2.64-1.45c3-1,2,.32,5,.74.7.08,1.89-1,2.92-1.11a23.79,23.79,0,0,1,3.68,0,17.71,17.71,0,0,1,3.64,0c1.32.3,1.26,1.23,2.53,1.45,2.68.49,3.45-1,5.77-1,1.23,3.37,4,.18,5.64,0,2.39-.19,4.38.8,6.73.58,1.83-3.47,3.6-7.08,5.24-11,0,0,2.19-8-4-16.81,0,0,1.49,18.27-10.22,21.91,0,0,9.49-26.28-5.13-35.42,0,0,26.67-.37,24.49-17.51,0,0-2.57-11.34-12.06-14.62l-6.93,5.85s5.47,4,4.37,9.11c0,0,1.46,8.42-16.06,8.42l-6.59,5.81-4.39-8s-16.4-.75-12.77-13.51c0,0,2.55-4.39,5.14-6.2L345.43,128s-18.21,9.16-14.95,20.44c0,0,3.67,14.61,23.74,16.45,0,0-29.94,8-16.08,34.3,0,0-13.15-2.16-9.11-26.28,0,0-11,4.36-5.86,15.69,0,0,3.55,8.4,9.52,19.43l1.08-.29A11.93,11.93,0,0,1,340.34,207.82ZM390.73,143c6.57,1.85,5.1,9.86,5.1,9.86-4,9.86-14.22,8.39-14.22,8.39C395.48,156.86,390.73,143,390.73,143ZM377,196.09c.56.67-.23,2.88-.72,3.33-1.49,1.4-7.94,1.46-8.57-1-.72-2.88,4.39-2.24,6-2.34C374.39,196.09,376.46,195.47,377,196.09Zm-8.23-18.39c.8.11,1.45.66,2.32.68s1.79-.34,2.76-.28c1.31,4.66-7.91,3.5-7.54,0C366.37,177.73,368.49,177.65,368.79,177.7Zm-33.2-30s-.73-7.67,6.58-9.83c0,0-6.23,11.3,4,17.87C346.17,155.77,335.94,155.39,335.59,147.73ZM362.79,191c.22,2.28-1.43,1.45-2.83,1.27s-4.16.36-5-.95c-1.25-2,2.19-3,3.44-3.07C360.1,188.12,362.63,189,362.79,191Zm-11.92-14.79c.82.13,1.49.65,2.36.71s1.79-.36,2.75-.31c1.34,4.68-7.89,3.49-7.54,0C348.47,176.29,350.58,176.17,350.87,176.23Zm.26,22.27c-.86,2-5.61.37-6.41-1C342.16,193.15,352.75,194.61,351.13,198.5Z"></path>
  <path class="cls-1" d="M321.6,223.19c3.62-.14,7.65-.23,12-.3h0l2.2,0,3.3,0,2.29,0h0c14.24-.07,30.65.17,46,.5l2.62.05h0c27.29.61,50.44,1.51,50.44,1.51,14.1,2,58.9-.23,58.9-.23a6.17,6.17,0,0,1,.8-.17h0c.33-.06.76-.11,1.27-.16l.74-.07,1.32-.1,1.55-.08,1.32-.07c1.23-.05,2.54-.1,4-.14h0c13-.35,33.47-.26,41.51-.2l3.47,0,.66,0h0c7.14.17,37.06-.27,37.06-.27.67-.1,1.44-.19,2.26-.27h0l.27,0c14.14-1.48,48.59-2.13,48.59-2.13l1.22-3.89-20.47-1c-12.6.45-16.91-.24-18.37-.85l-.06,0a1.52,1.52,0,0,1-.54-.34h0c-.19-.2-.11-.35-.1-.37l-.29,0a18.42,18.42,0,0,0-2.53-.31c-.36,0-.7,0-1.05,0a8.42,8.42,0,0,0-2.72.43c-2.63,1-1.66,2.18-4.37,1.36-1.72-.52-2-2.59-4.84-1.93-1.11.27-.51,1.83-2.08,1.93s-1.49-1.08-2.65-1.47c-3-.93-2,.35-5,.74-.7.12-1.93-.93-2.91-1.08a25.25,25.25,0,0,0-3.69,0,15.82,15.82,0,0,0-3.64,0c-1.34.3-1.28,1.23-2.53,1.45-2.69.51-3.46-1.06-5.8-1-1.21,3.35-4,.17-5.62,0-3.44-.31-6,1.19-9,2.25l-.45.17a20.46,20.46,0,0,1-3.48.81l-.05-.07a37.86,37.86,0,0,1-6.27.5c-6.18,0-12.3-.14-18.42-.72-1.24-.12-2.53-.28-3.8-.52l0,.06c-.2,0-.38-.13-.57-.17a14.25,14.25,0,0,1-1.75-.55c-.35-.13-.69-.24-1-.4a7.8,7.8,0,0,1-2.42-1.81,5.91,5.91,0,0,1-.66-1.06L508,213v0c-1.33-2.7-2.63-7.5-6.13-5.45-2.18,1.27-4.18,7.9-7,3.22-1.26-2.08-1.32-5.42-4.17-2.16-1.67,1.91-2.6,5.09-5.77,4-2.09-.69-3.22-3.85-5.81-3.09-3.37,1.05-3,7-5.65,8.94a8.61,8.61,0,0,1-9.5.24c-2.13-1.51-1.32-6-3.59-7.41-3.05-1.84-3.18,5-6.79,3.26-2.81-1.34-3.82-6.12-5.94-1.64-.86,1.78-1.28,5.35-4.07,3.52-2.26-1.51-4.29-9.79-8.17-6-1.58,1.54-1.07,3.28-1.83,4.6h0a3.11,3.11,0,0,1-1.31,1.17l-.28.12-.18.08c-.36.13-.78.2-1.16.31-.68.18-1.36.39-2.06.54a22,22,0,0,0-2.36.59c-2.2.47-20.46,0-20.46,0-6.55,0-9.49-2.71-9.49-2.71l-.74-.15h0l-3.75-.8a6.69,6.69,0,0,1-2.38.37,10.59,10.59,0,0,1-1.38-.15l-.72-.09-.31,0v0a12.11,12.11,0,0,0-3.54-.37c-1.65.15-4.41,3.36-5.64,0-2.32,0-3.09,1.54-5.77,1-1.27-.25-1.21-1.14-2.53-1.47a16.41,16.41,0,0,0-3.64,0,28.24,28.24,0,0,0-3.68,0c-1,.15-2.22,1.19-2.92,1.1-3-.41-2-1.66-5-.72-1.18.36-.92,1.59-2.64,1.44s-1-1.67-2.1-1.91c-2.84-.69-3.1,1.41-4.85,1.91-2.7.8-1.79-.34-4.38-1.38a11.65,11.65,0,0,0-6.57-.06,33.39,33.39,0,0,1-10.24,1.31l-43.35.76,2,2.66c4.87,3.17,21.43,2,21.43,2l4.84,5.85c-5.09,8.5-31.64,17.52-31.64,17.52l2.66,3.65C310.67,237.8,321.6,223.19,321.6,223.19Z"></path>
  <path class="cls-1" d="M837.17,367.3s8.26,4.39,15.1-1.45c0,0,2.93-13.65,2.43-18C854.7,347.84,837.65,352.69,837.17,367.3Z"></path>
  <path class="cls-1" d="M122,293.78s10.23-1.45,7.78-8.73c0,0-12.64-5.89-23.84,3.89C105.93,288.94,101.53,296.72,122,293.78Z"></path>
  <path class="cls-1" d="M538.23,363.41c-14.58,38.46,4.37,29.69,4.37,29.69,14.65-8.76,14.65-20,14.65-20,.45-6.84-7.33-18.5-7.33-18.5C544.58,351.24,538.23,363.41,538.23,363.41Z"></path>
  <path class="cls-2" d="M373.87,178.1c-1-.06-1.81.31-2.76.28s-1.52-.57-2.32-.68c-.3,0-2.42,0-2.46.41C366,181.6,375.18,182.76,373.87,178.1Z"></path>
  <path class="cls-2" d="M484.67,172.34c-.69,3.14,3.33,2.92,5.4,2.92,1.27,0,10.23-.71,7.06-4.19-1.64-1.77-5,.76-7.1.53C488.38,171.44,485.25,169.71,484.67,172.34Z"></path>
  <path class="cls-2" d="M569.14,198.45c.72-2.88-4.4-2.24-6-2.34-.63,0-2.76-.64-3.25,0s.21,2.88.68,3.33C562.08,200.82,568.54,200.88,569.14,198.45Z"></path>
  <path class="cls-2" d="M513.42,109.76s5.37-20.43-6.84-25.29c0,0,9.27,33.09-24.81,37.94C481.77,122.41,502.19,130.7,513.42,109.76Z"></path>
  <path class="cls-2" d="M570.56,178.11c0-.38-2.16-.46-2.45-.41-.8.11-1.47.66-2.34.68S564,178,563,178.09C561.69,182.76,570.94,181.6,570.56,178.11Z"></path>
  <path class="cls-2" d="M478.35,159c2.32,1.08,7.73.91,9.75-.57,1.36-1,3.14-3.37,1.36-4.79s-4.67,1.24-6.48,1.68c-1.56.35-3.89-.59-5.23.73C476.57,157.21,476.7,158.19,478.35,159Z"></path>
  <path class="cls-2" d="M588.46,176.66c-.05-.37-2.16-.49-2.45-.43-.81.13-1.48.65-2.33.71s-1.82-.36-2.78-.31C579.57,181.31,588.81,180.14,588.46,176.66Z"></path>
  <path class="cls-2" d="M585.76,198.5c.85,2,5.62.37,6.41-1C594.72,193.15,584.13,194.61,585.76,198.5Z"></path>
  <path class="cls-2" d="M576.93,192.29c1.3-.16,4.14.36,5-.95,1.25-2-2.19-3-3.44-3.07-1.72-.15-4.2.71-4.39,2.75C573.87,193.3,575.52,192.47,576.93,192.29Z"></path>
  <path class="cls-2" d="M546.17,143c-6.61,1.85-5.12,9.86-5.12,9.86,4,9.86,14.22,8.39,14.22,8.39C541.42,156.86,546.17,143,546.17,143Z"></path>
  <path class="cls-2" d="M601.27,147.73s.74-7.67-6.55-9.83c0,0,6.21,11.3-4,17.87C590.71,155.77,600.93,155.39,601.27,147.73Z"></path>
  <path class="cls-2" d="M355,191.34c.82,1.31,3.7.79,5,.95s3.05,1,2.83-1.27c-.16-2-2.69-2.9-4.37-2.75C357.17,188.36,353.73,189.33,355,191.34Z"></path>
  <path class="cls-2" d="M356,176.63c-1,0-1.84.34-2.75.31s-1.54-.58-2.36-.71c-.29-.06-2.4.06-2.43.43C348.09,180.12,357.32,181.31,356,176.63Z"></path>
  <path class="cls-2" d="M342.17,137.9c-7.31,2.16-6.58,9.83-6.58,9.83.35,7.66,10.58,8,10.58,8C335.94,149.2,342.17,137.9,342.17,137.9Z"></path>
  <path class="cls-2" d="M367.73,198.45c.63,2.43,7.08,2.37,8.57,1,.49-.45,1.28-2.66.72-3.33s-2.63,0-3.26,0C372.12,196.21,367,195.57,367.73,198.45Z"></path>
  <path class="cls-2" d="M351.13,198.5c1.62-3.89-9-5.35-6.41-1C345.52,198.87,350.27,200.52,351.13,198.5Z"></path>
  <path class="cls-2" d="M435,80.07c-15.58,5.84-10.72,24.83-10.72,24.83,7.32,22.38,25.82,13.14,25.82,13.14C420.42,110.25,435,80.07,435,80.07Z"></path>
  <path class="cls-2" d="M457.06,189.34c-.92-.12-5.61-1.78-6.14-.91-2.62,4.09,12.27,7.36,11.09.75C462,188.75,457.38,188.86,457.06,189.34Z"></path>
  <path class="cls-2" d="M445.66,179.41c4-.76,8-3,5.52-5.46-1.09-1-4.42.39-6.15.34s-4.39-.63-5.63,1c-.51.57-.4,2.78.08,3.42C440.35,179.73,443,179.89,445.66,179.41Z"></path>
  <path class="cls-2" d="M477.3,193.62c2.93,1.62,10,2,11-2.24,1.34-5.22-4.43-2.06-6.66-2-1.62.08-3-1.28-4.34-1.2C473.75,188.42,475.22,192.5,477.3,193.62Z"></path>
  <path class="cls-2" d="M460.77,152.68c-2.65-.39-4.43,1.36-7.21,1-.7-.1-5-1.53-5.3-.47C446.46,159.2,463.05,161.15,460.77,152.68Z"></path>
  <path class="cls-2" d="M460.08,172.59c-.81,3.21,3.54,4,5.63,4.12,1.87.1,11.52-.65,6.45-4.49-1.92-1.47-4.65.37-6.79-.11C463.51,171.67,460.86,169.66,460.08,172.59Z"></path>
  <path class="cls-2" d="M395.83,152.85s1.47-8-5.1-9.86c0,0,4.75,13.87-9.12,18.25C381.61,161.24,391.83,162.71,395.83,152.85Z"></path>
  <path class="cls-2" d="M270,241.69l7.32,11.69s23.84-4.87,33.84-14.11c0,0,11.17-9.49,11.91-11.44,0,0,4.82,0,13.92.06a187.28,187.28,0,0,0,23.1,27.57,251.9,251.9,0,0,0,25.7-26.7c12.76.47,33.29,1.19,50.05,1.69l31.36,43.38a266,266,0,0,0,39.57-44.66c7-.38,13.77-.83,19.33-1.34,0,0,10.28.25,24.62.41a246.24,246.24,0,0,0,26.11,27.22,186.24,186.24,0,0,0,23-27.32c12.89-.27,24.47-.8,31.7-1.77,0,0,14.61-.5,18.26.47L652.16,214l.26-1-41.76-2.56a142.07,142.07,0,0,0,9.63-22.16s4.36-17.16-15.34-25.91c0,0,13.52-12.78,6.55-25.18,0,0-5.08-9.9-15.68-11.35l-1-9.74s-24.83,24.82-57.46,10.7L540,132.4s-11.32,7.31-10.59,20.8c0,0,1.1,15.34,16.45,17.55,0,0-12.8,8.75-11.7,24.83,0,0-.68,5.32,5.5,16.5-1,0-1.9.14-2.83.14-6.43,0-13,1.19-19.4-.16C528.51,192,531,178.91,531,178.91c3.43-28.73-21-43.84-21-43.84,22.9-9.73,23.36-34.09,23.36-34.09,0-21.39-21.38-32.11-21.38-32.11L526.07,52.3c-23.85,16.57-50.16,16.09-50.16,16.09-32.09.48-54-25.34-54-25.34l9.74,22.41c-23.37,7.3-24.35,25.8-24.35,25.8-5.34,34.08,22.9,42.36,22.9,42.36C386.84,164.29,419,207.13,419,207.13l3.82,5.31c-6.42.29-13.72-.68-17-.68a17.22,17.22,0,0,1-7.55-1.52c5.14-9.93,4.51-14.66,4.51-14.66,1.1-16.08-11.69-24.83-11.69-24.83,15.35-2.21,16.44-17.55,16.44-17.55.73-13.49-10.62-20.8-10.62-20.8l2.59-5.61c-32.62,14.12-57.46-10.7-57.46-10.7l-1,9.74c-10.58,1.45-15.71,11.35-15.71,11.35-6.93,12.4,6.59,25.18,6.59,25.18-19.71,8.75-15.34,25.91-15.34,25.91a140.19,140.19,0,0,0,8.9,20.82c-.65,0-1.31,0-2,0h-1.22s-29.19,2.88-38.2.22L270.73,212l9.45,13.12,19,.26S282.4,238.29,272.43,240Zm90.09,5A127.79,127.79,0,0,1,344.79,228c7.72.07,17.37.18,28.89.36l3.75.14C368.09,240.53,360.07,246.7,360.07,246.7Zm108.56,15-22.46-30.92c4.58.12,8.59.2,11.51.24,0,0,18.52-.4,38-1.26C483.58,244.09,468.63,261.66,468.63,261.66Zm108.18-15s-8.09-6.22-17.44-18.38c10.18.08,21.56.1,32.49,0A125.28,125.28,0,0,1,576.81,246.7Zm9.88-100c-.34,4.37-6.58,2.18-6.58,2.18l2.56-6.2C586.69,142.63,586.69,146.65,586.69,146.65Zm-5.83-13.51L571,151.74l-12.41-15S568.08,139.71,580.86,133.14Zm-21.75,12.69,3.6,5.66s-5.71,3.24-6.86-1C555.85,150.49,555.17,146.55,559.11,145.83ZM545.43,180.6s-1.48,18.27,10.21,21.91c0,0-9.47-26.28,5.14-35.42,0,0-26.67-.37-24.48-17.51,0,0,2.56-11.34,12-14.63l6.94,5.86s-5.45,4-4.38,9.11c0,0-1.45,8.42,16.07,8.42l6.58,5.81,4.38-8s16.42-.75,12.79-13.51c0,0-2.57-4.39-5.09-6.2l5.82-8.41s18.25,9.16,15,20.44c0,0-3.67,14.61-23.75,16.45,0,0,30,8,16.05,34.3,0,0,13.17-2.17,9.15-26.28,0,0,10.94,4.36,5.84,15.69,0,0-3.68,8.71-9.86,20a6.43,6.43,0,0,0-4.64-.11c-2.63,1-1.66,2.17-4.37,1.4-1.72-.56-2-2.64-4.84-2-1.11.27-.51,1.82-2.08,2s-1.49-1.12-2.65-1.46c-3-1-2,.32-5,.72-.69.07-1.93-1-2.91-1.11a23.92,23.92,0,0,0-3.69,0,17.71,17.71,0,0,0-3.64,0c-1.34.33-1.28,1.2-2.53,1.46-2.69.5-3.46-1-5.8-1-1.21,3.35-4,.14-5.62,0-3.13-.3-5.54.95-8.23,2a134.84,134.84,0,0,1-6.4-13.13S539.22,189.37,545.43,180.6ZM493.93,74.7l-24.82,31.67-19-33.61S475,83.46,493.93,74.7Zm-1,27.76v0s-8.75,7.28-12.19,0L490,91.26S498.83,94.67,493,102.46ZM452.2,90.87l7.06,10.85s-10.84,4.91-11.95-2.69C447.31,99,445.69,92.51,452.2,90.87Zm-35.67,87c-1.46-20.91,10.2-27.27,10.2-27.27-8.75,31.19,11.71,45.3,11.71,45.3-21.89-44.8,17.05-66.71,17.05-66.71-37.51,0-39.93-26.75-39.93-26.75-2.45-23.88,20-31.17,20-31.17l10.21,10.24c-7.78,3.39-8.24,10.2-8.24,10.2-1,24.84,23.35,19,23.35,19l6.34,13.12,8.27-14.57c17,6.81,24.82-4.86,24.82-4.86,7.31-6.82-1.44-21.9-1.44-21.9l8.27-9.26c21.41,11.21,18,30.18,18,30.18-3.39,28.73-41.84,29.21-41.84,29.21,35,17,15.08,62.78,15.08,62.78C520.72,181.33,512,149.2,512,149.2c16.46,13.76,8.81,38.37.83,54.84-3.28-6.29-9.12-3.72-9.12-3.72-2.45,1.44-6.1.73-6.1.73-2.93-3.17-5.61-.73-5.61-.73-5.1,2.9-8.49.47-8.49.47-7.09-2.91-9.26,4.16-9.26,4.16-1,7.52-4.66,7.52-4.66,7.52-3.37,0-5.55-5.54-5.55-5.54-1-3.37-3.17-5.88-8-1.72-2.06,1.72-3.88-1.72-3.88-1.72-2.47-3.43-5.38,0-5.38,0-3.17,2.19-5.35,0-5.35,0-4.86-2.3-9.92,1.16-13.32,4.41C415.92,190.66,416.53,177.91,416.53,177.91ZM381,150.49c-1.13,4.26-6.85,1-6.85,1l3.61-5.66C381.71,146.55,381,150.49,381,150.49Zm-2.71-13.7-12.4,15-9.87-18.6C368.81,139.71,378.32,136.79,378.32,136.79Zm-24.1,5.84,2.55,6.2s-6.2,2.19-6.58-2.18C350.19,146.65,350.19,142.63,354.22,142.63Zm-31.05,46c-5.11-11.33,5.86-15.69,5.86-15.69-4,24.12,9.11,26.28,9.11,26.28-13.86-26.28,16.08-34.3,16.08-34.3-20.07-1.84-23.74-16.45-23.74-16.45C327.22,137.18,345.43,128,345.43,128l5.88,8.41c-2.59,1.81-5.14,6.2-5.14,6.2-3.63,12.76,12.77,13.51,12.77,13.51l4.39,8,6.59-5.81c17.52,0,16.06-8.42,16.06-8.42,1.1-5.08-4.37-9.11-4.37-9.11l6.93-5.85c9.49,3.28,12.06,14.62,12.06,14.62,2.18,17.14-24.49,17.51-24.49,17.51,14.62,9.14,5.13,35.42,5.13,35.42,11.71-3.64,10.22-21.91,10.22-21.91,6.21,8.77,4,16.81,4,16.81-1.64,3.91-3.41,7.52-5.24,11-2.35.22-4.34-.77-6.73-.58-1.65.16-4.41,3.35-5.64,0-2.32,0-3.09,1.53-5.77,1-1.27-.22-1.21-1.15-2.53-1.45a17.71,17.71,0,0,0-3.64,0,23.79,23.79,0,0,0-3.68,0c-1,.15-2.22,1.19-2.92,1.11-3-.42-2-1.7-5-.74-1.18.35-.92,1.55-2.64,1.45s-1-1.67-2.1-1.94c-2.84-.68-3.1,1.43-4.85,1.94-2.7.81-1.79-.36-4.38-1.39a11.93,11.93,0,0,0-6.57-.06l-1.08.29C326.72,197,323.17,188.62,323.17,188.62Zm-14.73,37.75-4.84-5.85s-16.56,1.22-21.43-2l-2-2.66,43.35-.76a33.39,33.39,0,0,0,10.24-1.31,11.65,11.65,0,0,1,6.57.06c2.59,1,1.68,2.18,4.38,1.38,1.75-.5,2-2.6,4.85-1.91,1.11.24.51,1.81,2.1,1.91s1.46-1.08,2.64-1.44c3-.94,2,.31,5,.72.7.09,1.89-.95,2.92-1.1a28.24,28.24,0,0,1,3.68,0,16.41,16.41,0,0,1,3.64,0c1.32.33,1.26,1.22,2.53,1.47,2.68.5,3.45-1,5.77-1,1.23,3.37,4,.16,5.64,0a12.11,12.11,0,0,1,3.54.37v0l.31,0,.72.09a10.59,10.59,0,0,0,1.38.15,6.69,6.69,0,0,0,2.38-.37l3.75.8h0l.74.15s2.94,2.71,9.49,2.71c0,0,18.26.47,20.46,0a22,22,0,0,1,2.36-.59c.7-.15,1.38-.36,2.06-.54.38-.11.8-.18,1.16-.31l.18-.08.28-.12a3.11,3.11,0,0,0,1.31-1.17h0c.76-1.32.25-3.06,1.83-4.6,3.88-3.81,5.91,4.47,8.17,6,2.79,1.83,3.21-1.74,4.07-3.52,2.12-4.48,3.13.3,5.94,1.64,3.61,1.71,3.74-5.1,6.79-3.26,2.27,1.38,1.46,5.9,3.59,7.41a8.61,8.61,0,0,0,9.5-.24c2.68-2,2.28-7.89,5.65-8.94,2.59-.76,3.72,2.4,5.81,3.09,3.17,1.11,4.1-2.07,5.77-4,2.85-3.26,2.91.08,4.17,2.16,2.82,4.68,4.82-1.95,7-3.22,3.5-2.05,4.8,2.75,6.13,5.45v0l.07.11a5.91,5.91,0,0,0,.66,1.06,7.8,7.8,0,0,0,2.42,1.81c.33.16.67.27,1,.4A14.25,14.25,0,0,0,514,217c.19,0,.37.14.57.17l0-.06c1.27.24,2.56.4,3.8.52,6.12.58,12.24.71,18.42.72a37.86,37.86,0,0,0,6.27-.5l.05.07a20.46,20.46,0,0,0,3.48-.81l.45-.17c3-1.06,5.58-2.56,9-2.25,1.66.15,4.41,3.33,5.62,0,2.34,0,3.11,1.53,5.8,1,1.25-.22,1.19-1.15,2.53-1.45a15.82,15.82,0,0,1,3.64,0,25.25,25.25,0,0,1,3.69,0c1,.15,2.21,1.2,2.91,1.08,3-.39,2-1.67,5-.74,1.16.39.93,1.6,2.65,1.47s1-1.66,2.08-1.93c2.83-.66,3.12,1.41,4.84,1.93,2.71.82,1.74-.35,4.37-1.36a8.42,8.42,0,0,1,2.72-.43c.35,0,.69-.05,1.05,0a18.42,18.42,0,0,1,2.53.31l.29,0s-.09.17.1.37h0a1.52,1.52,0,0,0,.54.34l.06,0c1.46.61,5.77,1.3,18.37.85l20.47,1L644.13,221s-34.45.65-48.59,2.13l-.27,0h0c-.82.08-1.59.17-2.26.27,0,0-29.92.44-37.06.27h0l-.66,0-3.47,0c-8-.06-28.54-.15-41.51.2h0c-1.44,0-2.75.09-4,.14l-1.32.07-1.55.08-1.32.1-.74.07c-.51.05-.94.1-1.27.16h0a6.17,6.17,0,0,0-.8.17s-44.8,2.18-58.9.23c0,0-23.15-.9-50.44-1.51h0l-2.62-.05c-15.34-.33-31.75-.57-46-.5h0l-2.29,0-3.3,0-2.2,0h0c-4.32.07-8.35.16-12,.3,0,0-10.93,14.61-42.14,24.35l-2.66-3.65S303.35,234.87,308.44,226.37Z"></path>
  <path class="cls-2" d="M353.47,85.65a39.42,39.42,0,0,0,34.91-21.07,29.67,29.67,0,1,1-5.64-44.69,39.41,39.41,0,1,0-29.27,65.76Z"></path>
  <path class="cls-2" d="M61.13,328.36c-26.76,2.46-20-7.79-20-7.79,1.44-8.29,37-22.86,37-22.86,9.25-2.95,10.7-.49,10.7-.49,3.4,8.73,39,7.28,39,7.28,36-1.95,45.74-23.85,45.74-23.85-1.94-22.9-29.22-15.59-29.22-15.59-49.63-1.93-107.08,25.83-107.08,25.83-39,21.39-33.6,43.82-33.6,43.82,2.92,25.76,66.69,18.5,66.69,18.5A94.69,94.69,0,0,1,107.86,362c8.77,5.38-3.4,17.05-3.4,17.05-27.27,22.87-84.23,8.26-84.23,8.26-10.68-7.77-15.09,0-15.09,0-.95,16.55,27.25,18.51,27.25,18.51,62.35,10.72,97.38-22.39,97.38-22.39,15.6-12.17,14.6-26.78,14.6-26.78C141.46,320.57,61.13,328.36,61.13,328.36Zm44.8-39.42c11.2-9.78,23.84-3.89,23.84-3.89,2.45,7.28-7.78,8.73-7.78,8.73C101.53,296.72,105.93,288.94,105.93,288.94Z"></path>
  <path class="cls-2" d="M882,367.79s-4.85-17.54,1.95-27.26c0,0,11.7-10.73-1.95-13.64,0,0-17.52-7.79-52.57,24.35,0,0-21.9,20.45-31.13,33.59,0,0-13.15,5.36-7.82-8.29,0,0,20.46-33.56-6.82-40.39,0,0-12.67-3.89-21.43,8.27L737.37,367.3s5.36-30.16-14.6-29.69c0,0-21.9-5.35-46.74,29.69,0,0-32.62,38-33.62,21.91,0,0,.51-14.11,14.12-26.79,0,0,7.32-8.24,0-15.56,0,0,2-10.23-17.5-9.25,0,0-11.7,4.85-20-1.46,0,0-12.18-3.89-12.65,5.85,0,0,4.35,12.18-4.39,14.6,0,0-15.08,16-18,5.82,0,0-3.89-8.24,3.4-10.22,0,0,4.9-19-19.93-11.67,0,0-7.32,5.87-10.22-1.95,0,0-12.67-13.14-32.17,4.4,0,0-7.27,7.27-13.12,11.2,0,0-11.68,9.71-17.53,1.92,0,0,0-31.64-30.19-16.05,0,0-12.15,12.64-6.3-3.9l16.54-45.75s6.82-13.64-14.11-4.37c0,0-26.31,10.69-22.42,19,0,0,4.87,3.4,9.26,1,0,0-29.22,42.85-32.61,64.77s2.91,35,25.3,34.57,41.87-26.78,41.87-26.78,9.24-1.45,10.21-4.87c0,0,1.94,4.39,15.12.5,0,0-12.17,41.85,39.43,28.21,0,0,20-6.32,28.23-20.92,0,0,30.19,2.91,46.73-27.25,0,0,5.35-4.89,11.2-.49,0,0-26.77,22.85-15.09,40.4,0,0,24.34,27.75,61.34-8.29,0,0,18-22.39,28.26-28.21,0,0,1.93,2.88-4.89,14.1,0,0-11.21,22.38,7.29,27.73,0,0,15.59,7.31,27.77-10.7,0,0,21.9-25.31,26.3-21.42,0,0-9.27,23.38,5.33,27.75,0,0,27.28,9.25,36.53-2.91,0,0,13.62-15.1,17.51-14.6,0,0,2,19.46,25.81,21.88,0,0,19.48,0,26.3-14.59l41.37.5,14.63-17ZM461.82,378s-7.79,18-17.55,18.49c0,0-10.21-2.45-1.45-29.22,0,0,4.39-12.65,10.7-11.2C453.52,356.1,464.25,368.29,461.82,378ZM542.6,393.1s-19,8.77-4.37-29.69c0,0,6.35-12.17,11.69-8.76,0,0,7.78,11.66,7.33,18.5C557.25,373.15,557.25,384.34,542.6,393.1Zm309.67-27.25c-6.84,5.84-15.1,1.45-15.1,1.45.48-14.61,17.53-19.46,17.53-19.46C855.2,352.2,852.27,365.85,852.27,365.85Z"></path>
  <path class="cls-2" d="M395.11,392.14s-18,10.7-11.19-5.37c0,0,27.26-35.53,1-45.27,0,0-14.11-6.32-24.33,1,0,0-15.09,16.09-21.91,17,0,0-5.34,1-6.33-10.7,0,0-5.38-17.5-27.26-6.8,0,0-14.13,12.18-39.93,43.33,0,0-23.86,24.32-17.51.47,0,0,17-26.79-1-33.11,0,0-10.22-4.85-25.8,11.2,0,0-31.64,27.76-39.41,27.76,0,0-9.75-1.46,4.37-19.46,0,0,15.08-20.49,41.4-22.4,0,0,15.56,0,15.56-4.87,0,0,3.41-14.1-35.55-9.26,0,0-57.92,10.23-57,50.14,0,0,5.85,31.64,39.46,16.55,0,0,21.88-11.67,27.24-15.09,0,0,2,25.33,27.77,22.89,0,0,17,1.46,32.61-19.47,0,0,15.58-20,19-19,0,0,8.27-1,2.91,7.8,0,0-12.16,19.45,4.87,23.35,0,0,18.49,6.32,29.24-10.2,0,0,16.51-25.34,26.27-25.34,0,0,3.9,1.47-2.45,10.24,0,0-9.23,25.3,16.57,27.25,0,0,25.31,2.43,29.69-8.76C403.38,396,408.26,385.31,395.11,392.14Z"></path>
</svg>
