<?xml version="1.0" encoding="UTF-8"?>
<svg xmlns="http://www.w3.org/2000/svg" id="Capa_1" data-name="Capa 1" viewBox="0 0 981 209">
  <defs>
    <style>.cls-1{fill:none;}.cls-2{fill:#999;}.cls-3{fill:#fff;}.cls-4{fill:#333;}</style>
  </defs>
  <path class="cls-1" d="M583.17,64.21c-3.14,0-5.09,1-5.84,2.86s-1.13,7.07-1.13,15.46V93.44h13.27V82.53q0-11.57-1.24-15A4.89,4.89,0,0,0,583.17,64.21Z"></path>
  <path class="cls-1" d="M306.21,64.21c-2.71,0-4.5,1-5.4,3s-1.35,6.8-1.35,14.44V149c0,7,.45,11.63,1.35,13.77s2.66,3.2,5.28,3.2,4.48-1,5.34-2.92,1.29-6.14,1.29-12.59V81.63q0-11.46-1.23-14.44C310.66,65.21,308.9,64.21,306.21,64.21Z"></path>
  <path class="cls-1" d="M78.66,104.58c-.89,2.73-1.32,6.66-1.32,11.78q0,8.79,1.14,11.35t4.57,2.56c2.16,0,3.58-.67,4.23-2s1-4.85,1-10.54V94.42Q80,100.5,78.66,104.58Z"></path>
  <path class="cls-2" d="M226.84,11.93q-13.6-8.07-34.51-8.08-15.4,0-27.25,5.23a44.76,44.76,0,0,0-18.55,14.33,41.34,41.34,0,0,0-8,18.94q-1.35,9.84-1.34,29.51V125q0,26.74,4.38,40.07t17.87,20.85q13.48,7.53,34.28,7.53,20,0,33.66-8.89T245,163.87q4-11.82,4-40.07v-7.1H201.66v22.88q0,15-1.63,19c-1.08,2.7-3.39,4-6.91,4-3.68,0-6-1.34-7.08-4s-1.58-8.46-1.58-17.3V56.79q0-13.82,1.58-18t7.42-4.16q5.16,0,6.69,3.42t1.51,17.22V86.92H249V69.63q0-25.48-4.27-37.55T226.84,11.93Z"></path>
  <path class="cls-2" d="M347.79,54.21q-6-7.3-16.92-11.86T304.63,37.8q-18.21,0-29.9,7.08T258.54,63.65q-4.49,11.68-4.49,32.48v38.22q0,19,2.47,28.49A39.51,39.51,0,0,0,264.78,179q5.79,6.69,16.25,10t25.51,3.32a68,68,0,0,0,23.89-3.88,39.1,39.1,0,0,0,17-12,41.29,41.29,0,0,0,8.66-17.53q2-9.39,2-29.51V92.88q0-15.85-2.19-23.61A42,42,0,0,0,347.79,54.21Zm-35.07,96.21q0,9.68-1.29,12.59t-5.34,2.92q-3.93,0-5.28-3.2c-.9-2.14-1.35-6.72-1.35-13.77V81.63q0-11.46,1.35-14.44c.9-2,2.69-3,5.4-3s4.45,1,5.28,3,1.23,6.8,1.23,14.44Z"></path>
  <path class="cls-2" d="M513.87,43.42q-7.59-5.62-19.16-5.62a30.87,30.87,0,0,0-16,4.22,40.92,40.92,0,0,0-12.93,12.66Q455.37,37.81,437.16,37.8A32.57,32.57,0,0,0,420.52,42a36.62,36.62,0,0,0-12.58,12.66l.78-14.19H363.87V189.65h44.07V86.24q0-10.78.22-14.1a9,9,0,0,1,2.36-5.63,6.81,6.81,0,0,1,5.17-2.3q4.83,0,5.9,4.38t1.07,26.3v94.76h44.06V92.42q0-19.22,1.4-23.71a5.94,5.94,0,0,1,6.24-4.5,5.72,5.72,0,0,1,6,4.55q1.29,4.56,1.29,23.66v97.23h44.06v-106q0-18.33-2.14-26.48A24.71,24.71,0,0,0,513.87,43.42Z"></path>
  <path class="cls-2" d="M612.57,45.05Q600.15,37.79,581,37.8q-15.63,0-27.65,6a36.27,36.27,0,0,0-17.31,17.31q-5.3,11.3-5.28,30.85v43.5q0,16.64,2.36,25.35a41.18,41.18,0,0,0,8.48,16q6.14,7.25,17.15,11.41a71.61,71.61,0,0,0,25.4,4.16q14.82,0,24.67-4.22a39.7,39.7,0,0,0,16.24-12.64q6.4-8.44,8.15-15.85T635,138.4v-11h-43v19.67q0,11.13-1.74,15t-6.91,3.88q-4.15,0-5.63-2.92t-1.46-13V117.71H635V97.93q0-21.69-5-33.66T612.57,45.05Zm-23.1,48.39H576.2V82.53q0-12.59,1.13-15.46c.75-1.9,2.7-2.86,5.84-2.86a4.89,4.89,0,0,1,5.06,3.37q1.23,3.38,1.24,15Z"></path>
  <path class="cls-2" d="M684.23,60.11,686,40.49H640.62V189.65H686v-58.9q0-21.69,1.35-27.7a14.14,14.14,0,0,1,7.19-9.39q5.85-3.37,18.32-3.37V37.8Q694.13,39,684.23,60.11Z"></path>
  <rect class="cls-2" x="5.63" y="10.1" width="35.51" height="138.18"></rect>
  <path class="cls-2" d="M110.28,39.16Q101.4,33,83.91,33q-14.59,0-23.73,5.47T48,51q-3,7.13-3,20.28v7.59H77.34V67q0-9.46.85-11.73c.56-1.51,2-2.26,4.35-2.26a4.56,4.56,0,0,1,4.4,2.69q1.32,2.69,1.32,11.56,0,7.09-1.19,9.39t-18.18,9Q53,91.78,49,96.39t-4,17.32V123q0,17.14,7.55,22.23a29.18,29.18,0,0,0,16.6,5.08A21.06,21.06,0,0,0,89.2,138.19v10.09h33.54V91.44q0-28.1-1.79-37.09T110.28,39.16Zm-22,78.56q0,8.53-1,10.54c-.65,1.34-2.07,2-4.23,2s-3.79-.85-4.57-2.56-1.14-5.49-1.14-11.35c0-5.12.43-9,1.32-11.78s4.08-6.11,9.6-10.16Z"></path>
  <path class="cls-3" d="M854.62-.77C787.38-.77,732.86,43.45,732.86,98s54.52,98.77,121.76,98.77S976.37,152.55,976.37,98,921.86-.77,854.62-.77ZM937.1,162.11l.21-.39c-46.33,24.63-48.71,3.71-48.71-4.23S912,128.75,912,128.75c29.13-30.09,27-51.24,26.36-53.07-.79-2.12,5.83,1.32,5.83,1.32-6.09-31.78-35-34.42-35-34.42C888.6,39.93,877,58.2,877,58.2S783.48,77.79,772.36,78.85s-13.86,3.6-14,10.83c-.1,7.87,6.48.48,6.48.48s2.34-3.1,5-3.34,107-19.31,107-19.31,7.39-1.19,7.39.95S881.4,71.8,870.91,74s-97.25,20.49-97.25,20.49-6.44,1.91,0,5.25,7.39,10.49,7.39,10.49,1.67,42.17,30,41.95c30-.24,89.86-56,89.86-56s5.25-6.92,3.1-11.45-11.2,7.39-16.2-8.82c0,0,1.67-2.38,5.24,1.91s8.82,2.86,11.44,1.91,5.72-1,5.72,4,1,16-12.87,26.93-67.49,46.72-65.58,78.19c-52.17-8.58-91.44-46-91.44-90.84,0-51.19,51.16-92.69,114.27-92.69S968.88,46.81,968.88,98C968.88,122.88,956.77,145.46,937.1,162.11Zm-39-103.71a5,5,0,1,1-5-5A5,5,0,0,1,898.13,58.4Z"></path>
  <path class="cls-4" d="M854.62,5.31c-63.11,0-114.27,41.5-114.27,92.69,0,44.85,39.27,82.26,91.44,90.84-1.91-31.47,51.76-67.22,65.58-78.19s12.87-21.92,12.87-26.93-3.1-5-5.72-4-7.87,2.38-11.44-1.91-5.24-1.91-5.24-1.91c5,16.21,14.06,4.29,16.2,8.82s-3.1,11.45-3.1,11.45-59.82,55.77-89.86,56c-28.36.22-30-41.95-30-41.95s-1-7.15-7.39-10.49,0-5.25,0-5.25S860.42,76.09,870.91,74s13.35-3.34,13.35-5.49-7.39-.95-7.39-.95-104.41,19.07-107,19.31-5,3.34-5,3.34-6.58,7.39-6.48-.48c.1-7.23,2.85-9.77,14-10.83S877,58.2,877,58.2s11.65-18.27,32.3-15.62c0,0,28.86,2.64,35,34.42,0,0-6.62-3.44-5.83-1.32.69,1.83,2.77,23-26.36,53.07,0,0-23.41,20.8-23.41,28.74s2.38,28.86,48.71,4.23l-.21.39c19.67-16.65,31.78-39.23,31.78-64.11C968.88,46.81,917.72,5.31,854.62,5.31Z"></path>
  <path class="cls-4" d="M888.2,58.4a5,5,0,1,0,5-5A5,5,0,0,0,888.2,58.4Z"></path>
</svg>
