<?xml version="1.0" encoding="UTF-8"?>
<svg xmlns="http://www.w3.org/2000/svg" id="Layer_2" data-name="Layer 2" viewBox="0 0 64.07 70.98">
  <defs>
    <style>
      .cls-1 {
        fill: #fff;
      }
    </style>
  </defs>
  <g id="Layer_1-2" data-name="Layer 1">
    <g>
      <path class="cls-1" d="m15.48,42.27c.09-.65.41-1.06,1.06-1.08.23,0,.45.12.68.19l-.02.15c.32-.2.64-.39.96-.59.07-.04.15-.12.23-.12,1.02.03,1.5-.84,2.17-1.36,1.26-.97,2.49-1.99,3.68-3.05,1.3-1.15,2.55-2.36,3.8-3.57.51-.49,1.08-.9,1.78-.98.48-.06.99.09,1.47.18,1.11.22,2.22.48,3.33.7.1.02.27-.09.36-.18.12-.12.19-.29.28-.43.4-.6.82-.78,1.51-.62,2.18.5,4.35.99,6.58,1.5.19-.3.27-.61-.03-1.04-.75-1.09-1.23-2.34-1.38-3.63-.14-1.14-.84-1.69-1.7-2.1-1.52-.73-2.53-1.95-3.51-3.25-.32-.43-.72-.83-1.16-1.14-.88-.64-1.4-1.51-1.79-2.48-.83-2.07-1.63-4.16-2.49-6.22-.15-.36-.53-.64-.81-.94-.54-.57-.64-1.31-.82-2.03-.05-.21-.11-.42-.18-.72-.22.6-.36,1.15-.61,1.64-1.06,2.08-3.84,2.83-5.74,1.49-1.3-.91-1.88-2.2-1.62-3.83.12-.76.37-1.42.85-2.02.08-.1.11-.25.11-.38.01-.65.05-1.31,0-1.96-.04-.42-.26-.81-.36-1.22-.11-.5-.23-1.01-.24-1.52-.02-.6.7-1.22,1.46-1.42,1.47-.38,2.94-.27,4.39.04.92.2,1.86.42,2.71.8.95.42,1.81,1.04,2.73,1.53.81.44,1.65.82,2.48,1.22.62.29,1.28.46,1.69,1.12.18.29.67.37.9.65.76.94,1.48,1.91,2.18,2.9,1.32,1.87,2.63,3.75,3.92,5.65.25.37.56.22.84.23.86.03,1.88.64,2.14,1.46.17.53.18,1.12.2,1.69.01.34.11.51.41.72,1.49,1.04,2.62,2.39,3.32,4.09.41,1,.9,1.98,1.33,2.97.15.34.29.71.32,1.08.05.71.44,1.25.76,1.84.24.46.51.98.51,1.48,0,1,.28,1.89.62,2.81.24.65.39,1.39-.19,2.02-.04.05-.04.15-.04.23.02.58.07,1.16.05,1.73-.03.76-.15,1.52-.2,2.28-.03.54-.38.74-.87.88.2,1.31-.4,2.41-.9,3.55-.31.7-.88.56-1.35.62-.9.11-1.82.06-2.72.14-.98.08-1.95.26-2.93.35-.92.09-1.84.13-2.77.14-.15,0-.36-.24-.46-.42-.28-.48-.65-.74-1.23-.73-.63,0-1.27,0-1.88-.12-.47-.09-.9-.36-1.38-.57-.04.05-.15.22-.3.35-.8.74-.71,1.8-.94,2.73-.29,1.18-.5,2.39-.76,3.58-.27,1.22-.52,2.46-.86,3.66-.19.68-.41,1.39-1.22,1.68-.61.22-1.13.02-1.53-.34-.61-.54-1.12-1.19-1.67-1.8-.24-.27-.46-.57-.71-.83-.07-.07-.22-.1-.33-.1-1.13.02-1.93-.54-2.54-1.44-.69-1.03-1.37-2.07-2.06-3.09-.43-.63-.31-1.48-.08-1.83.34-.51,1.2-.76,1.85-.65.94.16,1.76.58,2.55,1.08.38.25.77.29,1.18.09.32-.16.69-.29.94-.53.25-.24.38-.6.57-.91.05-.08.11-.14.17-.21.05.07.1.15.15.22.15.19.3.38.52.55.08-.57.2-1.03.77-1.23.09-.03.1-.27.14-.42.21-.83.42-1.67.61-2.5.03-.12,0-.33-.09-.4-1.03-.85-2.08-1.67-3.11-2.51-.22-.18-.36-.47-.59-.65-.5-.39-1.11-.33-1.52.15-.43.5-.79,1.07-1.26,1.52-1.1,1.05-2.2,2.21-3.78,2.41-1.53.19-2.5,1.3-3.69,1.96-.1.19-.15.43-.29.55-1.36,1.18-2.3,2.68-3.34,4.12-.41.57-.85,1.15-1.66,1.07-.24-.02-.52-.18-.67-.36-1.12-1.34-2.22-2.7-3.32-4.06-.47-.58-1.08-1.09-1.38-1.75-.33-.73-.47-1.57-.53-2.38-.04-.5.47-.7,1-.58.75.17,1.15.74,1.57,1.28.25.32.51.39.88.38.44,0,.98-.19,1.18.46,0,.02.06.04.09.05.54.11,1.07.22,1.63.34ZM36.03,7.12c-.56,1.25-1.77,1.65-3.05,2.05.73.67.49,1.37.23,2.06-.21.57-.16,1.05.19,1.56,1.46,2.07,2.9,4.15,4.35,6.22.11.16.26.41.42.42,1.08.11,1.73.87,2.47,1.51.4.34.89.57,1.34.85.34.21.54.06.64-.13-.29-.32-.71-.55-.75-.84-.11-.75-.33-1.54.06-2.3.06-.12.05-.29.05-.43,0-.29-.03-.58-.05-.87-.01-.21.03-.45-.07-.61-.21-.35-.5-.66-.75-.99-.51-.67-1.13-1.3-1.49-2.04-.81-1.69-1.5-3.43-2.22-5.16-.26-.63-.55-1.19-1.36-1.29ZM26.82,1.41c-.54.32-1.05.6-1.52.93-.16.11-.37.37-.34.52.13.65.34,1.29.55,2.08.73-1.21,1.41-2.24,1.31-3.53Zm1.46,2.32c.47-.17.88-.3,1.26-.48.15-.07.27-.25.33-.41.11-.29.11-.62.23-.89.26-.56-.13-.7-.5-.84-.19-.07-.4-.09-.61-.13-.24.91-.47,1.81-.72,2.75Zm4.12-1.1c-.62.32-1.18.58-1.71.9-.27.16-.55.41-.65.68-.06.16.19.6.37.65.78.2,1.21,0,1.38-.46.09-.25.23-.49.32-.75.12-.37.53-.68.3-1.02Zm-.73,3.91c-.1-.43-.07-.94-.31-1.16-.19-.17-.81-.12-1.06.07-.46.34-.3.92-.26,1.44.53-.11,1.03-.22,1.64-.35Zm-3.66-.55c.89-.13,1.7-1.47,1.65-2.27-1.22.24-1.82.97-1.65,2.27Zm.26-5.04c-.73,1.19-1.38,2.41-1.31,4.01,1.12-1.22,1.04-2.67,1.31-4.01Zm5.12,5.77c-.82-.18-1.5.56-1.94,1.48.99.01,2.06.06,1.94-1.48Zm-8.87-3.74c-1.34.88-1.35,1.44-.12,2.29.04-.75.08-1.48.12-2.29Zm8.96,2.87c-.17-.24-.33-.48-.5-.72-.31.25-.97-.15-1.02.44-.02.26-.07.84.45.91.4.05.97-.33,1.07-.63ZM25.49.34c-.1.52-.18.99-.28,1.52.76-.26,1.22-.7,1.48-1.36-.4-.05-.77-.1-1.19-.16Zm6.57,4.35c.06.07.12.13.17.2.28-.13.76-.23.79-.41.08-.44.7-.92-.07-1.48-.32.6-.6,1.15-.89,1.69Zm-.59,2.47c-.55.07-.97.08-1.36.18-.17.04-.28.28-.42.42.14.1.27.2.41.3.5.33.82.11,1.05-.36.07-.14.15-.26.32-.54Zm-.69-5.58c-.17.51-.33.98-.5,1.48.76-.05,1.18-.36,1.37-.97-.28-.16-.55-.32-.88-.51Zm2.98,6.31c.41-.23.76-.43,1.12-.64-.11-.36-.2-.68-.3-1.02-.87.26-.73.97-.82,1.66Zm-5.34-1.54c.23.52.6.67,1.12.5.04-.43.07-.85.11-1.31-.42.28-.81.54-1.23.81Zm6.08-1.77c-.84.25-.89.39-.55,1.43.65-.19.68-.26.55-1.43Zm-11.34-2.35c.65-.55.75-.96.42-1.54q-.62.26-.42,1.54Zm-.23,3.76c.07.02.14.05.21.07.1-.18.32-.39.28-.54-.07-.31-.27-.59-.41-.88-.07.03-.15.06-.22.09.05.42.09.85.14,1.27Zm1.25-3.9c-.06-.03-.12-.06-.17-.09-.27.37-.53.74-.8,1.11.05.04.11.08.16.12.26-.38.84-.54.81-1.13Zm.79-1.46c-.66.61-.72,1.01-.3,1.35.09-.41.18-.82.3-1.35Z"></path>
      <path class="cls-1" d="m61.32,68.5c.55.26,1.09.52,1.72.81-.66.59-1.25,1.11-1.87,1.66-.32-.18-.66-.33-.96-.55-.38-.27-.74-.26-1.14-.07-.96.46-1.99.56-3.03.59-1.27.04-2.53.03-3.8,0-1.18-.03-2.34-.16-3.45-.62-1.28-.53-2-1.37-2.1-2.85-.07-1.05-.13-2.1-.1-3.14.03-.89.18-1.77.79-2.51.52-.63,1.19-.98,1.93-1.2,1.96-.59,3.99-.6,6.01-.51,1.39.06,2.8.13,4.11.72,1.16.52,1.91,1.38,2.01,2.66.1,1.29.11,2.59.11,3.88,0,.37-.15.73-.24,1.13Zm-8.31-1.38c.57-.53,1.07-.96,1.53-1.43.21-.21.38-.24.64-.11.59.3,1.2.58,1.86.9,0-.85.02-1.61,0-2.36-.03-.68-.46-1.21-1.14-1.27-1.08-.1-2.17-.18-3.24-.09-1.07.09-1.54.53-1.53,1.8,0,.81,0,1.62,0,2.42,0,.67.35,1.22,1,1.3,1.07.12,2.16.1,3.24.14.08,0,.15-.08.27-.15-.88-.39-1.7-.75-2.62-1.15Z"></path>
      <path class="cls-1" d="m0,67.39h4.18c.1.9.5,1.1,1.32,1.13.93.04,1.86.02,2.8,0,.84,0,1.18-.37,1.11-1.14-.03-.33-.19-.51-.51-.55-.43-.05-.86-.08-1.3-.11-1.77-.14-3.54-.19-5.29-.45-1.63-.24-2.19-1.08-2.3-2.58-.09-1.22.23-2.33,1.38-2.91.69-.34,1.5-.53,2.28-.58,1.62-.11,3.26-.17,4.88-.11,1.16.04,2.35.06,3.44.62.89.46,1.36,1.15,1.32,2.16,0,.24,0,.48,0,.76h-4.09c-.08-1.08-.92-1.12-1.72-1.12-.83,0-1.66.12-2.49.19-.51.04-.59.38-.58.81.02.47.36.62.72.67.62.08,1.25.06,1.88.12,1.65.16,3.31.28,4.95.55,1.06.17,1.63.77,1.77,1.91.1.86.13,1.68-.23,2.48-.36.8-1.12,1.05-1.85,1.27-1.55.46-3.16.46-4.76.44-.95-.02-1.9.04-2.85-.02-.99-.06-2-.16-2.86-.75-.98-.67-1.19-1.66-1.2-2.81Z"></path>
      <path class="cls-1" d="m19.56,70.94h-4.32v-10.7h4.3v3.95h5.48v-3.95h4.32v10.69h-4.3v-4.16h-5.48v4.17Z"></path>
      <path class="cls-1" d="m46.63,70.96c-1.48,0-2.85,0-4.22-.01-.14,0-.33-.16-.41-.29-.22-.41-.42-.83-.59-1.26-.11-.27-.27-.34-.55-.34-1.58.01-3.16.02-4.75,0-.33,0-.51.11-.63.41-.12.32-.33.62-.4.95-.09.46-.33.57-.77.56-1.32-.03-2.64,0-4.04,0,1.63-3.62,3.24-7.18,4.86-10.77,2.1,0,4.21,0,6.32.02.15,0,.36.19.44.34.74,1.59,1.46,3.19,2.19,4.79.84,1.84,1.68,3.69,2.56,5.62Zm-8.15-8.47c-.64,1.52-1.24,2.96-1.85,4.42h3.74c-.63-1.48-1.24-2.89-1.89-4.42Z"></path>
      <path class="cls-1" d="m62.19,61.42v.87l-.18.05c-.1-.37-.2-.73-.3-1.13h1.39c.04.1.11.25.17.37.19-.17.37-.34.56-.51.05.03.09.07.14.1.03.36.06.71.11,1.26-.22-.21-.36-.34-.48-.45-.03.05-.11.27-.23.3-.12.02-.28-.16-.34-.2-.11.08-.25.18-.5.37.2-.93.16-1.06-.33-1.02Z"></path>
      <path class="cls-1" d="m19.72,48.72c-.13-.23-.18-.31-.22-.4-.38.39-.48.37-.63-.14-.06.13-.14.28-.21.43-.03-.02-.06-.04-.09-.06-.01-.27-.03-.54-.05-.9-.43.31,0,.8-.47.96-.1-.37-.18-.69-.26-1.03.73-.2,1.17-.1,1.35.33.15-.14.31-.3.58-.55v1.35Z"></path>
    </g>
  </g>
</svg>
