<?xml version="1.0" encoding="UTF-8"?>
<svg xmlns="http://www.w3.org/2000/svg" id="Layer_2" data-name="Layer 2" viewBox="0 0 54.46 62.24">
  <defs>
    <style>
      .cls-1 {
        fill: #fff;
      }
    </style>
  </defs>
  <g id="Layer_1-2" data-name="Layer 1">
    <g>
      <path class="cls-1" d="m.03,61.53v-24.62h54.36v25.33H.37s-.02-.07-.03-.1c.87-.29,1.74-.61,2.62-.86,4.33-1.24,8.65-2.55,13.01-3.68,3.91-1.02,7.85-1.9,11.8-2.73,1.93-.41,3.9-.63,5.87-.81,1.53-.14,3.09-.22,4.63-.13,3.15.19,6.16.94,8.93,2.58,1.7,1,3.27,2.15,4.67,3.54.38.38.82.7,1.42,1.05-.02-.21.04-.47-.07-.61-2.17-2.9-4.72-5.44-7.29-7.96-.31-.3-.67-.55-.97-.85-.98-.97-.98-2.17-.02-3.14,1.11-1.12,2.28-2.18,3.32-3.35,1.14-1.28,2.18-2.66,3.25-4.01.12-.15.16-.37.23-.55-.05-.06-.11-.11-.16-.17-.24.15-.52.27-.72.46-2.08,1.99-4.31,3.78-6.91,5.04-1.42.69-2.92,1.05-4.52,1.14-2.21.12-4.38-.11-6.53-.54-4.17-.83-8.37-1.58-12.51-2.53-2.76-.64-5.46-1.57-8.17-2.4-1.31-.4-2.59-.86-3.9-1.27-.17-.05-.39.07-.58.1.12.15.21.38.37.45,2.79,1.19,5.56,2.45,8.4,3.51,2.88,1.08,5.82,2,8.76,2.9,2.04.62,4.13,1.1,6.19,1.63.52.13,1.06.19,1.55.38.28.11.48.42.71.63-.23.18-.43.45-.69.51-3.47.89-6.98,1.67-10.43,2.66-3.32.95-6.61,2.05-9.87,3.21-2.84,1.01-5.61,2.19-8.41,3.32-1.42.58-2.82,1.22-4.27,1.85Z"></path>
      <path class="cls-1" d="m10.73,24.66c-.44,0-.87,0-1.31,0-.92,0-.96-.08-1.03-.99-.08-1.09-.27-2.17-.37-3.26-.04-.38-.2-.48-.54-.47-.79.01-1.58-.04-2.36.03-.23.02-.6.32-.63.53-.19,1.17-.31,2.34-.41,3.52-.04.49-.22.67-.72.65-.94-.03-1.88-.02-2.82,0-.4,0-.58-.14-.53-.54.13-1.02.27-2.04.42-3.06.24-1.57.5-3.13.76-4.69.29-1.75.59-3.5.87-5.26.24-1.5.46-3.01.7-4.51.28-1.78.55-3.56.89-5.32C3.89,0,3.94.02,5.27.02c1.03,0,2.05,0,3.08,0,1.17,0,1.2.02,1.35,1.13.35,2.57.7,5.15,1.06,7.72.38,2.7.78,5.39,1.18,8.08.34,2.29.69,4.58,1.04,6.87.11.7-.02.84-.74.84-.5,0-1.01,0-1.51,0Zm-4.56-7.07c.24,0,.48,0,.72,0,.59-.01.79-.28.72-.88-.18-1.45-.36-2.9-.52-4.35-.19-1.75-.35-3.51-.54-5.27-.01-.13-.17-.25-.26-.38-.08.11-.23.21-.24.33-.11.85-.19,1.71-.28,2.57-.09.92-.18,1.84-.28,2.76-.16,1.32-.41,2.64-.48,3.96-.08,1.43-.15,1.24,1.17,1.25Z"></path>
      <path class="cls-1" d="m35.03,12.3c0-3.85,0-7.69-.01-11.54,0-.56.13-.77.73-.76,2.27.03,4.55.01,6.82.01.78,0,.85.07.85.88q0,1.34-1.37,1.34c-.63,0-1.27,0-1.9,0-.47,0-.67.21-.67.67,0,2.56.01,5.11,0,7.67,0,.58.34.7.78.71.72.02,1.44.02,2.16,0,.43-.02.6.18.6.56,0,1.68.23,1.71-1.5,1.67-.5-.01-1.01.01-1.51,0-.4-.02-.54.15-.54.54,0,2.53.01,5.07,0,7.6,0,.41.17.53.55.52.9-.01,1.79,0,2.69,0,.5,0,.71.21.7.71-.02,1.94.23,1.78-1.72,1.78-1.99,0-3.98-.02-5.97,0-.54,0-.71-.15-.71-.7.02-3.89.01-7.78.01-11.67Z"></path>
      <path class="cls-1" d="m45.78,12.27c0-3.34,0-6.69,0-10.03,0-1.33.72-2.29,2.22-2.24,1.9.06,3.8.03,5.7,0,.51,0,.74.1.73.68-.02,1.54,0,1.55-1.57,1.55-.52,0-1.05,0-1.57,0-.77,0-.94.18-.94.97,0,3.34,0,6.69,0,10.03,0,2.64,0,5.29,0,7.93,0,.86.16,1.01,1.03,1.01.81,0,1.62.02,2.43,0,.44-.01.65.12.62.59-.03.43-.03.88,0,1.31.03.47-.17.6-.62.59-1.97-.02-3.94-.06-5.9.01-1.14.05-2.15-.71-2.14-2.18.02-3.41,0-6.82,0-10.23Z"></path>
      <path class="cls-1" d="m30.03,13.45c0,3.45,0,6.9,0,10.35,0,.79-.07.85-.87.86-.94,0-1.88-.03-2.82.01-.55.02-.73-.26-.76-.73,0-.15,0-.31,0-.46,0-6.81,0-13.63.01-20.44,0-.66-.24-.84-.83-.81-.61.03-1.22,0-1.83.01-.37,0-.5-.14-.5-.51.02-1.79-.22-1.73,1.59-1.72,2.82.01,5.64.01,8.45,0,.53,0,.73.12.72.69-.02,1.54,0,1.54-1.51,1.54-1.8,0-1.66-.15-1.66,1.65,0,3.19,0,6.38,0,9.56Z"></path>
      <path class="cls-1" d="m15.48,12.39c0-3.8,0-7.6,0-11.4,0-.81.1-1.02,1.02-.99.87.03,1.75.03,2.62,0,.63-.03.83.24.83.85-.01,6.75,0,13.49,0,20.24,0,.17,0,.35,0,.52.02.38.18.58.6.56.74-.03,1.49,0,2.23-.01.49-.01.7.19.71.69.05,1.79.06,1.79-1.7,1.79-1.88,0-3.76-.02-5.64.01-.53,0-.67-.17-.67-.68.02-3.86,0-7.73,0-11.59Z"></path>
      <path class="cls-1" d="m17.47,34.35h-.89v-6.33c.66-.25,1.03.05,1.41.59.94,1.34,1.94,2.64,3.01,4.09v-4.72h.86v6.35c-.49.07-.85.08-1.2-.44-.91-1.37-1.93-2.67-2.91-4-.05-.07-.13-.11-.28-.25v4.72Z"></path>
      <path class="cls-1" d="m40.27,29.6v4.72h-.75v-6.33c.48-.09.84-.11,1.2.41.94,1.38,1.98,2.69,3.07,4.14v-4.55h.91v6.3c-.58.26-.91-.06-1.2-.46-1.03-1.42-2.06-2.84-3.08-4.26-.05.01-.09.02-.14.03Z"></path>
      <path class="cls-1" d="m54.46,28.99c-.36.44-.63.64-1.15.15-.68-.64-1.74-.66-2.61-.13-.78.48-1.29,1.7-1.09,2.54.38,1.58,1.66,2.37,3.06,1.9.9-.3.94-.38.8-1.7h-2.01v-.74h2.98c0,.73.1,1.47-.04,2.15-.07.36-.51.73-.87.92-1.08.58-2.85.45-3.83-.46-1.39-1.28-1.37-3.67-.15-4.83,1.43-1.36,3.53-1.36,4.93.21Z"></path>
      <path class="cls-1" d="m12.99,34.33h-.99c-.02-.05-.04-.13-.06-.2q-.46-1.21-1.77-1.21h-.52c-1.2,0-1.22,0-1.63,1.08-.26.69-.76.23-1.22.38.89-2.19,1.75-4.3,2.6-6.4.67-.12,1.16-.08,1.44.72.62,1.77,1.37,3.49,2.06,5.23.05.11.06.24.1.4Zm-1.82-2.22c-.42-1.05-.81-2.01-1.25-3.09-.42,1.1-.8,2.07-1.2,3.09h2.44Z"></path>
      <path class="cls-1" d="m29.75,29.39c-.51-.57-1.18-.7-1.92-.67-.55.02-.95.29-1.04.79-.08.48.35.68.75.8.57.18,1.17.29,1.7.54.85.39,1.29.61,1.19,2-.05.7-.4,1.21-1.28,1.4-1.28.28-2.54.28-3.56-.87.16-.22.33-.46.52-.72.65.58,1.33,1.03,2.2.91.31-.04.64-.14.89-.32.55-.39.33-1.24-.39-1.51-.52-.19-1.05-.35-1.59-.49-1.26-.32-1.48-1.11-1.39-1.91.08-.8.94-1.53,1.9-1.51.65.01,1.32.16,1.92.4.82.32.81.58.07,1.15Z"></path>
      <path class="cls-1" d="m3.77,33.44v.87H.04v-6.34h.86v5.47h2.87Z"></path>
      <path class="cls-1" d="m35.24,34.33h-.83v-6.36h.83v6.36Z"></path>
    </g>
  </g>
</svg>
