<?xml version="1.0" encoding="UTF-8"?>
<svg xmlns="http://www.w3.org/2000/svg" id="Layer_2" data-name="Layer 2" viewBox="0 0 78.68 55.55">
  <defs>
    <style>
      .cls-1 {
        fill: #fff;
      }
    </style>
  </defs>
  <g id="Layer_1-2" data-name="Layer 1">
    <g>
      <path class="cls-1" d="m72.68,38.75h-.51v.43h.51c.13,0,.27-.03.29-.19.03-.22-.17-.24-.29-.24Z"></path>
      <path class="cls-1" d="m48.81,23.43c-1.86,0-2.52,1.32-2.52,2.94h5.29c0-1.5-.84-2.94-2.76-2.94Z"></path>
      <path class="cls-1" d="m72.54,38.03c-.69,0-1.26.56-1.26,1.26s.56,1.26,1.26,1.26,1.26-.57,1.26-1.26-.56-1.26-1.26-1.26Zm.69,1.85h-.24c-.03-.06-.04-.11-.04-.16-.02-.15.07-.38-.26-.38h-.52v.54h-.2v-1.26h.7c.24,0,.48.04.5.32.01.16-.05.22-.21.32.16.08.18.11.18.32,0,.16.01.22.08.26v.04Z"></path>
      <path class="cls-1" d="m32.11,23.43c-1.86,0-2.52,1.32-2.52,2.94h5.29c0-1.5-.84-2.94-2.76-2.94Z"></path>
      <path class="cls-1" d="m0,0v55.55h78.68V0H0Zm23.1,28.6c0,2.52-1.08,7.81-8.83,7.81s-8.59-4.93-8.59-7.69v-2.7h5.41v2.64c0,1.62,1.08,3.12,3.12,3.12s3.3-1.14,3.3-3.06v-14.77h5.59v14.66Zm9.31,4.38c1.8,0,2.4-1.44,2.4-1.44h5.11c0,2.22-3.06,5.22-7.69,5.16-5.29,0-7.87-3.9-7.87-7.93s2.28-8.71,7.39-8.71c4.38,0,8.23,1.68,8.23,9.43h-10.39c0,2.46,1.02,3.48,2.82,3.48Zm16.7,0c1.8,0,2.4-1.44,2.4-1.44h5.11c0,2.22-3.06,5.22-7.69,5.16-5.29,0-7.87-3.9-7.87-7.93s2.28-8.71,7.39-8.71c4.39,0,8.23,1.68,8.23,9.43h-10.39c0,2.46,1.02,3.48,2.82,3.48Zm23.43,7.72c-.78,0-1.41-.63-1.41-1.41s.63-1.41,1.41-1.41,1.41.63,1.41,1.41-.63,1.41-1.41,1.41Zm-5.05-3.75c-2.28,0-3.6-.9-3.9-1.26-.3-.36-.72-.42-.72,0v5.71h-5.23v-20.72h5.17v.84c0,1.26.66.54.72.36.06-.18,1.32-1.62,3.9-1.62s6.61,1.8,6.61,8.17c0,4.92-2.4,8.53-6.55,8.53Z"></path>
      <path class="cls-1" d="m65.62,24.27c-1.62,0-2.82,1.26-2.88,4.33-.06,3.06.6,4.69,3.12,4.69s2.88-2.76,2.88-4.87-.48-4.15-3.12-4.15Z"></path>
    </g>
  </g>
</svg>
