<?xml version="1.0" encoding="UTF-8"?>
<svg xmlns="http://www.w3.org/2000/svg" id="Layer_2" data-name="Layer 2" viewBox="0 0 87.23 50.46">
  <defs>
    <style>
      .cls-1 {
        fill: #fff;
      }
    </style>
  </defs>
  <g id="Layer_1-2" data-name="Layer 1">
    <g>
      <path class="cls-1" d="m21.84,9.16C21.97,3.84,26.3-.16,31.77,0c5.35.16,9.56,4.41,9.29,9.89-.25,4.95-4.56,8.78-9.98,8.66-5.23-.11-9.37-4.32-9.24-9.4Zm9.61-5.5c-3.09,0-5.59,2.51-5.61,5.62-.02,3.16,2.51,5.69,5.66,5.66,3.07-.02,5.59-2.58,5.57-5.67-.02-3.1-2.54-5.62-5.62-5.62Z"></path>
      <path class="cls-1" d="m14.82,18.22c-1.49,0-2.72.04-3.95-.03-.33-.02-.75-.28-.94-.56-.84-1.24-1.62-2.53-2.42-3.8-1.1-1.75-1.32-1.85-3.58-1.42v5.74H0V.31c.7,0,1.4,0,2.1,0,1.68,0,3.35,0,5.03,0,3.11,0,5.42,1.55,6.23,4.18.62,2.02.32,5.02-2.87,6.88,1.4,2.23,2.81,4.45,4.32,6.85ZM3.98,8.64c1.31,0,2.54.1,3.75-.03,1.17-.12,1.86-1.12,1.85-2.34,0-1.17-.69-2.17-1.8-2.27-1.24-.12-2.5-.03-3.8-.03v4.66Z"></path>
      <path class="cls-1" d="m63.77.31c-1.73,2.7-3.27,5.19-4.92,7.61-.57.84-.55,1.41.02,2.24,1.61,2.33,3.12,4.74,4.66,7.11.16.25.29.52.53.94-1.46,0-2.77.03-4.09-.03-.25-.01-.54-.36-.72-.63-1.19-1.79-2.35-3.6-3.58-5.5-1.2,1.85-2.37,3.61-3.49,5.4-.34.55-.71.82-1.39.78-1.09-.06-2.19-.02-3.47-.02.24-.42.41-.72.6-1.02,1.59-2.47,3.16-4.95,4.8-7.39.42-.62.36-1.05-.03-1.63-1.48-2.22-2.91-4.47-4.35-6.7-.2-.31-.38-.63-.7-1.15,1.52,0,2.86-.03,4.2.03.24.01.52.39.69.66,1.05,1.6,2.07,3.21,3.17,4.92,1.05-1.66,2.09-3.22,3.05-4.82.36-.61.78-.84,1.48-.81,1.09.05,2.18.01,3.53.01Z"></path>
      <path class="cls-1" d="m28.82,28.31c1.4.24,2.47.55,3.55.59,2.05.09,4.1-.03,6.14.06.83.04,1.75.22,2.44.64,1.9,1.15,2.63,2.35,2.16,4.78-.66-.79-1.24-1.63-1.96-2.32-1.9-1.82-4.77-1.88-6.72-.22-2.08,1.77-2.53,4.5-.92,6.7.76,1.03,1.81,1.85,2.75,2.74,1.79,1.69,3.51,3.46,5.41,5.02,1.34,1.1,1.91,2.31,1.42,4.13-.3-.25-.6-.48-.87-.74-5.41-5.13-10.81-10.25-16.21-15.38-.27-.26-.55-.51-.8-.8-.56-.63-.64-1.23.05-1.86,1.28-1.17,2.53-2.39,3.56-3.35Z"></path>
      <path class="cls-1" d="m87.23.43c-1.98,3.37-3.88,6.64-5.83,9.87-.51.85-.79,1.68-.75,2.69.07,1.7.02,3.4.02,5.16h-3.97c0-1.8.06-3.56-.03-5.32-.04-.74-.22-1.55-.59-2.19-1.76-3.12-3.61-6.19-5.43-9.27-.17-.29-.32-.58-.57-1.05,1.44,0,2.72-.04,3.99.03.27.02.59.41.76.7,1.26,2.14,2.49,4.3,3.82,6.61.69-1.17,1.31-2.23,1.93-3.3.26-.44.5-.89.76-1.33,1.77-3.06,2.09-3.21,5.88-2.6Z"></path>
      <path class="cls-1" d="m44.16,34.17c-.54-2.79,1.19-5.02,4.24-5.2,2.08-.12,4.17.02,6.24-.07,1.15-.05,2.3-.33,3.77-.56,1.03.97,2.4,2.2,3.69,3.51.64.65.31,1.32-.27,1.87-3.44,3.27-6.88,6.54-10.33,9.8-2.23,2.11-4.46,4.23-6.69,6.34-.19.18-.39.34-.69.6-.13-1.57-.18-2.79,1.17-3.93,2.72-2.28,5.22-4.81,7.81-7.25,1.89-1.78,2.05-4.75.37-6.76-1.73-2.07-4.74-2.53-6.81-.93-.94.74-1.69,1.73-2.49,2.57Z"></path>
      <path class="cls-1" d="m43.21,46.16c-1.33-1.25-2.49-2.33-3.65-3.41-1.39-1.31-2.76-2.65-4.17-3.94-1.11-1.01-1.42-2.26-1.39-3.91,1.79,0,3.52,0,5.25,0,.68,0,1.37-.01,2.05,0,1.11.03,1.87.57,1.89,1.61.07,3.13.02,6.25.02,9.64Zm-3.67-7.37c.96.39,1.82.75,2.66,1.09,0-.95.07-1.95-.04-2.93-.04-.36-.49-.96-.77-.97-1.13-.06-2.26.08-3.38.14.39,1.36,1.5,1.18,2.57,1.31-.43.56-.77,1.01-1.04,1.36Z"></path>
      <path class="cls-1" d="m53.18,35.1c.07,1.49-.3,2.71-1.4,3.73-2.53,2.34-5.02,4.73-7.68,7.26-.05-.43-.11-.7-.11-.97,0-2.66-.02-5.33,0-7.99,0-1.65.59-2.22,2.24-2.21,2.19.01,4.38.05,6.56.08.1,0,.19.05.4.11Zm-3.96,1.02c-1.09-.06-2.14-.2-3.19-.15-.35.02-.93.47-.96.77-.12,1.06-.05,2.14-.05,3.13.85-.34,1.72-.69,2.63-1.05-.27-.37-.61-.83-1.05-1.45,1.19.03,2.17.03,2.61-1.24Z"></path>
    </g>
  </g>
</svg>
