<?xml version="1.0" encoding="UTF-8"?>
<svg xmlns="http://www.w3.org/2000/svg" id="Layer_2" data-name="Layer 2" viewBox="0 0 80.87 55.57">
  <defs>
    <style>
      .cls-1 {
        fill: #fff;
      }
    </style>
  </defs>
  <g id="Layer_1-2" data-name="Layer 1">
    <g>
      <path class="cls-1" d="m.04,21.42c1.25-.26,2.44-.43,3.59-.75,3.2-.9,5.56-3.08,7.82-5.35,2.68-2.69,5.23-5.5,7.91-8.19,2.6-2.61,5.45-4.91,9.02-6.13C31.35,0,34.36-.3,37.44.32c.6.12,1.24.47,1.69.9,1.81,1.72,3.55,3.51,5.27,5.22-1.94-.36-3.89-.85-5.86-1.08-9.96-1.14-18.51,7.29-17.71,17.28.68,8.51,6.65,13.8,14.94,14.46,1.04.08,2.09.09,3.13.09,11.65,0,23.3.02,34.95-.02,1.11,0,1.89.31,2.63,1.11,1.35,1.46,2.79,2.82,4.39,4.42h-1.27c-24.82,0-49.64,0-74.46,0-2.67,0-4.4-1.16-5-3.35-.08-.3-.13-.62-.13-.93,0-5.54,0-11.07,0-16.61,0-.12.02-.25.03-.39Z"></path>
      <path class="cls-1" d="m71.9,33.91c-.5,0-.81,0-1.12,0-11.3,0-22.59,0-33.89,0-2.95,0-5.68-.8-8.13-2.47-.42-.28-.81-.61-1.17-.96-1.7-1.66-1.68-1.92-.06-3.57,4.81-4.89,9.63-9.78,14.41-14.7,1.58-1.63,3.36-2.47,5.62-1.83.62.18,1.26.51,1.71.95,7.44,7.36,14.86,14.75,22.27,22.14.09.08.15.19.36.45Zm-17.08-11.58c.04-.1.08-.21.12-.31-.16-.22-.3-.47-.49-.65-2.34-2.31-4.69-4.61-7.05-6.9-.84-.82-1.71-.82-2.58,0-2.42,2.27-4.83,4.56-7.23,6.84-.22.2-.39.45-.58.68.03.12.05.23.08.35.89,0,1.78-.08,2.66.02,1.48.16,2.71-.19,3.73-1.33.43-.49.98-.89,1.52-1.28.23-.17.63-.32.84-.23.19.08.31.51.32.79.03,1.52,0,3.04.03,4.55,0,.28.2.55.31.82.24-.11.53-.17.73-.34.8-.71,1.61-1.43,2.35-2.2.56-.58,1.15-.88,1.99-.82,1.08.08,2.18.02,3.27.02Z"></path>
      <path class="cls-1" d="m27.96,50.99c1.27-1.25,2.36-2.34,3.46-3.4.79-.75,1.91-.69,2.48.14.49.72.43,1.44-.19,2.07-.47.47-.98.89-1.42,1.28.8,1.4,1.87,1.86,3.32,1.77,1.73-.11,3.48-.03,5.22-.03.19,0,.38,0,.57,0,.58,0,1.14-.11,1.13-.84-.01-.68-.56-.74-1.1-.74-1.33,0-2.66.01-3.99,0-1.43-.02-2.26-.76-2.27-2-.01-1.22.93-2.07,2.32-2.08,1.99-.01,3.97,0,6,0v1.17c-1.18,0-2.37,0-3.56,0-.85,0-1.72-.07-2.56.04-.33.04-.61.48-.92.74.31.29.61.8.94.82,1.45.09,2.91.03,4.36.05,1.35.01,2.27.84,2.27,2.02,0,1.18-.93,2.02-2.27,2.03-2.34,0-4.69-.06-7.02.03-1.41.05-2.45-.4-3.24-1.55-.3-.44-.68-.83-1.02-1.25.73-1,1.85-1.66,2.31-2.86-2.24,1.56-3.9,3.73-6.13,5.68v-8.4c-.13-.02-.27-.05-.4-.07-.08.29-.21.58-.22.87-.02,2.18-.01,4.36-.01,6.55,0,.31,0,.62,0,.97h-1.24c0-.55,0-1.08,0-1.6,0-2.06,0-4.11,0-6.17,0-1.14.64-1.82,1.63-1.79.92.02,1.52.71,1.53,1.79.01,1.5,0,3.01,0,4.77Z"></path>
      <path class="cls-1" d="m75.29,51.51c1.7.77,3.41,1.55,5.11,2.32l-.08.35c-1.08-.19-2.19-.28-3.23-.59-1.11-.34-2.16-.88-3.24-1.34-.64-.27-1.1-.69-.92-1.45.17-.73.82-.69,1.38-.69,1.23,0,2.47,0,3.7,0,.58,0,1.15-.12,1.15-.82,0-.72-.55-.8-1.15-.79-1.86.01-3.72,0-5.73,0,0,1.06,0,2.02,0,2.99-.01,1.89-.62,2.52-2.49,2.54-1.55.02-3.1,0-4.65,0-1.83,0-2.27-.46-2.26-2.31,0-.22,0-.43,0-.85h5.81c0-.15,0-.29,0-.44-1.9-.16-3.82,0-5.79-.1,0-.63-.05-1.19.01-1.75.09-.78.58-1.33,1.36-1.35,1.98-.06,3.97-.02,6-.02v1.06c-2.02.13-4.02.25-6.01.39-.06,0-.09.27-.19.59,1.25,0,2.4,0,3.55,0,.35,0,.7-.02,1.04,0,.82.05,1.28.53,1.37,1.31.08.71-.55,1.39-1.36,1.42-1.23.05-2.47,0-3.7.04-.26,0-.52.19-.78.3.26.17.51.47.77.48,1.55.05,3.1.05,4.65.01.81-.02,1.28-.44,1.27-1.32-.02-1.39,0-2.77,0-4.3.86,0,1.64,0,2.42,0,1.68,0,3.35-.04,5.03-.02,1.34.01,2.21.86,2.21,2.08,0,1.21-.89,2.07-2.21,2.08-1.01.01-2.02,0-3.03,0,0,.06-.01.11-.02.17Z"></path>
      <path class="cls-1" d="m8.83,55.47c-1.15.26-2.01.04-2.69-.85-.42-.55-.99-.98-1.46-1.49-.65-.73-.6-1.67.06-2.29.64-.6,1.52-.59,2.22.04.56.51,1.08,1.07,1.64,1.57.14.13.42.26.56.21.14-.05.28-.34.28-.53.03-1.01.05-2.03-.02-3.03-.01-.22-.41-.59-.63-.59-2.31-.04-4.62-.04-6.93,0-.19,0-.53.4-.55.64-.07.85.02,1.71-.04,2.56-.06.83.23,1.11,1.07,1.09,1.48-.04,1.48,0,2.48,1.17-1.31,0-2.55.11-3.77-.04-.68-.08-1.06-.75-1.07-1.5,0-1.2-.02-2.4,0-3.61.03-1.01.67-1.64,1.69-1.65,2.44-.02,4.87-.02,7.31,0,1.08.01,1.76.73,1.76,1.82,0,1.11-.03,2.21-.04,3.32,0,.77-.33,1.37-1.05,1.64-.7.26-1.37.14-1.93-.41-.62-.61-1.24-1.23-1.99-1.72.62,1.51,2.06,2.35,3.06,3.68Z"></path>
      <path class="cls-1" d="m20.07,54.03c-1.31,0-2.57,0-3.82,0-.98,0-1.96.06-2.94.05-1.18-.01-1.75-.41-1.8-1.5-.09-1.76-.02-3.52-.02-5.34h1.29c0,1.42.05,2.84-.02,4.25-.05.97.29,1.27,1.25,1.22,1.57-.07,3.15-.02,4.85-.02,0-1.27,0-2.46,0-3.65,0-1.25.57-1.95,1.57-1.96,1.04-.01,1.63.69,1.63,1.99,0,1.61,0,3.22,0,4.88h-1.23c-.22-1.88.11-3.8-.4-5.68-.43,1.86-.2,3.76-.34,5.74Z"></path>
      <path class="cls-1" d="m46.55,53.99c0-2.75-.02-5.4,0-8.05,0-.87.68-1.48,1.52-1.5.91-.03,1.62.59,1.65,1.59.05,1.58.02,3.16.02,4.74,0,.66,0,1.31,0,2.07.95,0,1.81.06,2.65-.02.9-.08,1.53.19,1.86,1.14h-5.76c-.16-2.77.12-5.56-.15-8.31-.16,0-.31,0-.47,0v8.34h-1.32Z"></path>
      <path class="cls-1" d="m52.87,48.7c1.32,1.72,2.64,3.44,4.02,5.23-.95.2-1.6.14-2.13-.67-.73-1.1-1.61-2.11-2.42-3.17-.84-1.09-.82-2.03.03-2.65.83-.6,1.7-.36,2.5.68.92,1.2,1.84,2.41,2.86,3.73.89-1.24,1.8-2.36,2.55-3.59.58-.96,1.29-1.29,2.5-.96-1.66,2.26-3.29,4.48-4.98,6.78-1.53-1.98-2.99-3.87-4.45-5.76-.16.13-.31.25-.47.38Z"></path>
      <path class="cls-1" d="m23.99,53.98h-1.13v-6.75h1.13v6.75Z"></path>
      <path class="cls-1" d="m45.74,54h-1.1v-6.76h1.1v6.76Z"></path>
    </g>
  </g>
</svg>
