<?xml version="1.0" encoding="UTF-8"?>
<svg xmlns="http://www.w3.org/2000/svg" id="Layer_2" data-name="Layer 2" viewBox="0 0 150.88 37.12">
  <defs>
    <style>
      .cls-1 {
        fill: #fff;
      }
    </style>
  </defs>
  <g id="Layer_1-2" data-name="Layer 1">
    <g>
      <path class="cls-1" d="m22.17,22.69c-1.48.34-2.79.55-4.03.95-1.53.49-2.54,2.03-2.34,3.3.21,1.33,1.8,2.65,3.44,2.19,2.62-.74,5.2-1.78,7.59-3.07,3.54-1.91,6.8-4.49,10.88-5.06,2.26-.32,4.63,0,6.92.25.67.07,1.26.86,2.28,1.61-1.39,0-2.24-.08-3.07.02-1.85.2-3.71,1.99-3.64,3.4.07,1.3,1.9,2.78,3.88,2.52,3.24-.42,6.42-1.26,9.63-1.92.11-.02.22-.04.47-.08v10.04H0v-10.65c4.24-1.67,8.65-3.62,13.21-5.12,3-.99,6.07-.51,8.96,1.62Z"></path>
      <path class="cls-1" d="m20.65,8.67c-2.6-2.16-5.56-2.1-8.35-1.11-3.46,1.22-6.75,2.92-10.12,4.42-.68.3-1.33.66-2.16,1.08V.41h54.29c0,3.96.02,7.93-.04,11.9,0,.35-.54.91-.91.99-3.09.65-6.19,1.39-9.32,1.73-2.49.28-4.15-1.08-4.21-2.86-.06-1.85,1.92-3.64,4.19-3.77.38-.02.77,0,1.15-.14-3.2-2-6.56-1.65-9.72-.22-3.45,1.56-6.65,3.66-10.05,5.33-1.83.9-3.81,1.73-5.8,2-2.68.35-4.03-.72-4.17-2.54-.16-2.16,1.32-3.74,3.84-4.07.45-.06.91-.06,1.37-.09Z"></path>
      <path class="cls-1" d="m97.21,36.96c-4.02,0-6.47-2.43-6.47-6.4,0-3.64,2.8-6.57,6.32-6.63,3.54-.06,6.95,3.26,6.72,6.76-.25,3.66-2.85,6.79-6.57,6.28Zm-3.64-6.32c0,1.94,1.71,3.81,3.51,3.85,1.81.04,3.99-2.27,3.92-4.14-.06-1.59-2.15-3.57-3.83-3.61-1.87-.05-3.6,1.83-3.59,3.9Z"></path>
      <path class="cls-1" d="m70.28,36.96v-12.66c1.89,0,3.82-.33,5.58.08,2.68.62,3.53,2.42,2.76,5.46-.13.5-.17,1.14.03,1.59,1.1,2.49-.42,5.3-3.14,5.51-1.69.13-3.39.02-5.23.02Zm6.03-3.36c0-.35,0-.69,0-1.04-1.01-.23-2.02-.46-3.13-.7v2.5c1.16-.28,2.15-.52,3.13-.76Zm-3.17-4.06c1.08-.4,1.93-.67,2.73-1.05.12-.06.12-.79.03-.82-.86-.3-1.74-.52-2.77-.81v2.68Z"></path>
      <path class="cls-1" d="m66.49.29c2.1,0,4.1.05,6.1-.02,1.55-.05,2.1.93,2.21,2.15.17,1.91-.07,3.8.31,5.75.42,2.19-1.45,4-3.71,4.09-1.59.06-3.17.01-4.9.01V.29Zm2.75,4.52c1.23-.36,2.22-.65,3.21-.94-.01-.3-.02-.61-.03-.91-1.01-.24-2.02-.48-3.18-.75v2.6Zm0,4.99c1.27-.41,2.25-.73,3.23-1.05-.02-.3-.04-.6-.07-.9-1.02-.21-2.04-.42-3.16-.65v2.6Z"></path>
      <path class="cls-1" d="m115.93,36.85v-12.81c3.1,1.17,3.98,4.43,6.58,6.15v-5.83h2.75v12.77c-3.18-.98-3.98-4.38-6.56-6.06v5.8h-2.76Z"></path>
      <path class="cls-1" d="m144.47,34.42v-4.07h2.7v6.05c-3.6,1.33-6.72.47-8.6-2.36-1.4-2.12-1.03-5.94.99-8.02,1.72-1.78,4.84-2.78,7.76-1.12-.38.76-.77,1.52-1.15,2.28-3.04-.56-5.24.46-5.58,2.58-.38,2.4,1.15,4.31,3.88,4.66Z"></path>
      <path class="cls-1" d="m150.88,12.27c-1.41-.12-2.52.41-3.44-1.1-.35-.57-3.19-.57-3.46-.06-1,1.86-2.4.9-3.83,1.15,1.67-4.08,3.27-7.99,5.02-12.27.62.41,1.42.65,1.64,1.15,1.36,3.1,2.6,6.25,3.84,9.4.18.46.14,1.01.22,1.73Z"></path>
      <path class="cls-1" d="m102.89.37h2.65v9.02h3.82v2.8h-6.47V.37Z"></path>
      <path class="cls-1" d="m124.29,9.47h3.78v2.7h-6.49V.42h2.7v9.05Z"></path>
      <path class="cls-1" d="m87.32.36h2.61v11.83h-2.61V.36Z"></path>
    </g>
  </g>
</svg>
