<?xml version="1.0" encoding="UTF-8"?>
<svg xmlns="http://www.w3.org/2000/svg" id="Layer_2" data-name="Layer 2" viewBox="0 0 105.91 53.62">
  <defs>
    <style>
      .cls-1 {
        fill: #fff;
      }
    </style>
  </defs>
  <g id="Layer_1-2" data-name="Layer 1">
    <g>
      <path class="cls-1" d="m96.08,17.82h-4.49c-.01-.07-.04-.13-.04-.19,0-.71.01-1.43.02-2.14,0-.05,0-.11,0-.16,0-.1,0-.19,0-.29,0-4.86-.02-9.72-.03-14.58,0-.14,0-.27,0-.4.05-.02.08-.05.11-.05,1.43,0,2.86,0,4.28,0,.04,0,.08.02.12.03.05.13.03.26.03.39,0,2.56,0,5.12,0,7.67,0,.13-.02.25.04.39.05,0,.1.02.15.02.7,0,1.41,0,2.11-.01.29,0,.57-.05.85-.14.61-.2,1.09-.58,1.43-1.12.29-.47.44-.99.53-1.53.08-.48.07-.96.08-1.43,0-.1,0-.21.01-.31.12-.08.24-.06.36-.06.96,0,1.92,0,2.88,0,.31,0,.62,0,.93,0,.08,0,.17,0,.25.01.02.04.04.07.04.1.03,1.03,0,2.05-.28,3.04-.13.46-.31.91-.57,1.31-.37.57-.87.98-1.45,1.32-.39.23-.79.42-1.21.56-.1.03-.19.08-.32.14.06.04.09.06.13.08.32.12.64.22.95.37,1.6.73,2.52,1.98,2.81,3.7.06.37.09.74.1,1.11.02.63.01,1.26.01,1.89,0,.08-.01.17-.02.23-.03.02-.03.03-.04.03,0,0-.02,0-.03,0-.07,0-.15,0-.22,0-1.36,0-2.73,0-4.09,0-.02,0-.04-.01-.08-.03,0-.07-.02-.15-.02-.23,0-.59,0-1.17,0-1.76,0-.35-.03-.7-.11-1.05-.25-1.11-.93-1.85-1.99-2.23-.43-.16-.89-.24-1.35-.25-.55-.02-1.11,0-1.66,0-.05,0-.1.01-.15.02-.06.12-.04.24-.04.36,0,1.49,0,2.98,0,4.48,0,.16,0,.32,0,.48,0,.06-.01.12-.02.22Z"></path>
      <g>
        <path class="cls-1" d="m88.78,53.62c-.17,0-.28-.07-.39-.12-2.41-1.04-4.83-2.09-7.24-3.13-1.8-.78-3.6-1.55-5.39-2.34-4.25-1.85-8.51-3.66-12.8-5.41-4.66-1.91-9.35-3.74-14.1-5.43-4.91-1.75-9.86-3.33-14.87-4.77-4.01-1.16-8.05-2.22-12.11-3.18-2.51-.6-5.02-1.16-7.54-1.69-1.83-.38-3.67-.76-5.51-1.13-1.18-.24-2.36-.45-3.55-.67-.11-.02-.22-.04-.32-.12.11,0,.21,0,.32,0,12.02,0,24.05,0,36.07,0,.24,0,.46.04.67.16,1.5.84,3,1.66,4.49,2.51,6.01,3.44,11.97,6.97,17.92,10.51,6.37,3.79,12.73,7.61,19.06,11.48,1.57.96,3.13,1.95,4.69,2.93.2.12.39.24.6.41Z"></path>
        <path class="cls-1" d="m8.62,52.74c.06-.09.09-.15.13-.19.3-.37.61-.74.92-1.11,2.84-3.38,6.22-6.12,9.97-8.43,2.71-1.67,5.52-3.13,8.44-4.39.82-.35,1.64-.7,2.47-1.05.48-.2.97-.38,1.45-.58.44-.17.87-.34,1.31-.51.43-.16.86-.32,1.28-.48.14-.05.27-.03.41.01.64.19,1.29.38,1.93.58,1.97.63,3.93,1.26,5.9,1.89.58.19,1.15.38,1.73.57.09.03.17.07.29.12-.07.04-.11.06-.14.08-.6.25-1.2.49-1.8.75-.71.31-1.42.62-2.11.98-.6.31-1.2.59-1.79.91-.64.34-1.26.71-1.89,1.06-.79.44-1.56.92-2.31,1.42-.97.63-1.92,1.3-2.84,2.01-.98.75-1.94,1.53-2.85,2.37-.54.5-1.08,1-1.6,1.52-.7.72-1.36,1.47-1.98,2.26-.03.03-.06.07-.08.1-.08.12-.18.16-.33.15-.77,0-1.53,0-2.3,0-3.95,0-7.91-.02-11.86-.02-.7,0-1.41,0-2.11,0-.05,0-.11,0-.22-.01Z"></path>
        <path class="cls-1" d="m4.34,17.81c-.44.04-4.06.03-4.3-.01,0,0-.02-.01-.02-.02,0,0,0-.02,0-.03C0,11.9,0,6.06,0,.22c0-.05,0-.11.01-.17C.08.03.13.01.19,0c.07,0,.15,0,.22,0C3.69,0,6.96,0,10.23,0c.56,0,1.13.01,1.69.07.91.09,1.77.36,2.58.78.98.51,1.82,1.19,2.45,2.1.66.94,1,1.99,1.02,3.14.02,1.01-.16,1.97-.58,2.89-.5,1.08-1.28,1.9-2.31,2.49-.31.18-.63.35-.97.47-.1.04-.22.08-.31.19.09.04.17.09.24.11.32.08.61.24.91.37.29.13.54.3.78.49,1.03.8,1.58,1.85,1.66,3.15.01.2.02.4.02.61,0,1.48,0,2.96,0,4.44,0,.13.02.26-.04.39-.06,0-.12.02-.18.03-1.09.04-4.07.02-4.34-.03-.07-.11-.04-.23-.04-.34,0-1.08,0-2.15,0-3.23,0-.44-.02-.87-.09-1.31-.06-.35-.15-.69-.3-1.01-.32-.71-.85-1.21-1.58-1.5-.63-.25-1.3-.34-1.97-.35-.86-.01-1.73,0-2.59,0-.12,0-.23,0-.35,0-.02-.06-.03-.1-.03-.14,0-1.15,0-2.3,0-3.45,0-.03.02-.06.04-.11.1,0,.2,0,.31,0,1.22,0,2.43,0,3.65,0,.33,0,.66.01.99-.06,1.26-.27,2.01-1.06,2.32-2.28.16-.63.12-1.27-.05-1.9-.24-.84-.76-1.44-1.56-1.79-.49-.22-1.02-.31-1.56-.31-1.34,0-2.69,0-4.03,0-.45,0-.9,0-1.34,0-.08,0-.17,0-.27,0-.02.07-.04.13-.04.19,0,.12,0,.23,0,.35,0,4.32,0,8.63,0,12.95,0,.14.02.28-.03.42Z"></path>
        <path class="cls-1" d="m56.63,30.46c.12-.04.19-.07.26-.08,1.52-.28,3.04-.57,4.56-.82,1.43-.24,2.86-.45,4.29-.67,1.14-.17,2.28-.33,3.42-.49,1.08-.15,2.16-.28,3.23-.41.99-.12,1.99-.24,2.98-.36.86-.1,1.72-.19,2.57-.28.89-.1,1.78-.2,2.67-.29.74-.08,1.48-.14,2.23-.22.76-.08,1.53-.15,2.29-.23.57-.05,1.15-.1,1.72-.15.59-.05,1.19-.11,1.78-.16.59-.05,1.19-.1,1.78-.15.66-.06,1.32-.11,1.97-.17.64-.05,1.27-.1,1.91-.15.71-.06,1.42-.11,2.14-.17.34-.03.68-.05,1.02-.08,1.13-.08,2.25-.17,3.38-.25.75-.05,1.51-.1,2.26-.15.78-.05,1.55-.11,2.33-.16.07,0,.14,0,.22.02-.15.04-.3.09-.46.13-2.16.55-4.32,1.09-6.47,1.64-.95.24-1.89.5-2.84.76-.75.2-1.5.41-2.25.62-.54.15-1.09.3-1.63.46-.76.22-1.51.43-2.27.66-.71.21-1.43.43-2.14.65-.56.17-1.12.33-1.68.51-.58.18-1.15.38-1.73.57-.49.16-.99.32-1.48.49-.51.17-1.03.35-1.54.53-.27.09-.54.19-.81.28-.62.23-1.24.46-1.86.68-.39.14-.78.28-1.17.42-.48.18-.96.36-1.43.54-.27.1-.54.2-.81.3-.52.2-1.03.39-1.55.59-.47.18-.93.36-1.4.55-.6.24-1.21.48-1.81.73-.77.31-1.54.63-2.31.94-.05.02-.1.03-.18.06-1.85-1.1-3.72-2.21-5.59-3.32-1.87-1.11-3.73-2.21-5.64-3.35Z"></path>
        <path class="cls-1" d="m60.35,14.06c.14,0,.25,0,.37,0,1.01,0,2.03,0,3.04,0,1.35,0,2.54-.86,2.93-2.16.34-1.13.17-2.18-.57-3.11-.53-.67-1.24-1.04-2.09-1.08-.57-.03-1.15-.01-1.73-.02-.12,0-.23,0-.34,0-.1-.12-.06-.24-.06-.35,0-.79,0-1.58,0-2.37,0-.23,0-.47,0-.7,0-.09,0-.19.02-.3.06-.01.11-.04.16-.04.94,0,1.88,0,2.81,0,2.68.02,5.17,1.78,6.11,4.54.34,1,.47,2.03.38,3.09-.15,1.68-.89,3.07-2.14,4.2-.44.39-.91.74-1.42,1.02-1.22.68-2.53,1.05-3.94,1.05-2.59,0-5.18,0-7.77,0-.09,0-.19,0-.3-.02,0-.07-.02-.13-.02-.2,0-.07,0-.15,0-.22,0-5.65,0-11.3,0-16.95V.09c.08-.1.18-.08.26-.08.53,0,1.07,0,1.6,0,.78,0,1.56,0,2.33,0,.1,0,.21-.03.32.06.04.13.02.27.02.4,0,4.38,0,8.76,0,13.14,0,.14-.02.27.04.45Z"></path>
        <path class="cls-1" d="m56.37,43.4c-.36.26-.68.48-.99.72-.67.5-1.35,1-2.01,1.52-1.38,1.11-2.67,2.32-3.84,3.65-.87.98-1.65,2.03-2.38,3.12-.04.05-.08.1-.1.16-.08.17-.21.22-.39.2-.04,0-.09,0-.13,0-4.78,0-9.57,0-14.35,0-.12,0-.25.03-.37-.04.01-.13.1-.19.17-.28.79-1.03,1.67-1.96,2.6-2.86,2.39-2.33,5.05-4.32,7.89-6.07,1.83-1.13,3.75-2.11,5.7-3.03.18-.08.33-.1.51-.03,1.89.71,3.79,1.42,5.68,2.13.49.18.98.37,1.46.55.18.07.35.15.57.24Z"></path>
        <path class="cls-1" d="m52.71,3.94c0,.13.02.21.02.29,0,1.15,0,2.3,0,3.45,0,.19-.05.35-.15.51-.88,1.38-1.76,2.77-2.64,4.15-.03.05-.07.1-.12.17-.07,0-.14.02-.21.02-1.28,0-2.56,0-3.84,0-.06,0-.13,0-.18-.01-.06-.09,0-.15.04-.21.22-.37.46-.74.68-1.12.25-.42.5-.84.75-1.26.38-.64.76-1.28,1.14-1.92.05-.09.12-.17.14-.3-.07-.01-.13-.03-.19-.03-1.13,0-2.26,0-3.39,0-.2,0-.41.02-.6.05-.16.03-.31.07-.46.14-.24.11-.49.21-.7.37-1.71,1.23-1.88,3.88,0,5.26.47.34,1,.53,1.58.55.57.02,1.15.02,1.73.02,2.04,0,4.07,0,6.11,0,.1,0,.21,0,.33.01.01.08.03.14.03.2,0,1.1,0,2.2,0,3.29,0,.07-.02.14-.03.23-.12,0-.22,0-.33,0-2.75,0-5.5,0-8.25,0-3.34,0-6.11-2.32-6.76-5.56-.33-1.64-.1-3.2.69-4.68.23-.42.48-.83.79-1.2.91-1.06,2.02-1.82,3.38-2.19.58-.16,1.17-.25,1.77-.25.81,0,1.62,0,2.43,0,1.96,0,3.92,0,5.88,0,.12,0,.23,0,.38,0Z"></path>
        <path class="cls-1" d="m30.65,7.7c-.09,0-.16-.02-.23-.02-1.1,0-2.2-.01-3.29,0-.32,0-.64.04-.95.13-.32.09-.63.25-.91.46-1,.79-1.46,1.84-1.27,3.1.18,1.22.9,2.07,2.05,2.53.25.1.51.16.78.17.18,0,.36.01.54.01,2.42,0,4.84,0,7.26,0,.13,0,.25,0,.4,0,.01.08.03.13.03.19,0,1.12,0,2.24,0,3.36,0,.05-.01.1-.02.17-.11,0-.22.01-.32.01-.93,0-1.85,0-2.78,0-1.83,0-3.67,0-5.5,0-3.29,0-6.08-2.32-6.74-5.55-.26-1.26-.17-2.5.26-3.72.2-.56.47-1.09.81-1.59,1.01-1.5,2.41-2.44,4.16-2.86.45-.11.9-.16,1.36-.16.91,0,1.81,0,2.72,0,1.89,0,3.77,0,5.66,0,.11,0,.23-.02.36.04,0,.07.02.14.02.22,0,1.18,0,2.37,0,3.55,0,.14-.03.27-.11.39-.9,1.41-1.8,2.82-2.69,4.23-.03.05-.07.1-.1.15-.32.04-2.66.06-4.07.03-.06,0-.12-.01-.21-.02.03-.06.04-.11.06-.16.31-.52.61-1.05.92-1.57.55-.91,1.1-1.82,1.65-2.73.06-.11.15-.21.14-.36Z"></path>
        <path class="cls-1" d="m81.4,18.3c-1.44,0-2.81-.28-4.11-.92-.84-.41-1.59-.95-2.23-1.63-1.03-1.1-1.64-2.4-1.82-3.9-.15-1.28.01-2.51.48-3.7.36-.93.93-1.71,1.67-2.38,1.05-.95,2.28-1.51,3.65-1.81.86-.19,1.72-.28,2.6-.26,1.28.04,2.52.26,3.7.76.94.4,1.77.98,2.47,1.73.73.8,1.23,1.73,1.51,2.78.38,1.42.36,2.85-.07,4.26-.43,1.41-1.27,2.54-2.45,3.42-.84.63-1.78,1.04-2.78,1.32-.86.23-1.73.34-2.62.33Zm-.03-3.6c2.1.02,3.74-1.73,3.71-3.75-.03-2.37-2-3.69-3.68-3.7-2.19,0-3.76,1.78-3.74,3.75.03,2.36,2,3.74,3.7,3.7Z"></path>
      </g>
    </g>
  </g>
</svg>
