<?xml version="1.0" encoding="UTF-8"?>
<svg id="Layer_2" xmlns="http://www.w3.org/2000/svg" version="1.1" viewBox="0 0 257.8 42.5">
  <!-- Generator: Adobe Illustrator 29.3.1, SVG Export Plug-In . SVG Version: 2.1.0 Build 151)  -->
  <defs>
    <style>
      .st0 {
        fill: #fff;
      }
    </style>
  </defs>
  <g id="Layer_1-2">
    <g>
      <g>
        <g>
          <path class="st0" d="M2.6,5.3H0v-1c1.9,0,2.9-.5,2.9-2.4h1.1v14.1h-1.4V5.3Z"/>
          <path class="st0" d="M15.8,8.6c0,4.8-1.9,7.6-5.1,7.6s-4-1.5-4.2-4.1h1.4c.2,1.9,1.2,2.8,2.9,2.8,2.5,0,3.7-2.2,3.7-6.8-.5,1.8-1.9,2.9-3.8,2.9s-4.4-1.9-4.4-4.6S8.3,1.7,11.1,1.7s4.7,2.5,4.7,6.9ZM7.7,6.5c0,2,1.3,3.4,3.1,3.4s3.1-1.5,3.1-3.7-1.2-3.3-2.9-3.3-3.3,1.5-3.3,3.6Z"/>
          <path class="st0" d="M17.4,12.2c0-1.7,1-3.1,2.6-3.7-1.3-.5-2.2-1.7-2.2-3.2,0-2.2,1.7-3.6,4.2-3.6s4.2,1.4,4.2,3.6-.8,2.7-2.2,3.2c1.6.6,2.6,2,2.6,3.7s-1.8,4-4.6,4-4.6-1.6-4.6-4ZM18.9,12c0,1.9,1.2,3,3.2,3s3.2-1.1,3.2-3-1.2-3-3.2-3-3.2,1.1-3.2,3ZM19.2,5.4c0,1.6,1,2.6,2.8,2.6s2.8-1,2.8-2.6-1-2.5-2.8-2.5-2.8.9-2.8,2.5Z"/>
          <path class="st0" d="M28.4,8.8c0-4.3,1.8-7.1,4.9-7.1s4.9,2.8,4.9,7.2-1.8,7.3-4.9,7.3-4.9-2.9-4.9-7.4ZM36.8,8.8c0-3.6-1.3-5.9-3.5-5.9s-3.5,2.3-3.5,5.9,1.3,6.1,3.5,6.1,3.5-2.4,3.5-6.1Z"/>
          <path class="st0" d="M216.2,15.7c0-5.9,7.2-5.4,7.2-9.8s-.6-2.9-2.8-2.9-2.9,1.2-2.9,3.6h-1.4c0-2.9,1.7-4.8,4.4-4.8s4.2,2,4.2,4.1c0,5-6.6,5.1-7.3,9h7.6v1.2h-8.9s0-.3,0-.3Z"/>
          <path class="st0" d="M226.7,8.8c0-4.3,1.8-7.1,4.9-7.1s4.9,2.8,4.9,7.2-1.8,7.3-4.9,7.3-4.9-2.9-4.9-7.4h0ZM235.1,8.8c0-3.6-1.3-5.9-3.5-5.9s-3.5,2.3-3.5,5.9,1.3,6.1,3.5,6.1,3.5-2.4,3.5-6.1Z"/>
          <path class="st0" d="M238.3,15.7c0-5.9,7.2-5.4,7.2-9.8s-.6-2.9-2.8-2.9-2.9,1.2-2.9,3.6h-1.4c0-2.9,1.7-4.8,4.4-4.8s4.2,2,4.2,4.1c0,5-6.6,5.1-7.3,9h7.6v1.2h-8.9s0-.3,0-.3Z"/>
        </g>
        <g>
          <path class="st0" d="M62.4,37.6c0-3.1,1.6-5,4.2-5s3.6,1.3,3.7,3.5h-2c0-1.1-.7-1.7-1.7-1.7s-2,1.1-2,3.2.8,3.3,2.1,3.3,1.7-.7,1.9-1.9h-2.1v-1.6h4.1v4.9h-1.8v-1c-.6.8-1.4,1.2-2.5,1.2-2.2,0-3.6-1.9-3.6-4.8h0Z"/>
          <path class="st0" d="M72.9,32.8h4c2.1,0,3.3,1,3.3,2.8s-.6,2-1.7,2.4c.9.2,1.4.7,1.4,1.6v1.2c.1.8.2,1.3.3,1.5h-2c0-.3-.1-.7-.2-1.4v-1.1c0-.8-.4-1.1-1.4-1.1h-1.8v3.6h-2v-9.5h0ZM74.9,34.6v2.5h2.1c.8,0,1.2-.5,1.2-1.2s-.5-1.3-1.3-1.3h-2.1Z"/>
          <path class="st0" d="M82.3,37.5c0-3.1,1.5-4.9,4.2-4.9s4.2,1.8,4.2,4.9-1.5,4.9-4.2,4.9-4.2-1.8-4.2-4.9ZM88.7,37.5c0-2-.8-3.1-2.1-3.1s-2.1,1.1-2.1,3.1.8,3.1,2.1,3.1,2.1-1.1,2.1-3.1Z"/>
          <path class="st0" d="M93,38.9v-6.1h2v6c0,1.2.6,1.8,1.6,1.8s1.6-.7,1.6-1.8v-6h2v6.1c0,2.3-1.3,3.6-3.7,3.6s-3.7-1.3-3.7-3.6h0Z"/>
          <path class="st0" d="M102.8,32.8h3.9c2.1,0,3.3,1.4,3.3,3.1s-1.1,3.2-3.3,3.2h-1.9v3.3h-2v-9.5ZM104.9,34.6v2.7h1.9c.8,0,1.3-.5,1.3-1.3s-.5-1.3-1.3-1.3h-1.9Z"/>
        </g>
      </g>
      <g>
        <polygon class="st0" points="178.8 25.9 161.7 10 161.7 24.9 157.3 24.9 157.3 0 174.4 15.9 174.4 .7 178.8 .7 178.8 25.9"/>
        <polygon class="st0" points="110.6 25.9 93.5 10 93.5 24.9 89.1 24.9 89.1 0 106.2 15.9 106.2 .7 110.6 .7 110.6 25.9"/>
        <rect class="st0" x="117.2" y=".8" width="4.4" height="24.1"/>
        <path class="st0" d="M139.5,25.6c-7,0-12.8-5.7-12.8-12.8S132.5,0,139.5,0s12.8,5.7,12.8,12.7-5.7,12.8-12.8,12.8M139.5,4.5c-4.6,0-8.4,3.8-8.4,8.4s3.8,8.4,8.4,8.4,8.4-3.8,8.4-8.4-3.8-8.4-8.4-8.4"/>
        <path class="st0" d="M78.4.8v14.4c0,3.3-2.7,6.1-6.1,6.1s-6.1-2.7-6.1-6.1V.8h-4.4v14.4h0c0,5.8,4.7,10.4,10.4,10.4s10.4-4.7,10.4-10.4h0V.8h-4.4Z"/>
      </g>
    </g>
  </g>
  <path class="st0" d="M249.8,12.4c.1.9.5,1.7,1.1,2.1.6.5,1.4.7,2.3.7s1,0,1.4-.3.8-.4,1.1-.8c.3-.3.5-.7.7-1.1s.2-.9.2-1.4,0-1-.2-1.4c-.2-.4-.4-.8-.7-1.1s-.7-.6-1.1-.7c-.4-.2-.9-.3-1.4-.3s-1.2.1-1.7.3c-.5.2-.9.6-1.3,1.1h-1c0-.1,1.1-7.4,1.1-7.4h6.9v1.1h-5.9l-.9,4.7c.3-.2.5-.3.8-.4.2-.1.5-.2.7-.3.2,0,.5-.1.7-.1.3,0,.5,0,.9,0,.6,0,1.2.1,1.8.3.5.2,1,.5,1.4.9.4.4.7.9.9,1.5s.3,1.2.3,1.9-.1,1.4-.4,2-.6,1.1-1,1.5-.9.7-1.4.9c-.5.2-1.1.3-1.7.3s-1.3,0-1.8-.2-1.1-.4-1.5-.7c-.4-.3-.8-.7-1.1-1.2s-.4-1.1-.5-1.8h1.3Z"/>
</svg>