<?xml version="1.0" encoding="UTF-8"?>
<svg xmlns="http://www.w3.org/2000/svg" id="Layer_2" data-name="Layer 2" viewBox="0 0 129.09 23.23">
  <defs>
    <style>
      .cls-1 {
        fill: #fff;
      }
    </style>
  </defs>
  <g id="Layer_1-2" data-name="Layer 1">
    <g>
      <path class="cls-1" d="m33.98,12.84c-1.09,2.35-2.97,3.86-5.21,4.99-2.44,1.23-5.06,1.76-7.76,1.97-.19.01-.37,0-.81,0,4.07-4.81,8.02-9.46,11.99-14.14,2.28,1.63,2.99,4.62,1.8,7.18m-16.81,2.24c-.54-.02-.88.14-1.21.55-.84,1.04-1.73,2.03-2.6,3.05-.87,1.02-.86,1.7.05,2.7.22.24.45.48.67.71-.03.07-.07.14-.1.21-1.72-.5-3.44-.99-5.37-1.55,2.07-2.38,3.99-4.57,5.9-6.76-1.77-3,1.4-6.19,4.32-6.26.94-.02,1.59-.25,2.16-1.01.59-.78,1.3-1.46,1.94-2.2.83-.94.82-1.66-.03-2.57-.32-.34-.69-.63-1.04-.95.03-.07.05-.15.08-.23,1.89.5,3.78,1,5.67,1.5.01.09.02.18.03.27-.7.79-1.41,1.59-2.12,2.38-1.04,1.15-2.07,2.3-3.13,3.44-.3.32-.35.57-.16,1,.61,1.35.24,2.58-.64,3.66-1.13,1.4-2.61,2.13-4.42,2.06m-13.9,2.22c-.38-.7-.79-1.23-.99-1.84-1-3.02-.19-5.65,1.91-7.91,1.86-2,4.29-2.97,6.88-3.55,1.43-.32,2.89-.47,4.34-.7.04.1.09.19.13.29-4.04,4.51-8.08,9.03-12.27,13.71m29.77-12.13c-2.65-2.54-5.91-3.85-9.44-4.56-1.37-.27-2.76-.42-4.15-.62h-2.86c-1.36.2-2.72.35-4.07.62-3.28.66-6.32,1.88-8.89,4.09C1.83,6.26.52,8.1.14,10.51c-.01.09-.09.16-.14.24v1.58c.3.92.5,1.9.93,2.76,1.3,2.62,3.54,4.26,6.07,5.53,2.84,1.42,5.86,2.22,9.03,2.45.23.02.46.1.69.15h3c.2-.05.4-.12.61-.16,1.5-.25,3.02-.39,4.49-.76,3.37-.85,6.44-2.33,8.82-4.97,1.37-1.52,2.27-3.28,2.36-5.39.11-2.75-1.06-4.94-2.97-6.78"></path>
      <path class="cls-1" d="m123.37,10.63c-1.28-.29-2.63-.29-3.96-.38-.92-.06-1.85-.02-2.78-.09-.29-.02-.56-.27-.84-.42.21-.27.36-.71.63-.79.71-.22,1.47-.39,2.21-.41,2.09-.05,4.19,0,6.28,0,.3,0,.65,0,.89-.15,1.11-.69,2.19-1.43,3.28-2.15-.01-.06-.03-.12-.04-.18h-.69c-2.88,0-5.76-.03-8.64.01-1.16.01-2.33.09-3.48.27-2.19.33-4.06,1.21-5.09,3.34-.77,1.59-.31,2.75,1.4,3.17,1.09.27,2.25.28,3.39.35,1.02.06,2.05-.02,3.07.06.35.03.68.32,1.02.5-.29.3-.56.61-.87.88-.13.11-.35.16-.53.18-.71.07-1.42.16-2.13.17-2.95.02-5.9,0-8.86.01-.22,0-.57.01-.65.15-.45.71-.83,1.46-1.34,2.4,4.64-.08,9.07-.06,13.48-.27,2.38-.12,4.39-1.21,5.57-3.46.82-1.57.4-2.78-1.31-3.17"></path>
      <path class="cls-1" d="m57.04,6.06c-1.33,0-2.57.02-3.81-.01-.42,0-.64.16-.82.52-.37.72-.87,1.39-1.15,2.14-.5,1.37-1.38,1.83-2.81,1.66-1.23-.14-2.5-.03-3.88-.03.8-1.47,1.53-2.82,2.33-4.29-1.38,0-2.61.02-3.84,0-.44,0-.69.15-.9.53-1.85,3.42-3.72,6.82-5.59,10.24-.1.18-.16.37-.28.63,1.4,0,2.7.02,4.01-.02.21,0,.49-.26.62-.47.63-1.09,1.25-2.2,1.82-3.33.24-.48.54-.63,1.06-.6.9.04,1.81.04,2.71,0,.38-.02.78-.15,1.12-.34.66-.36,1.29-.8,1.93-1.21.03.04.06.08.09.11-1.04,1.9-2.07,3.8-3.19,5.86,1.38,0,2.58-.02,3.79,0,.47.01.72-.14.95-.56,1.86-3.44,3.75-6.86,5.63-10.29.08-.15.12-.32.21-.55"></path>
      <path class="cls-1" d="m75.98,13.16c2.31.05,4.62.03,6.93,0,.23,0,.58-.07.68-.22.43-.67.79-1.39,1.24-2.21h-8.44c.29-.54.55-.96.74-1.41.25-.6.63-.82,1.31-.8,1.83.05,3.67.02,5.5.01.21,0,.48.05.63-.06,1.09-.74,2.15-1.51,3.27-2.31-.15-.07-.19-.11-.23-.11-4.22,0-8.43,0-12.65.02-.26,0-.62.24-.75.48-1.91,3.42-3.78,6.85-5.66,10.28-.09.17-.15.36-.25.61,4.24,0,8.36,0,12.48,0,.16,0,.39-.09.47-.21.42-.71.81-1.44,1.28-2.29h-8.44c.2-.39.37-.65.47-.93.25-.69.7-.86,1.42-.85"></path>
      <path class="cls-1" d="m60.98,13.16c2.31.05,4.62.03,6.93,0,.23,0,.58-.07.68-.22.43-.67.79-1.39,1.23-2.2h-8.46c.36-.65.68-1.17.94-1.72.18-.39.44-.49.84-.49,1.83.02,3.67.01,5.5.01.31,0,.68.06.91-.08,1.1-.71,2.16-1.49,3.31-2.29-.18-.07-.22-.1-.26-.1-4.22,0-8.43,0-12.65-.02-.46,0-.61.24-.79.57-1.75,3.2-3.51,6.4-5.26,9.6-.2.37-.4.74-.59,1.1.11.07.15.11.19.11,4.1,0,8.19.02,12.29,0,.16,0,.4-.09.48-.22.42-.71.8-1.44,1.25-2.26h-8.44c.22-.42.39-.67.49-.96.24-.69.7-.86,1.42-.85"></path>
      <path class="cls-1" d="m113.49,6.06c-1.64,0-3.08-.03-4.53.02-.44.01-.93.16-1.31.4-1.56.96-3.08,1.98-4.66,3.02-.53-1.03-1.01-2.01-1.56-2.95-.13-.23-.49-.44-.75-.46-1.09-.05-2.19-.02-3.28-.03h-1.2c.95,1.98,1.81,3.81,2.72,5.61.27.53.26.93-.03,1.44-.8,1.37-1.54,2.78-2.4,4.34,1.41,0,2.65-.02,3.88,0,.42,0,.65-.13.84-.5.67-1.27,1.33-2.53,2.06-3.76.27-.45.65-.88,1.09-1.17,2.82-1.86,5.68-3.68,8.52-5.51.17-.11.31-.24.62-.47"></path>
      <path class="cls-1" d="m96.49,14.95h-7.46c1.65-3.01,3.22-5.88,4.86-8.89-1.37,0-2.58.03-3.78-.01-.51-.02-.76.18-.99.61-1.31,2.43-2.65,4.85-3.98,7.28-.62,1.12-1.23,2.25-1.89,3.47.24.02.33.04.42.04,3.05,0,6.09,0,9.14,0,.16,0,.36.01.48-.07,1.09-.73,2.17-1.49,3.26-2.24-.02-.07-.04-.13-.05-.2"></path>
      <path class="cls-1" d="m126.62,17.17c-.63.04-1.19-.49-1.22-1.15-.03-.65.49-1.23,1.12-1.25.62-.02,1.13.47,1.17,1.11.04.69-.42,1.24-1.07,1.28m0-2.57c-.78-.03-1.39.51-1.43,1.27-.05.81.52,1.44,1.31,1.47.8.03,1.42-.55,1.43-1.35.01-.78-.54-1.36-1.31-1.39"></path>
      <path class="cls-1" d="m18.93,9.77c-1.14.09-1.84.45-2.29,1.2-.58.97-.02,1.99,1.1,2.03.84.03,1.52-.36,2.02-1.02.33-.44.54-.99.17-1.45-.29-.37-.78-.6-1-.76"></path>
      <path class="cls-1" d="m127.04,16.1c.03-.24.14-.67.07-.7-.3-.15-.66-.18-1.03-.26v1.53s.06,0,.09.01c.07-.2.14-.4.24-.67.25.3.45.53.65.76.03-.02.06-.05.09-.07-.09-.18-.18-.36-.27-.55.06-.02.11-.03.17-.05"></path>
    </g>
  </g>
</svg>
