<?xml version="1.0" encoding="UTF-8"?>
<svg xmlns="http://www.w3.org/2000/svg" id="Layer_2" data-name="Layer 2" viewBox="0 0 103.75 41.74">
  <defs>
    <style>
      .cls-1 {
        fill: #fff;
      }
    </style>
  </defs>
  <g id="Layer_1-2" data-name="Layer 1">
    <g>
      <path class="cls-1" d="m.02.02S.08,0,.1,0C34.61,0,69.12,0,103.64,0c.02,0,.04.01.08.02,0,.04.01.09.01.14.03,1.29.01,41.3-.02,41.56-.04,0-.09.02-.13.02-.08,0-.16,0-.24,0-34.32,0-68.63,0-102.95,0-.12,0-.24,0-.37,0,0-.06-.02-.1-.02-.15,0-.06,0-.13,0-.19,0-13.68,0-27.37,0-41.05,0-.11-.01-.22.02-.33Zm58.42,8.86c-.05-.09-.08-.13-.1-.17-.43-.77-.94-1.49-1.54-2.14-.94-1.04-2.04-1.86-3.33-2.42-1.01-.44-2.07-.72-3.17-.8-.46-.03-.92-.04-1.38-.05-1.91,0-3.81,0-5.72,0-.05,0-.1,0-.14,0-.05,0-.09.01-.15.02,0,.13,0,.25,0,.36,0,9.97-.01,19.94-.02,29.92,0,.1,0,.19,0,.29,0,.03.01.07-.04.08,0-.03-.01-.06-.02-.09-.04-.27-.08-.53-.12-.8-.1-.69-.21-1.38-.31-2.07-.1-.68-.2-1.37-.3-2.05-.12-.79-.24-1.59-.36-2.38-.12-.79-.23-1.59-.35-2.38-.12-.79-.24-1.59-.36-2.38-.12-.79-.23-1.59-.35-2.38-.12-.79-.24-1.59-.36-2.38-.1-.69-.2-1.38-.31-2.07-.13-.9-.27-1.79-.41-2.68-.13-.9-.26-1.79-.4-2.69-.15-1.01-.31-2.01-.46-3.01-.15-1.01-.3-2.01-.45-3.02-.01-.09-.02-.19-.07-.28-.1,0-.19,0-.29,0-1.93,0-3.86,0-5.79,0-.68,0-1.37,0-2.05,0-.09,0-.17-.02-.26.03,0,.03-.02.06-.03.09-.11.74-.22,1.48-.33,2.21-.1.69-.21,1.38-.31,2.07-.1.69-.21,1.38-.31,2.07-.09.58-.17,1.16-.26,1.74-.1.69-.21,1.38-.31,2.07-.09.57-.17,1.15-.26,1.72-.1.7-.21,1.4-.31,2.1-.09.57-.17,1.15-.26,1.72-.1.69-.21,1.38-.31,2.07-.09.59-.18,1.18-.27,1.77-.1.68-.2,1.37-.31,2.05-.09.59-.18,1.18-.27,1.77-.1.68-.2,1.35-.3,2.03-.09.6-.18,1.19-.27,1.79-.1.68-.2,1.35-.3,2.03-.1.68-.2,1.37-.31,2.05-.03.17-.03.35-.11.56v-.47c0-10.39,0-20.77,0-31.16,0-.06,0-.11,0-.17,0-.04-.02-.09-.03-.14-2.65,0-5.29,0-7.92,0-.03,0-.06.01-.1.03-.2,1.19-.38,2.38-.58,3.57-.19,1.19-.38,2.38-.57,3.57-.19,1.2-.38,2.4-.58,3.6-.19,1.19-.39,2.38-.57,3.58-.26,1.71-.53,3.38-.61,3.59-.04-.28-.08-.54-.12-.8-.1-.67-.21-1.33-.31-2-.1-.66-.2-1.32-.31-1.98-.1-.67-.21-1.33-.31-2-.1-.66-.2-1.32-.31-1.98-.12-.76-.24-1.52-.36-2.28-.12-.76-.23-1.52-.35-2.28-.12-.77-.24-1.54-.36-2.31-.11-.72-.22-1.44-.34-2.17,0-.04-.03-.09-.04-.15-.11,0-.21,0-.31,0-2.46,0-4.93,0-7.39,0-.06,0-.13,0-.19,0-.04,0-.09.01-.15.03,0,.13,0,.25,0,.37,0,11.43,0,22.87,0,34.3,0,.08,0,.16,0,.24,0,.04.02.09.03.14.1,0,.2,0,.29,0,1.9,0,3.8,0,5.7,0,.06,0,.11,0,.17,0,.05,0,.11-.02.17-.03,0-.31,0-.61,0-.91,0-.31,0-.62,0-.93v-1.84c0-.3,0-.6,0-.91,0-.31,0-.62,0-.93,0-.3,0-.6,0-.91,0-.31,0-.62,0-.93s0-.6,0-.91c0-.3,0-.6,0-.91,0-.31,0-.62,0-.93,0-.3,0-.6,0-.91,0-.31,0-.62,0-.93,0-.3,0-.6,0-.91,0-.31,0-.62,0-.93,0-.3,0-.6,0-.91,0-.31,0-.62,0-.93,0-.3-.01-.6.02-.9.03.1.05.2.07.3.1.6.2,1.21.3,1.81.18,1.07.37,2.14.55,3.22.17.98.33,1.96.5,2.94.21,1.25.43,2.5.64,3.76.24,1.43.49,2.86.73,4.3.01.07.02.14.08.21.08,0,.18,0,.27,0,.77,0,1.54,0,2.31,0,.2,0,.4,0,.6,0,.05,0,.1-.02.16-.03.02-.09.04-.17.05-.24.16-.96.32-1.91.48-2.87.18-1.09.36-2.18.54-3.27.18-1.09.37-2.18.55-3.26.17-.99.33-1.99.5-2.98.2-1.21.41-2.43.61-3.64.01-.08.03-.16.08-.28,0,.17,0,.28,0,.39,0,5.27,0,10.54,0,15.8,0,.07,0,.14,0,.21,0,.05.01.09.02.14.12.04.24.03.36.03,3.83,0,7.66,0,11.49,0,.08,0,.16,0,.24,0,.04,0,.08-.01.13-.02.05-.3.09-.6.13-.9.04-.3.09-.6.13-.9.04-.29.08-.58.12-.87.04-.3.09-.6.13-.9.04-.3.07-.6.12-.9.05-.3.06-.6.14-.9.1,0,.19,0,.27,0,.55,0,1.1,0,1.64,0,.9,0,1.8,0,2.69,0,.09,0,.18-.02.27.05.24,1.76.49,3.54.73,5.3.1.06.19.05.27.05.88,0,1.76,0,2.65,0,2.35,0,4.7,0,7.06,0,.6,0,1.19,0,1.79,0,.08,0,.17.02.26-.03.04-.09.03-.18.03-.26,0-.41,0-.81,0-1.22,0-3.18,0-6.36,0-9.54,0-.11,0-.22,0-.34.24-.06.48-.08.71-.12.23-.03.47-.09.71-.09.02.05.04.09.05.14.04.15.08.31.12.46.69,2.64,1.38,5.28,2.08,7.93.25.94.5,1.89.75,2.83.02.08.02.16.09.21.18.02,5.61.04,6.05.02.04,0,.08-.01.11-.02.05-.11-.01-.2-.04-.28-.49-1.67-.98-3.34-1.47-5-.8-2.72-1.6-5.44-2.4-8.16-.02-.05-.02-.11-.03-.16.07-.06.13-.11.19-.16.45-.38.86-.8,1.23-1.26.9-1.13,1.55-2.38,1.97-3.75.22-.73.36-1.46.38-2.22,0-.23,0-.46,0-.69.14.65.25,1.31.36,1.97.11.66.22,1.32.33,1.97.11.66.22,1.32.33,1.97.11.66.22,1.32.33,1.97.11.66.22,1.32.33,1.97.11.66.22,1.32.33,1.97.11.66.22,1.32.33,1.97.11.66.22,1.32.33,1.97.11.66.22,1.32.33,1.97.11.66.22,1.32.33,1.97.11.66.21,1.31.34,1.98.08,0,.15.01.22.01,2.3,0,4.61-.01,6.91-.02.08,0,.16.01.25-.04.06-.31.11-.64.16-.97.05-.32.1-.64.16-.96.05-.33.1-.66.16-.99.05-.32.1-.64.15-.96.05-.33.1-.66.16-.99.05-.33.11-.66.16-.99.05-.32.1-.64.15-.96.05-.33.1-.66.15-.99.05-.32.1-.64.15-.96.05-.33.11-.66.16-.99.05-.33.1-.66.16-.99.05-.32.1-.64.15-.96.05-.33.11-.66.16-.99.05-.32.1-.64.16-.96.05-.33.1-.66.16-.99.05-.32.1-.64.15-.96.05-.33.1-.66.16-.99.05-.33.11-.66.16-.99.05-.32.1-.64.15-.96.05-.33.1-.66.15-.99.05-.32.1-.64.15-.96.05-.33.11-.66.16-.99.05-.33.1-.66.15-.99.05-.32.1-.64.15-.96.05-.33.11-.66.16-.99.05-.32.1-.64.16-.96.05-.33.1-.66.15-.99.05-.33.1-.66.15-.99.05-.32.1-.64.15-.96.05-.33.11-.66.16-.99.05-.32.1-.64.15-.96.05-.32.09-.65.18-.97.04.12.03.24.03.35,0,10.16,0,20.33,0,30.49,0,.1,0,.21,0,.31,0,.04.02.09.03.15.11,0,.21,0,.32,0,3.77,0,7.53,0,11.3,0,.06,0,.13,0,.19,0,.04,0,.09-.02.14-.03,0-.1,0-.2,0-.29,0-1.89,0-3.78,0-5.67,0-.06,0-.13,0-.19,0-.04-.02-.08-.03-.11-.09-.05-.18-.03-.27-.03-.85,0-1.7,0-2.55,0s-1.7,0-2.55,0c-.08,0-.17.02-.26-.03-.04-.1-.03-.21-.03-.31,0-2.45,0-4.89,0-7.34,0-.06,0-.13,0-.19,0-.04.02-.09.04-.14.11,0,.21,0,.32,0,1.64,0,3.29,0,4.93,0,.08,0,.16,0,.24,0,.04,0,.09-.02.14-.04,0-.11,0-.21,0-.32,0-1.9,0-3.8,0-5.7,0-.07,0-.14,0-.21,0-.05-.02-.09-.04-.15-.1,0-.2,0-.29,0-1.66,0-3.32,0-4.98,0-.07,0-.14,0-.21,0-.04,0-.09-.02-.15-.03,0-.1,0-.2,0-.29,0-2.42,0-4.85,0-7.27,0-.06,0-.13,0-.19,0-.03.01-.06.02-.09.09-.03.18-.02.26-.02.96,0,1.92,0,2.88,0,.74,0,1.48,0,2.22,0,.08,0,.17.02.26-.03.04-.1.03-.2.03-.3,0-1.92,0-3.83,0-5.75,0-.06,0-.13,0-.19,0-.04-.02-.09-.04-.14-.11,0-.21,0-.32,0-5.7,0-11.41,0-17.11,0-.06,0-.13,0-.19,0-.05,0-.09.01-.15.02-.05.29-.09.57-.12.85-.04.28-.08.55-.12.83-.04.28-.08.57-.11.85-.04.28-.08.57-.12.85-.04.28-.08.55-.11.83-.04.28-.07.57-.11.85-.04.28-.08.57-.12.85-.04.28-.07.55-.11.83-.04.28-.08.57-.12.85-.04.28-.08.57-.11.85-.04.28-.07.55-.11.83-.04.28-.08.57-.12.85-.04.28-.07.57-.11.85-.04.28-.08.57-.12.85-.04.28-.07.55-.11.83-.04.28-.08.57-.12.85-.04.28-.08.57-.11.85-.04.28-.07.55-.11.83-.04.28-.08.57-.12.85-.04.28-.07.57-.11.85-.04.28-.08.55-.12.83-.04.28-.07.57-.11.85-.04.28-.08.57-.12.85-.04.28-.07.55-.11.83-.04.28-.06.56-.15.84-.03-.14-.06-.27-.08-.41-.07-.53-.14-1.05-.21-1.58-.07-.54-.15-1.07-.22-1.61-.07-.52-.14-1.04-.21-1.56-.07-.54-.15-1.09-.22-1.63-.07-.52-.14-1.04-.21-1.56-.07-.54-.15-1.07-.22-1.61-.07-.52-.14-1.04-.21-1.56-.07-.54-.15-1.07-.22-1.61-.07-.52-.14-1.04-.21-1.56-.07-.53-.15-1.05-.22-1.58-.07-.53-.14-1.05-.21-1.58-.07-.54-.15-1.07-.22-1.6-.07-.5-.13-.99-.2-1.49,0-.04-.03-.08-.05-.14h-.29c-1.92,0-3.85,0-5.77,0-.06,0-.13,0-.19,0-.04,0-.09.02-.15.03.04.32.07.62.11.93.04.3.08.6.11.9.04.31.08.61.12.92.04.31.07.62.11.92.04.3.09.6.12.9.03.3.09.6.11.97Zm30.46-5.55c-.06.11-.03.23-.03.35,0,11.45,0,22.9,0,34.35,0,.07,0,.14,0,.21,0,.04.02.09.03.13.11.03.22.02.32.02,3.66,0,7.32,0,10.99,0,.07,0,.14,0,.21,0,.04,0,.09-.02.14-.04,0-.1,0-.18,0-.27,0-1.88,0-3.75,0-5.63,0-.08,0-.16,0-.24,0-.05-.01-.09-.02-.15-.26-.01-.52,0-.77,0-.25,0-.51,0-.76,0h-2.26c-.25,0-.51,0-.76,0-.25,0-.51,0-.76,0-.01-.05-.03-.09-.03-.13,0-.09,0-.17,0-.26,0-9.3,0-18.61,0-27.91,0-.1,0-.19,0-.29,0-.05-.01-.09-.02-.15-.07,0-.12-.01-.17-.01-1.4-.03-5.84-.01-6.08.02Z"></path>
      <path class="cls-1" d="m49.26,20.82s-.02-.08-.02-.12c0-.07,0-.14,0-.21,0-3.52,0-7.04,0-10.56v-.3c.06,0,.1-.03.15-.02,1.51.11,2.62.83,3.34,2.16.29.54.46,1.11.56,1.71.11.61.16,1.23.14,1.85-.02.58-.06,1.16-.2,1.72-.21.84-.55,1.62-1.1,2.3-.51.63-1.14,1.07-1.91,1.33-.27.09-.54.13-.82.15-.05,0-.09,0-.15-.01Z"></path>
      <path class="cls-1" d="m34.05,12.78s.02.03.02.04c.58,4.82,1.16,9.64,1.74,14.47,0,.03,0,.06,0,.11-.06,0-.11.03-.16.03-.21,0-.43,0-.64,0-.79,0-1.59,0-2.38,0-.09,0-.19.01-.29-.03,0-.04,0-.08,0-.12.56-4.83,1.12-9.66,1.68-14.49.01,0,.03,0,.04,0Z"></path>
    </g>
  </g>
</svg>
