<?xml version="1.0" encoding="UTF-8"?>
<svg xmlns="http://www.w3.org/2000/svg" id="Layer_2" data-name="Layer 2" viewBox="0 0 147.8 11.7">
  <defs>
    <style>
      .cls-1 {
        fill: #fff;
      }
    </style>
  </defs>
  <g id="Layer_1-2" data-name="Layer 1">
    <g>
      <path class="cls-1" d="m29.32,11.37h-2.5V.33h3.91c.77,2.87,1.55,5.74,2.32,8.62.07-.03.06-.1.07-.14.3-1.11.59-2.22.89-3.32.45-1.67.89-3.34,1.34-5.01.01-.05.03-.09.05-.15h3.85v11.04h-2.5V2.3s-.02,0-.03,0c-.27,1-.53,2-.79,3-.27,1.01-.53,2.02-.8,3.04-.26,1.01-.53,2.01-.79,3.01-.12.03-2.45.04-2.63,0-.79-3.03-1.58-6.07-2.37-9.11h-.03c0,1.01,0,2.02,0,3.03,0,1.02,0,2.03,0,3.05,0,1.01,0,2.02,0,3.04Z"></path>
      <path class="cls-1" d="m0,.32h3.91c.77,2.87,1.55,5.75,2.32,8.62.01,0,.02,0,.04,0,.77-2.87,1.54-5.74,2.3-8.62h3.85c.03.11.05,10.74.01,11.04-.27.03-.55,0-.82.01-.27,0-.55,0-.82,0h-.85V2.22s0,0,0,0c-.8,3.05-1.6,6.09-2.4,9.14-.12.03-2.44.04-2.63,0-.79-3.03-1.58-6.07-2.37-9.11,0,0-.02,0-.03,0v9.08s-.02.02-.02.02c0,0,0,0-.01,0-.03,0-.06,0-.09,0-.77,0-1.55,0-2.32,0-.01,0-.03,0-.05-.02V.32Z"></path>
      <path class="cls-1" d="m50.39,5.45c.06.02.11.04.16.06.33.12.64.28.91.51.52.44.79,1.01.87,1.68.16,1.48-.75,2.77-2.11,3.3-.42.17-.86.25-1.31.31-.47.06-.95.07-1.42.07-1.84,0-3.67,0-5.51,0-.05,0-.11,0-.17,0V.34s.08-.01.12-.01c2.1,0,4.2,0,6.3,0,.67,0,1.32.12,1.94.36.61.24,1.11.61,1.43,1.18.4.71.44,1.46.19,2.23-.13.4-.39.72-.74.96-.2.14-.42.26-.65.4Zm-6.02,4c.06,0,.09,0,.13,0,1.06,0,2.13,0,3.19,0,.39,0,.78-.05,1.14-.21.29-.13.52-.33.65-.63.17-.37.19-.75.09-1.14-.11-.4-.4-.63-.77-.78-.33-.12-.66-.18-1.01-.18-1.09,0-2.19,0-3.28,0-.05,0-.1,0-.15,0v2.93Zm0-4.78c.05,0,.1,0,.15,0,1.06,0,2.12,0,3.19,0,.38,0,.75-.09,1.1-.25.23-.1.39-.27.47-.51.04-.1.07-.21.08-.32.06-.71-.26-1.07-.79-1.21-.04-.01-.09-.02-.13-.03-.38-.08-.77-.11-1.16-.11-.92,0-1.84,0-2.76,0-.04,0-.09,0-.14,0v2.43Z"></path>
      <path class="cls-1" d="m120.69,11.38h-.16c-.79,0-1.58,0-2.37,0-.12,0-.18-.04-.24-.13-1.67-2.51-3.35-5.01-5.02-7.52-.03-.05-.06-.09-.09-.14-.01,0-.02,0-.02,0,0,0,0,0,0,0,0,.02,0,.04,0,.06,0,2.56,0,5.12,0,7.68,0,0,0,0,0,.01-.12.03-2.34.04-2.48,0V.32c.06,0,.12,0,.17,0,.82,0,1.65,0,2.47,0,.12,0,.19.04.26.14,1.63,2.46,3.26,4.92,4.88,7.37.03.05.07.09.13.13V.33h2.48s0,0,0,0c0,0,0,0,0,.01,0,0,0,.02,0,.03,0,3.63,0,7.26,0,10.89,0,.02,0,.05,0,.1Z"></path>
      <path class="cls-1" d="m74.95,6.1c.12.05.2.08.28.12.49.21.88.53,1.1,1.03.12.27.19.55.2.84.02.55.02,1.1.04,1.65,0,.23.02.45.06.68.04.24.16.45.37.59.14.09.17.2.12.37-.24.02-.48,0-.73,0-.25,0-.5,0-.74,0h-1.47c-.1-.27-.18-.53-.22-.8-.04-.32-.07-.64-.08-.97-.02-.39-.02-.79-.04-1.18,0-.16-.04-.32-.08-.48-.11-.44-.4-.7-.83-.81-.38-.09-.76-.1-1.15-.1-.76,0-1.53,0-2.29,0-.06,0-.12,0-.19,0v4.33c-.3.02-.59,0-.87.01-.29,0-.59,0-.88,0h-.87V.33c.05,0,.1,0,.14,0,2.08,0,4.15,0,6.23,0,.6,0,1.2.06,1.76.27,1.05.38,1.77,1.11,2.06,2.2.24.92,0,1.76-.58,2.49-.29.37-.69.59-1.13.74-.05.02-.1.04-.19.07Zm-5.66-.9s.05,0,.07,0c1.08,0,2.16,0,3.23,0,.32,0,.64-.06.94-.21.36-.17.59-.45.66-.84.03-.2.04-.4.03-.6-.06-.68-.42-1.1-1.09-1.24-.26-.05-.53-.08-.8-.08-.97,0-1.93,0-2.9,0-.04,0-.09,0-.14,0v2.96Z"></path>
      <path class="cls-1" d="m101.99,11.7c-.67,0-1.45-.08-2.2-.29-1.91-.54-3.34-2.1-3.72-4.05-.21-1.11-.2-2.22.06-3.32.3-1.25,1-2.23,2.05-2.99.65-.47,1.37-.75,2.15-.89.93-.18,1.87-.2,2.81-.1.65.06,1.3.18,1.89.45,1.55.7,2.6,1.85,3,3.53.32,1.33.3,2.65-.1,3.95-.55,1.8-2.09,3.16-3.93,3.52-.63.12-1.27.19-2.02.19Zm3.58-5.82c0-.51-.05-1-.18-1.47-.3-1.12-.98-1.9-2.09-2.27-.6-.2-1.22-.23-1.85-.13-1.2.18-2.04.82-2.53,1.93-.2.47-.29.97-.32,1.47-.05.74,0,1.48.26,2.18.38,1.03,1.09,1.72,2.16,2.02.57.16,1.16.18,1.74.08,1.22-.2,2.06-.89,2.51-2.04.23-.58.28-1.19.3-1.77Z"></path>
      <path class="cls-1" d="m78.88,8h2.55c.02.07.03.13.05.19.03.11.06.23.1.33.15.42.42.73.82.93.32.16.67.26,1.03.3.48.05.96.07,1.44.03.42-.04.84-.1,1.22-.27.14-.06.28-.14.4-.24.35-.28.5-.65.44-1.1-.03-.22-.15-.39-.32-.53-.16-.13-.35-.22-.55-.29-.46-.17-.93-.27-1.41-.36-.97-.18-1.94-.35-2.89-.61-.37-.1-.73-.21-1.07-.37-.67-.31-1.19-.78-1.43-1.49-.36-1.09-.2-2.11.55-3,.49-.58,1.13-.94,1.84-1.18.45-.14.91-.22,1.38-.27.56-.06,1.13-.08,1.7-.03.99.08,1.93.33,2.79.85.78.47,1.31,1.13,1.52,2.03.05.23.09.45.08.7h-2.57c-.01-.07-.02-.13-.03-.19-.09-.48-.35-.84-.77-1.09-.27-.16-.57-.26-.88-.32-.74-.13-1.47-.13-2.19.07-.25.07-.5.18-.7.35-.34.29-.47.65-.37,1.09.05.24.2.42.41.54.14.08.29.15.44.2.44.16.9.24,1.35.34.93.19,1.86.38,2.79.58.39.08.77.21,1.14.36.28.12.55.26.79.45.64.5.97,1.15,1.01,1.96.06,1.15-.43,2.03-1.34,2.7-.65.47-1.38.74-2.16.87-.82.14-1.64.18-2.47.12-.82-.06-1.63-.19-2.39-.51-.63-.27-1.19-.63-1.62-1.16-.37-.46-.58-.99-.64-1.58-.01-.11-.02-.21-.02-.32,0-.02,0-.05,0-.09Z"></path>
      <path class="cls-1" d="m57.39,9.39h7.08c.03.12.04,1.77.01,1.96-.11.03-9.52.05-9.72.01-.03-.11-.04-10.82,0-11.02.11-.03,9.17-.04,9.42-.01v1.93c-.32.02-.64,0-.96,0-.32,0-.65,0-.97,0h-3.87c-.32,0-.65,0-.98,0v2.35c.42.01.83,0,1.24,0,.42,0,.83,0,1.25,0h3.74v1.91h-6.21c-.04.12-.05,2.67-.01,2.85Z"></path>
      <path class="cls-1" d="m24.43,2.28h-6.77c-.04.12-.05,2.05-.02,2.35.17.02.34,0,.51,0,.18,0,.35,0,.53,0h5.2v1.91c-.35,0-.69,0-1.03,0-.35,0-.7,0-1.05,0h-3.11c-.34,0-.69,0-1.03,0-.03.12-.05,2.57-.02,2.84.39,0,.78,0,1.17,0,.39,0,.79,0,1.18,0h4.74v1.98h-9.72c-.03-.11-.04-10.78-.01-11.02.11-.03,9.1-.05,9.4-.01.03.11.04,1.64.01,1.94Z"></path>
      <path class="cls-1" d="m131.46.32h3.16c.89,1.6,1.77,3.19,2.67,4.81.86-1.62,1.71-3.21,2.55-4.81h3.01c.01.07-.04.11-.07.16-.56.9-1.12,1.8-1.67,2.69-.82,1.31-1.63,2.62-2.45,3.93-.06.09-.08.18-.08.28,0,1.26,0,2.52,0,3.78,0,.06,0,.12,0,.18-.11.04-2.33.06-2.68.02,0-.06,0-.11,0-.17,0-1.26,0-2.52,0-3.78,0-.12-.03-.22-.09-.33-1.42-2.19-2.83-4.39-4.24-6.58-.03-.05-.07-.11-.12-.19Z"></path>
      <path class="cls-1" d="m123.23.32h2.67v9.06c.21,0,.4,0,.59,0,.2,0,.39,0,.59,0h5.24v1.96c-.12.03-8.93.04-9.09,0V.32Z"></path>
      <path class="cls-1" d="m146.16,4.21c.91,0,1.64.72,1.65,1.63,0,.91-.73,1.65-1.63,1.65-.91,0-1.66-.73-1.66-1.64,0-.91.73-1.64,1.64-1.64Zm.01.33c-.72,0-1.31.57-1.31,1.29,0,.72.58,1.3,1.3,1.31.72,0,1.31-.58,1.31-1.3,0-.72-.57-1.31-1.29-1.31Z"></path>
    </g>
  </g>
</svg>
