<?xml version="1.0" encoding="UTF-8"?>
<svg xmlns="http://www.w3.org/2000/svg" id="Layer_2" data-name="Layer 2" viewBox="0 0 88.07 57.11">
  <defs>
    <style>
      .cls-1 {
        fill: #fff;
      }
    </style>
  </defs>
  <g id="Layer_1-2" data-name="Layer 1">
    <g>
      <path class="cls-1" d="m44.06,0c.57-.02,1.15.1,1.71.33,1.41.59,2.81,1.17,4.22,1.76,6.09,2.55,12.18,5.09,18.27,7.64,6.07,2.54,12.15,5.08,18.22,7.62.13.05.26.11.39.17.79.41,1.2,1.07,1.19,1.95-.01.88-.44,1.54-1.25,1.92-.47.22-.96.41-1.44.61-.59.25-1.19.5-1.78.75-.79.33-1.57.65-2.36.98-.69.29-1.38.58-2.07.87-.54.23-1.09.44-1.63.67-.62.26-1.24.53-1.86.79-.86.36-1.73.72-2.59,1.08-1.17.49-2.34.98-3.51,1.47-1.22.51-2.44,1.02-3.67,1.53-.86.36-1.73.72-2.59,1.08-.8.33-1.59.65-2.39.98-.62.26-1.24.52-1.86.78-.82.34-1.64.68-2.46,1.03-1.09.46-2.18.92-3.27,1.37-2.52,1.06-5.05,2.11-7.57,3.16-1.19.49-2.38.47-3.57-.02-3.78-1.58-7.55-3.16-11.32-4.74-3.86-1.62-7.73-3.23-11.59-4.84-5.89-2.46-11.78-4.93-17.66-7.39-.22-.09-.44-.18-.64-.31-1.2-.76-1.29-2.35-.41-3.28.19-.2.42-.35.68-.47.48-.22.98-.41,1.46-.62.82-.34,1.64-.69,2.46-1.03.41-.17.82-.34,1.23-.51.75-.31,1.5-.63,2.25-.94.49-.2.98-.4,1.47-.61.4-.17.8-.33,1.2-.5.43-.18.85-.36,1.28-.54.42-.18.84-.35,1.26-.53.81-.34,1.62-.68,2.44-1.02.58-.25,1.17-.49,1.75-.74.53-.22,1.07-.44,1.6-.66.57-.24,1.13-.48,1.7-.72.33-.14.67-.27,1-.41.67-.28,1.34-.57,2.01-.85.62-.26,1.24-.51,1.86-.77.83-.35,1.66-.7,2.49-1.05.78-.32,1.56-.64,2.33-.97.58-.24,1.15-.49,1.72-.73.41-.17.82-.34,1.23-.51.43-.18.85-.36,1.28-.54.55-.23,1.1-.46,1.65-.69.32-.14.64-.27.97-.41.41-.17.82-.34,1.23-.51.55-.23,1.1-.46,1.65-.69.5-.21,1-.41,1.49-.63.56-.25,1.14-.34,1.78-.33Zm-.05,5.07c-.49-.03-.96.09-1.42.29-.55.24-1.1.46-1.65.69-.53.22-1.06.45-1.6.67-.63.26-1.26.53-1.89.79-.68.28-1.37.56-2.05.85-1.09.46-2.18.92-3.27,1.37-.75.31-1.5.62-2.25.94-.45.19-.89.38-1.33.57-.71.3-1.41.59-2.12.88-1.03.43-2.06.86-3.09,1.29-.9.38-1.8.75-2.7,1.12-.52.22-1.03.43-1.54.65-.77.32-1.54.64-2.3.97-.39.17-.78.34-1.17.5-.42.17-.84.34-1.26.51-.9.38-1.8.76-2.7,1.14-.54.23-1.09.44-1.63.66-.12.05-.25.1-.36.18-.3.19-.3.44-.01.62.02.02.05.03.08.04.17.07.35.14.52.21.4.17.8.33,1.21.5,5.17,2.16,10.34,4.33,15.52,6.49,5.23,2.19,10.47,4.37,15.7,6.56.83.35,1.67.36,2.52.06.13-.05.27-.1.4-.16.86-.35,1.72-.71,2.57-1.06.87-.36,1.75-.73,2.62-1.1.61-.26,1.22-.51,1.84-.76.38-.16.77-.32,1.15-.48.43-.18.85-.36,1.28-.54.68-.28,1.36-.56,2.05-.85.66-.28,1.32-.56,1.99-.84.5-.21,1-.41,1.49-.62.78-.32,1.55-.65,2.33-.97.39-.16.79-.33,1.18-.49.43-.18.85-.37,1.28-.55.43-.18.86-.35,1.29-.53.66-.28,1.32-.56,1.99-.84,1.04-.43,2.08-.86,3.12-1.3.98-.41,1.95-.82,2.93-1.23.56-.24,1.11-.48,1.67-.71.55-.23,1.1-.45,1.65-.68.16-.07.32-.16.47-.25.15-.1.16-.29.03-.41-.06-.06-.13-.11-.21-.14-.13-.06-.26-.12-.39-.17-.46-.19-.93-.38-1.39-.57-9.59-4.01-19.17-8.02-28.76-12.02-.81-.34-1.63-.68-2.44-1.02-.42-.18-.86-.29-1.34-.26Z"></path>
      <path class="cls-1" d="m42.02,56.85c-1.31,0-2.59,0-3.88,0-.01-.07-.03-.12-.03-.17,0-.08,0-.17,0-.26,0-1.89,0-3.77,0-5.66,0-.33-.03-.66-.11-.99-.04-.16-.1-.33-.17-.48-.23-.47-.6-.74-1.13-.79-.55-.05-1.04.08-1.45.45-.12.11-.23.25-.33.39-.28.41-.41.87-.5,1.35-.07.39-.11.79-.11,1.19,0,1.54,0,3.07,0,4.61,0,.1,0,.21,0,.3-.09.09-.19.06-.28.06-.73,0-1.46,0-2.19,0-.39,0-.78,0-1.17,0-.08,0-.16-.01-.27-.02,0-.13,0-.24,0-.35,0-1.93,0-3.87,0-5.8,0-.32-.03-.64-.12-.96-.04-.14-.09-.27-.15-.4-.26-.54-.69-.82-1.29-.83-.77,0-1.35.32-1.73.99-.23.41-.35.86-.42,1.32-.06.37-.08.73-.08,1.1,0,1.51,0,3.01,0,4.52,0,.12,0,.24,0,.38-.08.01-.14.03-.2.03-1.17,0-2.33,0-3.5,0-.06,0-.13-.01-.19-.02-.01-.04-.03-.06-.03-.09,0-3.71,0-7.41,0-11.12,0-.03.02-.05.03-.1.07,0,.14-.02.22-.02,1.63-.03,3.06-.02,3.31.04,0,.09.01.18.01.27,0,.51,0,1.02,0,1.54,0,.06-.01.13.05.21.04-.06.08-.1.1-.14.15-.23.3-.46.46-.68.28-.38.65-.67,1.06-.88,1.22-.65,2.5-.78,3.83-.43.8.21,1.43.68,1.9,1.36.1.15.18.31.26.47.02.04.04.08.07.13.04-.04.07-.06.09-.09.08-.1.15-.2.22-.3.66-.9,1.55-1.42,2.63-1.65.89-.19,1.77-.15,2.65.07.96.25,1.64.83,2.03,1.75.16.39.26.79.33,1.2.08.52.12,1.03.12,1.56,0,2.19,0,4.38,0,6.57,0,.1,0,.21,0,.35Z"></path>
      <path class="cls-1" d="m47.03,54.87v1.93c-.06.01-.1.03-.14.03-1.12,0-2.24,0-3.36,0-.03,0-.05-.01-.1-.02,0-.05-.02-.1-.03-.16,0-.08,0-.15,0-.23,0-4.85,0-9.71,0-14.56,0-.12,0-.24,0-.35.09-.09.18-.06.26-.06.43,0,.85,0,1.28,0,.69,0,1.38,0,2.08,0,.09,0,.19,0,.27.01.08.11.05.22.05.32,0,.77,0,1.54,0,2.3,0,.83,0,1.67,0,2.5,0,.09,0,.19,0,.31.05-.03.08-.04.11-.06.04-.03.06-.07.09-.11.62-.69,1.38-1.14,2.28-1.36.63-.15,1.28-.2,1.92-.13,1.23.13,2.23.68,3.01,1.64.46.56.79,1.2,1.02,1.89.26.74.37,1.51.36,2.29,0,.83-.13,1.64-.39,2.43-.19.6-.48,1.16-.85,1.66-.72.98-1.69,1.58-2.88,1.84-1.06.22-2.09.1-3.08-.34-.45-.2-.86-.48-1.21-.84-.25-.25-.47-.52-.61-.85-.01-.03-.04-.06-.06-.1,0,0-.02,0-.07-.02Zm2.88-6.75c-.57,0-.96.1-1.28.28-.56.32-.92.81-1.15,1.4-.22.58-.31,1.19-.23,1.81.09.75.34,1.41.87,1.96.95.99,2.43.87,3.22.08.41-.41.66-.9.78-1.46.12-.55.17-1.1.08-1.67-.08-.47-.21-.92-.48-1.33-.47-.71-1.13-1.07-1.82-1.08Z"></path>
      <path class="cls-1" d="m65.43,51.29c0-1.1.19-2.01.62-2.86.27-.53.61-1.02,1.05-1.44.9-.84,1.97-1.33,3.16-1.59.78-.16,1.56-.21,2.35-.16,1.06.07,2.08.3,3.03.8,1.53.81,2.49,2.06,2.86,3.76.27,1.26.18,2.49-.28,3.69-.42,1.1-1.17,1.93-2.16,2.56-.53.34-1.1.58-1.71.75-.46.13-.92.22-1.39.27-.61.06-1.23.07-1.84,0-1.3-.14-2.52-.52-3.57-1.34-1.13-.88-1.79-2.04-2.02-3.45-.06-.37-.09-.75-.09-.99Zm9.32-.25c-.02-.18-.03-.43-.06-.67-.09-.63-.32-1.2-.74-1.7-.87-1.04-2.66-1.25-3.74-.14-.28.29-.5.62-.65.99-.34.85-.41,1.73-.21,2.62.15.68.47,1.28,1,1.75.42.37.89.6,1.45.65.67.05,1.27-.11,1.8-.55.43-.36.7-.82.89-1.33.19-.5.23-1.03.26-1.63Z"></path>
      <path class="cls-1" d="m9.47,45.52s.09-.02.14-.02c1.21,0,2.43,0,3.64,0,.03,0,.05.02.09.04.03.11.02.22.02.33,0,1.87,0,3.74,0,5.6,0,.34,0,.68.06,1.02.05.28.12.56.24.81.25.52.66.81,1.22.92.35.07.7.04,1.04-.04.47-.12.81-.4,1.03-.82.16-.31.24-.64.28-.98.03-.29.05-.59.05-.88,0-1.88,0-3.75,0-5.63,0-.11,0-.22,0-.35.09-.01.16-.03.23-.03.41,0,.82,0,1.22,0,.7,0,1.4,0,2.1,0,.1,0,.21-.02.31.03.06.09.03.2.03.3,0,1.04,0,2.09,0,3.13,0,.97,0,1.93,0,2.9,0,.65-.07,1.29-.27,1.91-.11.33-.25.66-.43.96-.48.81-1.18,1.38-2.02,1.77-.58.27-1.19.44-1.82.52-.53.07-1.06.12-1.59.1-.91-.04-1.81-.16-2.67-.51-.75-.31-1.4-.75-1.92-1.38-.48-.6-.78-1.29-.93-2.05-.07-.38-.11-.77-.11-1.16,0-2.06,0-4.11,0-6.17,0-.1-.02-.21.03-.32Z"></path>
      <path class="cls-1" d="m60.63,45.51c.06.23.03.45.03.66,0,.23,0,.45,0,.68,0,.22,0,.43,0,.69.06-.05.09-.06.1-.09.04-.05.07-.11.1-.17.15-.35.4-.65.64-.94.6-.72,1.39-1.07,2.31-1.12.42-.02.83,0,1.25.07.03,0,.05.02.1.03,0,.06.02.12.02.18,0,.84,0,1.69,0,2.53,0,.17,0,.34,0,.51-.04,0-.06.02-.09.02-.53-.11-1.07-.11-1.61-.06-.53.05-.99.24-1.39.58-.36.31-.6.7-.78,1.14-.18.45-.27.93-.28,1.41-.01.42-.01.83-.01,1.25,0,1.2,0,2.41,0,3.61,0,.1.02.21-.03.31-.03.01-.06.03-.08.03-1.23,0-2.46,0-3.7,0-.03,0-.05-.01-.1-.03,0-.05-.01-.11-.01-.16-.04-1.43-.02-10.82.03-11.12.09-.05.2-.03.3-.03.69,0,1.38,0,2.08,0,.29,0,.59,0,.88,0,.08,0,.17,0,.26.01Z"></path>
      <path class="cls-1" d="m44.04,28.77c-.34-.01-.61-.08-.88-.19-.52-.22-1.05-.44-1.57-.66-5.93-2.48-11.86-4.96-17.8-7.45-.09-.04-.18-.07-.26-.11-.34-.19-.54-.48-.55-.87-.02-.4.16-.71.5-.93.07-.04.15-.08.23-.11,1.03-.43,2.06-.85,3.1-1.28.63-.26,1.26-.53,1.88-.79.85-.35,1.69-.71,2.54-1.06.66-.28,1.33-.56,1.99-.83.7-.29,1.39-.59,2.09-.88,1.11-.46,2.22-.92,3.33-1.39.86-.36,1.73-.72,2.59-1.08.63-.26,1.25-.53,1.88-.79.17-.07.34-.12.51-.16.38-.09.75-.05,1.12.08.2.07.39.15.58.23,3.48,1.45,6.96,2.91,10.43,4.36,2.81,1.18,5.63,2.35,8.44,3.53.13.05.26.11.38.19.34.2.5.5.49.9-.01.38-.16.68-.51.86-.19.1-.4.18-.6.27-.5.21-.99.42-1.49.63-.79.33-1.57.65-2.36.97-.45.19-.89.38-1.33.57-.49.21-.98.41-1.47.61-.37.15-.73.31-1.1.46-.52.22-1.05.44-1.57.65-.6.25-1.21.5-1.81.75-1.25.52-2.5,1.04-3.75,1.56-1.31.55-2.62,1.1-3.93,1.65-.31.13-.61.26-.95.28-.08,0-.15.01-.18.01Zm-10.17-9.33c.01.11.1.14.17.17.15.07.29.13.44.19.46.19.93.37,1.39.57,2.16.9,4.32,1.8,6.47,2.71.41.17.82.35,1.23.52.28.12.57.13.86.03.13-.05.26-.11.39-.17.79-.33,1.59-.67,2.38-1,.82-.34,1.64-.68,2.46-1.03.5-.21.99-.42,1.49-.63.37-.16.75-.31,1.12-.47.31-.13.63-.26.94-.39.26-.11.52-.22.78-.33.08-.03.16-.06.2-.17-.05-.04-.09-.09-.15-.11-.27-.13-.55-.25-.83-.37-.41-.17-.83-.33-1.24-.5-1.9-.79-3.79-1.58-5.69-2.38-.6-.25-1.21-.5-1.81-.76-.32-.14-.64-.16-.96,0-.18.09-.37.16-.55.23-.57.24-1.13.48-1.7.71-.74.31-1.48.62-2.23.93-.7.29-1.4.58-2.1.87-.54.23-1.08.46-1.62.68-.42.17-.84.34-1.26.52-.09.04-.17.08-.22.16Z"></path>
    </g>
  </g>
</svg>
