<?xml version="1.0" encoding="UTF-8"?>
<svg xmlns="http://www.w3.org/2000/svg" id="Layer_2" data-name="Layer 2" viewBox="0 0 61.4 50.32">
  <defs>
    <style>
      .cls-1 {
        fill: #fff;
      }
    </style>
  </defs>
  <g id="Layer_1-2" data-name="Layer 1">
    <g>
      <path class="cls-1" d="m11.19,27.56c-.32.02-.52.04-.73.04-3.23,0-6.47-.01-9.7.02-.63,0-.77-.18-.76-.8.06-3.26.07-6.51.09-9.77.03-5.13.06-10.26.1-15.39,0-.49.05-.98.08-1.51.26-.02.48-.05.71-.05C7.21,0,13.44.16,19.6,1.25c2.86.5,5.69,1.17,8.3,2.52.66.34,1.29,1.04,1.93,1.04.65,0,1.29-.68,1.96-1,3.09-1.47,6.38-2.29,9.74-2.83C47.52.02,53.55-.16,59.61.11c.09,0,.18.02.34.04.02.26.04.51.04.76,0,4.48-.01,8.95.02,13.43,0,.66-.19.82-.83.81-3.05-.03-6.09-.03-9.14,0-.67,0-.83-.2-.81-.84.04-1.4.01-2.8.01-4.31-3.57.14-7.11-.02-10.44,1.52,5.84,9.16,6.84,18.19-.1,27.25,3.44,1.24,6.94,1.25,10.54,1.04v-6.15h10.78v16.65c-.5,0-1.01,0-1.51,0-4.33-.05-8.67-.04-13-.18-4.79-.15-9.34-1.43-13.61-3.57-1.29-.65-2.21-.79-3.56.02-2.74,1.64-5.88,2.24-9.01,2.74-6.14.97-12.32.89-18.5.55-.37-.02-.6-.1-.6-.56.01-5.16.01-10.31.02-15.47,0-.07.03-.13.05-.26h10.55v6.35c3.64.27,7.18.38,10.54-1.23-6.22-9.02-5.96-17.97-.14-26.97-.04-.04-.07-.12-.12-.14-2.93-.85-5.89-1.53-8.97-1.51-.96,0-.96.01-.96.97,0,5.18,0,10.36,0,15.54,0,.3,0,.6,0,.98Zm19.08,4.59c2.94-3.39,2.74-11.18-.35-13.76-2.95,4.28-2.53,10,.35,13.76Z"></path>
      <path class="cls-1" d="m60.06,20.16c-.81,1.28-1.51,2.38-2.25,3.54,1.16.73,2.28,1.42,3.59,2.24-1.52.15-2.83.28-4.23.42.14,1.36.27,2.67.41,4.04-.97-.95-1.89-1.85-2.93-2.87-.95.99-1.85,1.94-2.87,3.01.21-1.48.4-2.8.59-4.2-1.35-.13-2.64-.25-4.14-.39,1.26-.81,2.38-1.53,3.55-2.28-.76-1.18-1.48-2.32-2.33-3.65,1.42.58,2.67,1.1,3.97,1.63.48-1.32.95-2.61,1.5-4.1.41,1.49.76,2.77,1.14,4.13,1.3-.49,2.55-.97,4-1.52Z"></path>
    </g>
  </g>
</svg>
