<?xml version="1.0" encoding="UTF-8"?>
<svg xmlns="http://www.w3.org/2000/svg" id="Capa_1" data-name="Capa 1" viewBox="0 0 637 612">
  <defs>
    <style>.cls-1{fill:#333;}</style>
  </defs>
  <path class="cls-1" d="M256.1,362.83a14,14,0,1,0-14.55-13.72A14.16,14.16,0,0,0,256.1,362.83Zm-.68-25.63a11.57,11.57,0,1,1-10.78,11.92A11.37,11.37,0,0,1,255.42,337.2Z"></path>
  <path class="cls-1" d="M253.12,356.45a.18.18,0,0,0,.2-.21v-5.7a.23.23,0,0,1,.24-.25c1.65-.1,4.23-.23,4.71,1.89a41.09,41.09,0,0,0,1.18,4.13c0,.06.06.09.12.09a19.63,19.63,0,0,0,2.65,0c.07,0,.09-.05.07-.11-.48-1.52-.89-3-1.24-4.5a4.33,4.33,0,0,0-1.7-2.39l-.27-.2c-.18-.14-.16-.27.06-.35,2-.76,2.85-2.1,2.56-4-.69-4.56-7.8-3.69-10.82-3.11a.32.32,0,0,0-.28.32v14.14a.16.16,0,0,0,.18.18Zm.45-12.92,2.4,0c1.63,0,3,1,3,2.22v.13c0,1.24-1.31,2.27-2.93,2.28l-2.37,0a.27.27,0,0,1-.28-.27l0-4.09A.27.27,0,0,1,253.57,343.53Z"></path>
  <path class="cls-1" d="M173.13,45.26l.49.62a2.74,2.74,0,0,0,.9.52c.83.31,2.07-.25,2.82-.62l7.85-7.94a.24.24,0,0,1,.12-.07.37.37,0,0,1,.5.2L188.36,44a2.29,2.29,0,0,1,.68,1.72l2.18,5a4.29,4.29,0,0,1,1,2.53l2.21,5.08A4.83,4.83,0,0,1,195.57,61l.52,1.23a4.94,4.94,0,0,1,1.13,2.65l2,4.69a5.21,5.21,0,0,1,1.18,2.78l2,4.67a3.83,3.83,0,0,1,1,2.46l2.26,5.14a4.38,4.38,0,0,1,.95,2.26l.76,1.75a3.21,3.21,0,0,1,.86,2.11l2.34,5.47a2.43,2.43,0,0,1,.78,1.84l2.22,5.17a3.44,3.44,0,0,1,1,2.34l.93,2a1.33,1.33,0,0,1,.52.86.69.69,0,0,0,.05.28l.33,1,.24.63a6.39,6.39,0,0,1,1.18,2.65l.59,1.41a4.34,4.34,0,0,1,1,2.31c.62,1.24,1.19,2.51,1.7,3.82s.12,2.4.65,3.65a9.37,9.37,0,0,1,.52,1.49c.47,1.59.93,3.2,1.37,4.81.2.7,0,1.46.61,2a.71.71,0,0,0,.47.16,2,2,0,0,1,.77.13.41.41,0,0,1,.25.25l1.43,3.67a.29.29,0,0,0,.38.2l4.22-1.13c.25-.07.32-.22.22-.44l-1.21-3c-.09-.2,0-.3.21-.29a1.37,1.37,0,0,0,1.66-1.19,5.49,5.49,0,0,1,3.57-.38q6.79-.35,13.67-.37c3.33,0,6-.11,7.93-.27,2.61-.23,5.24-.5,7.89-.83a6.33,6.33,0,0,0,2.38-.66,38.33,38.33,0,0,0,6.11-4.81,3.93,3.93,0,0,1,1.36-1.16,123.83,123.83,0,0,0,9-8.75,17.81,17.81,0,0,1,4.55-3.62c1.72-.92,3.2-.85,4.46.23a6,6,0,0,1,1.27,1.58c.32.54.65,1.08,1,1.62.77,1.15,1.72,2.16,2.42,3.36a1.54,1.54,0,0,1,.54,1.38l1,2.84a3.61,3.61,0,0,1,.48,2.18,66.55,66.55,0,0,1,1.67,6.8q1.5,7.23,2,10.87a21.12,21.12,0,0,1-.38,8.19,2.66,2.66,0,0,1-.46,2l-.93,3a6.18,6.18,0,0,1-.91,2.88l-.52,1.45a4.93,4.93,0,0,1-.88,2.56l-1,2.58a2.71,2.71,0,0,1-.69,1.83l-2.58,6.61a.33.33,0,0,1-.34.2,247.87,247.87,0,0,0-25.36-.57,57.32,57.32,0,0,0-9.47.87,25.12,25.12,0,0,0-12.76,7.72,5.83,5.83,0,0,1-1.42,1.17c-1.13.66-1.89,1.87-3.16,2.25a13.91,13.91,0,0,1-3.07.45c-2.56.16-5.47-.05-7.89.57a12.39,12.39,0,0,0-3.56,1.37,20.42,20.42,0,0,0-3.27,2.4,29.3,29.3,0,0,0-4.24,6.21,4,4,0,0,1-.95,2.2l-.61,1.44a3.75,3.75,0,0,1-.79,2.2,79.24,79.24,0,0,0-2.69,13.19A81.2,81.2,0,0,1,213,228.79a6.69,6.69,0,0,1-.93,2.89L210,237a6.12,6.12,0,0,1-1.44,3.15l-.13.24a3.12,3.12,0,0,1-1.16,2.15,5,5,0,0,1-.85,1.29.55.55,0,0,0-.16.39.51.51,0,0,1-.1.3,38.61,38.61,0,0,1-5.79,7.08,10.15,10.15,0,0,1-1,.83q-.54.39-1.05.81a2.71,2.71,0,0,1-1.73.95l-1,.56a3.53,3.53,0,0,1-2.29.93,17.09,17.09,0,0,1-8.83.35c-.64-.15-.72,0-.24.46a33.83,33.83,0,0,0,3.29,2.76,15.46,15.46,0,0,0,7.86,3.1,30.23,30.23,0,0,0,9.71-.8,1.58,1.58,0,0,1,1.24-.26,27.26,27.26,0,0,0,10-5.34,22.58,22.58,0,0,0,5-6c.88-1.51,1.5-2.6,1.86-3.28a5.24,5.24,0,0,1,1-2.41l.73-2a4.86,4.86,0,0,1,.69-2.56,44.44,44.44,0,0,0,1.05-4.82c1.18-9.37,1.23-18.78,2-28.17a21.08,21.08,0,0,1,1.36-6.18,6.14,6.14,0,0,1,6.62-3.89.6.6,0,0,1,.53.4,7,7,0,0,1,.2,4.62q-1.92,7.68-2.33,10c-.39,2.09-.7,4.2-.95,6.31-.4,3.47-.57,7.3.62,10.68a3.11,3.11,0,0,1,.47,2l.89,2.61a2.58,2.58,0,0,1,.55,1.82l.81,1.92a3.62,3.62,0,0,1,.95,2.3c.61,1.13,1.19,2.27,1.73,3.44.64,1.41,1.21,2.55,1.73,3.44.71,1.22,1.44,2.45,2.16,3.67a2.13,2.13,0,0,1,.8,1.36c2.12,3.32,3.76,5.81,4.9,7.52.71,1.05,1.67,2.35,2.85,3.85a55.2,55.2,0,0,1,4.09,6.55,2.21,2.21,0,0,1,.85,1.51l1,1.87a2.58,2.58,0,0,1,.66,1.5l.73,1.55a3.46,3.46,0,0,1,.92,2.05l.9,2a2.51,2.51,0,0,1,.68,1.76l.69,1.75a3,3,0,0,1,.76,2.21l.73,1.8a6.61,6.61,0,0,1,1,3l.86,2.5a4.24,4.24,0,0,1,.63,2.3l1.31,4.24a5.23,5.23,0,0,1,.35,2.07l.84,3.31a7.52,7.52,0,0,1,.68,3l.76,3.77.66,3.07a.56.56,0,0,0,.2.33c.16.13.21.4.15.78a7.85,7.85,0,0,1,1.63,3l4.93,8.74a3.31,3.31,0,0,1,.89,1.16,4.08,4.08,0,0,0,.38.68,2.4,2.4,0,0,1,.31.73l6.4,11.11a6.63,6.63,0,0,1,1.53,2.72l.32.42a5.57,5.57,0,0,1,1.19,2.25l1.58,2.86a5.12,5.12,0,0,1,1.38,2.51l.93,1.76c.44.21.63.71.59,1.5l.22.15-.91,3.33a14.34,14.34,0,0,0-.06,4,1.68,1.68,0,0,0,1.52,1.56,78.92,78.92,0,0,0,14,1,18.41,18.41,0,0,0,4.27-.47c1.21-.33,4.22-1.43,4.4-2.84a.59.59,0,0,0-.23-.53q-6-4.49-12-8.31a4.71,4.71,0,0,1-1.48-1.5Q295.5,337.9,287,323.39q-3.31-5.68-6.42-11.62a5.92,5.92,0,0,1-.57-3.37c.22-2.18.49-4.34.77-6.49a4.45,4.45,0,0,1,.28-2.43q2.06-13.59,3.88-27.25a77.24,77.24,0,0,0,.48-16.17,25.52,25.52,0,0,0-1-5.22,1.22,1.22,0,0,1-.45-1.14l-.37-.79c-.13-.27-.06-.36.22-.26l13.35,4.43a.4.4,0,0,1,.27.28l.89,2.31a1.86,1.86,0,0,1,.43,1.6l.87,2.69a6.7,6.7,0,0,1,.9,3.4l.85,4a5,5,0,0,1-.23,4.35l-.49.91a2.37,2.37,0,0,1-.92,1.67l-.95,1.54a1.34,1.34,0,0,1-.73,1.22,45.56,45.56,0,0,1-3.57,5.34c-.32.4-.43.81-.74,1.22-1.33,1.73-2.58,3.48-3.78,5.31a3.36,3.36,0,0,0-.14,3.68,2.76,2.76,0,0,1,1,1.4L308,309.52l2.46,2.27q5.81,5.4,16.89,15.42c1,.87.91,1.31,1,2.53a11,11,0,0,1-.6,5.27,2.5,2.5,0,0,1-1.12,2l-.59.82a1,1,0,0,1-.83.93l-1.2,1.87a8.68,8.68,0,0,0,.28,4.09,19.7,19.7,0,0,0,5.23,6.09,16,16,0,0,0,6.3,2.55c1.34.28,3.41.09,3.19-1.82a40.54,40.54,0,0,0-2.25-9.95,7.53,7.53,0,0,1-.44-2.59c0-5.39,0-10.94,0-16.62a.84.84,0,0,0-.23-.56l-29.65-29.64c-1.07-1.06-1-2,.24-2.9,1.74-1.23,3.49-2.55,5.26-3.93,3.07-2.42,6-4.8,8.77-7.11,1.36-1.13,2.57-2.23,3.68-3.29a10.72,10.72,0,0,0,2.56-3.3,17.73,17.73,0,0,0,1.23-5.84c.09-1.78.12-3.93.09-6.43,0-.17.07-.25.23-.25l29.47.28a.81.81,0,0,1,.51.18c1.36,1.11,2.87,1.06,4.47-.12a.54.54,0,0,1,.27-.11c4.7-.41,9.33-.71,13.89-.87a13,13,0,0,1,4.13.5,54.47,54.47,0,0,1,11,4.31,158.78,158.78,0,0,1,13.84,8.4c2.52,1.72,4.5,3.95,5,6.85a18.74,18.74,0,0,1-1.05,9.61,1.58,1.58,0,0,1-.44,1.49l-.8,1.89a2.73,2.73,0,0,1-1.08,1.85q-3.16,4.33-6.75,8.46c-1.77,2-3.56,4-5.38,6a5.35,5.35,0,0,1-1.9,1.34,32.63,32.63,0,0,1-4.55,1.42,3.32,3.32,0,0,1-2.19.53.48.48,0,0,0-.4.12.86.86,0,0,1-.45.13q-1,0-4,.27a8.79,8.79,0,0,1-4.1-2.54,2.08,2.08,0,0,0-2.24-.47.7.7,0,0,0-.32.24c-1.31,1.76-2.52,3.54-3.62,5.3a.6.6,0,0,0-.09.22.79.79,0,0,1-.1.27,40.16,40.16,0,0,0-3.39,6.45c-.23.55,0,.81.55.81h10c1.78,0,1.75-1.67,3.2-1.7a65.76,65.76,0,0,0,9.07-.88c2.23-.38,5.39-1.05,6.93-2.52,3.15-3,6.63-6.13,10.45-9.41.32-.27.62-.53.88-.77.09-.43.48-.75,1.15-1l.63-.48a1.87,1.87,0,0,1,1.24-1.12,23.71,23.71,0,0,1,4.86-3.6l.08,0a.35.35,0,0,1,.42.24,127.71,127.71,0,0,1,2.72,13,.94.94,0,0,1-.05.5c-.41,1-.79,2-1.13,3a2.41,2.41,0,0,0,.27,2.23,6.8,6.8,0,0,0,2.5,1.92c3.49,1.65,6.91,1.68,10.67,1.27a4.61,4.61,0,0,0,1.59-.42.35.35,0,0,0,.2-.31,4.25,4.25,0,0,0-.26-1.46,28.22,28.22,0,0,0-4.53-8.32,3.72,3.72,0,0,1-.72-1.57c-.44-2-.82-4.05-1.17-6.18q-2.35-14.7-3.95-28.09a32.65,32.65,0,0,0-1.51-7.09,35.67,35.67,0,0,0-4-7.77,95.4,95.4,0,0,0-16-18.29.37.37,0,0,1-.14-.32,42.38,42.38,0,0,1,2.81-14.19,20.4,20.4,0,0,0,1.36-5.55q.92-9.28,1.54-19.16a.94.94,0,0,1,.91-.89,14.45,14.45,0,0,0,2.73-.32,1.74,1.74,0,0,0,1.46-1.49c0-.1,0-.2.05-.31.12-.66-.15-1-.83-.92a6.46,6.46,0,0,1-4.32-1.53.36.36,0,0,1-.12-.26l.27-61.29v0a.14.14,0,0,1,.19-.1,9.81,9.81,0,0,0,6-.43,10.74,10.74,0,0,0,4.24-2.65,2.3,2.3,0,0,1,2.26-.77c1.17.25,2.33.56,3.44.91a3.25,3.25,0,0,1,1.92.6l8,2.57a3.38,3.38,0,0,1,2.18.68l2.84,1a2.49,2.49,0,0,1,1.84.55c2.4.82,4.82,1.54,7.29,2.17a3.77,3.77,0,0,0,3.15-.46,30.51,30.51,0,0,0,6.35-5.05c1.19-1.22.66-5.57.42-7.26-.3-2.37-1.45-9.84-3.12-10.93q-5.46-3.56-12.69-7.79-9.84-5.77-19-11.18a.62.62,0,0,1-.32-.42,7.16,7.16,0,0,1-.33-2.34.6.6,0,0,0-.16-.44,13.62,13.62,0,0,0-2.29-2,77.35,77.35,0,0,0-12.27-7,18.84,18.84,0,0,0-3.52-1.08.72.72,0,0,1-.56-.72c0-4.21.5-8.87-.8-13a1.79,1.79,0,0,0-1.31-1.24,2,2,0,0,0-2.08,1,30.3,30.3,0,0,0-2.25,4.1,2.13,2.13,0,0,1-.69,1.6l-2.33,4.63a2.62,2.62,0,0,0-2.7.77.7.7,0,0,0-.48.42,1.49,1.49,0,0,1-.23.39l-1.28,1.33a3.49,3.49,0,0,1-1.78.88,6.19,6.19,0,0,1-2.28,1.44c-.85.36-1.48.26-1.9-.32s-.75-1.08-.79-1.1a11.4,11.4,0,0,0-3.55-2.42,29.53,29.53,0,0,0-6-1.75.25.25,0,0,0-.17,0,.27.27,0,0,0-.13.36l2.76,5.51A4.25,4.25,0,0,1,377,90a5,5,0,0,0,2.3,2.21,3.08,3.08,0,0,1,1.38,1.5.62.62,0,0,1,0,.44L380,97.29a8,8,0,0,1-.83,3.48l-.76,2.83a7.49,7.49,0,0,1-.86,3.37l-2.26,8.79a9.3,9.3,0,0,1-.81,3.25l-.78,2.61c0,.19-.15.24-.33.16a23.71,23.71,0,0,0-9.37-2h0a.33.33,0,0,1-.32-.37,12.5,12.5,0,0,0-.37-5.27,10.23,10.23,0,0,1-.84-3.19q-1.23-17.88-4-35.57-.51-3.29-1.33-6.53a2.12,2.12,0,0,0-1.81-1.63,90.58,90.58,0,0,0-23.68-.71c-3.56.3-6.86.59-8.93,3.89a2.38,2.38,0,0,1-.12.28c-.12.27-.4.4-.84.36a7.65,7.65,0,0,1-2.49-.47A2,2,0,0,1,317.6,70c-.89-1-.76-1.92.37-2.89L322,65.18c.25-.11.24-.2,0-.24l-3.73-.56a.33.33,0,0,1-.3-.31c-.11-.87-.18-1.71-.22-2.52C317.53,54.78,311.3,51,305.22,51a19.78,19.78,0,0,0-11,3.22.4.4,0,0,0-.15.19.45.45,0,0,1-.15.21,11.94,11.94,0,0,0-4,7.61,19.44,19.44,0,0,0,.33,7.16q.25,1,.42,1.92a.81.81,0,0,1-.05.51l-1.42,3.11c-.24.52-.11.67.41.45l2.5-1.07a.64.64,0,0,1,.54,0l1.31.71a.53.53,0,0,1,.27.44l.29,3a.29.29,0,0,0,0,.1.26.26,0,0,0,.36.12l1.22-.61a.33.33,0,0,1,.43.07l1.29,1.28a.55.55,0,0,1,.16.47l-.17,2.1a.57.57,0,0,1-.24.41,15.84,15.84,0,0,1-3.54,2.36c-1.21.45-2.41,1-3.59,1.5a48.49,48.49,0,0,0-6.16,3.45,3.23,3.23,0,0,0-.8.78,1.92,1.92,0,0,1-1.29,1.32,18.26,18.26,0,0,0-2.57,3.38,15.48,15.48,0,0,1-1.82,2.32c-1.67,1.79-3.29,3.61-4.89,5.44a10,10,0,0,1-2.38,2.89,9.56,9.56,0,0,1-1.73,2.13.31.31,0,0,0-.14.25.66.66,0,0,1-.12.27c-1,1.32-2,2.61-3,3.86q-2.67,3.56-5.57,7.19a5.18,5.18,0,0,1-2.51,1.86,45.91,45.91,0,0,1-7,1.37A157.39,157.39,0,0,1,231.88,124a1.84,1.84,0,0,1-1.43-.59c-.56-.57-1.11-1.1-1.65-1.6a3.59,3.59,0,0,0-2.41-.64l-3.85-8.72a5.14,5.14,0,0,1-1-2.56L221,109l-1-2.46-.48-1.18a6.33,6.33,0,0,1-1.24-2.89l-.38-.86a6.17,6.17,0,0,1-1.19-2.76l-1.94-4.59a4.62,4.62,0,0,1-1.16-2.68l-.49-1a4.13,4.13,0,0,1-.93-2.32l-.72-1.55a4,4,0,0,1-1-2.54l-.36-.72a5.1,5.1,0,0,1-1.14-2.69l-.53-1.18a6.87,6.87,0,0,1-1.24-2.91l-.36-.84a5.12,5.12,0,0,1-1.07-2.53L205,71.7a6.68,6.68,0,0,1-.93-2.23l-.51-1.16a6.69,6.69,0,0,1-1.09-2.69l-.62-1.3a4.13,4.13,0,0,1-.95-2.31l-2.11-4.81a2.25,2.25,0,0,1-.68-1.31,4.15,4.15,0,0,0-.37-1.13l-.57-1.29a6.38,6.38,0,0,1-1.17-2.8l-2.29-5.3a3.17,3.17,0,0,1-.82-1.95l-2.13-4.94a4.52,4.52,0,0,1-1.06-2.55,1.78,1.78,0,0,1,.07-2.43c4.12-5,6.8-8.25,8.09-9.86a1.63,1.63,0,0,0,.17-.44l.14-3.55a5.08,5.08,0,0,0-2.74-3.22,2.78,2.78,0,0,0-2.6-.05,24.73,24.73,0,0,0-4.59,4.26c-2.83,3.09-5.69,6.14-8.55,9.17a2,2,0,0,1-1.23,1.35l-5.25,6.06a2.84,2.84,0,0,1-1.12,1.4,2.55,2.55,0,0,1-.51.59v2.92l.73,1.77A2.05,2.05,0,0,1,173.13,45.26Zm184.92,78.47,5.36-.39a.36.36,0,0,0,.38-.45l-.1-.75v0a.23.23,0,0,1,.22-.2,28.37,28.37,0,0,1,9.16,1.86c.08,0,.1.08.09.16l-4.93,19.18s0,.05,0,.06a.14.14,0,0,1-.2,0,15.14,15.14,0,0,1-2.93-3.38c-2.8-4.39-5.76-9.18-7.1-14.1a4.56,4.56,0,0,1-.16-1.73A.25.25,0,0,1,358.05,123.73Zm-19.76-36c.67-2.25,1.34-4.54,2-6.87a.31.31,0,0,1,.29-.22,36.72,36.72,0,0,0,5.73-.27c1.92-.32,3.8-.66,5.66-1,.19,0,.29,0,.32.21l4.7,31.33a1.72,1.72,0,0,1,0,1.9,16.88,16.88,0,0,1-1.93,2,2.06,2.06,0,0,0-.7,1.78q0,3.18,0,6.21a.55.55,0,0,0,.45.55l1.18.23c.19,0,.26.14.2.32a5.63,5.63,0,0,0,.07,3.87,60.92,60.92,0,0,0,6.73,12.78,24.37,24.37,0,0,0,4.37,4.67.48.48,0,0,1,.18.38,2,2,0,0,1-2.11,2.27,9.51,9.51,0,0,1-6.91-2,54.75,54.75,0,0,1-6.77-7.16q-5.29-6.51-11.68-15a3.77,3.77,0,0,1-.76-1.75c-.4-2.72-.68-5.32-.85-7.82-.6-9-1-16.23-1.09-21.68A16.76,16.76,0,0,1,338.29,87.71Z"></path>
  <path class="cls-1" d="M366.93,420.59a16.42,16.42,0,0,1,7.21-6.23c.44-.2.7-.05,1.11-.18a15.58,15.58,0,0,1,7-.12,12.48,12.48,0,0,1,3.59,1.17,22.92,22.92,0,0,1,5.09,3.4c4.18,3.77,7.48,9.33,9.87,14.43a.45.45,0,0,0,.43.27h4.23c.16,0,.24-.08.24-.25a52.47,52.47,0,0,0-.91-9.87c-.82-4.36-1.72-8.77-2.72-13.2a.41.41,0,0,0-.26-.32,19.52,19.52,0,0,0-2.54-1,63.44,63.44,0,0,0-20.65-2.8,32.15,32.15,0,0,0-8.41,1.19,28.69,28.69,0,0,0-7.76,3.71s0,.05-.05.1a.1.1,0,0,1-.05,0h-.05a.37.37,0,0,0-.15,0,36.36,36.36,0,0,0-7.25,6.74c-11.69,14.17-14.14,34.15-12,52.19a59.17,59.17,0,0,0,5,17.88,44.05,44.05,0,0,0,10.47,14,25.06,25.06,0,0,0,7.53,4.72,36.29,36.29,0,0,0,12,2.6c6.22.29,12.78-.19,18.56-2.4a19.22,19.22,0,0,0,7-4.51,1,1,0,0,0,.25-.45c.27-1.18.53-2.37.78-3.56s.47-2.46.63-3.83c.52-4.23,1.11-8.77,1.72-13.64.06-.38-.1-.57-.51-.52l-4.24.46a.58.58,0,0,0-.47.34c-3.37,7.34-9.58,18.05-18,20.3a14.2,14.2,0,0,1-9.88-1,19,19,0,0,1-8.4-7.46,34.08,34.08,0,0,1-2.93-6.4,60,60,0,0,1-3.3-14.86c-.23-2.93-.38-6.05-.44-9.34-.19-10.93.37-21.12,3.4-31.22A41,41,0,0,1,366.93,420.59Z"></path>
  <path class="cls-1" d="M79,478a47.22,47.22,0,0,0,15.33,25.3,11.92,11.92,0,0,0,3.1,2c1.2.55,2.37,1.09,3.49,1.65a.28.28,0,0,0,.22,0h.13a.44.44,0,0,1,.15.12,1.28,1.28,0,0,0,.49.31,37.09,37.09,0,0,0,20.42.66c9.94-2.48,17-9.61,21.87-18.78a62.56,62.56,0,0,0,5.9-16.28,79.35,79.35,0,0,0,1.59-20.42,66.19,66.19,0,0,0-3-16.49.59.59,0,0,1,0-.23.64.64,0,0,0,0-.23c-.89-2.52-1.85-5-2.9-7.35a42.53,42.53,0,0,0-5.75-9.58c-4.76-6-11.33-10.6-18.88-12a35.82,35.82,0,0,0-16.72.66A26.21,26.21,0,0,0,100,409.1a28.93,28.93,0,0,0-3.93,2.34,42.41,42.41,0,0,0-14.91,19.28,74.07,74.07,0,0,0-4,37.75C77.61,471.57,78.22,474.76,79,478Zm14.74-34.07a63.84,63.84,0,0,1,3.79-17.41,23.9,23.9,0,0,1,6.13-9.4A11.63,11.63,0,0,1,111,413.7a17.05,17.05,0,0,1,14.52,6.11,26.48,26.48,0,0,1,4.09,6.5,44.35,44.35,0,0,1,3.08,9.79A80.5,80.5,0,0,1,134.36,448c.13,3.17.23,6.34.33,9.53a103.5,103.5,0,0,1-1.53,22c-1.33,7.2-4.24,15.49-10.36,19.72a15.43,15.43,0,0,1-10.8,2.94,13.82,13.82,0,0,1-5.87-2.34c-3.48-2.3-6-6.43-7.74-10.22a15,15,0,0,1-1-3.1c-.29-1.44-.85-2.83-1.13-4.31-.26-1.33-.56-2.66-.92-3.94a29.29,29.29,0,0,1-.78-4.06q-.89-7-1.15-11.48A146.16,146.16,0,0,1,93.72,443.94Z"></path>
  <path class="cls-1" d="M231.14,470.72c.52,3,1.16,6.12,2,9.46a20.9,20.9,0,0,0,1.62,4.56c.36.7.54,1.45.89,2.18a57.39,57.39,0,0,0,3.9,7,37.52,37.52,0,0,0,2.55,3.39c.9,1.06,1.78,2.12,2.63,3.14a5,5,0,0,0,.95.79,7.36,7.36,0,0,1,1,.76q1.08,1,2.22,2a5.61,5.61,0,0,0,1.65,1,13.77,13.77,0,0,1,1.81.87,20.32,20.32,0,0,0,2.67,1.26,33.92,33.92,0,0,0,14.17,1.88,30.6,30.6,0,0,0,19.75-8.12c6.79-6.28,11.43-15.68,13.75-24.54a78,78,0,0,0,2.13-27.52,61.9,61.9,0,0,0-1.61-9.13,68.39,68.39,0,0,0-5.35-14.21c-3.56-7-9.22-13.17-16.29-16.54a34.1,34.1,0,0,0-20.9-2.31,27.79,27.79,0,0,0-9.61,3.88.48.48,0,0,0-.2.17,1.86,1.86,0,0,1-.35.29,18.82,18.82,0,0,0-2.85,2c-.94.79-1.89,1.65-2.86,2.56a31.73,31.73,0,0,0-2.73,2.93,49.69,49.69,0,0,0-9.75,19.91A78.27,78.27,0,0,0,231.14,470.72Zm16.3-28.46A62.6,62.6,0,0,1,249,433a50.43,50.43,0,0,1,3.2-9.08,21.44,21.44,0,0,1,6.43-8,9,9,0,0,1,3.89-1.85,17.18,17.18,0,0,1,8.52.42,15.89,15.89,0,0,1,5.83,3.29,19.22,19.22,0,0,1,2.89,3,29.19,29.19,0,0,1,4.11,7.38c.5,1.34,1,2.62,1.34,3.87a16.08,16.08,0,0,1,.52,2c.13.67.27,1.36.42,2.06q.91,4.35,1.4,8.58c.27,2.3.46,7.63.55,16,.16,13.24-1.65,37.18-17.36,41a13.06,13.06,0,0,1-9.28-.89,17.36,17.36,0,0,1-6.81-6.33,27.68,27.68,0,0,1-4-8.85c-.43-1.87-.89-3.67-1.35-5.45-.41-1.59-.74-3.07-1-4.41-.55-3-.72-6.16-1.05-9.13-.19-1.59-.31-3.12-.36-4.6A156.27,156.27,0,0,1,247.44,442.26Z"></path>
  <path class="cls-1" d="M178.44,506.48a289.69,289.69,0,0,1,29.7.67c2.08.11,4.08.28,6,.5a47.37,47.37,0,0,0,8,.14,1.24,1.24,0,0,0,1.32-1.22q1-11.08,1.41-22.79c0-1.28.05-2.7,0-4.29a.3.3,0,0,0-.27-.31,20,20,0,0,0-3.93-.22.34.34,0,0,0-.36.28c-.43,1.86-1,3.88-1.61,6.06a25.9,25.9,0,0,1-3.23,6.74A14.48,14.48,0,0,1,212,496c-4.33,3.16-9.75,4.08-15.13,4-3.81-.07-7.47.11-11.25-.3a.34.34,0,0,1-.3-.26,8.86,8.86,0,0,1-.26-2.13q0-24.72.28-48.56c0-2.84,0-6,0-9.46q-.18-8.49.15-19.71c0-1.44.05-2.45,1.49-2.95q3.26-1.15,6.25-2.14a7,7,0,0,0,2.29-.84.8.8,0,0,0,.28-.4c.31-1.06,1.12-6.39-1.32-6.06s-4.84.56-7.17.73c-4.47.34-9.24-.1-13.89.05-4.18.13-8.3-.52-12.54-.6h0a.73.73,0,0,0-.73.73l.06,4a1.25,1.25,0,0,0,.62,1.12c1.38.86,2.93,1.32,4.29,2.08s2.57,1.42,3.84,2.09a2.71,2.71,0,0,1,1.48,2.32c.3,3.1.46,5.8.46,8.1,0,9.71-.26,19.32-.17,29q.12,12.42-.2,24.76c-.13,5-.09,9.62-.06,14.54a17.09,17.09,0,0,1-.24,2.14.62.62,0,0,1-.23.43,2.69,2.69,0,0,1-1.39.6,47.16,47.16,0,0,0-9,2,.51.51,0,0,0-.35.4,26.62,26.62,0,0,0-.24,5.52v0a.57.57,0,0,0,.6.5Q169.25,506.87,178.44,506.48Z"></path>
  <path class="cls-1" d="M438.93,499.64a.23.23,0,0,1-.21-.19,15.86,15.86,0,0,1-.33-3.49q.19-22,.36-46.78c0-3.16,0-6.29-.06-9.36q-.24-10.95.27-21.52a1.71,1.71,0,0,1,1.19-1.64c2.6-1,5.22-1.85,7.81-2.61a1.65,1.65,0,0,0,1.28-1.07c.27-.93,1-6.12-1.35-5.84a81.7,81.7,0,0,1-13.36.84c-2.65-.12-5.36-.13-8.14-.06-4,.12-8.09-.54-12.14-.6h0a.75.75,0,0,0-.74.77v4.21a.49.49,0,0,0,.13.35,4.73,4.73,0,0,0,2.16,1.42,32,32,0,0,1,5.39,2.71c1.44.79,2.43,1.06,2.62,3a88.15,88.15,0,0,1,.44,9.15q-.24,22.91-.17,42.07c0,2.34-.06,5.46-.19,9.35-.16,5-.16,10,0,15a23.75,23.75,0,0,1-.22,2.44,1.39,1.39,0,0,1-1.21,1.37,61.57,61.57,0,0,0-8.09,1.62,6.85,6.85,0,0,0-1.57.62.41.41,0,0,0-.24.36l-.21,5.24c0,.49.21.72.7.68q13.2-1.17,25.6-1.33c7.27-.08,15,.4,22.45.77,2.25.12,4.61.32,7.05.58a42.84,42.84,0,0,0,7.58.09q1.08-.09,1.17-1,1.33-13.95,1.51-27.25a.34.34,0,0,0-.28-.33,17.68,17.68,0,0,0-4-.25.34.34,0,0,0-.35.29c-1.09,5.22-2.54,9.95-5.82,14.23-3.88,5.06-11,6.53-17.23,6.49A107.49,107.49,0,0,1,438.93,499.64Z"></path>
  <path class="cls-1" d="M8.44,413.41q2.72.9,5.51,1.58c4.44,1.07,4.21,6,4.29,9.54q.45,17.22.86,34.7c.25,11.41.24,22.83.34,34.25a18.14,18.14,0,0,1-.44,4,.71.71,0,0,1-.24.38,38.81,38.81,0,0,1-8.47,4.75.38.38,0,0,0-.24.34,26.68,26.68,0,0,0,.07,5,.26.26,0,0,0,.28.26,10.22,10.22,0,0,0,2.09-.21,69,69,0,0,1,20.66-1.07c2.56.24,5.14.52,7.71.81a9.54,9.54,0,0,0,3-.2.36.36,0,0,0,.29-.32,19.71,19.71,0,0,0,.05-5.74.28.28,0,0,0-.24-.24l-9.94-1.78a.33.33,0,0,1-.29-.32c-.18-2-.26-3.29-.26-3.89q0-36.17-.5-75.29a9.67,9.67,0,0,1,.29-2.76c.53-2,3.86-2.59,5.64-2.66a10.79,10.79,0,0,1,3.3.35,17.65,17.65,0,0,1,3.35,1.22,8,8,0,0,1,3.24,2.83,23.07,23.07,0,0,1,2.22,4.54,24,24,0,0,1,1.24,5.12A46.48,46.48,0,0,1,52,444c-1,5-4.06,10-9.32,10.69a15.87,15.87,0,0,1-5.13-.22H37.5a.37.37,0,0,0-.36.38c0,1.53.06,3.11.09,4.75a2.18,2.18,0,0,0,1.1,1.86,20.22,20.22,0,0,0,4.29,2.42,15,15,0,0,0,4.76,1.07c9.57.61,16.28-7,19.12-15.54a43,43,0,0,0,2.18-14,35.89,35.89,0,0,0-1.07-8.52,43.9,43.9,0,0,0-3.08-8.41,19.6,19.6,0,0,0-4.47-6.15,17.12,17.12,0,0,0-7.19-3.8,34.74,34.74,0,0,0-11.73-.86q-8.85.78-17.12.84a72,72,0,0,1-7.6-.34l-8.14-.79c-.25,0-.37.08-.37.33L8,412.84A.63.63,0,0,0,8.44,413.41Z"></path>
  <path class="cls-1" d="M580.14,507.39c7-.63,13.44-.33,20.24-.2a31,31,0,0,0,12.91-2.46c4.77-2,7.93-5.38,10.61-9.72,3-4.83,4-11.09,4.18-16.84.3-10.27-4.28-21.64-14.44-25.42a15,15,0,0,1-1.44-.63c-.14-.08-.16-.18,0-.29a7.85,7.85,0,0,1,2-1.39,1,1,0,0,0,.41-.34,1,1,0,0,1,.3-.3q7.21-4.64,8.85-12.07A30.55,30.55,0,0,0,624,426.1a24.5,24.5,0,0,0-2.94-8.35,19.81,19.81,0,0,0-8.8-8.2,25.58,25.58,0,0,0-6.75-2,50.14,50.14,0,0,0-6.53-.21c-1.73-.05-3.4,0-5,.07q-14.43.84-29.3,1.24c-.16,0-.23.09-.23.23l.12,5a.34.34,0,0,0,.32.36q3.11.62,6.25,1a2.64,2.64,0,0,1,2.51,2.74c.2,2.12.3,4.16.34,6.09q.42,29.73.39,61.77c0,3.27-.13,6.55-.38,9.86a9.93,9.93,0,0,1-.89,3.47.86.86,0,0,1-.33.35,34.44,34.44,0,0,1-8.13,2.57.31.31,0,0,0-.23.28l-.1,5.88h0a.14.14,0,0,0,.15.13C569.72,508.09,575,507.87,580.14,507.39Zm32-36.69a46.25,46.25,0,0,1,.53,13c-.84,9.85-5.61,17.33-16.65,17.36a12.47,12.47,0,0,1-6.22-1.94.73.73,0,0,1-.37-.44,7.46,7.46,0,0,1-.39-2.34q-.3-19.33-.14-38.67a.51.51,0,0,1,.42-.5c3.71-.67,7-.27,10.69.07a12.79,12.79,0,0,1,3.64,1.12,9.83,9.83,0,0,1,4.08,3.17,28.53,28.53,0,0,1,2.65,4.31A19.56,19.56,0,0,1,612.12,470.7Zm-23.3-55.84a24.13,24.13,0,0,1,8.53-.6,9.74,9.74,0,0,1,2.43.53,10.91,10.91,0,0,1,4,2,24.22,24.22,0,0,1,2,1.89,23.55,23.55,0,0,1,2.9,5.22,19.06,19.06,0,0,1,.74,2.87,33.1,33.1,0,0,1,0,10.42,17.86,17.86,0,0,1-2.23,6.89c-3.69,6.09-11.59,7-18.15,5.85a.24.24,0,0,1-.22-.27c.1-12.19,0-23.12-.34-34.37A.49.49,0,0,1,588.82,414.86Z"></path>
  <path class="cls-1" d="M480.92,414.59a20.33,20.33,0,0,1,7.69,1.3c1.67.74,1.84,2.64,2,4.5.21,2.58.31,4.74.33,6.46q0,22.72,0,43.37,0,6.27.58,12.73c.5,5.54,1.81,12.13,4.9,16.73,6.09,9.07,17,11.8,27.64,10.26a26.91,26.91,0,0,0,23.07-22.1c1.15-6.37,1.12-13.08,1.17-19.61,0-2.62,0-5.73-.16-9.35q-.58-16.15-.75-32.33c0-2.56-.25-5-.31-7.63,0-1.25.18-2.9,1.56-3.31a30.17,30.17,0,0,1,5-1,5.13,5.13,0,0,0,2-.68.47.47,0,0,0,.28-.4,16,16,0,0,0-.24-5,.45.45,0,0,0-.49-.35q-3.39.45-6.65.64c-5.63.33-11.52-1-17.34-.59a.21.21,0,0,0-.22.22l-.08,5.4a.37.37,0,0,0,.42.43c1.6,0,3.23,0,4.86,0a5,5,0,0,1,4.79,4.14,14.18,14.18,0,0,1,.35,2.45q1.61,24.14,1.71,48.43,0,5.66-.43,11.34a36.85,36.85,0,0,1-2.41,10.06,17.73,17.73,0,0,1-7.61,9.14,22.73,22.73,0,0,1-9.42,2.53A15.08,15.08,0,0,1,508.69,493a40.83,40.83,0,0,1-2.7-14.66c-.22-8-.74-15.95-.55-24,.08-4.12.07-7.93,0-11.45-.1-2.74-.15-5.87-.13-9.36,0-5.16-.32-10.52.31-15.67.26-2.16,2-2.79,3.93-2.81a35.56,35.56,0,0,0,6.07-.56.31.31,0,0,0,.26-.34l-.09-5.42c0-.21-.1-.32-.31-.31q-6.83.13-13.41.55a60.82,60.82,0,0,1-8.54,0,98.88,98.88,0,0,0-12.72-.58.26.26,0,0,0-.25.28l.14,5.71A.26.26,0,0,0,480.92,414.59Z"></path>
  <path class="cls-1" d="M345.19,565.6a1.52,1.52,0,0,1,1.46,1.21c.55,2,1.17,4,1.85,6a.59.59,0,0,0,.57.41,1.4,1.4,0,0,0,1.61-1.58c0-4.3,0-8.54,0-12.74a.3.3,0,0,0-.34-.33h-1.13a.5.5,0,0,0-.48.35l-.55,1.83a.67.67,0,0,1-.24.31,2.69,2.69,0,0,1-1.56.48q-11.28-.07-22.82.12a.77.77,0,0,1-.74-.47l-.92-2.14a.62.62,0,0,0-.4-.36,1.51,1.51,0,0,0-1.13,0,.46.46,0,0,0-.3.37c-.66,3.79-1.47,7.59-2.43,11.43a.62.62,0,0,0,.08.51,3.58,3.58,0,0,0,.95,1,.48.48,0,0,0,.79-.19c.84-1.53,1.72-3,2.66-4.55a3.34,3.34,0,0,1,2.81-1.67,56.53,56.53,0,0,1,6.09.07.68.68,0,0,1,.65.65q.42,17.46.09,34.84a1.69,1.69,0,0,1-1,1.62,34.62,34.62,0,0,1-3.46,1.47,2,2,0,0,0-1.39,1.67c0,.12,0,.31-.09.59-.13.79.2,1.13,1,1a35.69,35.69,0,0,1,9.39-.46c2.19.18,4.55.34,7.06.48.32,0,.47-.13.46-.43l-.06-1.81a.71.71,0,0,0-.51-.69l-3.58-1.1a1.17,1.17,0,0,1-.84-1.13l-.12-36.11a.58.58,0,0,1,.58-.63A44.42,44.42,0,0,1,345.19,565.6Z"></path>
  <path class="cls-1" d="M218.33,584.49a10.2,10.2,0,0,1,.77-1.77c.39-.7.71-1.35,1-2a18.19,18.19,0,0,1,1.45-2.8.81.81,0,0,0,.15-.45,2.41,2.41,0,0,1,.32-1,10.17,10.17,0,0,0,1.17-2.36,13.51,13.51,0,0,1,1.13-2.4c.48-.82.55-1.75,1-2.58s1-1.89,1.44-2.89a6.51,6.51,0,0,1,1.23-1.49,5.59,5.59,0,0,1,2.53-1.06.4.4,0,0,0,.28-.38l.07-2.14c0-.22-.11-.32-.33-.27a17.34,17.34,0,0,1-3.88.33c-1.76-.11-3.57-.26-5.46-.47-.24,0-.36.08-.36.32l.09,2.06a.36.36,0,0,0,.3.36l2.7.64a.51.51,0,0,1,.32.26,1.43,1.43,0,0,1,.06,1.31c-.16.4-.31.79-.47,1.17q-1.47,3.66-2.72,6.84a16.84,16.84,0,0,1-.7,1.56c-.27.52-.52,1-.74,1.57-.36.79-.73,1.55-1.15,2.29-.65,1.15-1,2.35-1.66,3.46-.3.5-.57,1.05-.85,1.63,0,0,0,.06-.07.07a.13.13,0,0,1-.16-.07c-.34-.8-.7-1.59-1.09-2.39s-.74-1.58-1.06-2.4q-1.91-4.83-4.39-10.07a30,30,0,0,1-1.55-3.94.59.59,0,0,1,.51-.87,26.78,26.78,0,0,0,3.32-.87.63.63,0,0,0,.43-.61l0-1.84a.17.17,0,0,0,0-.07.4.4,0,0,0-.48-.31c-4.37.94-8.81.06-13.25-.3a6.7,6.7,0,0,0-1.83.2.33.33,0,0,0-.29.34l-.06,1.59a.39.39,0,0,0,.31.4c1,.26,2.47.61,3,1.64.92,1.75,1.77,3.57,2.55,5.44s1.44,3.37,2.13,4.91l2.19,4.93q1.53,3.42,3.25,6.8a7.82,7.82,0,0,1,.83,3.39q.19,6.06.15,12.64a.77.77,0,0,1-.54.72l-4.26,1.29a.41.41,0,0,0-.34.46v1.7c0,.28.15.4.42.37,2.42-.29,5-.47,7.63-.56s5.37.51,8.12.51a.48.48,0,0,0,.56-.53l.09-1.43a.73.73,0,0,0-.67-.86L218,604a.64.64,0,0,1-.57-.68q-.25-8.07.05-16.39A8,8,0,0,1,218.33,584.49Z"></path>
  <path class="cls-1" d="M233.31,604.06a11,11,0,0,0,8.37,3.85,12.3,12.3,0,0,0,10.88-5c4.86-6.45,5.81-15.84,3.46-23.36s-8-12.92-16.42-11.23a6.53,6.53,0,0,0-1.79.65c-.56.3-1.14.59-1.72.86a2.4,2.4,0,0,0-.93.76,1,1,0,0,1-.33.3,3.82,3.82,0,0,0-1,.72c-6.78,6.68-6.94,18.25-4.07,26.72A17.58,17.58,0,0,0,233.31,604.06Zm2.16-25.71a12.39,12.39,0,0,1,2.67-5.63c2.11-2.27,4.69-2.48,7.71-.6a5.27,5.27,0,0,1,1.1,1,10.24,10.24,0,0,1,1,1.3,18.34,18.34,0,0,1,2.32,7.36,53,53,0,0,1-.14,14.46c-.51,3.21-1.9,6.89-5.05,8.42-4.95,2.42-8.13-2.43-9.14-6.44A44.25,44.25,0,0,1,235.47,578.35Z"></path>
  <path class="cls-1" d="M446,605.41c-.87-.33-1.84-.76-2.71-1.19a1.33,1.33,0,0,1-.87-1.31c-.32-8.79-.54-18.45-1-29.08,0-1.63,2.39-2.39,3.68-2.71.23,0,.33-.22.33-.44V569a.23.23,0,0,0-.21-.22l-8.69.54c-.21,0-.43.11-.43.33-1.2,3.47-2.17,6.94-3.15,10.31-1.41,5.2-2.93,10-4.56,15-.1.43-.21.43-.32,0l-7.7-24.74a1.59,1.59,0,0,0-1.2-1c-2.71-.21-5.42-.32-8.25-.32a.29.29,0,0,0-.32.32v1.52c0,.22.11.44.32.44a15.14,15.14,0,0,1,2.07.75,1.66,1.66,0,0,1,1.3,1.2,19.53,19.53,0,0,1,.11,3.91c-.11,7.59-.33,15.19-.55,22.89,0,.87-.21,1.84-.32,2.93-.33,1.74-1.95,2.17-3.36,2.5H410l-2.6-1a1.29,1.29,0,0,1-.77-.76,26.7,26.7,0,0,1-1.3-4.12c-.87-3.36-1.84-6.62-2.71-10-.44-2-1.08-3.9-1.63-6-1.62-5.32-3-10.31-4.34-15.09a.6.6,0,0,0-.54-.32h-1.41a.49.49,0,0,0-.54.32c-2.93,11.29-5.86,22.46-8.69,33.43-.32,1.08-.64,2.27-1.73,2.71l-2.28.65c-.11.11-.22.22-.22.32V607a.29.29,0,0,0,.33.33c1.62,0,3.26-.65,4.77-.43a33.29,33.29,0,0,0,4.56.32c.33,0,.43-.11.43-.43v-1.31c0-.21-.1-.43-.32-.43-1.74-.43-3.69-.43-3.15-2.93.65-2.82,1.31-5.53,2.06-8.14a.29.29,0,0,1,.33-.32l7.27.11a.29.29,0,0,1,.32.21c.76,2.82,1.53,5.65,2.28,8.36.22,1,.33,1.63-.75,2.06a12.75,12.75,0,0,1-2.5.76c-.22.11-.32.22-.32.43v1.52a.23.23,0,0,0,.21.22c3-.22,6.08-.65,9.12-.22a46.46,46.46,0,0,0,7.92,0,32.36,32.36,0,0,1,5.86.43c.22.12.43,0,.43-.32v-1.63a.34.34,0,0,0-.33-.32c-2.17-1-3.68-1.3-3.68-4.13,0-7.92.1-15.73.21-23.44,0-.54.11-.54.33-.1,2.28,7.27,4.55,14.75,7.05,22.35.76,2.39,1.3,4.78,1.85,7.27a1.2,1.2,0,0,0,.43.32,4.33,4.33,0,0,0,1.08-.1q.17,0,.33-.33c.87-3.9,1.63-7.16,2.39-9.55,2.06-6.73,4.12-13.56,6.07-20.5.22-.55.33-.55.33.1.33,7.82.54,16.06.54,24.52a3,3,0,0,1-.54,2.29c0,.1-.11.22-.33.22l-2.49.86a.35.35,0,0,0-.33.33V607c0,.11.11.22.33.22a35.25,35.25,0,0,1,12.59.32c.21,0,.32,0,.43-.32V606A.58.58,0,0,0,446,605.41Zm-49.26-14.65-5.75-.11-.22-.22,2.82-11a.1.1,0,0,1,.11-.1c.11,0,.22,0,.22.1l3,11.07A.24.24,0,0,1,396.73,590.76Z"></path>
  <path class="cls-1" d="M268.31,589.05a5.86,5.86,0,0,1,2.88.27.79.79,0,0,1,.38.32A11.3,11.3,0,0,1,272.7,592q2.52,7.66,5.17,15.25a.21.21,0,0,0,.23.15,24.13,24.13,0,0,1,8.11.15h0a.42.42,0,0,0,.46-.4c.21-2.58-2.43-1.95-3.28-3.87-.33-.73-.64-1.46-.92-2.17Q280,595,276.9,588a.2.2,0,0,1,.1-.25,9.3,9.3,0,0,0,2.66-2,9.1,9.1,0,0,0,1.42-2.15,11.25,11.25,0,0,0-.72-11.22c-2.94-4.63-7.46-4.2-12.33-3.62a33.42,33.42,0,0,1-5.8.13,15.89,15.89,0,0,0-2.74.09.43.43,0,0,0-.42.47v1.42a.46.46,0,0,0,.41.46l2.49.36a.65.65,0,0,1,.64.73l-.17,31.09a1.06,1.06,0,0,1-.8,1.08c-.61.18-1.22.32-1.83.45-.78.16-1.12.73-1,1.71a.66.66,0,0,0,.67.67,5.14,5.14,0,0,0,1.24-.06,30.43,30.43,0,0,1,10.49.14c.65.13,1-.15,1-.81l.05-1.14a.63.63,0,0,0-.4-.61l-3.25-1.21a.73.73,0,0,1-.52-.76V589.31A.24.24,0,0,1,268.31,589.05Zm-.27-3.13.08-14.13a.37.37,0,0,1,.37-.38h2c2.93,0,5.27,2.71,5.26,6l0,2.88c0,3.31-2.39,6-5.32,6h-2A.37.37,0,0,1,268,585.92Z"></path>
  <path class="cls-1" d="M303.21,605.33a.44.44,0,0,0-.29.42l0,1.19c0,.27.13.39.4.37a59.36,59.36,0,0,1,12.08.12.3.3,0,0,0,.37-.28,4.27,4.27,0,0,0,0-1.51.55.55,0,0,0-.27-.4c-1-.6-2.29-1-2.86-2.09q-5.08-9.74-10.92-18.93a.38.38,0,0,1,0-.4c1.27-1.79,2.6-3.66,4-5.57s2.4-3.13,3.28-4.11a12.68,12.68,0,0,1,5.51-3.21.41.41,0,0,0,.31-.41l0-1.68v0a.27.27,0,0,0-.32-.25,45.12,45.12,0,0,1-11,.11c-.31,0-.46.1-.45.42l0,1.46a.43.43,0,0,0,.39.47l2.85.6h0a.27.27,0,0,1,.16.35,9.32,9.32,0,0,1-.84,1.71q-3.89,6.2-8.27,12.36c-.23.35-.36.31-.36-.11v-13a1.1,1.1,0,0,1,.82-1.08c.84-.23,1.7-.5,2.55-.8.56-.2.84-.75.83-1.65,0-.56-.28-.81-.84-.74a39.3,39.3,0,0,1-10.78,0,8.32,8.32,0,0,0-1.87,0c-.26,0-.35.16-.31.41a2,2,0,0,1,0,.8.88.88,0,0,0,.53,1.05l2.82,1.33a.84.84,0,0,1,.5.69,21.38,21.38,0,0,1,.26,3.64q-.09,12.21,0,25a2.05,2.05,0,0,1-.81,1.91,24.4,24.4,0,0,0-3.21,1.94.55.55,0,0,0-.21.58,1.75,1.75,0,0,1,0,.79c0,.25.05.38.32.39l12.9.14c.22,0,.33-.11.32-.34l-.05-1.09a.62.62,0,0,0-.34-.51l-2.47-1.2a1.5,1.5,0,0,1-.85-1.34l-.15-13.85c0-.55.15-.59.44-.11q3.31,5.31,6.73,11.1a12.92,12.92,0,0,1,1.63,3.26,1.16,1.16,0,0,1-.7,1.4Z"></path>
  <path class="cls-1" d="M353.22,605.4a.35.35,0,0,0-.32.4l0,1.39c0,.27.14.39.39.36a150,150,0,0,1,22.72.05,18.35,18.35,0,0,0,2.55-.08.24.24,0,0,0,.24-.24l1.31-10.6a.09.09,0,0,0,0,0,.35.35,0,0,0-.36-.32l-1,0a.42.42,0,0,0-.42.34,18.58,18.58,0,0,1-1.78,4.65c-1.34,2.47-3.24,3-5.95,3.24a25.87,25.87,0,0,1-5.81-.23,1.58,1.58,0,0,1-1.49-1.78c0-4.39,0-8.79-.09-13.19a.3.3,0,0,1,.3-.34,45.17,45.17,0,0,1,6.64-.12,1.72,1.72,0,0,1,1.67,1.23,42,42,0,0,1,.84,4.87.33.33,0,0,0,.31.28h.94a.21.21,0,0,0,.23-.24l-.08-14.54c0-.43-.2-.64-.62-.63h-.28a.63.63,0,0,0-.67.6c-.14,1.22-.34,2.49-.62,3.82a2.09,2.09,0,0,1-2,1.83,44.53,44.53,0,0,1-6.39.28.25.25,0,0,1-.28-.29l0-14.08a.35.35,0,0,1,.33-.35,44.12,44.12,0,0,1,10.36.4,1,1,0,0,1,.71.54,42.4,42.4,0,0,1,2.21,5.76.61.61,0,0,0,.41.43,1.33,1.33,0,0,0,.86,0,.44.44,0,0,0,.36-.46l0-8.37a.83.83,0,0,0-.64-.8,14.87,14.87,0,0,0-2.78-.35c-5.28-.2-11.41.34-16.65.43a33.91,33.91,0,0,1-5-.51c-.2,0-.32.06-.33.27l-.1,1.7a.31.31,0,0,0,.28.36l3.39.64a1,1,0,0,1,.77.94q.3,15.81.23,30.3a1.61,1.61,0,0,1-1.45,1.76C355.18,605,354.21,605.16,353.22,605.4Z"></path>
  <path class="cls-1" d="M577.05,536.05l-66.31-.89-66.31-.49-132.63-.42-132.63.42c-44.2.29-88.42.64-132.62,1.38,44.2.74,88.42,1.08,132.62,1.38l132.63.42,132.63-.42,66.31-.5Z"></path>
</svg>
