<?xml version="1.0" encoding="UTF-8"?>
<svg xmlns="http://www.w3.org/2000/svg" id="Capa_1" data-name="Capa 1" viewBox="0 0 707 361">
  <defs>
    <style>.cls-1{fill:#333;}</style>
  </defs>
  <path class="cls-1" d="M548.8,330.78Q487,293,424.74,256.07c-38.75-23-77.55-46-116.66-68.39-9.69-5.55-19.51-10.87-29.25-16.33a8.57,8.57,0,0,0-4.36-1.07q-117.41,0-234.82,0H37.59a4.13,4.13,0,0,0,2.09.78c7.69,1.46,15.41,2.83,23.09,4.37q18,3.57,35.86,7.32c16.42,3.41,32.78,7.11,49.11,11q39.64,9.42,78.82,20.71,48.85,14.1,96.79,31.08c30.89,11,61.43,22.92,91.77,35.34Q457,298,498.43,316.1q17.55,7.63,35.12,15.21l47.13,20.41a5.73,5.73,0,0,0,2.53.81,32.9,32.9,0,0,0-3.87-2.7C569.17,343.47,559,337,548.8,330.78Z"></path>
  <path class="cls-1" d="M231.71,292.34c4.94-3.2,9.9-6.37,15.06-9.22,4.12-2.27,8.18-4.67,12.33-6.88,3.85-2.06,7.8-3.92,11.68-5.92,4.5-2.32,9.13-4.34,13.75-6.37,3.87-1.71,7.8-3.25,11.71-4.88.23-.09.43-.24.91-.5-.81-.32-1.34-.58-1.91-.76-3.74-1.26-7.47-2.53-11.23-3.74q-19.2-6.18-38.41-12.31c-4.16-1.32-8.37-2.51-12.54-3.77a4,4,0,0,0-2.65-.09c-2.79,1-5.58,2.07-8.36,3.14s-5.68,2.22-8.51,3.33c-3.16,1.25-6.33,2.45-9.46,3.76Q196,251.48,188,254.94a430.31,430.31,0,0,0-54.94,28.57c-24.4,15-46.39,32.87-64.89,54.86-2,2.38-4,4.79-6,7.2-.25.3-.44.66-.83,1.26.72,0,1.06.07,1.41.07l13.74,0,77.23.15c5,0,10,0,15,0a2.15,2.15,0,0,0,2.12-1,8.16,8.16,0,0,1,.5-.66,171.5,171.5,0,0,1,12.89-14.71c3.36-3.42,6.89-6.64,10.39-9.9,5.9-5.49,12.15-10.54,18.53-15.44Q222.19,298.5,231.71,292.34Z"></path>
  <path class="cls-1" d="M70.79,28.8a25,25,0,0,1,10.12,2.05A17.33,17.33,0,0,1,91.07,42.51a23.58,23.58,0,0,1,.35,12.36c-2,7.94-6.93,13.1-15.12,14.84a30.82,30.82,0,0,1-6.43.36c-7.91,0-15.82,0-23.74,0h-2c-.14.33-.3.52-.3.71q0,11.24,0,22.48a5.35,5.35,0,0,0,.22.92c.78,0,1.53,0,2.29,0,5.62,0,11.24,0,16.86.06A35.66,35.66,0,0,1,76,96.55a18.25,18.25,0,0,1,10.28,9.78,25.38,25.38,0,0,1,1.93,6.56,52.57,52.57,0,0,1,.58,8.5q0,10.52,0,21a3.66,3.66,0,0,0,.27,2.21c1.76.32,21.21.45,28.28.2a8.52,8.52,0,0,0,1.16-.17,5.36,5.36,0,0,0,.28-2.54q0-14.46,0-28.93c0-1.32-.06-2.64-.14-4a27.2,27.2,0,0,0-10.84-20.49,23.6,23.6,0,0,0-5.09-3.17,37.36,37.36,0,0,0-5.94-2.42,11.72,11.72,0,0,1-1.58-.69,4.12,4.12,0,0,1,2-1.25,40.12,40.12,0,0,0,6.33-3.06,36.08,36.08,0,0,0,15-16.23,42.33,42.33,0,0,0,3.8-18.79,35.86,35.86,0,0,0-6.64-20.46A43.13,43.13,0,0,0,99.74,9a46.33,46.33,0,0,0-16.82-5.1c-3.65-.36-7.34-.42-11-.43q-32,0-63.91,0c-.49,0-1,0-1.46,0a8.63,8.63,0,0,0-1.16.25,10.59,10.59,0,0,0-.1,1.14L5.33,119a.31.31,0,0,0,.06.19c0,.06.1.1.14.15,1.59.25,25.15.32,28,.07a8.27,8.27,0,0,0,.21-2.77q0-42.15,0-84.3c0-.77,0-1.53,0-2.29a8.51,8.51,0,0,1,.29-1.26H44.56Z"></path>
  <path class="cls-1" d="M676.44,167.4c-4.92.33-9.83.63-14.75,1q-11,.78-22,1.62l-6.63.51-13.91,1.1c-4.15.34-8.3.66-12.44,1q-6.44.52-12.86,1.08c-3.87.33-7.74.64-11.61,1s-7.74.7-11.6,1.05-7.47.64-11.19,1c-5,.47-10,1-14.92,1.48s-9.66.91-14.49,1.41c-5.79.61-11.58,1.27-17.37,1.91-5.59.6-11.18,1.18-16.76,1.83-6.48.74-12.94,1.54-19.41,2.34-7,.86-14,1.71-21.05,2.66q-11.15,1.5-22.24,3.17c-9.33,1.4-18.66,2.76-28,4.33-9.91,1.67-19.79,3.55-29.67,5.35a17,17,0,0,0-1.69.52c12.42,7.41,24.58,14.6,36.73,21.82S434.94,238,447,245.16a10,10,0,0,0,1.17-.36l15-6.11c3.91-1.59,7.83-3.16,11.75-4.74,3-1.2,6.05-2.4,9.09-3.57q5-1.95,10.09-3.86l5.25-2c3.11-1.16,6.21-2.34,9.33-3.49,2.54-.93,5.09-1.81,7.62-2.74,4-1.46,8.06-3,12.1-4.44,1.75-.64,3.53-1.23,5.3-1.84,3.33-1.15,6.66-2.32,10-3.45s6.45-2.09,9.66-3.16c3.75-1.23,7.48-2.54,11.24-3.74s7.29-2.2,10.92-3.3c4.64-1.39,9.27-2.82,13.92-4.19,4.92-1.46,9.84-2.87,14.77-4.28,3.52-1,7-2,10.59-3,4.87-1.35,9.75-2.7,14.63-4,6.15-1.67,12.3-3.34,18.48-4.92q21-5.37,42.12-10.68c1-.25,2-.55,3-.83a4.56,4.56,0,0,0-1.45-.13C686.54,166.69,681.49,167.06,676.44,167.4Z"></path>
  <path class="cls-1" d="M368.59,119.43c.72,0,1.34.09,1.94.09q25.29,0,50.59,0a51.86,51.86,0,0,0,25.62-6.85A50.6,50.6,0,0,0,456,106a40.51,40.51,0,0,0,13.91-27.33,48.5,48.5,0,0,0-2.46-20.09c-6.13-18-22.35-29.41-39.8-29.54-6.11,0-12.21,0-18.32,0a4.57,4.57,0,0,0-1,.24c0,.69-.09,1.31-.09,1.92,0,1.52,0,3.06,0,4.58,0,5.14,0,10.27,0,15.4,0,.74-.23,1.54.42,2.3l2.2,0c3.75,0,7.51,0,11.24.12a17.85,17.85,0,0,1,13.63,7c4.79,6.06,5.91,12.91,3.7,20.23a19.76,19.76,0,0,1-19,14.06h-22.2a8.79,8.79,0,0,1-.24-2.93q0-42.78,0-85.56a8.18,8.18,0,0,0-.14-2.62c-.66-.55-1.39-.36-2.06-.36-5.06,0-10.13,0-15.19,0-3.47,0-6.94,0-10.41,0-.53,0-1.13-.15-1.67.53V116.69c0,.49,0,1,0,1.46S368.53,118.94,368.59,119.43Z"></path>
  <path class="cls-1" d="M694.65,105.4a53.06,53.06,0,0,0-.64-7.24c-1.87-11.22-7.9-19.35-18.29-24.12-2-.92-4.14-1.58-6.21-2.38a8,8,0,0,1-.81-.5c.85-.38,1.44-.7,2.08-.92a41.33,41.33,0,0,0,7.91-3.64A27.5,27.5,0,0,0,688.11,58a30.25,30.25,0,0,0,3.74-8.54c1.78-6.49,2-13.13,1.84-19.81,0-.19-.16-.36-.29-.64-.53,0-1.07-.08-1.61-.08-2,0-4,0-6,0-6.24,0-12.49,0-18.73,0a3.6,3.6,0,0,0-2.32.36c0,.65-.05,1.33-.07,2a64.84,64.84,0,0,1-.51,9.34,26.94,26.94,0,0,1-3.48,10,16.58,16.58,0,0,1-9.28,7.3,18.46,18.46,0,0,1-5.53.91q-6.86.06-13.73.08a6.17,6.17,0,0,1-1-.15,5.71,5.71,0,0,1-.23-2.51q0-25,0-49.95a6.35,6.35,0,0,0-.2-2.54,3.73,3.73,0,0,0-.75-.18l-27.9,0c-.18,0-.37.16-.7.31,0,.85,0,1.74,0,2.63q.09,47.44.16,94.9c0,.62,0,1.25,0,1.87v1c-.06,4.64-.12,9.29-.15,13.93a7.41,7.41,0,0,0,.23,1.22h29.21c0-.6.11-1,.12-1.41,0-1,0-2.08,0-3.12q0-14.57,0-29.14a5.26,5.26,0,0,1,.23-2.33,9.23,9.23,0,0,1,1-.12c3.6,0,7.22-.06,10.82,0A27.38,27.38,0,0,1,651.68,85c6.92,2.52,11.3,7.31,13,14.53a30.58,30.58,0,0,1,.7,6.81q0,5.73,0,11.45a13.65,13.65,0,0,0,.16,1.52,2.31,2.31,0,0,0,.54.16q13.32,0,26.64,0c.49,0,1,0,1.46,0a.47.47,0,0,0,.19-.06,3.06,3.06,0,0,0,.27-.21c0-.44.13-1,.13-1.52C694.72,113.59,694.76,109.48,694.65,105.4Z"></path>
  <path class="cls-1" d="M359.05,280.88c-12.33-4.62-24.67-9.21-37-13.86a4,4,0,0,0-3.34.2,367.19,367.19,0,0,0-37.08,19.7,293.24,293.24,0,0,0-51.34,39.5,172.4,172.4,0,0,0-16.9,18.63c-.42.54-1,1-1.08,1.79a4.67,4.67,0,0,0,2.42.25q46.72,0,93.44,0a7.85,7.85,0,0,1,.84,0,2.22,2.22,0,0,0,2.54-1.32,8.2,8.2,0,0,1,.68-1,189.78,189.78,0,0,1,15.5-20.34,197,197,0,0,1,25-23.75c4.28-3.42,8.7-6.64,13.08-9.93,2-1.53,4.13-3,6.44-4.68-1.42-.6-2.55-1.11-3.69-1.56Q363.81,282.65,359.05,280.88Z"></path>
  <path class="cls-1" d="M292.65,119.52q26.85,0,53.7,0c.68,0,1.36,0,2.14-.06a11.39,11.39,0,0,0,.19-1.5q0-10.71,0-21.43a8.2,8.2,0,0,0-.19-1.32c-.77,0-1.44-.09-2.12-.09q-19.87,0-39.76,0c-3.74,0-7.49,0-11.23-.16a18.39,18.39,0,0,1-10.26-3.6,21.1,21.1,0,0,1,0-34.23,25.12,25.12,0,0,1,4.58-2.43,12.84,12.84,0,0,1,3-.88,23.66,23.66,0,0,1,3.94-.36c7.35,0,14.71,0,22.07,0a9.39,9.39,0,0,1,1.25.18,5.05,5.05,0,0,1-.9,2q-3.7,6.27-7.42,12.53-2.43,4.11-4.9,8.2c-1.47,2.44-3,4.85-4.44,7.28-.22.39-.65.78-.23,1.38.36,0,.78.09,1.19.09h25a12.32,12.32,0,0,0,1.39-.15c.28-.41.54-.74.76-1.09,5.74-9,11.45-18,17.21-27a5.86,5.86,0,0,0,1-3.32c0-7.49,0-15,0-22.48,0-.54-.05-1.08-.11-1.91h-2.49l-38.3.05c-5.27,0-10.54,0-15.82,0a44.18,44.18,0,0,0-33.49,15.93,42.57,42.57,0,0,0-5.15,7.79,44,44,0,0,0-4.51,30.43A44.69,44.69,0,0,0,292.65,119.52Z"></path>
  <path class="cls-1" d="M177.42,119.51h53.91c.68,0,1.35-.06,2.09-.1a10.46,10.46,0,0,0,.15-1.13q0-10.92,0-21.86a8.57,8.57,0,0,0-.21-1.25c-.94,0-1.76-.06-2.59-.06H183.52c-1.18,0-2.36,0-3.53-.09a15.43,15.43,0,0,1-5.07-1.08c-7.53-3-12.17-8.5-13.37-16.45-1.25-8.2,1.71-15,8.24-20.16a17.09,17.09,0,0,1,5.89-3,23.58,23.58,0,0,1,6.15-.85c7.15-.09,14.29,0,21.45,0,.46,0,.92.07,1.49.12a4.29,4.29,0,0,1-.94,2.36c-3.58,5.94-7.18,11.86-10.75,17.8-2,3.39-4,6.8-6,10.21a6.51,6.51,0,0,0-.41,1c.55.06,1,.13,1.35.14,9.19.2,24.44.1,26.52-.19.19-.28.44-.61.66-1Q224,70.18,232.72,56.39a4.45,4.45,0,0,0,.74-2.52c0-7.71,0-15.41,0-23.11,0-.47-.07-.93-.11-1.4a5.23,5.23,0,0,0-2.35-.23q-18.42,0-36.85,0H176.43a38.42,38.42,0,0,0-8.87,1.06,43.75,43.75,0,0,0-27.09,18.61,46,46,0,0,0-5.24,10.35,45.19,45.19,0,0,0,42.19,60.31Z"></path>
  <path class="cls-1" d="M493.86,106a50.11,50.11,0,0,0,14.54,10.62,60.2,60.2,0,0,0,26.74,6,63.85,63.85,0,0,0,17.07-2.17,53,53,0,0,0,18.1-8.56,43,43,0,0,0,15.94-22.28,49.65,49.65,0,0,0,.45-27.71,42.31,42.31,0,0,0-9.83-18.08,46.16,46.16,0,0,0-16.06-11.28,64.94,64.94,0,0,0-24.09-5,68.89,68.89,0,0,0-16.93,1.68A50.64,50.64,0,0,0,496.05,41a41.06,41.06,0,0,0-10.88,15.52A48.82,48.82,0,0,0,482,80.63,43.77,43.77,0,0,0,493.86,106ZM535.2,50.72a24.25,24.25,0,1,1-24.36,24.43A24.18,24.18,0,0,1,535.2,50.72Z"></path>
</svg>
